<svg width="60" height="60" viewBox="0 0 60 60" xmlns="http://www.w3.org/2000/svg" xmlns:xlink="http://www.w3.org/1999/xlink"><title>logo_name_regru</title><desc>Created with Sketch.</desc><defs><path id="a" d="M46.692.06v22.627h-46.692v-22.627h46.692v22.627h-46.692v-22.626h46.692z"/><path id="c" d="M0 .079v16.948h9.672v-16.947h-9.672z"/><path id="e" d="M6.364 7.494v-7.484h-6.355v7.485h6.355z"/></defs><g fill="none"><path fill="#066BC7" d="M0 0h60v60h-60z"/><g id="Clipped" transform="translate(7 18.043)"><mask id="b"><use xlink:href="#a"/></mask><path d="M32.13 15.65c-.007-.495-.459-.918-.967-.904-.494.014-.914.448-.905.935.01.493.472.929.967.912.485-.016.912-.461.905-.942m14.53-6.518c-.444 0-.861.018-1.276-.006-.302-.017-.392.083-.39.384.013 1.412.014 2.824-.003 4.235-.011.893-.565 1.393-1.49 1.395-.908.001-1.472-.52-1.489-1.404-.017-.893-.01-1.786-.013-2.679-.002-.55.005-1.1-.008-1.65-.003-.091-.086-.256-.137-.258-.496-.02-.992-.012-1.48-.012l-.03.136c.002 1.589-.023 3.178.015 4.765.027 1.156.773 2.06 1.868 2.387.714.21 1.469.242 2.199.093 1.004-.193 1.755-.72 2.065-1.724.121-.39.18-.812.187-1.222.023-1.349.01-2.699.01-4.048l-.027-.392m-8.966 4.594c.271-.157.527-.264.733-.432.755-.613 1.011-1.683.663-2.662-.324-.907-1.158-1.49-2.166-1.497-1.086-.007-2.173.013-3.258-.012-.338-.007-.397.112-.394.41.013 1.245.006 2.49.006 3.736 0 .966.005 1.931-.002 2.897-.002.22.06.32.302.307.334-.018.669-.018 1.003 0 .254.014.353-.065.344-.33-.017-.518-.005-1.038-.005-1.557v-.694c.294 0 .534.014.772-.004.226-.018.358.07.48.256.462.704.94 1.398 1.417 2.092.06.088.156.214.239.217.567.02 1.135.01 1.795.01l-1.929-2.737m-36.352 5.683l.094-.002.088-.86c.126-1.341.247-2.684.376-4.026.116-1.197.242-2.393.362-3.59.124-1.248.25-2.495.366-3.744.018-.2.097-.308.277-.4 2.141-1.1 4.277-2.21 6.415-3.316.433-.224.47-.417.086-.733-.171-.132-.371-.22-.584-.258-.21-.04-.437-.007-.655.009-1.05.079-2.1.16-3.151.246-.853.07-1.707.127-2.557.224-.6.07-.893.452-.861 1.052l.076.837c.033.51-.233.862-.737.957-.183.034-.374.027-.56.036-.38.02-.404.051-.364.432.116 1.072.23 2.144.336 3.216l.385 3.995c.162 1.64.327 3.28.493 4.92l.115 1.004m.393 3.273c.286 0 .515.012.743-.003l1.152-.103 3.214-.237c1.436-.108 2.872-.222 4.308-.332.915-.07 1.831-.134 2.746-.208 1.363-.111 2.724-.236 4.087-.343 1.32-.103 2.643-.186 3.964-.287 2.06-.157 4.12-.323 6.18-.482.428-.033.434-.033.475-.475.125-1.343.247-2.686.377-4.029.116-1.207.242-2.414.363-3.621.126-1.258.252-2.517.375-3.775.106-1.074.2-2.149.317-3.221.034-.308-.059-.46-.356-.577-1.553-.606-3.097-1.236-4.644-1.858-2.485-1-4.97-1.995-7.452-3.004-.215-.101-.467-.088-.67.036-.93.495-1.87.967-2.805 1.451-3.508 1.816-7.013 3.637-10.527 5.442-.272.14-.378.315-.403.593-.086.97-.181 1.94-.272 2.91-.105 1.115-.206 2.232-.315 3.347l-.345 3.404c-.129 1.3-.255 2.6-.38 3.9l-.132 1.472" id="Shape" fill="#221F20" fill-rule="nonzero" mask="url(#b)"/></g><path d="M25.593 33.167l-.372-.018c-.96-.001-1.922-.012-2.882.006-.3.006-.385-.103-.37-.378.018-.332.018-.665 0-.997-.018-.294.101-.37.383-.366.856.016 1.713 0 2.57.01.216.003.302-.064.288-.283-.016-.218-.016-.436 0-.654.021-.254-.067-.344-.332-.34-.846.015-1.693-.007-2.538.013-.303.007-.384-.11-.37-.382.013-.28.002-.56.003-.84.002-.424.007-.43.442-.43l2.882-.003c.122-.001.3.058.304-.162l.001-1.088h-5.044l-.022.24c0 2.21.002 4.422-.006 6.634 0 .24.087.297.311.296 1.483-.008 2.967-.004 4.45-.006l.302-.026v-1.226zm7.788-4.481l-.432-.52c-1.002-1.101-2.77-1.29-4.178-.72-2.733 1.102-2.816 4.794-.878 6.292 1.57 1.213 4.046 1.075 5.412-.346.091-.108.142-.245.144-.386l.008-2.118c.005-.254-.094-.314-.332-.311-.919.011-1.838.003-2.758.005l-.271.025v1.253c.553 0 1.084-.005 1.615.003.094.002.226.023.274.086.13.17.003.759-.165.883-.748.555-1.945.584-2.713.057-.876-.6-1.104-1.471-1.002-2.46.143-1.39 1.582-2.356 2.904-1.91.434.147.803.482 1.254.764l1.118-.597zm-15.721 3.024l.253-.113c.496-.196.86-.543 1.002-1.046.111-.397.163-.808.155-1.22-.011-1.097-.878-1.993-1.974-2.041-1.147-.057-2.296-.036-3.444-.065-.269-.007-.332.088-.33.339.009 1.537.004 3.074.004 4.61 0 .655.007 1.31-.004 1.963-.003.217.072.297.29.287.27-.014.544-.021.814.002.289.024.353-.099.345-.36-.016-.571-.006-1.143-.005-1.714 0-.498 0-.499.485-.5.188 0 .377.014.564-.003.236-.022.38.06.504.27.418.706.858 1.4 1.296 2.094.05.08.139.191.213.194.505.016 1.01.008 1.583.008l-1.75-2.705h-.001zm-8.925 9.016l.132-1.472c.125-1.3.251-2.6.38-3.9l.345-3.404c.109-1.115.21-2.231.315-3.347.09-.97.186-1.94.272-2.91.025-.278.13-.453.403-.593 3.514-1.804 7.019-3.626 10.527-5.441.935-.484 1.876-.957 2.804-1.452.204-.124.456-.137.671-.035 2.481 1.008 4.967 2.004 7.452 3.003 1.547.622 3.091 1.252 4.644 1.859.297.116.39.268.356.576-.117 1.072-.211 2.147-.317 3.221-.123 1.258-.25 2.517-.375 3.775-.12 1.207-.247 2.414-.363 3.621-.13 1.343-.252 2.686-.377 4.029-.04.442-.047.443-.476.476l-6.179.482c-1.32.1-2.643.183-3.964.286-1.363.107-2.724.232-4.087.343-.915.075-1.83.138-2.746.208-1.436.11-2.872.224-4.308.332l-3.214.237-1.152.103c-.228.015-.457.003-.743.003z" id="Shape" fill="#FEFEFE" fill-rule="nonzero"/><g id="Clipped" transform="translate(7 20.426)"><mask id="d"><use xlink:href="#c"/></mask><path d="M1.343 17.027l-.115-1.004c-.166-1.64-.331-3.28-.493-4.92l-.385-3.994c-.108-1.073-.22-2.145-.336-3.217-.04-.38-.017-.412.363-.431.187-.01.378-.003.56-.037.505-.094.771-.446.738-.957l-.076-.837c-.032-.6.261-.983.861-1.051.85-.099 1.704-.156 2.557-.226 1.05-.085 2.1-.167 3.15-.246.22-.016.446-.05.656-.009.206.04.425.127.584.258.384.316.347.51-.086.733-2.138 1.106-4.274 2.216-6.415 3.316-.18.093-.26.2-.277.4-.116 1.249-.242 2.497-.366 3.744-.12 1.197-.246 2.393-.362 3.59-.13 1.342-.25 2.685-.376 4.027l-.088.86-.094.001" id="Path" fill="#FEFEFE" mask="url(#d)"/></g><path d="M41.924 30.465c.637 0 1.243.042 1.84-.012.532-.049.81-.457.781-.986-.026-.481-.353-.804-.88-.827-.5-.022-1.001-.018-1.502-.005-.081.002-.227.106-.229.166-.018.547-.01 1.094-.01 1.664m2.771 1.305l1.93 2.737c-.661 0-1.23.01-1.796-.01-.083-.003-.178-.129-.24-.217-.48-.692-.952-1.389-1.416-2.092-.122-.187-.254-.274-.48-.256-.238.018-.479.004-.772.004v.694c0 .52-.013 1.039.005 1.557.009.265-.09.344-.345.33-.334-.018-.668-.018-1.002 0-.242.014-.304-.086-.302-.307.007-.965.002-1.931.002-2.896 0-1.246.007-2.492-.006-3.738-.003-.297.056-.416.394-.409 1.085.025 2.172.005 3.258.012 1.009.007 1.842.59 2.166 1.498.348.978.092 2.048-.663 2.661-.206.168-.462.275-.733.432" id="Shape" fill="#FEFEFE" fill-rule="nonzero"/><g transform="translate(47.328 27.16)"><mask id="f"><use xlink:href="#e"/></mask><path d="M6.332.017l.027.391c.001 1.35.014 2.7-.01 4.049-.006.41-.065.832-.186 1.222-.31 1.003-1.06 1.53-2.066 1.724-.729.148-1.483.116-2.197-.093-1.096-.328-1.842-1.231-1.87-2.387-.037-1.588-.013-3.177-.014-4.765l.03-.136c.487 0 .984-.008 1.48.012.05.002.134.167.136.257.014.55.007 1.1.009 1.65.002.894-.004 1.787.013 2.68.017.885.58 1.405 1.488 1.403.926-.002 1.48-.501 1.49-1.394.018-1.412.016-2.824.004-4.236-.003-.3.087-.4.39-.383.414.024.831.006 1.276.006" id="Path" fill="#FEFEFE" mask="url(#f)"/></g><path d="M39.13 33.694c.007.481-.42.926-.905.942-.495.017-.957-.419-.967-.912-.01-.487.411-.92.905-.934.508-.014.96.408.967.904" id="Path" fill="#FEFEFE"/><path d="M14.77 29.533h-.001l-.002.747c-.006.203.063.308.287.304.47-.01.944.032 1.409-.018.296-.032.579-.138.822-.31.343-.255.39-.656.255-1.05-.156-.459-.536-.66-.99-.686-.51-.031-1.023-.008-1.535-.011-.17-.001-.248.077-.246.245v.779h.001zm2.891 2.176l1.751 2.706c-.572 0-1.078.008-1.583-.009-.074-.002-.163-.113-.213-.193-.438-.694-.878-1.388-1.296-2.094-.125-.21-.268-.292-.504-.27-.187.017-.376.003-.564.004-.485 0-.485 0-.485.499 0 .571-.011 1.143.005 1.713.008.262-.056.385-.345.36-.271-.019-.543-.019-.814-.001-.218.01-.293-.07-.29-.287.01-.654.004-1.308.004-1.962 0-1.537.005-3.074-.005-4.611-.001-.25.062-.346.33-.339 1.149.03 2.298.008 3.445.065 1.11.055 1.95.94 1.974 2.04.008.412-.044.824-.155 1.221-.142.503-.506.85-1.002 1.046l-.253.112zm7.932 2.684l-.302.026c-1.483.002-2.967-.002-4.45.006-.224.001-.311-.056-.31-.296.007-2.212.004-4.423.005-6.635l.022-.239h5.044l-.001 1.088c-.004.22-.182.161-.304.162-.96.004-1.921.001-2.882.002-.435 0-.44.007-.442.43 0 .28.01.562-.004.841-.013.272.068.389.37.382.846-.02 1.693.002 2.539-.012.265-.005.353.085.333.34-.016.217-.017.436-.001.653.014.22-.072.286-.289.283-.856-.01-1.713.006-2.57-.01-.28-.005-.4.072-.383.366.02.331.017.665 0 .997-.014.275.07.384.37.378.961-.018 1.922-.007 2.883-.006l.372.018v1.226z" fill="#066BC7" fill-rule="nonzero"/><path d="M14.77 29.533l-.001-.779c-.002-.168.076-.246.246-.245.512.003 1.025-.02 1.535.01.454.028.834.228.99.688.134.393.088.794-.255 1.048-.243.172-.526.278-.822.31-.465.051-.939.009-1.409.019-.224.004-.293-.101-.287-.304l.002-.747h.001z" fill="#FEFEFE"/></g></svg>