<svg width="60" height="60" viewBox="0 0 60 60" xmlns="http://www.w3.org/2000/svg" xmlns:xlink="http://www.w3.org/1999/xlink"><title>logo_name_blizzard</title><desc>Created with Sketch.</desc><defs><path id="a" d="M0 1.204h7.257v16.524h-7.257z"/><path id="c" d="M1.46.707h6.941v16.83h-6.941z"/><path id="e" d="M1.135.999h6.941v17.001h-6.941z"/></defs><g fill="none"><path fill="#0F5CC8" d="M0 0h60v60h-60z"/><g id="Clipped" transform="translate(10.5 20.294)"><mask id="b"><use xlink:href="#a"/></mask><path d="M4.5 3.012c-.33-.036-.635-.098-.924.031-.075.185-.093 2.678-.027 3.067h.387l.138-.191.267-.401c.083-.117.214-.192.357-.205l.322-.058c.088-.149.055-.29.033-.431l-.081-.486c.09-.117.138-.232.101-.349l-.15-.304c.03-.158.26-.225.173-.428l-.218-.01c-.189.015-.336-.027-.378-.236zm-1.612 13.075l.633-.153.165-.075.821-.639c.204-.151.321-.391.316-.645.017-.39.053-.78.189-1.159l.128-.453c.071-.236.06-.488-.03-.717l-.084-.21c-.12-.207-.099-.405.015-.609l.162-.339-.195-.214c-.123-.147-.18-.306-.117-.491l.098-.324c.067-.172.058-.365-.026-.529-.076-.147-.091-.318-.042-.476.056-.18-.019-.308-.17-.428-.336-.27-.661-.552-.993-.83-.048-.039-.083-.105-.18-.088l-.022.139-.045.952c.001.087-.016.174-.049.255-.074.154-.092.329-.05.495.038.203.06.405.027.612l-.053.441c-.074.108-.216.166-.248.312l.189.204.033 2.43-.267.341.086 1.688-.291.51zm-2.888-14.332l.025-.03c.102-.285.204-.315.547-.33l.293.018c.21.015.411-.01.615-.072.147-.045.314-.052.473-.058.726-.03 1.451-.063 2.175-.078.33-.007.657.023.984.032.159.004.285.054.36.186.097.18.262.263.477.294.591.09.855.471 1.008.935.05.153.054.32.072.482l.087.78c.045.411-.06.792-.282 1.151-.292.468-.598.927-.996 1.335-.105.105-.212.216-.184.396l.21.05.333.037c.207.033.285.135.247.32l-.06.198c-.065.234-.021.325.214.45l.072.036c.147.049.244.19.237.345l-.018.522-.064.726.002.15c-.003.13.058.225.189.288l.198.137c.057.855.024 1.702.045 2.527l-.06.085c-.2.157-.224.363-.204.582l.042.503c.028.33-.067.659-.267.922l-.168.24c-.176.24-.285.523-.316.819l-.083.423-.095.234-.563.237c-.372.173-.715.404-1.017.682-.175.169-.413.255-.655.237-.183-.013-.363.053-.494.181h-.189l-.182-.219h-.204l-.282.222c-.435-.064-.872-.027-1.313-.011-.244.005-.488-.004-.73-.026-.22-.018-.304-.067-.396-.201.016-.101.109-.112.195-.135l.276-.079c.162-.06.281-.201.312-.37.164-.756.244-1.528.238-2.301.011-.43-.017-.859-.083-1.284-.045-.263-.03-.534-.027-.803.003-.84.015-1.683.021-2.524 0-.102.039-.192.072-.288.087-.249.141-.501.038-.765-.042-.124-.064-.254-.065-.386-.014-.211-.016-.423-.004-.634.01-.141.055-.28.09-.42l.083-.27c.051-.234-.004-.345-.244-.48l-.02-.222.029-1.104.01-1.869v-.206l.188-.132c.06-.131.096-.26.002-.403l-.231-.01c-.339-.252-.724-.47-.963-.825v-.225z" id="Shape" fill="#fff" fill-rule="nonzero" mask="url(#b)"/></g><g id="Clipped" transform="translate(44.1 20.294)"><mask id="d"><use xlink:href="#c"/></mask><path d="M4.665 8.457c.143.126.165.291.162.463-.012.611-.022 1.223-.029 1.833l-.019 3.909.008.225c.009.074.022.149.12.18.102-.038.143-.117.183-.197.125-.251.253-.5.364-.755.051-.12.081-.249.087-.38.008-.233.073-.461.189-.663.238-.423.367-.867.364-1.347-.008-.786.024-1.572.032-2.358-.004-.185.06-.365.18-.505.107-.126.174-.282.191-.447.025-.168.08-.331.162-.48.065-.108.109-.228.13-.353.03-.234.045-.472.035-.708-.011-.272-.03-.545-.149-.806-.138-.336-.355-.634-.633-.867l-.24-.26c-.204-.252-.516-.393-.84-.38h-.42c-.075 0-.154-.005-.229.095l-.003.47c.006.655.015 1.309.016 1.963 0 .201.044.4.129.582.117.247.198.506.21.783zm-2.52-7.752c.147.034.284.088.416.157l.222.03c.1.015.212.02.303.058.312.135.637.251.885.486l.195.102c.198.058.397.113.6.159l.207-.004.327.009c.178.033.351.081.525.128l.186.081c.125.098.282.148.441.139.222-.006.436.078.594.234.099.095.216.175.333.253.139.087.243.22.294.375l.079.252c.06.146.112.296.194.43.095.142.148.308.154.478l.012.71.027.54.054.16c.15.195.175.417.188.642.033.442.025.886-.024 1.326-.012.113-.057.221-.129.309-.095.113-.142.258-.132.405l.043.652c.013.197-.047.392-.169.547l-.136.138c-.132.074-.219.209-.232.36-.036.285-.087.57-.087.855 0 .655.027 1.309.042 1.963l.003.449c.001.158-.043.313-.128.447-.054.105-.083.222-.084.341-.015.243-.008.486-.012.729.007.127-.03.253-.105.355-.042.056-.045.139-.054.21-.045.279-.062.561-.129.834-.147.595-.567.97-1.231 1.119-.196.045-.394.08-.594.105-.172.023-.33.057-.439.191h-.143c-.236-.219-.525-.21-.744-.006l-.549.075h-.329l-.075-.128.145-.136c.142-.103.248-.249.303-.416l.052-.142c.138-.273.093-.534-.062-.788-.06-.098-.141-.192-.048-.315.201-.115.521-.081.624-.36-.179-.102-.228-.26-.27-.428-.024-.093-.066-.18-.126-.255-.216-.261-.231-.555-.189-.856l.126-.852.107-.78c.047-.262-.012-.533-.165-.752l-.253-.39c-.134-.199-.198-.438-.18-.678l-.006-.55-.192-.123-.012-.521.006-.543c.006-.113-.021-.226-.078-.324l-.033-.199-.015-.879-.015-.147c-.075-.162-.063-.33-.065-.498-.009-.573-.019-1.146-.022-1.721l.021-.726.168-.105.01-.072-.038-.708.027-.165c.158-.303.11-.619.072-.934-.015-.123-.1-.215-.208-.292-.283-.201-.563-.408-.839-.62-.12-.09-.219-.204-.33-.31l.055-.113h.631z" id="Shape" fill="#fff" fill-rule="nonzero" mask="url(#d)"/></g><path d="M42.474 23.061l-.009.429-.002 3.195.01.339.062.195c.242.103.518.083.742-.054l.278-.198c.11-.072.183-.188.201-.318.025-.145.085-.281.177-.396.088-.109.136-.245.135-.386-.011-.156-.008-.311.114-.442l.041-.126.053-.39c.066-.322-.072-.585-.297-.822l-.055-.057-.768-.765c-.172-.172-.396-.216-.681-.204m-1.095 10.182l-.201-.2-.018-1.047.005-2.076c0-.531-.045-1.059-.198-1.575l-.045-.143c-.126-.195-.128-.405-.12-.616.01-.12-.015-.239-.072-.345-.092-.187-.141-.392-.144-.6-.02-.271-.027-.549-.078-.817-.071-.375-.174-.741-.269-1.112l-.093-.345c-.069-.333.041-.581.37-.739.34-.165.642-.375.915-.619.068-.06.148-.12.12-.225-.151-.151-.315-.18-.519-.082l-.255.123-.192-.323c-.174-.321-.45-.552-.785-.73-.146-.081-.308-.128-.474-.137l-.221-.049c-.07-.03-.129-.076-.099-.174l.105-.033.921-.015c.348 0 .698.006 1.047.014.138.012.276-.023.392-.099l.135-.061.188.123c.095.09.206.125.336.119l.336-.015c.201-.014.403.017.591.09l.29.111c.237.105.481.162.747.146.153-.004.305.031.441.102.242.119.459.264.624.461.352.415.633.865.806 1.365.105.303.109.6.009.9l-.08.27c-.054.167-.068.345-.039.519.029.161.008.327-.06.476-.153.37-.323.729-.611 1.035-.254.27-.55.477-.953.537l-.072.023c-.075.153-.072.175.017.334l.258-.03c.321.188.675.36.889.675l-.102.27.2.036.045.036c.203.223.315.513.315.814l.008.765.033.504c.025.232.126.42.4.492l.059.042.039.27c.008.405.057.809.13 1.209.031.137-.009.281-.105.384-.063.072-.13.15-.075.274l.336.057c.089.065.142.168.144.277l.015.876-.015.28c0 .375-.021.747-.087 1.117l-.212 1.161-.067.215-.131.204-.273-.057c-.3-.124-.576-.277-.78-.52l-.252-.251c-.142-.132-.329-.204-.522-.201l-.231-.006-.265-.045c-.047-.085-.05-.188-.008-.276l.2-.47.151-.267c.246-.39.306-.81.282-1.246-.019-.349-.043-.697-.073-1.046-.079-.781-.282-1.544-.603-2.261l-.234-.135.021-.361.077-.384c.064-.235.016-.487-.131-.683-.165-.23-.355-.445-.535-.668l-.072-.033-.084.144-.312.712c-.065.149-.024.296-.005.443.052.39.114.778.156 1.168.06.558.118 1.114.237 1.665l.03.34-.246.131c-.066.165.147.207.18.327.085.334.045.67.011 1.005l-.069.174c-.1.201-.114.396.042.584.111.135.094.298.099.45.011.224-.011.447-.019.66-.12.14-.18.321-.17.505l-.009.579c-.004.147-.015.175-.096.319l-.15-.291c-.165-.276-.327-.552-.503-.819-.128-.185-.293-.343-.484-.462l-.78-.503-.201-.135c-.099-.081-.147-.18-.1-.301.094-.248.18-.498.285-.741l.513-1.164c.055-.123.099-.248.048-.38" id="Shape" fill="#fff" fill-rule="nonzero"/><g transform="translate(32.34 20.294)"><mask id="f"><use xlink:href="#e"/></mask><path d="M4.26 7.641l.03.33c.043.201.061.393-.074.576l-.043.16-.021 1.12.015.131c.357-.005.708-.056 1.05.061l.108.135.015-.018.559.345.32-.018c.033-.79.03-1.559.004-2.313l-.151-.081-.046-.765-.162-.03-.149-.165-.112-.009c-.198.03-.317-.06-.397-.207l-.09-.149-.221-.337c-.103.273-.075.528-.087.724l-.245.471-.301.037m-1.86 1.416l.24-.082c-.021-.123-.153-.084-.228-.165-.054-.13-.05-.294-.055-.453-.008-.135.015-.274.036-.41.02-.148.092-.284.202-.384.204-.188.246-.411.189-.657-.025-.101-.012-.208.038-.3l.102-.079c.195-.081.237-.234.248-.402l.014-.449c.006-.117.015-.237.045-.351.046-.203.154-.385.311-.522.129-.108.179-.236.12-.388-.054-.144-.011-.266.083-.386.07-.091.128-.191.171-.297.072-.191.171-.369.291-.537l.135-.21c.083-.121.109-.273.071-.415l-.015-.129c-.021-.159.051-.279.198-.365l.143-.08c.192-.096.273-.24.24-.435l-.024-.168c-.027-.262.267-.463.543-.372.105.033.183.095.201.198l.032.24c-.014.23.081.426.222.61l.304.405c.084.12.159.248.15.399-.03.53.15 1.02.349 1.506.108.263.21.527.297.795.053.168.072.345.099.516.04.27.153.516.255.765l.176.121-.03.222c-.069.162-.038.349.079.48.197.231.24.495.216.776-.04.482-.015.962.108 1.431.074.27.111.54.112.813.009.936.006 1.872.009 2.806-.004.1-.039.196-.099.276-.174.272-.296.574-.359.891l-.033.165c-.014.118-.086.222-.191.277-.129.069-.169.175-.162.303l.02.354c.011.164-.026.328-.107.471l-.236.457c-.078.138-.11.297-.093.454.024.156.008.3-.147.39-.124.25.062.525-.109.765-.132.081-.29.108-.441.076-.034-.107-.044-.219-.03-.33.06-.413.012-.809-.18-1.19l-.108-.262c-.087-.175-.123-.371-.102-.566.045-.307-.086-.531-.369-.699l-.275-.202c-.126-.093-.182-.254-.141-.405.045-.188.138-.361.27-.502.252-.274.444-.598.563-.951.054-.147.093-.3.127-.45.056-.245-.034-.443-.255-.593l-.099-.069c-.487-.319-1.035-.537-1.593-.78l-.134.181.072.129c.06.078.066.162.051.251l-.045.258c-.03.171.034.305.193.405l.309.203c.091.248-.124.457-.364.477-.132.011-.267.015-.397-.005-.427-.074-.866-.015-1.259.168l-.6.265c-.147.072-.314.092-.474.057l-.105-.174c-.027-.115-.04-.232-.04-.349-.003-.108.054-.192.161-.246l.091-.045c.195-.084.284-.214.249-.408l-.002-.057c-.012-.255.027-.313.285-.415.115-.045.237-.082.28-.228-.071-.236-.038-.488 0-.743l-.007-.315-.027-.298c-.004-.086.015-.164.09-.221.113-.084.138-.198.135-.321l-.01-.299.022-.201" id="Shape" fill="#fff" fill-rule="nonzero" mask="url(#f)"/></g><path d="M20.271 35.97l.24.065-.02.289c.221.074.447.089.677.078l.293-.027c.18-.026.357-.06.477-.204.159-.195.37-.21.597-.117.231.096.473.15.727.15.208.002.416-.013.621-.045.112-.027.217-.076.309-.144.113-.078.247-.121.384-.124.468-.012.936-.036 1.402-.039.938-.005 1.87-.002 2.806 0l.7.024c.119.142.113.283.101.427l-.069.855.005.282c0 .116.046.227.128.309.09.1.18.204.189.334-.05.075-.126.075-.191.075h-1.821l-.177-.246-.224.02c-.108.028-.223.015-.322-.036l-.093-.042c-.274-.153-.578-.165-.888-.15-.306.018-.613.015-.921.02l-.171-.017-.177-.212-.462-.03-2.115.006c-.349 0-.699 0-1.048-.011-.11-.004-.217-.029-.318-.072-.276-.125-.567-.132-.86-.105-.145.013-.282.073-.39.171l-.208.209c-.231.293-.555.373-.936.343-.188-.016-.376-.023-.564-.023l-.317.045c-.126-.039-.224-.137-.262-.262.054-.123.165-.189.276-.255l.345-.174.28-.162c.16-.108.243-.251.233-.435l-.002-.425.204-.114.015-.174-.186-.05c-.075-.348-.082-.707-.021-1.057l.161-.137v-.492l.228-.108.027-.225-.386-.221-.042-.181c-.006-.549-.003-1.096-.003-1.65l.183-.108c.011-.318-.02-.649-.02-.983l.225-.095.027-.168-.021-.579-.033-.78.174-.122c.072-.192.072-.261-.008-.441l-.137-.078-.022-.049c-.011-.18-.03-.36-.027-.54l.026-.936-.018-.627-.165-.099c-.065-.339-.056-.687-.06-1.05l.396-.231c.043-.304.036-.613-.023-.915l-.223-.181c.048-.093.07-.192.135-.256.184-.183.189-.393.156-.615l-.051-.117-.262-.456c-.285-.069-.28-.072-.491-.279l-.345-.297-.198-.168c-.068-.061-.092-.157-.063-.243.057-.197.192-.255.439-.177l.114.159c.201.049.405.008.613-.006l.354-.02c.135-.003.242.039.318.146l.145.145h.344l.132.105.411.399c.113.106.178.254.18.409.012.348.003.696.003 1.05l-.147.072c-.075.132-.024.254.048.375l.165.074c.093.084.119.364.056.663l-.156.073-.022.049c-.029.668-.085 1.334-.03 2 .023.243.042.486.052.727.005.116.045.209.15.273.141.084.18.201.195.349.075.748.011 1.494-.033 2.241l-.008.188c0 .163-.039.324-.114.47l-.055.252v.318c0 .282-.003.282.206.492l.052.694c-.142.162-.445.234-.334.525l.111.081c.063.104.055.237-.021.333l-.195.103.075.615-.168.095c-.081.322.079.642-.024.952l-.243.251m11.616-8.316l.233-.184-.003-.352c-.032-.179.038-.362.18-.476l.127-.123c.107-.094.167-.231.165-.373v-.075c-.038-.39.101-.748.284-1.095.145-.295.325-.571.535-.822.162-.182.257-.414.27-.657l.042-.327c-.072-.104-.175-.081-.268-.072l-.287.055c-.09.018-.18.02-.265-.041l-.165-.222-.45.003c-.227.014-.424.161-.503.375-.119.276-.191.571-.212.871-.006.192-.045.383-.081.573-.01.092-.063.173-.142.221l-.62.326-.16-.05c-.059-.088-.081-.195-.061-.299.029-.179.021-.363-.024-.538v-.195l.195-.082.017-.2-.023-1.495-.008-.674.052-.2.243-.012 1.006-.003 3.771-.021.309.037c.136.033.195.116.172.24l-.075.252c-.112.219-.219.445-.42.618-.12.102-.148.237-.154.376l-.009.336c-.001.128-.085.241-.207.279l-.091.045c-.133.053-.181.147-.177.272l.017.3-.033.206-.264.072c-.097.141-.097.3-.117.452l-.012.262c-.005.222-.073.437-.197.621-.092.138-.137.301-.127.466l.021.692.011.541c0 .102-.034.201-.098.28l-.12.236-.154.522c-.027.127-.097.241-.198.323l-.099.117.024.285c.035.159-.026.28-.154.383l-.081.06c-.207.112-.279.291-.282.492l.018.711.014.747c-.005.16-.063.313-.165.437-.194.253-.275.575-.225.889.054.379-.04.764-.263 1.075-.127.175-.226.368-.295.573-.038.124-.12.24-.184.355-.057.105-.086.21-.012.315.315.098.84.071 1.101-.063v-.328l.224-.147.563-.244 1.062-.443c.165-.071.312-.16.387-.322l.127-.128.153.168c.299.071.603-.09.885.035.092.149.131.324.109.498l-.171.052-.023.053c-.032.143-.004.293.078.414l.05.12c.054.467.067.933 0 1.4-.024.159-.099.21-.281.21l-1.928.015h-.154l-.097-.147c-.237-.078-.491-.093-.735-.042-.08.015-.155.051-.216.105-.147.127-.337.193-.531.184l-.669.006c-.263-.013-.526.038-.765.15-.126.063-.292.077-.442.09-.113.015-.226-.026-.303-.11-.081-.312-.049-.643-.002-.979l.204-.05.105-.27-.139-.081c-.041-.163-.008-.236.142-.305.237-.108.244-.129.209-.363l-.017-.249.192-.018.021-.195-.006-.393c0-.093-.003-.186.06-.269l.03-.105c.015-.189.033-.375.031-.561.005-.139-.032-.277-.105-.396-.088-.132-.143-.282-.161-.44-.076-.64-.111-1.281.023-1.918.088-.423.274-.822.448-1.221.09-.209.171-.42.336-.599l.096-.186c.069-.127.046-.283-.056-.386-.058-.066-.104-.135-.055-.247M29.13 22.599l-1.572.036c-.124.002-.244.046-.34.124-.132.11-.27.218-.387.341-.131.139-.234.294-.21.495l-.043.175-.293-.033c-.137.045-.207.16-.233.293-.019.123-.026.248-.021.372l.015.616-.018.215-.184.135.042.258c-.132.067-.242.042-.372.009l.002-.186c.025-.092.006-.191-.053-.267-.073-.104-.118-.225-.132-.351l-.063-.33c-.025-.12-.039-.236.041-.344l.026-.07c.02-.247.033-.495-.078-.738l-.2-.07-.011-.15.002-1.086.029-.183c.027-.119.114-.18.241-.204l.166-.015c1.383 0 2.766.002 4.146.005l.099.009c.081.271-.027.543.015.826l.153.099c.087.872.006 1.736-.024 2.595l-.132.156.002.34c.011.191-.046.38-.161.532l-.133.191c-.118.151-.202.324-.247.51-.039.168-.115.325-.222.46-.119.142-.178.325-.166.51v.279c.001.1-.032.197-.093.276l-.264.023-.225.165c-.164.119-.243.324-.2.522l.026.317-.035.123-.244.069c-.176.222-.321.467-.432.727-.189.454-.373.912-.552 1.369-.288.735-.569 1.47-.851 2.205l-.04.106c-.048.107-.024.195.078.26.129.027.231-.027.315-.087.3-.214.645-.337 1.017-.414.234-.043.433-.196.535-.411l.072-.135c.094-.198.255-.357.454-.449l.36-.191c.153-.089.276-.192.229-.381l.02-.126c.087-.086.172-.075.267-.06.111.018.227.075.351-.006l-.031-.222h.186l.052-.372c.163-.048.34-.016.476.087l.042.66-.359.541c-.041.07-.062.15-.063.231l.017 1.14c0 .243-.015.486-.026.727l-.037.068h-.375l-.06.237-.133.021c-.551 0-1.103-.003-1.655-.008l-.049-.019-.032-.176c-.157-.048-.327-.025-.465.063l-.125.237h-.454l-.213-.285-.408-.008-.563.042-.308-.009c-.12-.1-.105-.21-.133-.315l.189-.117c.1-.293-.008-.611.072-.925l.169-.102c.064-.108.09-.218-.011-.336l-.225-.075c-.111-.078-.144-.178-.112-.312l.246-.171c-.03-.171-.18-.266-.25-.401-.03-.255.034-.507.087-.758l.282-1.245c.04-.194.133-.374.27-.517l.145-.161c.144-.147.247-.329.3-.528l.066-.195c.09-.234.191-.462.47-.537.098-.099.095-.198.089-.299-.032-.567.211-1.059.535-1.524.06-.082.151-.147.235-.21.245-.197.452-.437.611-.708.093-.138.119-.311.069-.47l-.03-.184c-.017-.102.016-.205.09-.277l.242-.258c.206-.225.414-.453.613-.686.127-.145.186-.337.165-.528l-.021-.354-.051-.222m-8.055-.712c.061-.112.18-.182.308-.18.258-.009.516-.009.774-.007l1.275.022h.546l.224.039c.101.036.139.12.117.216l-.048.142c-.039.11-.119.174-.247.206-.296.07-.501.315-.5.588v.135l.153.129.093.126c-.022.173-.175.255-.249.39v.216l.014 1.065c.014.91.027 1.821.048 2.73.003.12.045.245.075.366.064.284.046.321-.236.465-.067.69.063 1.374.157 2.061l-.295.291v.282l.111.153.024.517.082.342.062.27.003.815-.242.319.087.588.33.186.609.328c.13.068.206.207.192.352-.008.141-.085.2-.243.189l-.188-.023c-.113-.029-.233-.018-.339.033l-.046-.008c-.276-.166-.585-.135-.891-.117l-.52.049c-.151.003-.295.066-.399.176l-.189.145-.126.036c-.213-.17-.236-.315-.054-.486.141-.135.308-.251.534-.429.108-.153.161-.338.15-.525-.009-.334.006-.67.015-1.008.003-.212-.015-.428.178-.608l-.186-.2.003-.422.055-.216c.064-.15.096-.311.095-.474-.015-1.266-.03-2.532-.048-3.797-.009-.736-.021-1.471-.039-2.206-.018-.81-.054-1.62-.06-2.43-.003-.233-.197-.408-.437-.411-.214-.012-.42-.087-.592-.215-.087-.057-.09-.067-.14-.21" fill="#fff" fill-rule="nonzero"/></g></svg>