<svg width="60" height="60" viewBox="0 0 60 60" xmlns="http://www.w3.org/2000/svg"><title>logo_name_skillbox</title><desc>Created with Sketch.</desc><g fill="none"><path d="M0 0h60v60h-60z" fill="#000"/><path d="M56.105 35.303h-1.422l-2.443-2.918-2.407 2.918h-1.42l3.135-3.755-2.953-3.537h1.421l2.261 2.698 2.261-2.698h1.422l-2.953 3.537 3.099 3.755-.001.001zm-12.068.364c-1.065.003-2.087-.418-2.84-1.171-.753-.753-1.174-1.775-1.171-2.84-.003-1.065.419-2.086 1.171-2.839.753-.753 1.774-1.174 2.839-1.171 1.065-.003 2.086.419 2.839 1.171.753.753 1.174 1.774 1.171 2.839.003 1.065-.418 2.087-1.171 2.839-.753.753-1.775 1.175-2.839 1.172h.001zm0-6.928c-1.61.004-2.913 1.308-2.917 2.918.005 1.609 1.309 2.912 2.917 2.916 1.609-.005 2.911-1.308 2.916-2.917-.005-1.609-1.308-2.912-2.917-2.917h.001zm-9.298 6.745c-2.26 0-2.916-.547-2.916-.547v-10.573h1.093v3.828c.401-.182.984-.364 1.822-.364 2.224 0 4.011 1.605 4.011 3.828 0 2.224-1.787 3.829-4.011 3.829zm0-6.563c-.765 0-1.385.291-1.822.583v4.521s.584.364 1.822.364c1.605 0 2.918-1.13 2.918-2.735 0-1.604-1.313-2.734-2.918-2.734zm-6.563-4.558h1.094v10.938h-1.094v-10.938zm-3.645 0h1.094v10.938h-1.094v-10.938h.001zm-3.136 1.641c-.51 0-.911-.401-.911-.912 0-.51.401-.911.911-.911s.911.401.911.911-.401.912-.911.912zm-3.61 9.296l-3.828-3.828 3.463-3.463h1.532l-3.463 3.463 3.828 3.828h-1.532zm-4.921 0v-10.937h1.093v10.938h-1.093v-.001zm-1.751-2.989c0 1.822-1.458 3.135-3.755 3.135-1.495 0-2.662-.728-3.537-1.567l.766-.838c.729.692 1.567 1.349 2.735 1.349 1.313 0 2.698-.729 2.698-2.042 0-1.093-.875-1.786-2.661-2.333-2.078-.62-3.099-1.495-3.099-3.099s1.349-2.88 3.281-2.88c1.421 0 2.332.619 3.208 1.385l-.765.838c-.766-.693-1.495-1.13-2.407-1.13-1.094 0-2.187.729-2.187 1.75 0 .948.547 1.532 2.442 2.115 1.714.51 3.281 1.348 3.281 3.317zm10.865 2.989h-1.094v-7.291h1.094v7.291z" fill="#fff" fill-rule="nonzero"/></g></svg>