<svg width="60" height="60" viewBox="0 0 60 60" xmlns="http://www.w3.org/2000/svg"><title>logo_name_henderson</title><desc>Created with Sketch.</desc><g fill="none"><path fill="#1B2A4D" d="M0 0h60v60h-60z"/><g fill="#fff"><path d="M37.064 37.155h-4.05v-5.558h-6.122v5.558h-4.05v-14.222h4.05v5.086h6.122v-5.086h4.05z"/><path d="M47.708 31.786l1.789-1.79-1.79-1.79-1.507-1.507c1.225-1.601 1.884-3.579 1.884-5.651.01-2.476-.969-4.854-2.72-6.605-1.751-1.751-4.129-2.73-6.605-2.719-2.072 0-4.05.659-5.651 1.883l-1.508-1.508-1.694-1.601-1.79 1.79-1.412 1.508c-1.601-1.225-3.579-1.884-5.651-1.884-2.476-.011-4.854.968-6.606 2.719-1.751 1.751-2.73 4.129-2.72 6.605 0 2.072.66 4.05 1.884 5.651l-1.507 1.508-1.789 1.79 1.79 1.79 1.507 1.507c-1.225 1.601-1.884 3.579-1.884 5.651-.01 2.476.969 4.854 2.72 6.605 1.751 1.751 4.129 2.73 6.605 2.719 2.072 0 4.05-.659 5.651-1.883l1.507 1.507 1.79 1.79 1.79-1.79 1.508-1.508c1.601 1.225 3.578 1.884 5.651 1.884 2.476.011 4.854-.968 6.605-2.719 1.751-1.751 2.73-4.129 2.72-6.605 0-2.072-.66-4.05-1.884-5.651l1.319-1.695.001-.001zm-2.072 7.159c.007 1.801-.705 3.53-1.978 4.803-1.273 1.273-3.003 1.985-4.803 1.978-1.884 0-3.674-.848-4.898-2.072l-.754-.754-3.203 3.203-3.296-3.203-.754.754c-1.291 1.384-3.1 2.168-4.992 2.166-1.801.008-3.53-.704-4.804-1.978-1.273-1.273-1.985-3.003-1.978-4.804 0-1.883.754-3.674 2.072-4.898l.848-.848-3.203-3.203 3.203-3.203-.753-.848c-1.319-1.225-2.072-3.014-2.072-4.897-.008-1.801.704-3.53 1.978-4.804 1.273-1.273 3.003-1.985 4.804-1.978 1.978 0 3.673.848 4.897 2.072l.754.753 3.203-3.203 3.203 3.203.848-.848c1.224-1.319 3.014-2.072 4.898-2.072 1.801-.008 3.53.704 4.804 1.978 1.273 1.273 1.985 3.003 1.978 4.804 0 1.978-.847 3.674-2.072 4.897l-.848.942 3.203 3.203-3.203 3.108.753.754c1.319 1.319 2.167 3.014 2.167 4.992z" fill-rule="nonzero"/></g></g></svg>