<svg xmlns="http://www.w3.org/2000/svg" width="80" height="80" xmlns:xlink="http://www.w3.org/1999/xlink"><defs><circle id="a" cx="40" cy="40" r="40"/><linearGradient id="b" x1="-7.436%" x2="88.789%" y1="20.166%" y2="81.952%"><stop stop-color="#FFF000" offset="0%"/><stop stop-color="gold" offset="59.76%"/><stop stop-color="#FC0" offset="100%"/></linearGradient><linearGradient id="c" x1="35.806%" x2="137.122%" y1="49.69%" y2="33.253%"><stop stop-color="#F0B200" offset="0%"/><stop stop-color="#FFD900" offset="100%"/></linearGradient></defs><g fill="none" fill-rule="evenodd"><use fill="#F3F3F3" xlink:href="#a"/><g fill-rule="nonzero" transform="translate(21 11)"><path fill="url(#b)" d="M27.322.128L3.39 15.524A7.197 7.197 0 0 0 .08 21.59L.03 46.354A3.642 3.642 0 0 0 3.667 50h31.65a2.91 2.91 0 0 0 2.905-2.905V21.146c0-1.087-.88-1.976-1.976-1.976H27.61L27.668.316a.223.223 0 0 0-.346-.188z"/><path fill="url(#c)" d="M38.211 38.429L8.024 46.077c-.692.178-1.097-.75-.504-1.146l20.06-13.123.009-12.638h9.002c.9 0 1.62.721 1.62 1.62v17.64z"/><ellipse cx="18.952" cy="21.164" fill="#171717" transform="rotate(-49.189 18.952 21.164)" rx="3.844" ry="2.5"/></g></g></svg>