<svg width="60" height="60" viewBox="0 0 60 60" xmlns="http://www.w3.org/2000/svg"><title>logo_name_skype</title><desc>Created with Sketch.</desc><g fill="none"><path fill="#00AFF0" d="M0 0h60v60h-60z"/><path d="M46.726 32.955l-.032.19-.061-.363.093.173c.186-1.012.283-2.047.283-3.082 0-2.295-.45-4.52-1.337-6.617-.853-2.02-2.09-3.855-3.643-5.403-3.184-3.193-7.51-4.985-12.019-4.978-1.082 0-2.165.101-3.219.303l-.008.002.177.091-.357-.056.18-.035c-1.453-.773-3.074-1.178-4.72-1.18-2.67-.007-5.232 1.054-7.115 2.948-1.893 1.883-2.955 4.446-2.948 7.116 0 1.711.44 3.393 1.266 4.88l.03-.186.062.356-.092-.17c-.169.968-.255 1.948-.256 2.93 0 2.294.45 4.52 1.337 6.616.852 2.02 2.089 3.855 3.642 5.403 1.548 1.553 3.384 2.79 5.404 3.642 2.093.888 4.344 1.343 6.617 1.338.999 0 2-.09 2.977-.264l-.173-.095.363.064-.19.03c1.51.855 3.216 1.304 4.951 1.305 2.67.008 5.232-1.054 7.114-2.947 1.894-1.882 2.956-4.445 2.948-7.115 0-1.717-.442-3.404-1.274-4.896zm-16.648 7.329c-6.04 0-8.741-2.97-8.741-5.194 0-1.142.842-1.942 2.004-1.942 2.584 0 1.915 3.711 6.737 3.711 2.468 0 3.832-1.34 3.832-2.712 0-.825-.407-1.74-2.033-2.14l-5.372-1.34c-4.326-1.086-5.11-3.424-5.11-5.623 0-4.564 4.297-6.278 8.333-6.278 3.717 0 8.1 2.055 8.1 4.793 0 1.173-1.016 1.856-2.177 1.856-2.206 0-1.8-3.053-6.242-3.053-2.205 0-3.426.998-3.426 2.427 0 1.426 1.74 1.881 3.253 2.226l3.976.882c4.355.97 5.46 3.513 5.46 5.908 0 3.71-2.848 6.479-8.594 6.479zm2.736 6.23l.173.095.19-.03-.363-.065zm13.88-13.369l.032-.19-.093-.173.061.363zm-33.398-6.387l-.03.185.092.171-.062-.356zm13.664-13.487l-.177-.091-.18.035.357.056z" fill="#fff" fill-rule="nonzero"/></g></svg>