<svg width="60" height="60" xmlns="http://www.w3.org/2000/svg"><g fill="none"><path d="M30 0c16.569 0 30 13.432 30 29.995v.01c0 16.566-13.428 29.995-30 29.995-16.569 0-30-13.428-30-30 0-16.569 13.428-30 30-30z" fill="#FFDA32"/><path d="M7.556 10.103c14.49-1.228 30.39-1.275 44.893 0-5.494-6.198-13.518-10.103-22.446-10.103-8.935 0-16.953 3.905-22.447 10.103zm45.188 39.452c-14.075 1.092-30.805 1.169-45.49 0 5.504 6.395 13.654 10.445 22.75 10.445 9.095 0 17.24-4.049 22.741-10.445zm-51.76-27.18c19.516-.345 38.543-.401 58.037 0a30.243 30.243 0 0 1 .24 14.273c-19.74.572-39.19.425-58.518 0a30.244 30.244 0 0 1-.743-6.65c0-2.634.342-5.187.984-7.623z" fill="#000"/></g></svg>