<svg width="60" height="60" viewBox="0 0 60 60" xmlns="http://www.w3.org/2000/svg"><title>logo_name_rendez-vous</title><desc>Created with Sketch.</desc><g fill="none"><path fill="#E41684" d="M0 0h60v60h-60z"/><path fill="#000" d="M22.194 13.505h15.601v39.671h-15.601z"/><path d="M38.572 39.275l-.222-.074c-.444-.222-.739-.666-.998-1.11-.148-.074-.333-.443-.407-.591-.037-.038-.259-.259-.185-.259 0-.222-.776-1.59-.887-1.886l-.184-.407c0-.259-.37-.814-.481-1.11-.038-.074-.038-.184-.111-.258l-.555-1.11c-.158-.272-.293-.556-.407-.85-.405-.825-.751-1.677-1.035-2.551-.074-.038-.111-.333-.148-.407v-.037c-.185-.444-.296-.962-.444-1.405-.074-.444-.259-.851-.37-1.295h-.038v-.037h.038c-.185-.555-.333-1.146-.48-1.738-.112-.222-.223-.628-.223-.887-.037-.073-.184-.887-.221-.924-.185-1.073-.444-2.182-.481-3.291l-.111-1.774c.074-.148.038-.443 0-.629 0-.332-.074-.924.074-1.22-.111-.37-.038-.813 0-1.183 0-.074 0-.074.073-1.22.074-.111.148-.37.259-.406l.074.776h.038l.073.148h-.074l.148 1.147-.111.776c.222.702.222.702.222.739l-.111.073c.038.333.259.703.074 1.073 0 .259.111.517.296.739h.038c-.038-.444-.185-.962-.185-1.442l.074.185.184 1.146c0 .443 0 .887.111 1.331.259.777.592 1.552.703 2.404.074.111.074.629.184.702.517 2.034 1.368 3.993 2.033 5.953l.296.776c.295.628.48 1.368.887 1.923l.037-.038c0 .222.258.555.369.739.038 0 .038 0 .185.333h.037v.074c.111.222.259.444.333.666h.037c0 .148.184.518.259.702.111.37.184.703.184 1.11l.111.406h.038c0 .148.148.555.296.629h-.038c0 .11.296.407.333.443h.111l-.037-.259h.075c.221 1.183 1.257 1.701.887 2.995l-.185.259c-.184.074-.259.148-.443.148m-4.252-2.329l.038-.185c-.111-.184-.111-.295-.296-.443-.037.073 0 .11.075.148.036.148.074.332.184.48m-13.495-.443l.073-.074c.111 0 .185.074.222-.11l.074-.111c.221-.148.332-.296.48-.555.296-.073.517-.259.703-.555l.222-.221c.038-.074.111-.295.184-.295v-.038h.038v-.074c.037-.074.184-.074.184-.185l.111-.037v-.037h.038c.221-.148.442-.332.702-.407v-.037l.111-.037c.148-.221.37-.443.555-.628l.591-.444c.184-.074.443-.296.628-.296v-.037c.074 0 .074 0 .184-.074.296-.074.629-.184.962-.296.427-.074.86-.111 1.294-.111.149.074.925.074.925.296.148-.111.333.148.517.111.074.038.184.074.259.148.629.074.962.739 1.516.998-.073-.074-.222-.296-.332-.296v-.037c-.075 0-.111-.074-.149-.11.149-.038.296.073.333.259.111.111.222.148.333.221v.111l.296.185c.111.111.222.332.333.48.295.259.702.629.739.629-.038-.259-.111-.518-.333-.666-.111-.148-.333-.591-.518-.628-.222-.48-.85-.998-1.183-1.331l-.443-.37-.518-.37c-.444-.148-.814-.406-1.257-.481-.37-.148-.814-.148-1.22-.148l-.038.038c-.221-.038-.48.073-.665 0v.036h-.148l-.518.149-.037-.038-.073.074h-.038c-.037.073-.184.073-.258.073v.038c-.666.111-1.442.776-1.997 1.22h-.038c.038-.074.074-.148.149-.221 0-.185.332-.703.48-.887v-.074l.074-.074v-.037c.038-.073.074-.148.148-.222-.037-.111.148-.332.185-.406v-.184l.37-.518.259-.555c.037-.184.073-.37.221-.48l.739-1.553c.074-.259.222-.739.407-.962.073-.222.148-.443.259-.665.111-.37.259-.739.37-1.073l.221-.665c.185-.555.37-1.146.518-1.738l.111-.259v-.038c.111-.406.296-.85.37-1.256.074-.111.185-.518.185-.666.148-.518.333-1.073.443-1.627.037-.111.111-.443.148-.48.443-1.627.776-3.328.924-5.029.148-.998.296-1.997.518-2.958.037-.148.037-.665.148-.776.038-.924.038-1.885.038-2.809-.038-.407-.185-.851-.555-.962-.37-.038-.518.148-.776.37-.038.111-.148.406-.259.444l.037.074-.037.037c-.038.518-.111 1.035-.185 1.553-.037.148-.11.333-.11.48l.073-.11h.074l.074.148c0 .555-.037 1.146-.221 1.663l-.111.222c-.222.406-.407.851-.444 1.368-.111.074-.184 1.849-.184 1.886 0 .111-.038.925-.074.962 0 .073-.111 1.035-.222 1.109l-.184 1.146c-.148.259-.185.703-.259.997l-.296 1.221c-.073.702-.296 1.442-.48 2.144-.038.184-.111.37-.111.555-.037.184-.222.924-.259.96 0 .038 0 .038-.296 1.073h-.038l.038.148c-.111.184-.111.628-.296.702v.037h.038l-.075.296c-.037.148-.11.776-.148.813-.037.296-.148 1.035-.332 1.258 0 .037-.111.259-.148.296-.296.517-.481 1.146-.629 1.738h.038l.148-.444c.119-.247.206-.507.259-.776l.038-.074c.073.185 0 .518-.038.703-.111.074-.259.148-.259.295-.111.222-.111.518-.185.74h-.037v-.037c-.184-.074-.184.703-.222.851-.148.222-.332.48-.48.739-.038.148-.111.332-.111.48l-.074.148.037.038-.112.332h-.037c.074.222-.222.591-.222.851l.038.037.073-.038c-.111.148-.221.26-.406.26v.037h.037c-.037.111-.148.148-.259.148v.074l-.037-.038c.111-.184.111-.48.259-.665h.074c-.074-.074.111-.148.148-.184.038-.259.111-.517.111-.777h-.074c-.111.222-.259.481-.37.739-.073.185-.332.555-.332.703-.075.222-.222.665-.444.739-.148.296-.407.555-.592.851-.222.221-.443.924 0 1.035l-.037.148c-.258.222-.258.222-.443.444-.075.148-.148.184-.222.296m12.755-.517c.037-.259-.296-.444-.407-.592.074-.148-.221-.333-.295-.443-.038-.222-.184-.333-.37-.37.038.221.407.555.555.702.184.222.332.444.517.703m.074-.444h.038l-.038-.111h-.038l.038.111m-.148-.295l-.074-.148h-.037l.111.148m-.666-.629c.003-.098-.037-.193-.11-.259l.111.259m-9.427-1.959l.184-.148-.185.148m-.073-.111c.037-.184.184-.332.296-.443l.074-.038-.038-.037.111-.111c.038.148-.222.37-.332.481v.111l-.111.038m7.542-.26l-.038-.111.038.111m-7.136-.443l.074-.111v.037h-.038l.038.036-.074.037m.701-2.847l.038-.185h.037l-.037.185h-.038m1.59-1.627c.038-.038.111-.37.222-.333 0 .148-.111.296-.222.333m4.696-8.245c.038-.184.038-.259.038-.444-.075.185-.038.296-.038.444m.073-5.361l.038-.037v-.11h-.038l.111-.444.038-.37-.111.037.038.221c-.112.222-.075.444-.075.703m.555-.148h.038c0-.074 0-.185.036-.259l.037-1.663c-.259 0-.148.259-.148.443 0 .259 0 .259-.038.518l-.148.222c.037.222.074.48.222.74m-.628-1.922l-.037-.111h.037v.111m0-.149v-.221h.038v.074h.036l-.073.148m.702-.037c-.037-.222-.11-.517-.074-.776h.038c0-.111.073-.333.147-.37l-.074.222c.038.665.038.665-.037.924m-.591-.592l.073-.332c.074 0 .038.111.038.184l-.111.148m.554-1.7c0-.222.038-.592.222-.739v-.222l.148-.037v-.037h.038v.074c-.038.037-.259.628-.296.703l-.038.037v.184l-.073.037M30.364 45.855h-.074c-.296-.073-.518-.11-.739-.295 0-.11.074-.221.222-.332l.038-.038c.554-.702 1.22-1.219 1.886-1.737l.665-.517.296-.222c.185-.148.333-.296.481-.37l-.111-.444c-.111 0-.259 0-.406.074-.592.148-1.109.295-1.664.48l-.074.038c-.37.111-.813.184-1.257.259l.038.48c.48-.036.924-.147 1.33-.258l.074-.038.997-.295c-.221.185-.443.37-.665.517-.592.481-1.146.925-1.663 1.479l.037-.074-.37-.296c-.184.222-.332.444-.555.665-.258.222-.591.481-.997.555-.111 0-.555.074-.703-.222-.037-.111-.037-.259 0-.443v-.074c0-.185.038-.37.074-.517l.037.038c.221.11.48.074.739.036.333-.074.629-.259.887-.554.222-.259.333-.665.259-1.109 0-.148-.111-.259-.259-.296h-.038c-.591-.148-1.22.148-1.663.776-.267.398-.431.855-.48 1.331v-.259l.037-.703.037-.074.074-.332c0-.111 0-.185.037-.259l.147-.37h-.111c.111-.777.148-1.442.111-2.07v-.038c0-.111-.037-.296-.148-.407l-.037-.038c-.11-.073-.296-.073-.369.038l-.038.037c-.073.111-.073.184-.073.259v.038c-.038.074-.038.147 0 .184l.222.037c.037.628 0 1.257-.111 2.033l-.111.074.037.111c-.087-.092-.207-.145-.333-.148h-.444l-.259.074c-.259.148-.555.295-.739.628l-.037.074c-.108.147-.194.309-.258.48-.148.444-.185.925-.185 1.405-.168.165-.37.291-.592.37-.11.038-.221.038-.332.038h-.148c-.106-.002-.203-.058-.259-.149-.038-.074-.074-.148-.074-.222v-.739c0-.332 0-.702-.037-1.035 0-.185-.11-.259-.147-.295-.185-.111-.37 0-.407.037l-.037.038c-.148.11-.296.184-.407.332l-.037.038c-.37.443-.739.85-1.073 1.331l.038-.148.037-.296v-.222c0-.11 0-.221.037-.332l-.444-.074c-.038.111-.038.259-.038.37v.222l-.036.259-.074.444-.037.407h-.037c-.11.222-.332.407-.628.628-.37.296-.739.443-1.183.555l-.148.037-.296-.148-.443-.259c-.074-.37.038-.739.148-1.072l.184.112c.149.074.37.074.555.037.518-.111.851-.481 1.073-.814.148-.184.184-.332.221-.517v-.038c0-.073 0-.184-.037-.295-.148-.333-.517-.296-.703-.259h-.037c-.259.037-.48.184-.665.332-.222.185-.444.37-.592.592l-.148-.074c-.074.111-.074.259-.074.444-.076.115-.138.24-.184.37-.111.296-.222.592-.222.962-.296-.148-.555-.333-.851-.517l-.739-.407-.184-.074c.591-.222 1.22-.517 1.811-1.035.148-.112.37-.333.444-.703.038-.185.038-.333-.038-.481-.037-.148-.148-.259-.221-.333-.296-.259-.629-.407-1.073-.443-.555-.074-1.072-.037-1.553 0-.296 0-.555.074-.85.148v-.074l-.48-.038-.037.296-.074.038-.259.074-.407.111.184.444.333-.111c.074 0 .148-.038.222-.074v.111c-.08 1.38-.067 2.763.037 4.141v.333c0 .148 0 .259.036.407l.444-.074v-.332c0-.148 0-.259-.038-.37-.11-1.331-.11-2.699-.037-4.067v-.296c.333-.111.629-.148.925-.185.48-.037.961-.074 1.479 0 .332.038.591.148.813.333l.074.111c.037.074.037.184 0 .295-.037.185-.111.259-.259.407-.777.702-1.664.961-2.404 1.183l.111.444.148-.038c.185.111.407.222.593.296.221.111.48.221.702.37.406.259.813.517 1.22.739.148.259.37.443.702.517.074.037.185.037.296.037.369.222.739.407 1.146.629l.111.074c.148.074.332.184.518.184l.037-.48c-.111 0-.222-.075-.333-.149l-.111-.074c-.214-.103-.423-.214-.628-.332.333-.111.666-.296.998-.518.111-.074.222-.148.296-.222v.222l.296-.111c.148-.038.185-.185.222-.222.077-.141.139-.29.184-.444.074-.148.111-.296.222-.443.333-.517.703-.925 1.11-1.368l.036-.038c.074-.074.148-.148.259-.221.038.295.038.555.038.813v.739c0 .148.037.296.111.407.111.259.37.443.702.443h.111c.148 0 .333 0 .481-.038.184-.074.37-.147.517-.258.074.184.259.37.481.48.074.038.184.038.296.038.111 0 .185 0 .296-.038.48-.148.739-.554.924-.924l.074-.111.037.185v.111l.037.296.037.185c0 .11.037.221.073.332l.518-.074v-.038h-.184l.184-.037c-.037-.074-.037-.148-.037-.222l-.038-.259-.037-.148c.148.259.444.37.814.37.111 0 .184 0 .296-.038.517-.11.925-.407 1.22-.665l.038-.073c-.126.156-.18.357-.149.555v.073l.038.037c.332.333.702.406 1.035.48h.073l1.479.296c.629.111 1.22.185 1.812.37l.111-.443c-.605-.173-1.224-.297-1.849-.37-.517-.296-.998-.37-1.479-.481m-2.773-2.551c.111-.184.555-.702 1.072-.629.037.296-.037.517-.148.666-.184.222-.407.37-.628.407-.148.038-.296.074-.407 0l-.038-.074-.073-.074c.074-.074.148-.185.222-.296m-9.391.703c.148-.111.296-.222.443-.222h.038c.073 0 .184-.037.221 0v.148c0 .075-.037.148-.111.26-.184.259-.443.554-.813.628-.111.037-.222.037-.296 0-.073-.037-.11-.074-.11-.111.148-.296.37-.517.628-.703m8.688-1.257c-.037-.038-.037-.074 0-.111h.038l-.038.111m-1.146 2.255c-.185.296-.37.592-.665.703-.111.037-.222.037-.296 0-.037-.038-.222-.111-.259-.259-.073-.555-.037-1.072.148-1.59.037-.111.111-.222.222-.37l.038-.074c.148-.221.332-.332.554-.443l.148-.038h.333l.037.038.111.148.038.148v.111h.036c0 .111 0 .222-.037.333-.038.443-.148.887-.407 1.294M32.805 43.379v.48h.148c.517 0 1.072-.036 1.811-.11l-.038-.48c-.776.073-1.367.11-1.922.11m14.53-.592c-.333-.443-.777-.628-1.184-.85-.184-.076-.358-.176-.517-.296l-.148-.073c-.148-.075-.222-.111-.259-.185-.038-.184 0-.333.111-.555.111-.11.221-.258.332-.332l.296-.111c.184-.038.37-.074.48 0l.038.038.073.074.333-.333-.037-.037-.184-.148c-.296-.111-.555-.074-.776-.038-.148.038-.295.111-.443.185-.222.111-.37.295-.481.444v.037c-.148.222-.333.555-.185.962.074.259.296.369.481.48l.111.074c.184.111.37.222.555.296.369.185.739.37.998.703.074.111.111.222.074.333l-.111.111-.073.037c-.37.184-.777.37-1.258.48-.074 0-.259.075-.295.038-.148-.222-.111-.48.074-.851l-.407-.184c-.09.187-.152.386-.184.591l-.111-.037c-.295-.184-.48-.333-.517-.555-.074-.291-.074-.596 0-.887l.111-.296.148-.407c.038-.148.074-.296.148-.444.037-.11.111-.184.111-.295l-.443-.184-.111.295-.074.111-.184.37c-.038.111-.074.184-.074.295l-.074.296v.038l-.037.111c-.259.555-.703 1.035-1.331 1.405-.042.037-.105.037-.148 0-.068-.478-.08-.962-.037-1.442v-.812h-.48v.776c-.112-.295-.407-.48-.814-.592-.259-.074-.593-.074-.925-.037-.222.038-.407.111-.555.185l-.184.074v.038c-.192.084-.378.183-.555.295l-.147.111.184-.296c.222-.296.407-.629.629-.961l.037-.074c.221-.37.443-.703.629-1.109.037-.111.037-.222 0-.296-.047-.089-.126-.155-.222-.185l-.148.444c-.037 0-.074-.074-.037-.111-.184.37-.37.665-.591 1.035l-.038.074c-.222.333-.443.629-.629.962l-.665.998c-.213.317-.399.651-.555.999l-.221.443-.111-.148-.666-.962-.332-.48c-.313-.445-.609-.901-.887-1.369l-.333-.518-.406.185c.037.111.111.259.184.37l.111.184.038-.037c.259.444.554.925.887 1.405.11.185.221.333.37.481.221.295.443.592.665.924.092.116.144.259.148.407l-.074.48.407-.221.184-.149.038-.037v-.038c.184-.258.295-.554.443-.813.148-.259.259-.518.444-.776-.088.326-.101.667-.038.998.074.407.481.629.628.703.185.074.37.111.629.111.148 0 .259 0 .407-.038.665-.111 1.109-.48 1.478-.85.333-.259.517-.555.593-.851l.036.48c.038.185.111.296.259.37.18.081.388.066.555-.038.407-.259.776-.555 1.035-.887l.038.259c.074.407.407.629.739.851.111.074.259.111.37.148l.111.259c.102.143.268.227.444.222l.37-.037c.517-.11.961-.332 1.368-.554l.037-.037.074-.038c.11-.074.259-.184.295-.369.148-.333.111-.555-.037-.814m-6.062-.038c-.073.259-.222.444-.48.665-.333.333-.74.629-1.258.739-.332.074-.555.038-.739-.038-.221-.11-.37-.258-.37-.369-.074-.444-.037-.814.148-1.109.11-.148.221-.296.407-.407.184-.111.37-.222.592-.296.11-.037.259-.037.37-.037h.554v-.184c.111 0 .222 0 .333.037.259.038.443.184.48.333.037.221.037.443-.037.665" fill="#fff" fill-rule="nonzero"/></g></svg>