<svg width="60" height="60" xmlns="http://www.w3.org/2000/svg" fill="none"><path d="M53.571 0h-47.143c-3.616 0-6.429 2.946-6.429 6.429v47.143c0 3.616 2.813 6.429 6.429 6.429h47.143c3.482 0 6.429-2.813 6.429-6.429v-47.143c0-3.482-2.946-6.429-6.429-6.429zm-6.563 21.295v1.205c0 11.518-8.839 24.911-25.045 24.911-4.955 0-9.509-1.339-13.393-3.884.67.134 1.339.134 2.009.134 4.152 0 7.902-1.473 10.982-3.75-3.884-.134-7.098-2.679-8.304-6.161 1.473.268 2.679.268 4.018-.134-4.018-.804-6.964-4.286-6.964-8.572v-.134c1.071.67 2.411 1.071 3.884 1.071-2.143-1.473-3.884-4.688-3.884-7.232 0-1.741.402-3.214 1.205-4.554 4.286 5.357 10.848 8.839 18.08 9.241-1.205-5.893 3.214-10.848 8.571-10.848 2.545 0 4.822 1.071 6.429 2.813 2.009-.402 3.884-1.071 5.625-2.143-.67 2.143-2.143 3.75-3.884 4.822 1.741-.134 3.482-.67 5.089-1.339-1.205 1.741-2.813 3.348-4.42 4.553z" fill="#00B2FF"/></svg>