<svg width="60" height="60" viewBox="0 0 60 60" xmlns="http://www.w3.org/2000/svg"><title>logo_name_yota</title><desc>Created with Sketch.</desc><g fill="none"><path fill="#00BDF2" d="M0 0h60v60h-60z"/><g fill="#fff"><path d="M40.007 16.269v-2.112c0-1.326-1.049-2.4-2.342-2.4-1.297 0-2.344 1.074-2.344 2.4v2.112c0 1.708-.66 3.228-1.72 4.338-1.064 1.107-2.497 1.775-4.098 1.775-1.602 0-3.033-.668-4.099-1.775-1.112-1.17-1.727-2.724-1.718-4.338v-2.112c0-1.326-1.049-2.4-2.342-2.4-1.294 0-2.344 1.074-2.344 2.4v2.112c0 2.993 1.168 5.731 3.062 7.705 1.381 1.45 3.151 2.47 5.098 2.938v5.055c-1.947.468-3.718 1.489-5.098 2.94-1.894 1.973-3.063 4.71-3.062 7.704v2.112c0 1.325 1.05 2.4 2.344 2.4 1.293 0 2.342-1.075 2.342-2.4v-2.112c0-1.708.659-3.23 1.718-4.338 1.066-1.108 2.497-1.775 4.1-1.777 1.6.002 3.033.67 4.097 1.777 1.113 1.169 1.729 2.724 1.72 4.338v2.112c0 1.325 1.047 2.4 2.344 2.4 1.293 0 2.342-1.075 2.342-2.4v-2.112c.001-2.994-1.168-5.73-3.062-7.704-1.38-1.451-3.151-2.472-5.098-2.94v-5.055c1.947-.468 3.717-1.488 5.098-2.938 1.894-1.974 3.063-4.712 3.062-7.705zM29.503 46.617c2.241 0 4.058-1.86 4.058-4.157 0-2.298-1.817-4.16-4.058-4.16-2.24 0-4.056 1.862-4.056 4.16 0 2.297 1.816 4.157 4.056 4.157"/></g></g></svg>