<svg width="60" height="60" xmlns="http://www.w3.org/2000/svg" xmlns:xlink="http://www.w3.org/1999/xlink"><defs><path d="M0 30C0 13.431 13.432 0 29.995 0h.01C46.571 0 60 13.428 60 30c0 16.569-13.428 30-30 30C13.431 60 0 46.572 0 30z" id="a"/></defs><g fill="none" fill-rule="evenodd"><mask id="b" fill="#fff"><use xlink:href="#a"/></mask><use fill="#000" transform="rotate(90 30 30)" xlink:href="#a"/><path d="M-1.016 26.597l17.365 7.51a8.295 8.295 0 0 1 5.164-1.438l7.029-10.189c0-6.277 4.989-11.266 11.121-11.266 6.133 0 11.122 4.99 11.122 11.122 0 6.133-4.989 11.123-11.122 11.123-.084 0-.168-.002-.252-.004l-10.026 7.153c.006.13.01.263.01.395 0 4.604-3.744 8.348-8.348 8.348-4.04 0-7.419-2.884-8.184-6.703L0 37l-1.016-10.403z" fill="#FFF" mask="url(#b)"/><path d="M19.024 45.195l-3.622-1.497a6.233 6.233 0 0 0 3.227 3.07 6.27 6.27 0 0 0 8.192-3.374 6.222 6.222 0 0 0 .01-4.794 6.228 6.228 0 0 0-3.384-3.398 6.24 6.24 0 0 0-4.617-.07l3.743 1.547a4.613 4.613 0 0 1-3.549 8.516M34.109 22.323a5.567 5.567 0 1 1 11.133 0 5.567 5.567 0 0 1-11.133 0zm12.965.013c0-4.086-3.325-7.411-7.41-7.411-4.087 0-7.412 3.325-7.412 7.411 0 4.086 3.325 7.41 7.411 7.41 4.086 0 7.411-3.324 7.411-7.41z" fill="#1A1918" mask="url(#b)"/></g></svg>