<svg width="60" height="60" viewBox="0 0 60 60" xmlns="http://www.w3.org/2000/svg"><title>logo_name_forgame</title><desc>Created with Sketch.</desc><g fill="none"><path fill="#FFB600" d="M0 0h60v60h-60z"/><path d="M27.6 12h4.8c2.1 0 3.9 1.6 3.9 3.6v7.1c0 .5.4 1 1 1h7.1c2 0 3.6 1.7 3.6 3.9v4.8c0 2.1-1.6 3.9-3.6 3.9h-7.1c-.5 0-1 .4-1 1v7.1c0 2-1.7 3.6-3.9 3.6h-4.8c-2.1 0-3.9-1.6-3.9-3.6v-7.1c0-.5-.4-1-1-1h-7.1c-2 0-3.6-1.7-3.6-3.9v-4.8c0-1 .3-1.9.9-2.6l.5-.5 11.1-11.1c.7-.9 1.8-1.4 3.1-1.4z" fill="#fff"/><path d="M27.1 18.8l2.7-3.2 2.7 3.2h-5.4zm14.4 8.5l3.2 2.7-3.2 2.7v-5.4zm-14.4 14.4l2.7 3.1 2.7-3.1h-5.4zm-8.5-14.4l-3.2 2.7 3.2 2.7v-5.4z" fill="#FFB600" fill-rule="nonzero"/></g></svg>