<svg width="60" height="60" viewBox="0 0 60 60" xmlns="http://www.w3.org/2000/svg"><title>logo_name_tonymolystore</title><desc>Created with Sketch.</desc><g fill="none"><path fill="#332D2B" d="M0 0h60v60h-60z"/><path d="M7.725 28.275h-1.725v-1.125h4.575v1.125h-1.725v4.35h-1.2l.075-4.35zm10.725-1.125h1.05l2.55 3.375v-3.375h1.2v5.475h-.975l-2.625-3.45v3.45h-1.2v-5.475zm8.1 3.225l-2.1-3.225h1.35l1.275 2.1 1.275-2.1h1.35l-1.95 3.15v2.325h-1.2v-2.25zm4.575-3.225h1.275l1.425 1.95 1.425-1.95h1.275v5.475h-1.2v-3.6l-1.5 2.025-1.5-1.95v3.525h-1.125l-.075-5.475zm13.65 0h1.2v4.35h2.7v1.125h-3.9v-5.475zm5.85 3.225l-2.1-3.225h1.35l1.275 2.1 1.275-2.1h1.35l-2.025 3.15v2.325h-1.2v-2.25h.075zm-9.975 1.125c-.9 0-1.575-.75-1.575-1.575 0-.9.675-1.575 1.575-1.575.9 0 1.575.75 1.575 1.575s-.675 1.575-1.575 1.575zm0-4.425c-1.5 0-2.775 1.275-2.775 2.85 0 1.575 1.275 2.85 2.775 2.85s2.775-1.275 2.775-2.85c0-1.575-1.2-2.85-2.775-2.85zm-26.4 4.425c-.9 0-1.575-.75-1.575-1.575 0-.9.675-1.575 1.575-1.575.9 0 1.575.75 1.575 1.575s-.75 1.575-1.575 1.575zm0-4.425c-1.5 0-2.775 1.275-2.775 2.85 0 1.575 1.275 2.85 2.775 2.85s2.775-1.275 2.775-2.85c0-1.575-1.275-2.85-2.775-2.85z" fill="#fff" fill-rule="nonzero"/></g></svg>