<svg width="60" height="60" viewBox="0 0 60 60" xmlns="http://www.w3.org/2000/svg"><title>logo_name_itunes</title><desc>Created with Sketch.</desc><g fill="none"><path fill="#000" d="M0 0h60v60h-60z"/><path d="M36.5 28.8c0-3.5 2.8-5.2 3-5.2-1.6-2.4-4.1-2.7-5-2.7-2.1-.2-4.2 1.3-5.3 1.3-1.1 0-2.8-1.2-4.6-1.2-2.3 0-4.5 1.4-5.6 3.4-2.4 4.2-.6 10.4 1.7 13.8 1.2 1.7 2.5 3.5 4.3 3.5 1.8-.1 2.4-1.1 4.5-1.1s2.7 1.1 4.5 1.1c1.9 0 3.1-1.7 4.2-3.4 1.4-1.9 1.9-3.8 1.9-3.9.1 0-3.5-1.4-3.6-5.6zm-3.4-10.2c.9-1.2 1.6-2.8 1.4-4.4-1.4.1-3.1.9-4 2.1-.9 1-1.6 2.7-1.4 4.2 1.4.2 3-.7 4-1.9z" fill="#fff" fill-rule="nonzero"/></g></svg>