<svg width="60" height="60" viewBox="0 0 60 60" xmlns="http://www.w3.org/2000/svg"><title>logo_name_hoff</title><desc>Created with Sketch.</desc><g fill="none"><path fill="#E60000" d="M0 0h60v60h-60z"/><path d="M13.469 26.144v-.308c0-1.327.01-2.653-.003-3.98-.012-1.214-.965-2.132-2.174-2.121-1.152.011-2.085.961-2.085 2.138-.002 5.476-.002 10.951 0 16.428.002 1.38 1.201 2.376 2.541 2.122 1.005-.191 1.718-1.069 1.72-2.137.004-2.638.001-5.276.002-7.913l.013-.305c.669 0 1.316-.035 1.956.011.496.036.847.502.85 1.009.005.603.002 1.206.002 1.809 0 1.801-.005 3.602.002 5.403.004 1.038.705 1.914 1.665 2.111 1.379.283 2.591-.705 2.6-2.126.008-1.23.002-2.46.002-3.69v-12.617c.001-.605-.172-1.14-.592-1.583-.597-.628-1.502-.836-2.288-.531-.835.324-1.38 1.086-1.386 1.984-.011 1.335-.004 2.669-.004 4.004v.291h-2.821v.001zm18.727 6.604c0 .893.037 1.787-.008 2.678-.113 2.298-1.742 4.279-3.957 4.862-2.863.755-5.797-.975-6.529-3.865-.106-.421-.161-.852-.166-1.286-.015-1.68-.029-3.361.011-5.041.058-2.437 1.98-4.613 4.373-5.01 2.791-.463 5.349 1.157 6.101 3.894.126.458.163.95.181 1.429.029.778.008 1.559.008 2.339h-.014zm-4.24-.031v-2.702c0-.375-.124-.696-.425-.926-.349-.267-.735-.309-1.127-.121-.435.209-.616.587-.617 1.059-.002 1.793-.01 3.586.01 5.379.002.249.096.528.231.738.255.396.75.523 1.19.375.435-.147.734-.564.737-1.052.005-.916.002-1.833.002-2.75zm9.54-2.646l.188-.025c.471-.003.942.013 1.411-.009.706-.034 1.31-.299 1.696-.924.324-.516.379-1.157.146-1.72s-.725-.979-1.319-1.115c-.48-.115-.995-.098-1.495-.11-.657-.016-.657-.003-.623-.674.038-.761.45-1.157 1.2-1.166.478-.005.96.013 1.432-.039.972-.107 1.69-.866 1.722-1.768.038-1.039-.558-1.828-1.576-2.012-.837-.151-1.69-.135-2.525.006-2.078.349-3.496 1.535-4.237 3.528-.287.775-.29 1.588-.289 2.403.005 3.948-.001 7.895.005 11.843.002 1.24.944 2.175 2.153 2.17 1.189-.005 2.105-.953 2.106-2.186.002-2.637.002-5.274.002-7.911v-.29zm4.474-.866h-.013v3.521l.02.458c.084.87.688 1.602 1.526 1.85 1.38.392 2.702-.617 2.725-2.09.013-.852.003-1.704.003-2.557 0-.343 0-.336.337-.345.556-.014 1.126.031 1.666-.071 1.446-.274 2.048-1.897 1.153-3.039-.438-.559-1.058-.748-1.737-.765-.407-.008-.814-.009-1.22-.002-.141.002-.206-.048-.2-.195l.004-.506c.037-.737.447-1.127 1.176-1.137.502-.006 1.008.013 1.504-.047.974-.119 1.646-.887 1.669-1.84.023-.984-.595-1.785-1.586-1.925-.642-.09-1.303-.081-1.954-.058-2.751.098-4.949 2.281-5.064 5.057-.05 1.228-.008 2.46-.008 3.69zm2.109 11.31c1.28.015 2.349-1.029 2.367-2.313.018-1.32-1.01-2.398-2.311-2.424-1.294-.025-2.374 1.033-2.391 2.344-.01.628.23 1.234.669 1.683.439.449 1.039.705 1.666.709v.001z" fill="#fff" fill-rule="nonzero"/></g></svg>