<svg width="60" height="60" viewBox="0 0 60 60" xmlns="http://www.w3.org/2000/svg"><title>logo_name_mts</title><desc>Created with Sketch.</desc><g fill="none"><path fill="#E30511" d="M0 0h60v60h-60z"/><path d="M40.534 33.139c-.056 2.227-.465 4.363-1.479 6.353-1.32 2.59-3.344 4.35-6.16 5.132-1.613.448-3.253.514-4.91.287-1.817-.248-3.465-.905-4.896-2.067-1.355-1.1-2.326-2.487-3.006-4.09-.509-1.211-.84-2.489-.984-3.794-.125-1.15-.131-2.309-.02-3.46.24-2.68.935-5.24 2-7.702.876-2.027 1.974-3.92 3.405-5.605.846-.995 1.795-1.876 2.938-2.53 1.527-.872 3.049-.887 4.584-.026 1.036.58 1.917 1.35 2.703 2.232 1.948 2.189 3.303 4.726 4.306 7.465.588 1.583 1.005 3.226 1.242 4.898.133.964.187 1.938.277 2.907" fill="#fff"/></g></svg>