<svg width="60" height="60" viewBox="0 0 60 60" xmlns="http://www.w3.org/2000/svg"><title>logo_name_mi-shop</title><desc>Created with Sketch.</desc><g fill="none"><path d="M0 0h60v60h-60z" fill="#FD6702"/><path d="M49.824 17.271h-5.488c-.231-.003-.422.181-.426.412v24.755c.004.231.195.416.426.413h5.488c.231.003.422-.181.426-.413v-24.755c-.005-.231-.195-.415-.426-.413zm-18.741 0h-20.907c-.231-.003-.422.181-.426.412v24.755c.004.231.195.416.426.413h5.488c.231.003.422-.181.426-.413v-19.429c0-.223.19-.409.425-.409h11.828c3.327 0 4.269 2.516 4.269 4.14v15.697c.004.231.195.416.426.412h5.484c.231.003.422-.181.426-.412v-17.559c0-1.451-.178-3.533-2.067-5.364-1.975-1.914-3.781-2.244-5.797-2.244zm-3.844 9.86h-5.765c-.231-.003-.421.181-.425.412v14.899c0 .227.194.413.425.413h5.765c.231.002.421-.182.426-.413v-14.903c-.005-.23-.196-.413-.426-.409v.001z" fill="#fff" fill-rule="nonzero"/></g></svg>