<svg width="60" height="60" viewBox="0 0 60 60" xmlns="http://www.w3.org/2000/svg"><title>logo_name_webmoney</title><desc>Created with Sketch.</desc><g fill="none"><path fill="#006CB4" d="M0 0h60v60h-60z"/><path d="M29.999 15c2.355 0 4.585.548 6.572 1.523.312.148.623.311.935.491l-1.381 1.236-2.075-2.145-3.502 3.123-2.08-2.27-6.523 5.879 4.181 4.608-1.643 1.445 4.118 4.615-1.634 1.442 5.885 6.551 3.494-3.217 3.02 3.447c-.601.467-1.255.907-1.976 1.313-2.184 1.246-4.709 1.959-7.395 1.959-8.261 0-14.999-6.739-14.999-14.999 0-8.262 6.738-15.001 14.999-15.001l.002-.001zm-2.892 14.108l3.567-3.212 3.212 3.567-3.567 3.211-3.212-3.567zm2.724 6.052l3.567-3.211 3.212 3.567-3.566 3.212-3.213-3.569h.001zm-5.145-12.107l3.567-3.211 3.211 3.567-3.567 3.211-3.211-3.567zm6.356-1.711l2.674-2.408 2.409 2.675-2.676 2.409-2.408-2.676.001.001zm4.843 10.898l2.676-2.409 2.408 2.676-2.675 2.408-2.409-2.674v-.001zm2.421 5.448l2.675-2.409 2.409 2.675-2.676 2.409-2.408-2.675h.001zm.908-12.306l1.783-1.605 1.606 1.784-1.783 1.605-1.606-1.784zm-2.118-5.448l1.784-1.605 1.605 1.784-1.783 1.605-1.605-1.784zm4.54 10.594l1.784-1.605 1.605 1.784-1.783 1.606-1.605-1.784v-.001zm-7.87-4.039l2.675-2.409 2.408 2.675-2.674 2.409-2.409-2.675v-.001z" fill="#fff" fill-rule="nonzero"/></g></svg>