<svg width="60" height="60" viewBox="0 0 60 60" xmlns="http://www.w3.org/2000/svg" xmlns:xlink="http://www.w3.org/1999/xlink"><title>logo_name_troika</title><desc>Created with Sketch.</desc><defs><path id="a" d="M6.043 6.827v-6.821h-6.035v6.821z"/><path id="c" d="M5.239 6.823h-5.239v-6.813h5.239z"/><path id="e" d="M1.522.03h-1.51v1.366h1.51z"/></defs><g id="Clipped" fill="none"><path fill="#2A678D" d="M0 0h60v60h-60z"/><g><path d="M32.009 30.819l.154-.12c.718-.679 1.437-1.356 2.146-2.042.069-.081.111-.183.118-.289.03-.263.011-.533.063-.791.062-.313.362-.481.726-.457.352.023.618.218.638.533.038.585.052 1.171.055 1.757.007 1.106 0 2.213-.003 3.319 0 .18-.007.362-.021.543-.028.362-.298.597-.682.6-.412.005-.718-.221-.735-.587-.028-.58-.026-1.16-.035-1.74l-.004-.744-.033-.282-.174.127-2.105 1.979c-.104.087-.161.218-.154.353.004.12-.012.242-.04.359-.09.388-.367.568-.799.53-.365-.031-.607-.27-.613-.645-.016-1.119-.026-2.237-.031-3.356-.004-.64.001-1.281.003-1.922l.01-.181c.038-.42.316-.66.754-.652.399.007.69.273.697.674.013.798.006 1.596.008 2.393v.613l.057.028zm-5.709-.386c-.042-.371-.063-.844-.156-1.303-.095-.466-.509-.713-1.01-.674l-.132-.014c-.135.01-.28 0-.404.042-.42.143-.604.477-.617.86-.026.796-.039 1.594.01 2.387.036.585.517.976 1.086.965.587-.011 1.054-.297 1.128-.937.048-.407.06-.818.095-1.326zm1.48.266c-.063.461-.083 1.067-.241 1.638-.236.85-.886 1.35-1.786 1.527-.76.149-1.497.088-2.166-.33-.665-.415-1.013-1.01-1.072-1.751-.07-.862-.112-1.724-.007-2.588.107-.88.594-1.5 1.424-1.88.392-.18.82-.14 1.25-.117.558.03 1.09.056 1.558.39.5.36.806.824.887 1.404.073.52.097 1.045.154 1.707h-.001zm11.8-.172c0-.913-.003-1.826.002-2.738.002-.229.081-.437.317-.54.282-.125.568-.135.834.048.163.106.261.287.26.482l.017 1.469.001.29c-.004.155.073.215.235.21.132-.003.267.006.398.029.146.025.244-.019.32-.136.342-.523.68-1.048 1.033-1.564.19-.278.4-.545.618-.803.203-.241.528-.27.828-.1.268.152.39.45.25.721-.138.27-.313.526-.484.78-.384.57-.774 1.136-1.166 1.7-.074.107-.072.185.009.292.433.567.86 1.138 1.28 1.715.097.133.2.203.375.191.258-.017.504.004.706.199.376.362.23.987-.295 1.063-.419.062-.86.011-1.288-.025-.115-.01-.244-.132-.321-.234l-1.511-2.027c-.172-.226-.369-.435-.693-.472-.208-.023-.258.005-.26.202v1.633c-.001.138-.006.278-.026.415-.054.39-.338.607-.756.59-.391-.016-.663-.269-.676-.653-.014-.416-.011-.833-.013-1.25v-1.487h.006z" id="Shape" fill="#fff" fill-rule="nonzero"/><g transform="translate(6 25) translate(41.919 2.111)" id="Clipped"><mask id="b"><use xlink:href="#a"/></mask><path d="M3 2.236l-.053.007-.095.226c-.225.571-.45 1.142-.67 1.715-.092.238-.07.271.2.281.426.017.853.022 1.28.026.228.002.26-.048.178-.25-.21-.525-.42-1.05-.634-1.572l-.206-.433m.762 3.46c-.618 0-1.235.006-1.853-.005-.215-.004-.349.05-.41.259-.047.162-.12.319-.194.472-.139.272-.442.419-.742.359-.336-.065-.561-.261-.553-.533.004-.182.052-.372.12-.544.347-.87.71-1.732 1.06-2.6.234-.58.454-1.166.682-1.749.12-.305.22-.62.371-.91.127-.243.336-.426.655-.438.313-.011.598.058.746.34.178.34.328.694.479 1.046.275.643.545 1.288.813 1.933l.493 1.217c.152.372.312.74.455 1.114.084.218.212.43.139.68-.08.248-.288.432-.544.48-.321.045-.573-.053-.718-.301-.099-.161-.18-.332-.24-.511-.062-.202-.175-.297-.395-.284h-.363v-.026" id="Shape" fill="#fff" fill-rule="nonzero" mask="url(#b)"/></g><path d="M16.073 29.242h-.006v.69c-.001.128.06.187.197.184.395-.006.79.004 1.184-.016.468-.024.791-.344.824-.78.032-.434-.24-.829-.692-.886-.45-.057-.91-.038-1.367-.036-.047 0-.129.11-.134.174-.016.222-.006.447-.006.67m.414-2.072c.427 0 .858-.04 1.278.008 1.341.15 2.126 1.152 1.93 2.42-.138.891-.809 1.573-1.75 1.707-.494.07-1.002.057-1.503.07-.35.007-.359-.002-.366.334l-.012 1.47c-.003.223-.057.426-.265.573-.253.178-.523.185-.797.083-.26-.098-.367-.318-.376-.566-.016-.465-.015-.93-.012-1.396l.023-2.465c.004-.49 0-.98.01-1.469.01-.533.284-.781.847-.784h.993v.015" fill="#fff" fill-rule="nonzero"/><g transform="translate(6 25) translate(0 2.148)" id="Clipped"><mask id="d"><use xlink:href="#c"/></mask><path d="M3.352 3.799c0 .755.006 1.51-.002 2.266-.006.591-.488.899-1.072.694-.241-.085-.375-.263-.39-.493-.024-.422-.034-.845-.03-1.268.001-1.13.012-2.26.017-3.39 0-.255-.003-.26-.268-.268l-.973-.017c-.399-.012-.622-.252-.634-.672-.002-.334.264-.607.597-.616.783-.02 1.566-.02 2.35-.023.541-.003 1.082-.001 1.623.006.43.006.664.235.668.634.003.343-.272.61-.655.623-.337.011-.674.019-1.011.013-.158-.003-.181.076-.182.19l-.022 2.049v.272h-.017" id="Path" fill="#fff" mask="url(#d)"/></g><g transform="translate(6 25) translate(26.429 .006)"><mask id="f"><use xlink:href="#e"/></mask><path d="M.731.03l.283.033c.121.042.258.126.34.213.22.231.187.482.106.752-.075.253-.296.352-.558.364-.127.009-.254.005-.38-.012-.3-.05-.497-.261-.508-.55-.01-.138.003-.278.038-.412.08-.262.343-.4.68-.387" fill="#fff" mask="url(#f)"/></g></g></g></svg>