<svg width="60" height="60" viewBox="0 0 60 60" xmlns="http://www.w3.org/2000/svg"><title>logo_name_seven-sky</title><desc>Created with Sketch.</desc><g fill="none"><path fill="#DC137B" d="M0 0h60v60h-60z"/><g fill="#FDF9FB"><path d="M21.687 41.48c2.536 2.788 5.537 4.342 9.16 4.65 3.947.334 7.404-.805 10.337-3.497 2.223-2.04 2.824-5.44 1.427-8.126-.732-1.406-1.465-2.808-1.868-4.359-.184-.707-.035-1 .761-.942.949.068 1.516.562 1.879 1.38.402.909.68 1.877 1.35 2.761.636-1.07 1.22-2.112 1.49-3.264.158-.68.396-.968 1.086-.854.717.118 1.257.403 1.247 1.236-.008.708-.192 1.414-.615 1.947-1.64 2.068-2.05 4.393-2.093 7.002-.055 3.27-1.97 5.654-4.674 7.372-6.154 3.907-15.107 2.865-20.417-2.356-1.318-1.297-1.33-1.3-1.876.496-.162.532-.31 1.073-1.003.86-.695-.215-.505-.773-.363-1.29.703-2.568 2.352-4.145 4.927-4.755.534-.126 1.164-.34 1.343.45.165.724-.456.805-.954.945-.349.098-.694.208-1.144.344"/><path d="M32.057 34.002c0-1.345.025-2.69-.012-4.034-.016-.592.182-.777.767-.759 1.36.044 1.912.578 1.922 1.968.004.552-.02 1.105.01 1.655.015.27-.188.68.275.765.358.066.68-.09.9-.392.349-.481.49-1.056.696-1.603.255-.674.471-1.38 1.043-1.876.393-.345.905-.523 1.428-.498.872.033 1.078.435.701 1.205-.648 1.325-1.013 2.788-1.928 3.985-.114.15-.11.312-.003.475.916 1.396 1.216 3.073 2.023 4.51.364.65.026.814-.43.935-.866.23-1.55-.07-2.026-.837-.46-.74-.698-1.569-.981-2.381-.107-.327-.235-.646-.383-.957-.198-.395-.506-.69-.984-.568-.491.126-.278.57-.285.873-.025 1.103-.024 2.207.004 3.31.013.488-.143.66-.642.661-1.115.004-1.895-.544-1.994-1.79-.124-1.54-.03-3.097-.03-4.647h-.07m16.532-9.357c0 .966-.014 1.932.006 2.897.008.434-.136.584-.589.613-1.6.1-2.333-.532-2.344-2.112l-.006-3.83c-.005-.716-.197-1.345-1.05-1.381-.883-.038-1.216.561-1.234 1.333-.035 1.552.012 3.106-.05 4.656-.017.43.394 1.09-.4 1.287-.936.233-2.01-.21-2.318-.923l-.038-.096c-.061-2.228-.47-4.495.293-6.658.583-1.65 2.457-2.356 4.74-2.001 1.731.269 2.807 1.399 2.945 3.216.076.994.014 1.999.014 2.999h.03m-24.717 12.525c.91.547 1.735.976 2.678 1.041.76.053 1.51-.052 1.71-.95.213-.948-.47-1.255-1.215-1.47-.592-.171-1.207-.3-1.764-.553-1.383-.628-1.936-1.844-1.58-3.315.636-2.613 3.701-3.878 5.998-2.475.857.524 1.113 1.279.867 2.698-.87-.627-1.794-1.034-2.863-.929-.696.07-1.332.29-1.416 1.09-.083.78.526 1.049 1.14 1.245.262.083.534.132.802.192 1.645.372 2.678 1.478 2.739 2.932.067 1.635-.982 3.193-2.486 3.673-.56.18-1.138.25-1.73.232-2.045-.062-3.035-1.177-2.88-3.411m-4.557-14.797c.94.007 1.667-.065 1.747-.979.059-.68-.445-.995-1.06-.985-.857.014-1.134.623-1.242 1.372-.098.687.361.595.555.592m3.772 2.643c.18 2.055-2.161 3.182-3.613 2.837-2.03-.483-3.517-2.632-3.43-5.062.084-2.312 1.604-4.194 3.654-4.525 2.168-.35 4.038 1.494 3.731 3.679-.15 1.074-.892 1.904-1.987 2.098-.603.107-1.233.055-1.848.108-.275.024-.69-.187-.785.24-.07.311.185.582.423.784.768.653 1.66.582 2.546.366.427-.104.824-.326 1.31-.525m13.146-2.471c.607-.02 1.326-.078 1.408-.99.06-.682-.426-.97-1.025-1.018-.673-.054-1.239.65-1.29 1.44-.044.696.42.547.907.568m3.452 2.6c-.058 2.182-2.145 3.476-4.2 2.676-1.696-.66-2.873-2.62-2.856-4.758.015-1.99 1.154-3.76 2.843-4.42 2.239-.873 4.418.515 4.579 2.917.105 1.375-.924 2.575-2.298 2.682-.58.05-1.169.009-1.752.033-.218.009-.524-.128-.629.178-.084.246.107.46.245.65.554.768 1.898.973 3.146.477.306-.121.597-.28.922-.435m-24.398-4.166c-.868-.524-1.7-.81-2.624-.708-.477.053-.916.22-.972.754-.057.534.394.659.804.771.365.1.735.185 1.09.311 1.403.498 2.105 1.46 2.04 2.771-.074 1.5-.927 2.54-2.356 2.896-.638.157-1.298.197-1.95.118-1.699-.195-2.42-1.183-2.154-2.976.863.474 1.743.87 2.746.697.405-.07.862-.124.938-.65.084-.582-.35-.772-.788-.92-.292-.1-.596-.165-.896-.243-1.468-.379-2.036-.93-2.18-2.122-.161-1.316.551-2.748 1.69-3.294 1.15-.55 2.334-.564 3.498-.043.98.439 1.26 1.1 1.114 2.638m12.845 3.815c.838-1.784 1.411-3.497 1.73-5.286.11-.629.155-1.149 1.006-1.03.826.116 1.527.367 1.515 1.34-.007.54-.153 1.093-.317 1.614-.684 2.158-1.864 4.065-3.074 5.95-.491.764-1.15.429-1.724.137-.572-.29-.91-.846-1.18-1.404-1.053-2.176-1.952-4.405-2.391-6.805-.126-.689-.035-.923.702-.892 1.196.05 1.752.436 2.109 1.718.378 1.359.606 2.763 1.248 4.04.087.173.2.332.376.618" fill-rule="nonzero"/></g></g></svg>