<svg width="60" height="60" xmlns="http://www.w3.org/2000/svg" xmlns:xlink="http://www.w3.org/1999/xlink"><defs><path d="M29.703 59.405c16.404 0 29.702-13.298 29.702-29.702C59.405 13.298 46.107 0 29.703 0 13.298 0 0 13.298 0 29.703c0 16.404 13.298 29.702 29.703 29.702z" id="a"/></defs><g fill="none" fill-rule="evenodd"><mask id="b" fill="#fff"><use xlink:href="#a"/></mask><use fill="#F4F4F4" xlink:href="#a"/><g mask="url(#b)"><path fill="#FC0" d="M15 14.82V44.91h6.222v-10.03H23v10.03h6.222v-10.03H31v2.736h5.333v-2.736h8V14.821z"/><path d="M23 20.291h13.333v2.735H23v-2.735zm0 5.47h13.333v2.736H23v-2.735z" fill="#222"/><path fill="#DFB200" d="M40.778 43.085H47l-2.667-8.206h-6.222z"/></g></g></svg>