<svg width="60" height="60" viewBox="0 0 60 60" xmlns="http://www.w3.org/2000/svg"><title>logo_name_askona</title><desc>Created with Sketch.</desc><g fill="none"><path d="M0 0h60v60h-60z" fill="#35B6B4"/><path d="M27.045 12.283l-.49.002c-6.713 1.082-12.59 6.784-14.159 13.733-1.556 6.888 1.245 14.519 6.709 18.363.504.355.659.127.908-.251 1.082-1.632 2.038-3.332 2.822-5.126.512-1.17 1.038-2.333 1.367-3.607-.455-.016-.666.277-.938.436-3.487 2.032-6.938.313-7.32-3.662-.05-.561-.054-1.125-.01-1.687.272-3.753 1.899-6.99 3.933-10.055 1.986-2.992 4.424-5.602 7.178-8.145v-.001zm17.837 18.707h.037c0 .763.002 1.526-.002 2.288-.004.805-.665.55-1.091.661-.536.139-.599-.188-.606-.61-.017-1.292-.051-2.585-.103-3.876-.016-.373.162-1.027-.566-.845-.578.145-1.586-.482-1.624.832-.038 1.325-.205 2.645-.25 3.969-.025.715-.307.885-.989.834-.641-.047-.863-.206-.776-.895.163-1.279.216-2.573.316-3.86.03-.387.174-.937-.46-.829-.559.096-1.415-.773-1.678.483-.285 1.36-.691 2.695-.964 4.057-.17.848-.694.599-1.199.518-.549-.089-.669-.367-.511-.911.314-1.08.542-2.183.818-3.274.375-1.484.367-1.449-1.038-1.985-.499-.191-.598-.036-.76.377-.499 1.262-1.025 2.514-1.577 3.755-.16.363-.156 1.014-.904.633-.587-.299-1.113-.491-.683-1.362.628-1.275 1.106-2.623 1.684-3.924.19-.426.189-.685-.219-1.001-.823-.638-1.392-1.495-1.89-2.41-.313-.572.051-.739.421-.995.463-.322.598-.027.82.305 1.159 1.727 2.76 2.84 4.798 3.297 3.572.801 7.055.435 10.458-.849 1.189-.448 1.212-.495.75-1.657-2.091-5.255-5.82-8.808-11.113-10.83-2.64-1.008-4.941-.82-7.241.94-4.45 3.406-7.856 7.58-10.008 12.754-.733 1.763-1.19 3.586-.983 5.52.212 1.984 1.402 2.865 3.349 2.53 1.747-.302 3.178-1.171 4.318-2.472.473-.538.767-.192 1.185-.062.58.18.454.551.338.939-1.237 4.101-2.735 8.094-4.937 11.794-.637 1.072-.631 1.076.51 1.59 7.32 3.3 15.781 1.545 21.108-4.427 3.474-3.895 4.896-8.487 4.514-13.67-.051-.69-.215-1.015-.93-.668-.741.36-1.89.095-2.252.793-.338.652-.072 1.618-.072 2.446v.1l.001-.001zm-14.815 21.323c-12.099-.008-22.405-9.654-22.384-22.402.022-12.736 10.723-22.731 23.366-22.215 11.502.47 21.51 10.018 21.448 22.538-.061 12.116-10.132 22.076-22.43 22.08v-.001z" fill="#fff" fill-rule="nonzero"/></g></svg>