<svg width="60" height="60" viewBox="0 0 60 60" xmlns="http://www.w3.org/2000/svg"><title>logo_name_av</title><desc>Created with Sketch.</desc><g fill="none"><path fill="#80BB3D" d="M0 0h60v60h-60z"/><path d="M39.75 25.921c-1.333-.338-3.11-.642-4.962-.579l.622-4.084c-3.748-.61-3.952 1.822-3.952 1.822l-.447 2.927c-3.48 1.3-3.811 4.298-.835 5.464-.3 1.965-.767 5.008-.774 5.003-.967-.407-2.913-1.174-3.778-1.482l2.362-14.489c10.125-1.013 12.104 3.487 11.763 5.419m-5.719 4.408l.468-3.077c-3.515.026-4.021 2.346-4.078 2.713-1.683-.783-.255-2.469 2.112-2.902 2.62-.479 5.108.086 6.607.681-.843 1.498-2.707 2.391-5.109 2.585m-11.924 3.518c-1.029-.319-2.955-.705-3.355-.783l5.09-9.063-1.734 9.846m29.285 5.096c2.075-2.612 3.26-5.636 3.255-8.858-.016-9.848-11.126-17.815-24.818-17.794-3.71.005-7.229.597-10.388 1.653-2.681-.319-5.314.698-5.314.698s1.92 2.996 4.806 4.091c2.028.769 4.316.122 4.718-.243 0 0-.788-1.551-3.33-2.637-.985-.42-2.344-.798-3.853-1.004 1.016.085 1.879-.022 3.932.61 2.857.878 3.612 2.525 3.612 2.525.164-1.551-.913-2.646-1.972-3.233 2.548-.636 5.165-.956 7.792-.954 12.829-.019 23.24 7.276 23.254 16.294.005 2.791-.988 5.42-2.741 7.721-.803-.777-1.663-1.493-2.572-2.143.63-3.634-2.141-7.013-5.154-8.679 1.382-4.243-2.865-8.576-10.558-8.732-1.145-.009-2.711.048-3.73.154l.427-2.621h-.61c-2.134.018-2.927 1.337-3.158 1.855l-.825 1.531c-4.785 1.281-7.409 3.474-7.644 3.668-.554.461-.44.66.546.267 1.76-.703 3.808-1.334 5.955-1.813l-6.455 11.463c-3.453-.381-7.055.01-8.878 2.269-.686-1.537-1.058-3.173-1.061-4.87-.009-5.224 3.474-9.879 8.899-12.876-1.373-.864-2.616-.162-3.007.108l-.021.015c-4.592 3.244-7.439 7.76-7.429 12.754.004 2.334.631 4.562 1.769 6.604-.14.703-.059 1.532.59 2.332.873 1.076 2.62 1.552 4.663.863 2.758-.93 4.879-3.848 5.552-4.906-1.992-.315-2.78.384-3.062.747-.812 1.045-2.007 2.22-3.259 2.738-2.563 1.061-4.22-1.177-2.196-2.977 1.369-1.22 4.087-1.474 6.54-1.176h.06c3.098.396 5.487 1.3 6.006 1.505-.259 1.475-.529 2.949-.81 4.42l.912.011c2.982-.001 3.244-2.149 3.244-2.149l.153-.756c1.86.884 3.704 1.804 5.529 2.758.699.372 1.712.35 1.867-.632l1.159-7.607c3.032-.17 6.01-1.309 7.599-2.974 1.384 1.047 2.663 2.716 2.907 4.736-1.693-.709-3.607-1.133-5.571-.839-4.552.681-6.145 5.199-3.642 7.763 1.878 1.924 4.572 2.133 7.47 1.076 1.657-.612 3.079-1.73 4.065-3.195-.217-.213-.628-.587-1.095-.865-1.279-.759-2.227.101-2.502.403-.812.98-1.922 1.697-3.083 1.97-5.296 1.248-5.795-5.443-.368-5.643 1.716-.064 3.228.644 4.559 1.574l-.001.002c1.375.995 3.261 2.841 4.203 3.474 2.008 1.35 3.963.755 3.963.755s-.338-.537-.9-1.223m-4.515 2.281l-.004.002c-4.217 3.2-10.322 5.216-16.991 5.226-6.622.009-12.6-1.949-16.837-5.049-.418-.306-1.48-1-2.813-.375 4.54 4.221 11.657 6.935 19.653 6.923 8.026-.011 15.156-2.765 19.68-7.026-1.275-.609-2.39.083-2.689.299" fill="#FEFEFE" fill-rule="nonzero"/></g></svg>