<svg width="60" height="60" viewBox="0 0 60 60" xmlns="http://www.w3.org/2000/svg" xmlns:xlink="http://www.w3.org/1999/xlink"><title>logo_name_redcube</title><desc>Created with Sketch.</desc><defs><path id="a" d="M.448 13.217h12.163v-13.096h-12.163z"/></defs><g fill="none"><path fill="#000" d="M0 0h60v60h-60z"/><path d="M16.356 27.875c-.37.125-.898.179-1.734.274l-.811.049c-.817.098-1.268.146-1.353.146-.307 0-.615-.091-.922-.274-.361-.216-.541-.463-.541-.744l.079-.177c.053-.098.093-.222.339-.311.045-.015.605-.107 2.08-.36 1.008-.173 2.04-.368 3.109-.512 1.566-.21.124 1.785-.245 1.911" id="Path" fill="#EC1D24"/><path d="M16.356 27.875c-.37.125-.898.179-1.734.274l-.811.049c-.817.098-1.268.146-1.353.146-.307 0-.615-.091-.922-.274-.361-.216-.541-.463-.541-.744l.079-.177c.053-.098.093-.222.339-.311.045-.015.605-.107 2.08-.36 1.008-.173 2.04-.368 3.109-.512 1.566-.21.124 1.785-.245 1.911z" id="Path" stroke="#EC1D24" stroke-width=".5"/><path d="M17.878 22.305c-.321-.225-.68-.621-1.26-1.243l-.527-.63c-.568-.604-.877-.941-.93-1.009-.185-.251-.298-.555-.34-.915-.048-.423.038-.719.258-.887l.187-.043c.108-.015.229-.059.449.088.038.027.449.427 1.534 1.472.744.712 1.52 1.434 2.276 2.216 1.108 1.144-1.326 1.176-1.647.951" id="Path" fill="#BED630"/><path d="M17.878 22.305c-.321-.225-.68-.621-1.26-1.243l-.527-.63c-.568-.604-.877-.941-.93-1.009-.185-.251-.298-.555-.34-.915-.048-.423.038-.719.258-.887l.187-.043c.108-.015.229-.059.449.088.038.027.449.427 1.534 1.472.744.712 1.52 1.434 2.276 2.216 1.108 1.144-1.326 1.176-1.647.951z" id="Path" stroke="#BED630" stroke-width=".5"/><path d="M23.171 19.657c-.058-.392-.02-.93.032-1.785l.092-.821c.045-.835.075-1.295.09-1.38.052-.309.194-.602.424-.878.271-.325.542-.463.813-.416l.159.111c.084.069.198.13.242.392.008.047 0 .625-.007 2.146-.005 1.04.008 2.109-.037 3.205-.064 1.605-1.75-.181-1.808-.574" id="Path" fill="#F4811F"/><path d="M23.171 19.657c-.058-.392-.02-.93.032-1.785l.092-.821c.045-.835.075-1.295.09-1.38.052-.309.194-.602.424-.878.271-.325.542-.463.813-.416l.159.111c.084.069.198.13.242.392.008.047 0 .625-.007 2.146-.005 1.04.008 2.109-.037 3.205-.064 1.605-1.75-.181-1.808-.574z" id="Path" stroke="#F4811F" stroke-width=".5"/><path d="M28.524 21.005c.307-.244.787-.473 1.543-.848l.749-.321c.739-.37 1.148-.569 1.227-.597.29-.105.61-.123.96-.055.411.08.662.254.754.517l-.016.195c-.018.109-.015.24-.218.408-.038.03-.535.306-1.841 1.046-.892.506-1.803 1.042-2.763 1.539-1.406.73-.703-1.64-.395-1.884" id="Path" fill="#00B2EF"/><path d="M28.524 21.005c.307-.244.787-.473 1.543-.848l.749-.321c.739-.37 1.148-.569 1.227-.597.29-.105.61-.123.96-.055.411.08.662.254.754.517l-.016.195c-.018.109-.015.24-.218.408-.038.03-.535.306-1.841 1.046-.892.506-1.803 1.042-2.763 1.539-1.406.73-.703-1.64-.395-1.884z" id="Path" stroke="#00B2EF" stroke-width=".5"/><path d="M41.864 30.105c.346.268.33.574-.029.77l-8.828 2.015c-.51.142-1.059-.012-1.405-.279l-7.448-5.435c-.346-.267-.336-.643.025-.84l9.018-1.751c.741-.172 1.267.093 1.614.362l7.052 5.159v-.001z" id="Path" fill="#EC1D24"/><path d="M37.724 34.452c.345.269.331.572-.029.77l-8.827 2.015c-.509.143-1.058-.012-1.405-.277l-7.446-5.437c-.345-.267-.336-.643.024-.839l6.752-1.313 2.265-.44c.743-.171 1.271.095 1.615.362l7.052 5.158h-.001zM44.212 34.414c.345.267.33.573-.029.772l-8.826 2.012c-.51.145-1.06-.01-1.407-.278l-7.444-5.435c-.347-.266-.337-.643.023-.838l9.019-1.752c.742-.172 1.269.095 1.616.361l7.049 5.158z" id="Path" fill="#231F20"/><path d="M34.075 24.122l-1.7 8.227" id="Path" stroke="#231F20" stroke-width=".898" stroke-linecap="round" stroke-linejoin="round"/><path d="M43.465 29.493c-.215.413-.663.546-.998.304l-7.357-5.335c-.337-.243-.432-.774-.216-1.183l4.397-8.39c.218-.41.665-.547 1-.304l7.358 5.335c.335.244.431.773.214 1.185l-4.396 8.389zm-13.868 14.381c-.089.433-.427.583-.758.337l-7.192-5.408c-.328-.248-.521-.799-.43-1.231l1.958-9.488c.09-.434.427-.586.758-.338l7.192 5.409c.329.247.523.797.433 1.23l-1.96 9.49v-.001z" fill="#EC1D24" fill-rule="nonzero"/><g transform="translate(29.71 31.418)"><mask id="b"><use xlink:href="#a"/></mask><path d="M.465 12.582c-.089.433.161.708.559.618l8.725-2.005c.398-.092.793-.515.883-.949l1.96-9.489c.09-.432-.161-.71-.558-.618l-8.728 2.004c-.396.091-.79.518-.881.95l-1.96 9.489h-.001z" fill="#EC1D24" mask="url(#b)"/></g></g></svg>