<svg width="60" height="60" viewBox="0 0 60 60" xmlns="http://www.w3.org/2000/svg"><title>logo_name_shop-tele2</title><desc>Created with Sketch.</desc><g fill="none"><path fill="#282828" d="M0 0h60v60h-60z"/><path d="M18.283 25.653l-2.248.298v10.757h2.248v-11.054zm2.541 4.065l-2.126.173v2.528l2.126-.124v-2.578zm-5.57-3.644l-5.815.819v2.205l5.815-.669v-2.355zm10.579 10.634h3.688v-2.801l-3.688.099v2.702zm-.49-12.071l-2.54.372v11.699h2.54v-12.071zm-6.645 12.071h3.25v-2.578l-3.25.099v2.479zm0-8.65l3.25-.372v-2.553l-3.25.446v2.479zm-5.276 8.65v-7.709l-2.126.223v7.485h2.126zm35.595 0l.024-3.42-10.016.322v3.097h9.992l.001.001zm-6.767-8.948c-.147-1.982.463-2.478 1.075-2.726v-3.321c-2.907.62-4.324 2.801-4.177 6.32l3.103-.272zm2.956-2.205c.342.718 0 1.784-.855 2.801-1.27 1.536-4.715 4.708-4.715 4.708l4.935-.174c3.005-2.974 4.08-4.783 4.275-7.063.122-1.19-.317-2.33-1.172-3.149-.928-.892-2.297-1.264-3.763-1.04v3.247c.587-.026 1.075.198 1.295.669v.001zm-7.133-2.727l-4.275.595v2.949l4.275-.47v-3.073zm-4.837.669l-2.932.422v12.789h2.932v-13.211h-.001zm3.371 4.833l-2.809.247v3l2.809-.15v-3.098zm1.466 5.304l-4.275.124v2.95h4.275v-3.074z" fill="#fff" fill-rule="nonzero"/></g></svg>