<svg width="60" height="60" viewBox="0 0 60 60" xmlns="http://www.w3.org/2000/svg"><title>logo_name_vtb24</title><desc>Created with Sketch.</desc><g fill="none"><path fill="#0A2972" d="M0 0h60v60h-60z"/><path d="M36.403 29.354h-21.641s.652 2.11 1.41 3.19h19.254s3.675 2.905 5.433 7.983h-20.24c-3.492-2.872-6.107-6.754-7.48-11.173.174-.541.367-1.072.579-1.594h22.675c1.768-1.24 3.525-3.191 3.525-3.191h-24.614c.326-.545.673-1.076 1.042-1.593h24.86c.656-.803 1.974-3.191 1.974-3.191h-24.092c.579-.563 1.186-1.095 1.82-1.594h23.012c.63-1.524 1.08-3.191 1.08-3.191h-24.995c-4.877 3.501-8.408 8.567-10.005 14.354 1.6 5.784 5.125 10.85 9.993 14.36h24.942s-.439-7.637-8.532-14.36z" fill="#fff"/></g></svg>