<svg id="Layer_1" xmlns="http://www.w3.org/2000/svg" viewBox="0 0 60 60"><style>.st0{fill:#ffb600}</style><path id="base" class="st0" d="M30 0c16.6 0 30 13.4 30 30S46.6 60 30 60 0 46.6 0 30 13.4 0 30 0z"/><path id="Combined-Shape" d="M27.6 12h4.8c2.1 0 3.9 1.6 3.9 3.6v7.1c0 .5.4 1 1 1h7.1c2 0 3.6 1.7 3.6 3.9v4.8c0 2.1-1.6 3.9-3.6 3.9h-7.1c-.5 0-1 .4-1 1v7.1c0 2-1.7 3.6-3.9 3.6h-4.8c-2.1 0-3.9-1.6-3.9-3.6v-7.1c0-.5-.4-1-1-1h-7.1c-2 0-3.6-1.7-3.6-3.9v-4.8c0-1 .3-1.9.9-2.6l.5-.5 11.1-11.1c.7-.9 1.8-1.4 3.1-1.4z" fill="#fff"/><path class="st0" d="M27.1 18.8l2.7-3.2 2.7 3.2zM41.5 27.3l3.2 2.7-3.2 2.7zM27.1 41.7l2.7 3.1 2.7-3.1zM18.6 27.3L15.4 30l3.2 2.7z"/><circle class="st0" cx="-14.5" cy="27.3" r="4.8"/></svg>