<svg width="60" height="60" viewBox="0 0 60 60" xmlns="http://www.w3.org/2000/svg"><title>logo_name_lamoda</title><desc>Created with Sketch.</desc><g fill="none"><path d="M0 0h60v60h-60z" fill="#000"/><path d="M52.828 33.333c-.291.205-.48.274-.719.274-.394 0-1.027-.359-1.027-1.318 0-.582.274-.89.805-1.164.342-.188.633-.377.941-.53v2.739zm3.251.034c-.188.069-.377.137-.582.137-.274 0-.547-.223-.547-1.009v-2.825c0-.959-.154-1.695-.89-2.259-.462-.342-.975-.497-1.677-.497-.975.171-2.19.77-2.841 1.215-.393.291-.599.514-.599.821 0 .445.616.856 1.061.856.36 0 .6-.136.72-.581.136-.531.29-.941.495-1.181.155-.206.343-.308.566-.308.633 0 1.044.599 1.044 1.677v.513c-.394.342-1.712.753-2.722 1.13-.889.325-1.3.753-1.3 1.643 0 1.061.856 2.191 2.31 2.191.326 0 1.13-.565 1.781-.992.085.206.206.428.445.633.223.206.582.36 1.044.36l1.865-.975-.171-.547v-.001zm-11.329-.051c-.377.24-.633.274-.941.274-.787 0-2.002-.805-2.019-2.909 0-2.601 1.318-3.046 1.728-3.046.496 0 .959.29 1.232.89v4.792zm2.19-.788v-9.875c-.872.257-2.241.48-3.337.617v.53c1.044.12 1.147.206 1.147 1.13v2.071c-.377-.051-.565-.085-.702-.085-2.669 0-4.688 1.9-4.688 4.227 0 2.55 2.036 3.748 3.49 3.748.206 0 .446-.051.873-.307l1.027-.668v.992c1.352-.394 2.961-.598 3.371-.667v-.547l-.377-.034c-.718-.086-.804-.154-.804-1.13h-.001zm-12.543 1.695c-1.078 0-1.745-1.66-1.745-3.765 0-1.969.684-2.875 1.402-2.875 1.079 0 1.678 1.318 1.678 3.697 0 2.516-.685 2.944-1.335 2.944zm-.12-7.308c-1.899 0-4.073 1.403-4.073 4.159 0 1.865 1.318 3.816 4.005 3.816 2.002 0 3.97-1.369 3.97-4.124 0-2.053-1.506-3.851-3.902-3.851zm-5.715 6.058v-3.302c0-1.746-.804-2.756-2.293-2.756-.514 0-.976.223-1.352.48-.411.29-.821.547-1.232.872-.307-.787-1.009-1.352-1.951-1.352-.497 0-.959.206-1.489.547-.377.223-.702.462-1.078.736v-1.318c-.991.272-1.997.489-3.012.65v.496c.787.12.873.291.873 1.267v3.593c0 1.078-.103 1.13-1.078 1.249v.547h4.022v-.547c-.65-.102-.77-.188-.77-1.164v-4.175c.479-.36.908-.547 1.318-.547.633 0 1.181.377 1.181 1.609v3.114c0 1.01-.068 1.045-.872 1.164v.547h3.953v-.547c-.77-.102-.89-.188-.89-1.164v-3.457c0-.256-.034-.496-.052-.684.565-.462.993-.565 1.335-.565.548 0 1.215.274 1.215 1.677v2.943c0 1.078-.137 1.147-.89 1.249v.547h4.039v-.547c-.907-.136-.975-.188-.975-1.164h-.001zm-15.778-2.532c-.582 1.181-2.515 3.354-3.183 3.354-.24 0-.462-.36-.462-1.13 0-1.695.684-3.714 1.848-4.569.291-.223.77-.36 1.215-.36.445 0 .907.12 1.147.24-.121.547-.377 1.78-.566 2.464zm.787 3.149c-.103 0-.154-.137-.034-.736.394-2.173.908-4.501 1.181-5.562l-.051-.068c-.188 0-.411-.052-.65-.103-.36-.068-.702-.12-1.061-.12-1.079 0-2.327.599-3.183 1.318-1.25 1.044-2.054 2.91-2.054 4.638 0 1.369.548 1.934.992 1.934.462 0 1.027-.307 1.591-.77.837-.687 1.579-1.481 2.208-2.363h.034l-.343 1.626c-.24 1.249-.017 1.506.307 1.506.428 0 1.575-.633 2.499-1.78l-.205-.41c-.496.496-1.095.889-1.232.889zm-6.451-11.09c-.223 0-1.199.445-2.534.599l-.067.41.461.017c.788 0 .89.12.719.855-.583 2.815-1.176 5.627-1.78 8.437-.359 1.678-.086 2.071.24 2.071.53 0 1.745-.77 2.635-1.831l-.257-.377c-.479.497-1.181.941-1.369.941-.103 0-.171-.103-.068-.6.719-3.388 1.421-6.707 2.123-10.01.067-.36.051-.514-.103-.514z" fill="#fff" fill-rule="nonzero"/></g></svg>