<svg width="60" height="60" viewBox="0 0 60 60" xmlns="http://www.w3.org/2000/svg"><title>logo_name_otkr</title><desc>Created with Sketch.</desc><g fill="none"><path d="M0 0h60v60h-60z" fill="#00B2D2"/><path d="M29.999 12c-9.94 0-17.999 7.873-17.999 17.583 0 9.712 8.06 17.586 17.999 17.586 9.94 0 18.001-7.874 18.001-17.586 0-9.71-8.061-17.583-18.001-17.583m-3.79 26.213c.145.077.636.385.764.997.086.443.029.829-.192 1.187-.27.434-.725.67-1.298.67-.294 0-.596-.07-.879-.195l-.841-.39c-3.672-1.899-5.95-5.738-5.95-10.016v-1.764c0-4.276 2.286-8.117 5.966-10.028l.825-.379c.283-.128.585-.193.876-.193.573 0 1.031.243 1.301.671.22.355.278.743.192 1.185-.144.71-.781 1.008-.789 1.013-2.141.95-3.526 3.106-3.526 5.495v6.24c0 2.388 1.386 4.546 3.552 5.507m15.977-7.747c0 4.278-2.278 8.117-5.95 10.017l-.843.39c-.276.125-.574.191-.877.194-.572 0-1.027-.236-1.298-.67-.217-.358-.277-.744-.192-1.187.128-.612.617-.92.761-.997 2.171-.97 3.566-3.129 3.558-5.507v-6.24c0-2.389-1.388-4.545-3.53-5.495-.005-.005-.644-.303-.789-1.013-.085-.442-.025-.83.192-1.185.271-.428.726-.671 1.298-.671.296 0 .6.065.877.193l.824.379c3.689 1.911 5.969 5.752 5.969 10.028v1.764" fill="#fff" fill-rule="nonzero"/></g></svg>