<svg width="60" height="60" viewBox="0 0 60 60" xmlns="http://www.w3.org/2000/svg"><title>logo_name_kupivip</title><desc>Created with Sketch.</desc><g fill="none"><path fill="#000" d="M0 0h60v60h-60z"/><path d="M20.474 33.009v-.292h-.935v1.666h.935v-.293h-.614v-.41h.614v-.292h-.614v-.409h.614v.03-.001zm-1.87 1.402h.292v-1.665h-.292v1.665zm-.731-.292h-.262v-.409h.262l.146.058.058.146-.058.146c-.029.059-.088.059-.146.059v-.001zm0-.671h-.262v-.701h-.293v1.665h.555c.088 0 .175-.028.263-.058.084-.025.151-.091.176-.175.058-.088.058-.146.058-.234-.002-.081-.022-.161-.058-.234l-.175-.175c-.088-.088-.176-.088-.263-.088h-.001zm-1.636.672h-.263v-.41h.263l.146.058.059.146-.059.146c-.058.059-.088.059-.146.059zm0-1.11l.146.058.059.146-.059.146-.146.059h-.263v-.41h.263v.001zm.351.555c.058-.03.088-.088.117-.146l.029-.205c-.002-.081-.022-.161-.059-.234-.043-.072-.103-.132-.175-.175-.088-.059-.175-.059-.262-.059h-.555v1.665h.555c.087 0 .175-.028.262-.058.084-.026.15-.091.175-.175.059-.088.059-.146.059-.234l-.059-.205c0-.088-.058-.116-.088-.175zm-2.309.584c-.104.002-.207-.028-.292-.088-.082-.053-.151-.123-.204-.205-.059-.086-.09-.188-.088-.292 0-.116.029-.204.088-.292.053-.082.122-.152.204-.205.088-.056.189-.086.292-.088.117 0 .205.03.293.088.082.053.151.123.204.205.059.086.09.188.088.292.002.104-.028.207-.088.293-.053.082-.122.151-.204.204-.086.059-.188.09-.293.088zm0 .292c.176 0 .322-.03.438-.117.146-.088.234-.175.322-.322.088-.146.117-.262.117-.438.003-.154-.038-.306-.117-.439-.076-.134-.187-.245-.322-.321-.132-.079-.284-.12-.438-.117-.146 0-.322.029-.438.117-.134.076-.246.187-.322.321-.079.132-.12.284-.117.439 0 .146.03.293.117.438.088.146.175.234.322.322.116.087.292.116.438.116v.001zm-1.753-.994h-.263v-.41h.263l.146.059.058.146-.058.146-.146.059zm0-.701h-.555v1.665h.292v-.701h.263c.088 0 .175-.029.262-.059.084-.025.15-.091.176-.175.059-.088.059-.146.059-.234-.002-.081-.022-.161-.059-.234-.043-.072-.103-.132-.175-.175-.077-.055-.168-.085-.262-.088h-.001zm-1.227-.03l-1.052 1.052v-1.022h-.292v1.695l1.052-1.052v1.022h.293v-1.695zm-2.016 0l-.848.702-.848-.701v1.695h.293v-1.082l.555.467.555-.467v1.081h.293v-1.695.001zm22.763 1.695h.292v-1.665h-.292v1.665zm-.731-.292h-.262v-.409h.262l.146.058.059.146-.059.146c-.029.059-.088.059-.146.059v-.001zm0-.671h-.262v-.701h-.293v1.665h.555c.088 0 .175-.028.262-.058.084-.025.151-.091.176-.175.059-.088.059-.146.059-.234-.002-.081-.022-.161-.059-.234l-.175-.175c-.088-.088-.175-.088-.262-.088h-.001zm-2.22.672l.35-.731.35.731h-.701.001zm.993 0l-.672-1.433-.672 1.433h-.205v.643h.292v-.351h1.198v.351h.293v-.643h-.234zm-2.28-1.373v.701h-.759v-.701h-.292v1.665h.292v-.701h.76v.701h.293v-1.665h-.294zm-1.694.263v-.292h-.906v1.666h.906v-.293h-.613v-.41h.613v-.292h-.613v-.409h.613v.03-.001zm-1.957.439h-.262v-.41h.262l.146.059.058.146-.058.146-.146.059zm0-.701h-.555v1.665h.293v-.701h.262c.088 0 .175-.029.263-.059.084-.025.15-.091.175-.175.058-.088.058-.146.058-.234-.002-.081-.022-.161-.058-.234-.043-.072-.103-.132-.175-.175-.077-.055-.168-.085-.263-.088zm-1.636 1.373h-.262v-.409h.262l.146.058.059.146-.059.146c-.03.059-.088.059-.146.059v-.001zm0-.671h-.262v-.41h.73v-.292h-.993v1.666h.555c.088 0 .176-.028.263-.058.084-.026.15-.091.175-.175.058-.088.058-.146.058-.234-.002-.081-.022-.161-.058-.234l-.175-.175c-.117-.088-.205-.088-.293-.088zm15.37.117c.059-.03.088-.088.117-.146l.03-.205c-.002-.081-.022-.161-.059-.234-.043-.072-.103-.132-.175-.175l-.263-.059h-.41v.293h.41l.146.058.058.146-.058.146-.146.059h-.41v.263h.41l.146.058.058.146-.058.146-.146.059h-.41v.292h.41c.088 0 .175-.03.262-.059.084-.026.15-.091.175-.175.059-.088.059-.146.059-.234l-.029-.205c-.021-.068-.062-.129-.117-.175zm-1.372-.555v-.292h-.907v1.665h.905v-.292h-.614v-.409h.614v-.262h-.614v-.41h.614l.002.001zm-2.017 1.109h-.263v-.41h.263l.146.059.058.146-.058.146c-.03.059-.088.059-.146.059zm0-.672h-.263v-.41h.701v-.293h-.993v1.666h.555c.088 0 .175-.029.263-.058.084-.026.15-.091.175-.175.058-.088.058-.146.058-.234-.002-.081-.022-.161-.058-.234-.043-.072-.103-.132-.175-.175-.088-.088-.175-.088-.263-.088zm17.211.964h.293v-1.373h.438v-.292h-1.14v.292h.439v1.373h-.029zm-1.461-.671l.175-.35.175.35h-.351zm.643.672h.322l-.789-1.695-.789 1.695h.293l.175-.409h.585l.204.409zm-1.402 0l-.789-1.695-.789 1.695h.322l.467-1.022.467 1.022h.322zm-1.988-1.665h-1.344v1.665h.293v-1.372h.76v1.372h.293v-1.665h-.001zm-1.987.293v-.293h-.905v1.665h.934v-.292h-.643v-.409h.613v-.293h-.613v-.409h.613v.03zm-1.957.409h-.263v-.41h.263l.146.059.059.146-.059.146-.146.059zm0-.701h-.555v1.665h.292v-.701h.263c.088 0 .175-.029.262-.059.084-.025.15-.091.175-.175.059-.088.059-.146.059-.234-.002-.081-.022-.161-.059-.234-.043-.072-.103-.132-.175-.175-.077-.055-.169-.086-.263-.088zm-1.169.293v-.293h-.905v1.665h.905v-.292h-.613v-.409h.613v-.293h-.613v-.409h.613v.03zm-1.606-.293h-1.345v1.665h.292v-1.372h.76v1.372h.292v-1.665zm-16.48-7.159h.934v5.289h-.934v-5.289zm8.62 0h.935v5.289h-.935v-5.289zm-3.828 3.273l-1.52-3.273h-.964l2.483 5.406 2.513-5.406h-.994l-1.519 3.273zm-21.535-3.273h.935v5.289h-.935v-5.289zm4.295 0h-1.11l-2.104 2.63 2.104 2.63h1.139l-2.133-2.63 2.104-2.63zm35.065 1.52c0-.994-.876-1.549-1.636-1.549h-1.841v5.289h.935v-2.221l1.753 2.22h1.14l-1.783-2.22c.76-.088 1.432-.614 1.432-1.52h-.001zm-2.543.672v-1.315h.878c.613 0 .76.409.76.643 0 .409-.263.672-.76.672h-.878zm-28.255 1.256c0 .643-.38 1.052-.994 1.052-.585 0-.994-.41-.994-1.052v-3.448h-.935v3.477c0 1.257.906 1.9 1.9 1.9 1.023 0 1.899-.672 1.899-1.9v-3.477h-.934v3.448h.058zm4.616-3.448h-1.636v5.289h.934v-1.49h.701c1.257 0 1.9-.906 1.9-1.9 0-1.022-.643-1.899-1.9-1.899zm-.029 2.864h-.672v-1.958h.672c.643 0 1.052.38 1.052.993 0 .585-.438.965-1.052.965zm16.948-2.864h-1.636v5.289h.935v-1.49h.701c1.256 0 1.899-.906 1.899-1.9 0-1.022-.643-1.899-1.899-1.899zm-.03 2.864h-.671v-1.958h.672c.643 0 1.051.38 1.051.993 0 .585-.438.965-1.051.965h-.001zm13.88-2.864v3.448c0 .643-.38 1.052-.993 1.052-.585 0-.994-.41-.994-1.052v-3.448h-.935v3.477c0 1.257.906 1.9 1.9 1.9 1.022 0 1.899-.672 1.899-1.9v-3.477h-.877zm-11.045 4.325h.935v.935h-.935v-.935z" fill="#fff" fill-rule="nonzero"/></g></svg>