<svg width="60" height="60" viewBox="0 0 60 60" xmlns="http://www.w3.org/2000/svg"><title>logo_name_mamba</title><desc>Created with Sketch.</desc><g fill="none"><path fill="#F68E1E" d="M0 0h60v60h-60z"/><path d="M28.134 27.595c.623-.7 1.384-1.074 2.317-1.053.906.02 1.715.257 2.238 1.098.143-.178.274-.355.437-.504.448-.408.993-.557 1.579-.59.42-.025.843.012 1.253.11.78.19 1.209.699 1.346 1.473.041.234.062.47.061.707-.002 1.243-.001 2.487.002 3.73 0 .132-.022.18-.17.179-.863-.008-1.727-.007-2.591 0-.12 0-.152-.032-.148-.149.008-.31.007-.622 0-.932-.003-.105.031-.133.132-.13l.711.003c.068 0 .122.002.122-.095-.004-.859.019-1.718-.012-2.575-.031-.875-.638-1.16-1.39-1.044-.728.113-1.202.699-1.215 1.475-.013.706-.003 1.412-.007 2.118 0 .098.032.125.127.122l.695-.004c.084-.001.109.027.107.11-.004.326-.004.652 0 .979 0 .085-.019.121-.112.12-1.191-.003-2.382-.003-3.573 0-.078 0-.112-.017-.111-.104.004-.331.005-.663 0-.995-.002-.099.042-.11.122-.109l.696.003c.083.002.108-.024.107-.107-.004-.837.006-1.675-.009-2.513-.007-.43-.143-.81-.575-1.008-.507-.232-1.213-.107-1.621.278-.326.309-.468.696-.474 1.134-.01.695 0 1.39-.005 2.086 0 .109.037.131.136.129l.774-.005c.115-.004.14.034.138.143-.007.3-.009.6 0 .9.004.127-.025.17-.162.169-.89-.007-1.78-.007-2.67 0-.13 0-.155-.041-.155-.16.004-1.733.005-3.467.002-5.2 0-.236.028-.205-.212-.206h-.617c-.076.001-.101-.025-.101-.1v-.979c0-.076.027-.099.101-.099.875.002 1.75.002 2.624 0 .104 0 .105.05.105.126l-.002 1.47v-.001zm-1.57 5.778c0-.088-.023-.122-.113-.12-.184.005-.37-.014-.552.006-.175.02-.193-.052-.193-.2.005-.96.01-1.918-.005-2.877.002-.432-.161-.849-.455-1.166-.29-.312-.664-.478-1.069-.576-.86-.208-1.73-.218-2.602-.111-.55.067-1.075.214-1.492.613l-.031-.006c.01-.295-.013-.59-.07-.879-.145-.722-.556-1.196-1.276-1.393-.47-.121-.957-.16-1.44-.115-.55.042-1.05.217-1.464.596-.158.144-.285.316-.417.484-.533-.83-1.338-1.072-2.248-1.093-.93-.022-1.68.35-2.276 1.063-.049-.086-.03-.161-.032-.232 0-.406-.002-.811.006-1.217.002-.116-.027-.15-.148-.15-.896.005-1.791.003-2.687.003v1.17c.242 0 .485.01.727-.004.158-.01.2.031.2.195-.007 1.738-.005 3.477-.006 5.216 0 .095-.007.166.133.165.912-.007 1.823-.006 2.734 0 .11 0 .13-.04.129-.138-.006-.316-.006-.632 0-.948.003-.11-.039-.132-.137-.13l-.775.005c-.108.003-.145-.029-.144-.141.005-.674-.007-1.349.005-2.023.017-.988.628-1.585 1.586-1.569.657.011 1.064.387 1.08 1.046.021.858.01 1.717.017 2.575 0 .095-.042.113-.125.111l-.68-.003c-.095-.003-.126.025-.126.124.005.32.005.642 0 .964 0 .095.025.126.123.126 1.19-.003 2.382-.003 3.572 0 .093 0 .117-.031.116-.119-.004-.327-.004-.653 0-.98 0-.091-.032-.117-.12-.115l-.679.004c-.11.004-.142-.029-.141-.14.005-.685.006-1.37.002-2.055-.004-.838.605-1.622 1.629-1.537.511.043.848.312.953.81.025.118.039.238.04.36l.005 2.434c0 .11-.04.13-.137.126l-.696-.004c-.094-.002-.126.025-.126.124.006.31.008.622 0 .932-.003.12.025.162.154.16l1.707-.007c.151-.002.197.043.204.19.022.439.222.792.547 1.082.445.397.977.571 1.558.61.938.064 1.792-.126 2.456-.856l.088-.049-.002.647c-.002.091.03.115.117.115.822-.003 1.644-.003 2.466 0 .083 0 .109-.025.108-.108l.003-.995h-.001zm25.386-1.725c.002-.104-.039-.123-.13-.12l-.552.005c-.136.008-.179-.026-.178-.171.006-.953.012-1.907-.004-2.86-.014-.843-.456-1.452-1.256-1.704-1.114-.35-2.252-.364-3.382-.097-.945.223-1.405.772-1.54 1.732-.015.098.003.129.106.127.532-.005 1.065-.004 1.597 0 .075 0 .107-.017.122-.1.07-.393.325-.615.696-.714.327-.084.67-.09 1-.014.645.138.833.377.836 1.028 0 .13-.034.167-.166.167-.684 0-1.37-.022-2.054.016-.4.017-.796.096-1.172.234-.478.182-.875.467-1.125.949l-.047-.108c-.287-.72-.785-1.224-1.517-1.486-.557-.2-1.133-.227-1.713-.145-.525.074-.996.266-1.357.672l-.283.358v-3.269c0-.068.028-.147-.098-.146-.906.003-1.813.003-2.719 0-.071 0-.106.018-.105.094l.002.98c0 .08.03.097.102.095.226-.004.454.012.68-.005.17-.014.193.05.192.2-.007.875-.003 1.75-.003 2.624 0 1.038-.002 2.076.002 3.114 0 .117-.029.156-.15.151l-.678-.005c-.104-.003-.152.02-.149.138.008.316.008.632 0 .948-.003.115.039.14.145.139.817-.004 1.633-.004 2.45 0 .119 0 .151-.03.148-.148-.01-.289-.004-.58-.004-.879l.031.012.05.062c.578.79 1.367 1.132 2.335 1.112 1.435-.03 2.46-.835 2.783-2.2l.073-.39c.846 1.116 3.336 1.196 4.342-.09l-.002.66c-.003.096.023.127.122.127.817-.003 1.634-.003 2.45 0 .087 0 .12-.022.119-.114-.005-.326-.006-.652 0-.979h.001zm-28.072-1.057c-.022.095-.09.056-.138.057l-1.613.002c-.523.002-1.039.056-1.54.221-.18.06-.34.161-.536.253l-.002-.717c-.003-.097.04-.111.124-.112l1.057-.008c.075 0 .106-.017.123-.1.081-.399.337-.632.729-.715.42-.09.838-.08 1.243.071.48.179.668.552.551 1.048h.002zm-.007 1.338c-.113.927-.74 1.498-1.732 1.451-.137-.004-.272-.029-.402-.072-.316-.111-.501-.342-.521-.662-.02-.32.11-.53.431-.682.37-.176.77-.2 1.193-.218.288-.005.597.006.907.025.11.006.136.052.124.158zm19.138-.401c0 .49-.09.957-.435 1.33-.47.506-1.066.588-1.697.424-.622-.161-.963-.613-1.097-1.222-.086-.387-.079-.789.019-1.173.205-.807.838-1.245 1.672-1.203 1.011.05 1.515.737 1.538 1.718v.126zm6.247-1.37c-.116 1.029-.808 1.566-1.805 1.49-.153-.007-.303-.045-.44-.113-.264-.14-.407-.351-.417-.656-.01-.304.14-.497.391-.63.33-.172.693-.205 1.056-.23l.426-.001v-.013l.692.037c.089.003.105.038.097.116z" fill="#fff" fill-rule="nonzero"/></g></svg>