<svg width="60" height="60" viewBox="0 0 60 60" xmlns="http://www.w3.org/2000/svg"><title>logo_name_befree</title><desc>Created with Sketch.</desc><g fill="none"><path fill="#01D7D0" d="M0 0h60v60h-60z"/><path d="M45.675 29.55c.075-.825.45-1.575.975-2.1.6-.6 1.35-.9 2.25-.9h.075c.975 0 1.8.3 2.325.9.525.6.75 1.275.75 2.1h-6.375zm-5.625 0h-3.225c.075-.825.375-1.575.975-2.1.6-.6 1.35-.9 2.175-.9h.15c.975 0 1.8.3 2.325.9.525.6.75 1.275.75 2.1h-3.15zm-19.575 0h-3.225c.075-.825.375-1.575.975-2.1.6-.6 1.35-.9 2.175-.9h.075c.975 0 1.725.3 2.325.9.525.6.825 1.275.825 2.1h-3.15zm-6.675 4.575c-.45.525-1.125.825-2.025.975-.3.075-.675.075-.975.075-.3 0-.675-.15-1.2-.375-.525-.3-.75-.45-.75-.6v-6.75c.15-.15.45-.375.9-.6.45-.225.825-.3 1.05-.3.375 0 .675 0 .975.075.75.15 1.35.525 1.875.975.675.75 1.05 1.8 1.05 3.075 0 1.65-.3 2.775-.9 3.45zm40.2-3.075c.15-.375.15-.825.15-1.275 0-1.5-.45-2.7-1.35-3.6-.975-.9-2.25-1.425-3.9-1.425-1.425 0-2.7.525-3.675 1.575-.225.225-.375.375-.525.6-.15-.3-.375-.525-.675-.75-.975-.9-2.25-1.425-3.9-1.425-1.2 0-2.25.375-3.15 1.125l.375-.9c-.675-.15-1.2-.225-1.575-.225-1.5 0-2.625.675-3.375 2.1v-1.875h-4.125l-.075-.6c0-.75.225-1.35.6-1.8.45-.45.9-.75 1.575-.75.375 0 .75.075 1.2.225l.6-1.5c-.75-.225-1.425-.3-2.025-.3-1.2 0-2.175.45-2.925 1.275s-1.125 2.025-1.125 3.525h-1.725v1.2s0-.075-.075-.075c-.975-.9-2.25-1.425-3.9-1.425-1.425 0-2.625.525-3.675 1.575l-.075.075s0 .075-.075.075l-.075.075-.075.075s0 .075-.075.075c0 0-.075.075-.075.15v.15l-.075.075v.075l-.075.075v.225c-.15-.3-.375-.6-.6-.825-.975-1.05-2.175-1.575-3.6-1.65h-.225c-.525 0-1.05.15-1.575.3-.525.225-.9.45-1.125.75v-5.775h-2.25v16.65h1.05l.75-1.05c.3.3.675.525 1.2.75.525.225 1.05.3 1.65.3h.45c1.5-.075 2.7-.675 3.6-1.65.225-.225.45-.525.6-.75.075.075.15.15.15.225l.075.075.075.075v.375c1.05.975 2.25 1.5 3.75 1.5.975 0 1.95-.15 2.775-.45.675-.225 1.125-.525 1.5-.825l-.9-1.5c-.825.675-1.8 1.05-3 1.05h-.375c-.9-.075-1.575-.375-2.175-.975-.75-.75-1.125-1.8-1.125-3.15h8.4c.075-.375.15-.825.15-1.275 0-1.2-.3-2.175-.9-3h1.275v9.9h2.1v-9.75h2.025v9.9h2.025v-6.675c0-.975.3-1.8.825-2.475.525-.675 1.2-1.05 1.95-1.05.3 0 .6.075.975.225-.9 1.125-1.35 2.55-1.35 4.2 0 1.875.6 3.3 1.725 4.425 1.05.975 2.25 1.5 3.75 1.5 1.05 0 1.95-.15 2.775-.45.675-.225 1.125-.525 1.5-.825l-.9-1.5c-.825.675-1.8 1.05-2.925 1.05h-.375c-.825-.075-1.575-.375-2.175-.975-.75-.75-1.125-1.8-1.125-3.15h6.6c0 1.8.6 3.3 1.725 4.35 1.05.975 2.25 1.5 3.75 1.5.975 0 1.95-.15 2.775-.45.675-.225 1.125-.525 1.5-.825l-.9-1.5c-.825.675-1.8 1.05-2.925 1.05h-.375c-.9-.075-1.575-.375-2.175-.975-.75-.75-1.125-1.8-1.125-3.15l8.625.075z" fill="#fff" fill-rule="nonzero"/></g></svg>