<svg xmlns="http://www.w3.org/2000/svg" width="80" height="80" xmlns:xlink="http://www.w3.org/1999/xlink"><defs><circle id="a" cx="40" cy="40" r="40"/></defs><g fill="none"><use fill="#2096F3" xlink:href="#a"/><g fill="#FFF"><path d="M52.8 48.037c0 6.166-4.984 11.163-11.134 11.163h-3.332c-6.15 0-11.134-4.997-11.134-11.163v-11.274c0-6.166 4.984-11.163 11.134-11.163h3.332c6.15 0 11.134 4.997 11.134 11.163v11.274zm9.314-17.637h1.886v-6.5c0-4.84-3.118-7.9-7.958-7.9h-32.084c-4.84 0-7.958 3.06-7.958 7.9v6.5h1.886c3.524 0 6.114 3.05 6.114 6.406v6.388c0 3.356-2.59 6.406-6.114 6.406h-1.886v6.5c0 4.84 3.118 7.9 7.958 7.9h32.084c4.84 0 7.958-3.06 7.958-7.9v-6.5h-1.886c-3.524 0-6.114-3.05-6.114-6.406v-6.388c0-3.356 2.59-6.406 6.114-6.406zM48 43.194c0 3.356-3.504 6.406-7.03 6.406h-1.941c-3.525 0-7.029-3.05-7.029-6.406v-6.388c0-3.356 3.504-6.406 7.029-6.406h1.94c3.527 0 7.031 3.05 7.031 6.406v6.388zm-6.331-15.994h-3.539c-5.13 0-9.33 4.682-9.33 9.814v10.772c0 5.132 4.2 9.814 9.331 9.814h3.538c5.131 0 9.531-4.682 9.531-9.814v-10.772c0-5.132-4.4-9.814-9.531-9.814zM40.742 46.262h-.196c-2.679 0-5.192-1.548-5.192-4.304v-2.604s-.004-.954-.884-.954c-.876 0-.87.954-.87.954v2.603c0 3.712 3.302 6.043 6.946 6.043h.196s.858-.014.858-.851c0-.842-.858-.887-.858-.887"/></g></g></svg>