<svg width="60" height="60" viewBox="0 0 60 60" xmlns="http://www.w3.org/2000/svg"><title>css-minsk-js-logo-2019</title><desc>Created with Sketch.</desc><g fill="none"><path fill="#FF3140" d="M0 0h60v60h-60z"/><g fill="#fff"><path id="Path" d="M30.402 29.833l2.762-2.794 2.762 2.794-2.762 2.794zM19.262 41.102l2.762-2.794 2.762 2.794-2.762 2.794z"/><path d="M44.186 43.896l2.76-2.792-5.511-5.58 5.511-5.576v-.004l-5.511-5.572 5.511-5.576-2.76-2.792-5.511 5.572-5.511-5.576-2.763 2.792 11.026 11.156-11.026 11.152 2.763 2.792 5.511-5.572 5.511 5.576zm-13.893-8.372l-8.271-8.368v.004l-.004-.004-8.271 8.368 2.763 2.796 5.511-5.576 5.511 5.576 2.76-2.796z" fill-rule="nonzero"/><path d="M16.512 27.164l5.511-5.576 5.511 5.576 2.76-2.792-8.271-8.368h-.004l-8.271 8.368z"/></g></g></svg>