<svg width="60" height="60" viewBox="0 0 60 60" xmlns="http://www.w3.org/2000/svg"><title>logo_name_diji</title><desc>Created with Sketch.</desc><g fill="none"><path fill="#84BF00" d="M0 0h60v60h-60z"/><path d="M7.5 28.575c.721-2.678 2.981-4.66 5.73-5.025 1.065-.225 2.085-.675 3.135-.99 1.786-.661 3.79-.309 5.244.921 1.454 1.23 2.133 3.148 1.776 5.019-.291 1.952-.697 3.886-1.215 5.79-.468 1.74-1.787 3.124-3.502 3.675-1.715.552-3.593.196-4.988-.945-1.605-1.245-3.11-2.614-4.5-4.095-.681-.927-1.246-1.935-1.68-3v-1.35zm12.885 0c.038-.599.038-1.201 0-1.8-.006-1.019-.568-1.953-1.464-2.437-.896-.484-1.985-.441-2.841.112-1.032.517-2.034 1.093-3 1.725-.838.467-1.369 1.339-1.4 2.298-.031.959.444 1.863 1.25 2.382 1.075.766 2.22 1.429 3.42 1.98.827.421 1.81.397 2.616-.062s1.328-1.292 1.389-2.218c0-.705-.015-1.38.03-2.055v.075zm13.545-.495l.6-3.615h3c-.48 4.08-.945 8.145-1.5 12.225h-2.325l-.705-.84c-.17.009-.337.044-.495.105-.77.532-1.675.833-2.61.87-1.209.092-2.282-.766-2.46-1.965-.29-1.679.04-3.407.93-4.86.7-1.225 2.01-1.972 3.42-1.95.645-.075 1.305-.015 2.145.03zm-.33 2.715c-1.005-.84-1.89-.795-2.565.195-.49.737-.668 1.637-.495 2.505.016.391.228.747.564.947.336.2.751.216 1.101.043.659-.155 1.132-.733 1.155-1.41.06-.765.15-1.575.24-2.28zm10.41-2.4h2.82c.03.5.03 1 0 1.5-.21 1.98-.435 3.945-.69 5.91-.071.431-.172.857-.3 1.275-.496 2.189-2.482 3.714-4.725 3.63l-.705-1.965c1.626-.461 2.727-1.971 2.67-3.66.105-1.74.405-3.495.63-5.235.045-.465.18-.93.3-1.455zm5.01-.015h3l-1.02 8.28h-3c.21-2.73.615-5.4 1.02-8.28zm-11.19 8.265l.99-8.145h3c-.15 2.73-.57 5.415-.975 8.22l-3.015-.075zm1.17-9.87l.36-2.355h3l-.225 2.355h-3.135zm5.385-2.355h3c.345.84-.12 1.5-.24 2.37h-2.76v-2.37zm7.815 2.385h-2.895l.195-2.385h3l-.3 2.385z" fill="#fff" fill-rule="nonzero"/></g></svg>