<svg width="60" height="60" viewBox="0 0 60 60" xmlns="http://www.w3.org/2000/svg"><title>logo_name_modi</title><desc>Created with Sketch.</desc><g fill="none"><path d="M0 0h60v60h-60z" fill="#262624"/><g fill="#fff"><path d="M49.033 22.625c1.072.002 1.943-.865 1.947-1.937-.005-1.072-.875-1.938-1.947-1.937-1.072-.002-1.944.865-1.948 1.937.004 1.073.876 1.939 1.948 1.937z"/><path d="M48.995 22.642c1.072.001 1.943-.866 1.946-1.938-.004-1.072-.875-1.938-1.946-1.937-1.073-.002-1.944.865-1.949 1.937.004 1.073.876 1.94 1.949 1.938zm0 1.613c-.845-.002-1.531.681-1.534 1.526v5.61c0 .845.688 1.526 1.534 1.526.406.001.795-.159 1.082-.445.288-.286.45-.674.451-1.08v-5.611c-.002-.844-.689-1.527-1.533-1.526v.001zm-8.1 5.614c-1.072 0-1.942-.866-1.946-1.938.004-1.072.875-1.939 1.947-1.939s1.943.866 1.948 1.939c-.005 1.072-.876 1.939-1.949 1.938zm3.482-11.119c-.847 0-1.533.682-1.533 1.524v3.06c-.617-.259-1.279-.391-1.949-.39-2.764 0-5.014 2.235-5.014 4.987 0 2.747 2.25 4.986 5.015 4.986 2.765 0 5.015-2.239 5.015-4.986v-7.656c-.001-.406-.164-.794-.452-1.08-.288-.286-.678-.446-1.083-.444h.001zm-14.512 11.119c-1.072.001-1.943-.866-1.948-1.938.004-1.073.875-1.94 1.948-1.939 1.073-.001 1.945.866 1.949 1.939-.005 1.073-.877 1.939-1.949 1.938zm0-6.924c-2.765 0-5.015 2.234-5.015 4.986 0 2.747 2.25 4.986 5.015 4.986 2.767 0 5.015-2.239 5.015-4.986 0-2.752-2.249-4.986-5.015-4.986zm-10.864 0c-1.234-.002-2.422.467-3.322 1.31-.901-.843-2.089-1.312-3.323-1.31-2.678 0-4.856 2.165-4.856 4.827v3.619c.001.406.163.794.45 1.08.288.286.677.446 1.083.445.406.001.795-.159 1.083-.445.288-.286.45-.675.451-1.081v-3.619c0-.983.803-1.78 1.79-1.78.985-.002 1.785.795 1.789 1.78v3.619c.001.406.163.794.45 1.08.288.286.677.446 1.083.445.845.002 1.531-.681 1.534-1.526v-3.619c0-.983.803-1.78 1.79-1.78.985-.001 1.785.795 1.789 1.78v3.619c.001.406.163.794.45 1.08.288.286.677.446 1.083.445.406.001.795-.159 1.083-.445.288-.286.45-.675.451-1.081v-3.619c0-2.663-2.18-4.827-4.857-4.827v-.001zM49.033 22.625c1.072.002 1.943-.865 1.947-1.937-.005-1.072-.875-1.938-1.947-1.937-1.072-.002-1.944.865-1.948 1.937.004 1.073.876 1.939 1.948 1.937zm-33.562 14.396v.543h-1.374v1.059h1.265v.542h-1.265v1.715h-.508v-3.86h1.882zm4.653 0v2.317c0 .233-.036.447-.109.645-.068.188-.17.361-.305.51-.134.145-.298.259-.481.333-.202.081-.418.122-.635.118-.213.003-.425-.036-.622-.116-.181-.073-.345-.184-.48-.325-.137-.145-.242-.317-.311-.505-.077-.21-.114-.433-.112-.657v-2.321h.508v2.327c0 .161.024.307.073.436.09.25.284.447.533.54.126.048.265.073.416.073.144.002.287-.023.422-.075.247-.096.439-.297.524-.548.047-.13.071-.272.071-.431v-2.322h.508zm2.281 0l2.071 3.032v-3.032h.508v3.86h-.552l-2.071-3.016v3.016h-.508v-3.86h.551zm7.933 1.788l.162.22c.095.158.145.34.142.524.001.15-.026.288-.08.414-.052.122-.129.232-.227.322-.101.092-.22.164-.349.21-.145.052-.297.077-.451.075-.132 0-.263-.02-.39-.06-.121-.037-.237-.089-.346-.155-.098-.059-.188-.13-.268-.212-.066-.065-.118-.143-.154-.228l.157-.517c.119.187.271.337.457.451.185.115.381.172.586.172.185 0 .32-.042.408-.126.089-.086.137-.207.133-.331-.001-.104-.033-.205-.092-.29-.062-.094-.139-.178-.227-.247l-.562-.468c-.124-.1-.242-.207-.352-.323-.108-.11-.201-.234-.277-.367-.068-.123-.102-.261-.101-.401 0-.136.024-.259.073-.367.047-.107.117-.203.206-.28.088-.078.194-.136.317-.178.33-.107.689-.072.992.097l.227.17.16.204-.113.506c-.109-.137-.242-.254-.392-.344-.146-.094-.316-.144-.489-.145-.113-.004-.225.025-.322.083-.088.056-.132.146-.132.271.002.098.038.192.103.266l.206.207.332.263.217.172.137.113.098.086.214.212zm2.463-1.788v1.602h2.104v-1.602h.508v3.86h-.508v-1.715h-2.104v1.715h-.508v-3.86h.508zm5.656.221c-.345.14-.617.415-.754.761-.075.185-.113.383-.111.583 0 .212.037.406.11.584.138.344.41.616.755.752.173.07.36.105.563.105.198 0 .384-.035.556-.105.172-.069.322-.169.449-.296.129-.131.231-.286.3-.457.076-.187.114-.387.111-.589.002-.2-.035-.398-.11-.583-.136-.344-.407-.617-.749-.755-.177-.072-.366-.109-.556-.108-.193-.002-.384.035-.563.108zm1.297-.506c.234.1.44.24.617.419.373.38.58.892.578 1.424.003.272-.05.542-.157.793-.1.235-.243.449-.421.631-.175.179-.384.321-.614.42-.231.1-.481.151-.733.15-.257.001-.512-.051-.748-.153-.47-.2-.844-.577-1.041-1.049-.106-.249-.159-.517-.157-.788-.005-.534.204-1.048.579-1.427.176-.177.386-.32.615-.419.234-.102.488-.154.742-.153.259 0 .505.05.74.15l-.001.001zm3.487 2.085h.66c.165.004.325-.059.442-.175.12-.12.185-.284.179-.454 0-.084-.015-.167-.046-.245-.059-.152-.177-.273-.328-.336-.078-.033-.163-.049-.248-.049h-.66v1.258zm1.057-1.718c.29.106.524.328.644.613.063.145.094.305.094.48 0 .172-.03.33-.089.474-.06.143-.143.265-.252.367-.112.105-.243.186-.386.24-.156.058-.322.087-.489.085h-.579v1.517h-.508v-3.86h1.081c.172 0 .334.028.484.082v.001zM15.472 37.02v.543h-1.374v1.059h1.265v.542h-1.265v1.715h-.508v-3.86h1.882zm4.653 0v2.317c0 .233-.036.447-.109.645-.068.188-.17.361-.305.51-.134.145-.298.259-.481.333-.202.081-.418.122-.635.118-.213.003-.425-.036-.622-.116-.181-.073-.345-.184-.48-.325-.137-.145-.242-.317-.311-.505-.077-.21-.114-.433-.112-.657v-2.321h.508v2.327c0 .161.024.307.073.436.09.25.284.447.533.54.126.048.265.073.416.073.144.002.287-.023.422-.075.247-.096.439-.297.524-.548.047-.13.071-.272.071-.431v-2.322h.508zm2.281 0l2.071 3.032v-3.032h.508v3.86h-.552l-2.071-3.016v3.016h-.508v-3.86h.551zm7.933 1.788l.162.22c.095.158.145.34.142.524.001.15-.026.288-.08.414-.052.122-.129.232-.227.322-.101.092-.22.164-.349.21-.145.052-.297.077-.451.075-.132 0-.263-.02-.39-.06-.121-.037-.237-.089-.346-.155-.098-.059-.188-.13-.268-.212-.066-.065-.118-.143-.154-.228l.157-.517c.119.187.271.337.457.451.185.115.381.172.586.172.185 0 .32-.042.408-.126.089-.086.137-.207.133-.331-.001-.104-.033-.205-.092-.29-.062-.094-.139-.178-.227-.247l-.562-.468c-.124-.1-.242-.207-.352-.323-.108-.11-.201-.234-.277-.367-.068-.123-.102-.261-.101-.401 0-.136.024-.259.073-.367.047-.107.117-.203.206-.28.088-.078.194-.136.317-.178.33-.107.689-.072.992.097l.227.17.16.204-.113.506c-.109-.137-.242-.254-.392-.344-.146-.094-.316-.144-.489-.145-.113-.004-.225.025-.322.083-.088.056-.132.146-.132.271.002.098.038.192.103.266l.206.207.332.263.217.172.137.113.098.086.214.212zm2.463-1.788v1.602h2.104v-1.602h.508v3.86h-.508v-1.715h-2.104v1.715h-.508v-3.86h.508zm5.656.221c-.345.14-.617.415-.754.761-.075.185-.113.383-.111.583 0 .212.037.406.11.584.138.344.41.616.755.752.173.07.36.105.563.105.198 0 .384-.035.556-.105.172-.069.322-.169.449-.296.129-.131.231-.286.3-.457.076-.187.114-.387.111-.589.002-.2-.035-.398-.11-.583-.136-.344-.407-.617-.749-.755-.177-.072-.366-.109-.556-.108-.193-.002-.384.035-.563.108zm1.297-.506c.234.1.44.24.617.419.373.38.58.892.578 1.424.003.272-.05.542-.157.793-.1.235-.243.449-.421.631-.175.179-.384.321-.614.42-.231.1-.481.151-.733.15-.257.001-.512-.051-.748-.153-.47-.2-.844-.577-1.041-1.049-.106-.249-.159-.517-.157-.788-.005-.534.204-1.048.579-1.427.176-.177.386-.32.615-.419.234-.102.488-.154.742-.153.259 0 .505.05.74.15l-.001.001zm3.487 2.085h.66c.165.004.325-.059.442-.175.12-.12.185-.284.179-.454 0-.084-.015-.167-.046-.245-.059-.152-.177-.273-.328-.336-.078-.033-.163-.049-.248-.049h-.66v1.258zm1.057-1.718c.29.106.524.328.644.613.063.145.094.305.094.48 0 .172-.03.33-.089.474-.06.143-.143.265-.252.367-.112.105-.243.186-.386.24-.156.058-.322.087-.489.085h-.579v1.517h-.508v-3.86h1.081c.172 0 .334.028.484.082v.001z" fill-rule="nonzero"/></g></g></svg>