<svg width="60" height="60" viewBox="0 0 60 60" xmlns="http://www.w3.org/2000/svg"><title>logo_name_dcrussia</title><desc>Created with Sketch.</desc><g fill="none"><path d="M0 0h60v60h-60z" fill="#000"/><g fill="#fff"><path d="M40.884 38.689h-1.083c-1.866.014-3.719-.323-5.461-.991.442-.577.838-1.189 1.183-1.83.992-1.849 1.516-3.912 1.526-6.01 0-2.151-.565-4.202-1.526-6.01-.345-.643-.74-1.258-1.183-1.838 1.746-.657 3.596-.993 5.461-.992h1.083v2.898h5.972v-8.87h-7.055c-3.814 0-7.39.977-10.335 2.7-2.967-1.716-6.536-2.693-10.358-2.7h-7.048v16.215h5.965v-10.235h1.083c1.99 0 3.844.366 5.468.992-.442.58-.838 1.195-1.182 1.837-.968 1.808-1.533 3.86-1.533 6.011.007 2.144.557 4.203 1.533 6.01.345.641.74 1.253 1.182 1.83-1.747.662-3.6.998-5.468.992h-1.083v-3.944h-5.966v9.915h7.048c3.577 0 6.926-.854 9.77-2.38l.587-.32c.183.115.382.221.58.32 2.837 1.518 6.185 2.38 9.755 2.38h7.055v-9.877h-5.972v3.898l.001-.001zm-10.632-5.636c-.221.405-.488.809-.793 1.205-.303-.377-.571-.78-.801-1.205-.541-1.022-.823-2.074-.823-3.195 0-1.122.282-2.175.823-3.197.214-.404.488-.809.801-1.205.305.397.572.801.793 1.205.542 1.022.824 2.075.816 3.196 0 1.121-.267 2.173-.816 3.196z" fill-rule="nonzero"/><path d="M44.698 27.752l-.824-2.486-.816 2.486-2.456-.915 1.433 2.189-2.234 1.35 2.601.244-.344 2.594 1.815-1.884 1.816 1.884-.343-2.594 2.608-.244-2.25-1.35 1.434-2.189z"/></g></g></svg>