<svg width="60" height="60" viewBox="0 0 60 60" xmlns="http://www.w3.org/2000/svg"><title>logo_name_ok</title><desc>Created with Sketch.</desc><g fill="none"><path fill="#EB722E" d="M0 0h60v60h-60z"/><path d="M29.86 18.14c1.959.002 3.546 1.589 3.548 3.548-.003 1.957-1.59 3.543-3.547 3.545-1.957-.002-3.544-1.588-3.547-3.545.001-1.959 1.588-3.546 3.547-3.548h-.001zm0 12.112c4.726 0 8.568-3.841 8.568-8.564 0-4.726-3.842-8.569-8.567-8.569s-8.568 3.844-8.568 8.569c0 4.723 3.843 8.564 8.568 8.564h-.001zm3.467 6.988c1.762-.402 3.444-1.098 4.974-2.06.759-.477 1.206-1.324 1.172-2.22-.034-.896-.543-1.706-1.337-2.125-.793-.419-1.749-.383-2.509.095-3.529 2.206-8.006 2.206-11.535 0-.563-.354-1.245-.47-1.894-.322-.649.148-1.212.548-1.566 1.112-.738 1.173-.386 2.721.786 3.46 1.53.962 3.212 1.658 4.974 2.06l-4.79 4.79c-.98.981-.98 2.57.001 3.55s2.57.98 3.55-.001l4.706-4.706 4.708 4.706c.979.98 2.568.98 3.547 0 .982-.98.982-2.57 0-3.549l-4.788-4.79v-.001z" fill="#fff" fill-rule="nonzero"/></g></svg>