<svg width="60" height="60" viewBox="0 0 60 60" xmlns="http://www.w3.org/2000/svg"><title>logo_name_justfood</title><desc>Created with Sketch.</desc><g fill="none"><path d="M0 0h60v60h-60z" fill="#000"/><g fill="#fc0" fill-rule="nonzero"><path d="M30.954 15.031l-.041.031-.113-.002c-.776-.035-1.554-.047-2.331-.038-.545-.001-1.09.01-1.635.034l-.22-.006-.288-.015c-.253 0-.433.013-.737.052l-.152.02-.16-.02c-.364-.046-.667-.046-.825-.002l-.109.007-.274.004-.251.004.015-.015.077-.008.022-.011c-.023-.014-.123-.012-.517.002-.4.014-1.249.008-1.392-.01l-.177.008c-.18.042-.441.049-.71.02l-.111.001.002.017.011.014-.115-.002c-.101-.028-.567-.06-.579-.04l.022.032.029.034c0 .026-.099.042-.149.022l-.094-.02-.107-.028-.342-.015-.309.007.068.041.067.03-.01.009c-.157-.025-.316-.029-.474-.011l-.086-.005c-.022-.027-.077-.036-.225-.037l-.293-.011c-.159-.01-.161-.01-.26.015-.137.034-.439.048-.409.017l-.048-.032-.046-.014-.082-.015-.048.038.021.016-.025.027c-.034.038-.022.06.039.069l.06.015-.232-.025-.242-.042.053-.008c.148.001.163-.004.163-.046v-.032l-.141-.006-.219.002-.075.024-.131.073c-.079.022-.162.025-.243.01l-.055-.028-.055-.047-.093.009-.04.023-.086-.014-.242-.022c-.191 0-.309.013-.322.035l.082.007c.083-.007.247.004.263.018l-.235.025-.198.021-.026.017.062.003.306-.031c.015-.01.212.016.251.032l.158.038.124.025c.018.008-.27-.005-.437-.021l-.17-.016-.043.022c-.053.025-.104.021-.184-.015-.069-.03-.183-.038-.37-.024l-.166.016.002.054.009.024c-.02.02-.257-.013-.302-.041-.045-.03-.037-.055.029-.096l.036-.038-.129-.014-.13.015.01.014-.019.052c-.066.055-.252.09-.58.111-.158.009-.202.005-.202-.02l-.176-.017-.193-.022-.1-.012-.127-.008.127-.026c.173-.004.223-.027.125-.058l-.24-.014-.257.004-.062.022.089.05.055.032-.135-.012-.153-.015-.087.037c-.052.052-.072.152-.035.183l.126.019.172.04.081.009.089-.007-.037-.05c-.086-.038-.034-.052.1-.025h.125c.123-.035.213-.045.35-.04l.192.022.057.019-.047.023c-.108.052-.022.083.11.037.083-.026.175-.041.325-.05l.043.008-.038.025.083.013.122-.03c.067-.055.162-.064.27-.026l.052.02-.061.005-.065.01.005.041.051.036.069-.034.077-.031.263.005.23.022-.006.012-.291-.012-.097.043c.007.007.193.011.585.013.589.002.607 0 .63-.034.005-.01.082-.003.538.048l.227.002-.026-.043-.025-.033h.022l.147.015.389.024c.405.015.626.029.757.046l.041.03-.247.042-.037.048-.128.072c-.165.013-.331.012-.497-.003l-.038-.013.038-.017c.058-.027.213-.03.327-.01l.101.007.015-.072-.009-.071c-.389.02-.779.023-1.168.01l-.217-.006-.07.026-.08.031.132.011.304-.014.19.01.019.034.143.02c.196.001.186.014-.018.019l-.355.017-.256.003-.128.026.07.02.112.008.043.007-.048.007-.358.066.019.04-.014.053c-.052.023-.226.051-.261.042l.055-.063c.095-.046.096-.06.006-.052l-.139.07-.071.071.121.043.148-.024.154-.048.124-.038.124-.026c.092-.007.323.009.403.028l.053.013-.043.011-.178.04-.161.037.005.045c.036.007.349.006.363-.002l-.016-.039c-.052-.014.03-.032.25-.057l.293-.037-.029.013-.053.031.215.014h.216l.035.026.177.028.234-.02.182-.025.072.011.035.057.032.034.098.022.119-.019.019-.033.015-.023.202.01c.118.028.167.03.263.017l.273-.033c.258-.027.375-.046.441-.072l.178-.028.205-.011.193.03.107.038.067-.017.182-.01-.143.032-.33.065-.385.064-.195.025-.037-.019-.043-.035-.258-.011-.407.013-.157.007-.054.038c-.081.054-.135.067-.273.064-.124-.004-.129-.002-.118.043.01.04.048.045.173.025l.511-.062.079.017c.015.037.066.048.145.03l.214-.021.151-.019-.021-.02.042-.016c.068-.01.209-.004.324.015l.304.02.002.019-.065.043c.017.02.325.02.475 0 .202-.028.216-.028.26-.004l.098-.006-.103-.056-.127-.054-.022-.018.022-.018c.033-.029.121-.046.158-.031.063.025.129.032.271.026.155-.005.248-.021.242-.038-.007-.021-.075-.025-.225-.015l-.157.001.166-.015c.204-.007.239-.013.28-.055l.107-.043c.093-.017.378-.031.377-.019l-.012.04-.012.032-.113.005c-.175.007-.238.026-.257.079l-.117.038-.141.032.046.005.064.003-.033.032-.113.037-.066.025-.002.015.575-.004c.462-.004.597-.008.713-.022h.153l.161.021c.188.007.217.017.071.025-.24.015-.33.05-.359.143l-.021.04-.008.024c0 .058.256.008.36-.071l.012-.09.127-.009.149-.011.017-.032.007-.03c-.018-.022.072-.024.707-.02.589.004.607.004.631.022l.043.026.018.017-.093.004c-.123-.008-.248.004-.409.04l-.223.044-.11.045.29.017c.254 0 .38-.005.48-.023l.021.013.081.034.05-.028-.003-.083.091-.033.098.001.051.02.043.033.021.044.001.028.158.025.155.018c.083 0 .096-.049.035-.139l-.037-.065.036-.002.158.009c.129.007.146.002.097-.03l-.133-.017-.168.011-.22.024-.17-.005h-.146l.311-.056c.127-.014.931-.016.997-.003l.038.007-.027.008-.2.019-.219.037.085.02.098.033c0 .024.082.017.225-.02l.242-.039c.16-.008.141.021-.043.066l-.115.068c.009.024.127.022.223-.004l.149-.015.094-.016c.064-.068.288-.105.324-.052l.053.022.049.024-.02.011.379.013c.419.004.388.009.39-.061 0-.045.008-.047.167-.049l.265-.011.22.007-.186.017-.181.02c-.02.02.035.028.264.039.553.027.705.033.88.033.165 0 .33-.008.495-.024l-.01-.029-.034-.02-.122-.013-.203-.012-.088-.011.095-.011c.137-.018.272-.045.405-.083.137-.041.144-.041.21-.006l.065.06.079.103c.058.032.083.033.157.008l.118-.025.062.012c-.003.028.04.042.138.042l.11-.013c.027-.02.01-.026-.157-.049-.142-.02-.229-.047-.244-.071l.022-.025.091-.018.003.03.103.021.299-.015c.225-.015.268-.013.284.016l.103.018.155-.01.215-.005.055.017.029-.028.137-.028.176.03-.162.019-.27.041c-.055.021-.025.03.107.03.146 0 .23-.007.457-.043l.293-.038.336-.017-.007.02c.044.037.482.038.61.002.23-.065.255-.071.378-.075l.117.015.014.04.175.013c.162-.009.554-.012.7-.004l.14-.016c.084-.032.207-.046.436-.045l.271.016.072.009.223-.012.21-.005-.002-.026.048-.026.083.044.015.028.095-.001.216-.031c.134-.034.292-.054.349-.044l.039.006-.033.026c-.055.045-.037.05.148.043h.218l.049.025.009.025c.028.01.16-.015.275-.055l.225-.043.082.005-.02.034.081.015c.074 0 .144-.018.277-.071l.075-.028.053.027.054.026.156-.007h.158l-.015.028c-.03.045-.015.052.095.052.114 0 .128-.009.083-.056l-.027-.028.05-.004.476-.029.078.004-.016.02c.011.017.103.01.195-.015.1-.026.218-.032.225-.012l.166.013.182.022.02.023.133-.01.256-.013.014.02c-.031.05.089.079.191.045.063-.02.247-.032.305-.021l.038.007-.044.011-.043.025c0 .025.103.014.268-.028.151-.038.265-.057.369-.06l.055-.02-.024-.022-.123-.043.039-.012c.085.007.487.004.598-.005l.141-.004.011.021c-.024.037.028.066.2.106l.149.052-.021.023-.002.026.171.032.071-.018.143-.068.048-.039-.316-.028-.085-.068.132-.019.271-.035.153-.052c-.027-.016.045-.035.273-.071l.168-.015.005.012-.076.014-.062.037-.121.062-.148.049.285.008.285-.004.013.026.145.052c.102.01.035.025-.097.021l-.148-.024-.082-.012-.205.009-.202.024-.038.024.105.001.259.003.172.013-.125.011c-.175 0-.361.033-.383.066-.018.029.038.033.449.027.42-.006.521-.014.589-.047l.064.002.038.016-.081.005c-.134.01-.228.047-.2.079l.098-.009c.057-.033.129-.051.258-.064h.158l.319.009.3.004.03.026.019.018.203-.047.084-.011.213.058-.077.056-.06.033.116.017.131-.013.004-.02.008-.007.05-.01.014-.049.107-.015.23-.022.115-.007.015-.016-.053-.03-.053-.01.052-.013.089-.03.062.008c-.021.121-.028.245-.022.368l-.015.154-.021.209-.02.254-.018.048-.008-.052.002-.115.009-.082-.038.092-.002.155.011.168.015.088.03-.021c.01-.032.017.546.008.7l-.009.105-.014-.146c-.014-.178-.038-.307-.059-.307-.015 0-.018.097-.008.337l-.008.119c-.022.021-.042-.043-.055-.173l-.019-.13-.025.082.034.303h-.009c-.028-.037-.034-.008-.025.147.008.155.015.178.048.158l.042.017.041.083.005.199-.023.215-.013.072-.006-.125c-.007-.132-.017-.178-.043-.178l-.011.05-.01.112-.004.182c.02.216.017.397-.005.283l-.033-.036-.048.26-.015.148.02.093.017-.108.011-.121.07.24c.084.347.107.465.129.66.024.205.027.216.055.214l.021.009.03.457.05.137c.013-.008.003.165-.018.298l-.062.268c-.014.015-.021-.133-.015-.287l.008-.154-.052-.052-.1-.15-.058-.095c-.012.005-.008.256.005.269l.038-.017.043-.022c.03.012.048.109.048.261l-.021.213c-.028.088-.032.235-.008.26l.035.005.028.074c-.008.114-.003.331.009.353l.036-.008.027-.029.03.01.024-.022.017.12-.012.06-.055.136-.059.197-.014.093c.01.104.031.13.088.107l.061.052-.009.113-.024.022-.021.243c-.005.216-.005.22.021.292l.038.18c.018.131.045.497.038.497l-.013-.043c-.019-.072-.047-.053-.061.038l-.008.048-.013-.077c-.014-.123-.016-.248-.006-.371l-.025-.103-.034.101-.025.104c-.023.052-.024.034.005.293l.023.166-.007.063-.032.04c-.004-.102-.03-.133-.062-.078l-.024.03-.018-.048c-.014-.055-.005-.112.033-.208.037-.09.032-.214-.007-.214l-.055.163-.04.188-.02.067-.01-.034-.011-.229-.013-.199-.042.177c-.011.14-.009.251.017.596l-.002.262-.019.298-.017.293.008.159.011.133.019.197-.02.091c-.04-.009-.044.008-.032.153.009.127.007.391-.008.7l-.008.135.031.059c.06.112.092.122.102.032l.019-.131.013-.076.001.091c.002.162-.014.253-.057.34l-.034.149.015.11.005.041-.038-.069-.053-.073c-.03 0-.033.031-.017.15l.025.271c.031.517.04.587.076.647l.048.045c.053.023.057.108.033.638l.011.204.005.125-.026.093-.015.036-.014-.037-.042-.154-.062-.188-.02.026-.02.07c-.031.092-.03.103.049.35l.042.134-.014.062c-.019.088-.03.33-.015.34l.017.002.019-.112c.021-.161.055-.219.088-.146.014.032.015.081.013.443-.002.268.003.532.014.772.017.351.015 1.02 0 1.117l.023.053c.059.035.068.1.017.14l-.04.06.006.223.011.363.001.176.032.024c.042.033.066.079.085.172l-.005.115-.113.259-.037.155.02.11c.036.08.053.168.05.256-.015.136-.015.273 0 .409.02.255.021.335.005.355l-.008.204c.008.195.015.27.043.373l-.007.25-.006.238c.027.08.034.181.035.47 0 .288.002.3.041.3l.033.056v.122c-.042.209-.067.422-.074.635-.013.21-.011.232.024.22l.059-.15.014-.072-.003.153c-.004.182-.015.223-.083.319l-.034.126c.02.036.017.117-.007.218-.025.107-.019.142.026.142l.034.014c.011.021.048.355.05.462l-.019.108c-.026.018-.028.051-.011.21l-.009.124c-.029.03-.05.114-.056.217l.014.122c.044.061.07.343.068.752 0 .288-.009.366-.042.366l-.017.091.031.235.041.266-.007.184-.016.063h-.041l-.063-.02c-.03-.026-.061-.024-.165.011l-.184.025-.101-.014-.192-.03-.189-.016-.097.002-.169.01c-.338-.017-.431-.018-.516-.002l-.163-.005-.076-.035.011-.018c0-.028-.103-.009-.112.021l.013.027c.033.033.069.032-.563.023-.478-.008-1.316 0-2.286.02-.365.009-.441.008-.431-.008l-.098-.042-.133.013c-.107.037-.248.05-.61.055-.315.007-.629-.003-.943-.032l-.211.002-.324.015c-.276-.002-.302.002-.257.037l-.032.032-.09-.008c-.087-.026-.15-.033-.358-.043l-.251-.018-.105.005-.286.024-.247.014.02.055.03.014-.053.006-.153.011-.101.006-.048-.041-.048-.042-.499.002-.649.009-.151-.002.026-.028.013-.035-.03.01-.073.021.007.042.077.042.021.021h-.081l-.197.015-.24.002-.038-.011.06-.007.076-.023-.002-.029-.06-.02-.184.014c-.005.015-.311.015-.601.002l-.259-.012-.056.012-.293.014-.293-.001-.056-.026c-.067-.03-.098-.031-.299-.011-.13.015-.282.017-.604.01l-.07.015.015.019-.002.008c-.034.015-.105.011-.226-.015-.127-.032-.259-.039-.389-.02-.162.032-.352.038-.848.03-.951-.018-1.268-.01-1.534.035l-.14.004c-.044-.021-.141-.033-.335-.04l-.175-.007-.016.026-.054.037-.06-.011-.195-.045-.11-.007-.034.033c-.037.037-.078.041-.166.015-.066-.02-.219-.022-.244-.002l.001.022.081.017c.187.021.078.038-.245.038l-.461-.008-.255.012c-.062.03-.303.079-.291.058l-.05-.067-.037-.036-.005-.018-.095-.013-.066.025.041.008-.058.003-.205.019c-.141.015-.241.014-.289-.004l.049-.02.134-.049-.065-.047-.062.023-.037.035c-.06.03-.473.018-.64-.02h-.058l-.137.11-.014.026-.129-.005-.232-.04-.124-.033-.02.038c.003.048-.033.078-.12.098l-.174.014-.102-.063-.12-.067-.013-.026-.37.001c-.218-.003-.435.006-.652.027l-.462.032-.177-.012-.027-.021c-.17.008-.339.025-.506.052-.175.026-.195.024-.2-.022l-.043-.03c-.077-.005-.238.035-.47.119l-.196.053c-.096.019-.097.019-.275 0l-.272-.05-.093-.031-.094.027-.157.067.085.015.155-.008.158.017.099.035c.011.01.11.011.468.007.45-.005.454-.005.471.015l.117.029.105.016-.008.017-.258.019-.524.014-.27-.005-.013-.02c-.023-.013-.24-.013-.351-.002l-.1-.001-.101-.022-.105-.035-.181-.014-.324.014-.194.03c-.031.03-.104.042-.139.024-.036-.019-.098-.016-.212.011l-.123.012c.006-.023-.049-.034-.204-.045-.161-.009-.256-.028-.158-.03l.062-.029.155-.065.157-.018.103.047-.003-.02.032-.033.034-.027c-.008-.018-.071-.025-.235-.026l-.225.024c-.112.034-.141.055-.167.114l-.048.071-.206.067-.38-.072-.153.005-.136.015.043-.025c.081-.027.06-.058-.026-.038l-.082.035c-.048.031-.103.045-.197.045l-.096-.025.015-.047c.01-.051-.012-.06-.123-.052-.279.021-.262.018-.291.046-.046.045-.131.063-.156.032l-.161.011c-.121.032-.305.043-.315.019l.005-.03-.041-.033-.149-.015-.129-.002-.244.041-.242.024-.084-.009-.12-.03-.189-.025-.135.011c-.077.035-.122.041-.314.053l-.294.036-.082-.018-.072-.041-.003-.015.017-.03-.167.007-.054.059c-.039.075-.125.098-.373.099l-.127-.012-.01-.06-.151-.034-.157-.028-.007-.015.019-.017c-.006-.016-.126-.012-.252.011-.098.017-.137.018-.407.014l-.312-.02c-.013-.011-.015-.076-.013-.431l-.008-.422-.026.088-.034.017.005-.148c.045-.211.043-.24-.015-.217l-.049-.008c-.05-.064-.058-.193-.054-1.003.002-.514 0-.707-.009-.724l-.002-.072.023-.238c.018-.235.038-.358.06-.373l.004.187c-.005.22.004.296.051.456l.022.155-.031.06-.018-.005-.002.227.038-.013.038.003.037.031c.032 0 .043-.055.044-.215l.011-.488.004-.354-.018.007-.019-.192c-.009-.25.008-.5.051-.746l.01-.182-.007-.208-.013-.14c-.01-.004-.014-.169-.019-.765l-.008-.78.013-.033.024-.043c.016-.043.04-.249.046-.414l.005-.153-.034-.026c-.056-.043-.069-.151-.044-.387l.011-.108-.03-.027c-.033-.031-.049-.087-.057-.21l.025-.119.026.033.033.032.017-.265.002-.262-.028-.011c-.04-.015-.044-.051-.026-.203l.058-.67-.01-.09-.024.008-.04-.056c-.021-.085-.052-.091-.056-.012l-.006.01-.017-.11c-.023-.139-.023-.146.034-.198l.05-.046-.008-.09c-.001-.071-.024-.14-.067-.197-.037-.063-.048-.139-.03-.21l.03-.137.025-.105.004.017.007.028c.028-.008.041-.269.026-.503-.012-.185-.01-.286.005-.244l.022.02.013-.095-.016-.177c-.018-.112-.083-.342-.098-.347l-.024.023-.019-.025c-.007-.052.007-.163.058-.456l.04-.36-.026-.075-.03-.07c-.004-.056.01-.115.065-.27l.024-.197.002-.195c.01-.104.004-.127-.035-.12l-.034-.039c-.012-.073.011-.232.063-.442l.06-.3.011-.103-.026-.026c-.042-.043-.049-.113-.038-.345l-.004-.231-.042-.182c-.014-.13-.031-.78-.021-.786l.046-.137-.004-.104c-.027-.025-.032-.113-.025-.403l.024-.251.019-.017.017.08.031.008-.018-.16c-.034-.141-.055-.285-.063-.431l.022-.017.025.031v-.12l-.074-.177c-.018-.083-.02-.118-.02-.431 0-.301.002-.34.015-.348l.016-.066-.051-.138-.055-.129.014-.033c.025.01.051-.034.077-.133l.046-.113.015-.099-.049-.138-.055.04-.015.039-.007-.225.004-.325.017-.083c.034-.024.05-.129.02-.129-.016 0-.028-.103-.031-.265l.007-.156.038.012.029.002.006-.12c.009-.244-.006-.488-.045-.729l.004-.143c.019-.202.023-.413.008-.44l-.023-.022-.012-.282.009-.272.02-.003c.013-.016.009-.105-.015-.379l-.019-.33-.008-.182-.026-.032-.034-.067-.032-.054.003.168c.015.2.015.206-.015.206l-.023.01.02.144-.005.005-.05.103.007.107.084-.002.017.041.015.167v.194l-.028.017-.034.022.058.136c.025.047.025.171.001.203l-.069-.03-.049.008c-.007.088.009.475.025.548l.004.188-.026.043c-.052 0-.052.077-.004.186l.04.165c.005.098-.009.155-.034.153l-.006.085.038-.005.022-.021.011.028.001.158-.018.2-.002.149-.014.211-.03.383c-.028.225-.043.499-.032.593l.024.127-.007.161-.02.019-.017-.153c-.046-.594-.073-.804-.114-.885l-.01-.185.064-.183.019-.086c-.008-.074-.046-.199-.066-.212-.026-.015-.049.013-.084.105l-.032.081.006.329.02.486c.049.558.048.548.03.606l-.025.052-.011.242-.018.282-.034.03-.065-.008.01.115.033.069.043.03.007.318c0 .266-.003.353-.016.41l.013.139c.03.028.061.01.101-.056.068-.116.093-.139.118-.109l-.036.113c-.119.252-.14.332-.154.583l-.019.221-.04.327.035-.008.001-.055.033-.164.022.101c.022.123.015.25-.02.37-.049.182-.052.218-.031.293l.004.158-.01.171.024-.007.025.099c.006.11-.004.218-.041.412-.025.135-.022.17.01.17.029 0 .035.067.02.179l-.049.2-.032.067c0 .085-.041.195-.071.195-.02 0-.023-.031-.028-.345-.005-.294-.014-.375-.053-.493l-.006-.113c.019-.088.02-.179.001-.267l-.005-.15.023-.011.015-.169.009-.177.011-.024v.024l.014.01.017-.149-.017-.132-.034-.058c-.014-.06-.015-.097-.008-.428l-.009-.251-.002-.085.011-.021.022.022.029.005-.022-.138c-.083-.338-.088-.43-.042-.764.033-.236.034-.239.015-.272l-.026-.177.018-.02c.026.035.054-.012.043-.075l-.082-.615c-.032-.281-.04-.565-.026-.848l.007-.091.007.058.038.184.015-.003c.009-.01.031-.515.023-.537l-.044.022-.038.03-.027-.239-.013-.28.003-.08.02-.109.049-.146c.032-.009.027-.058-.052-.497-.046-.257-.058-.385-.043-.454l.016-.053.016.016.047-.058-.026-.158-.069.006c-.03.035-.044.104-.044.235l-.01.188.005.095.005.218-.008.038-.007-.045-.051-.08-.055.214.03-.03.012.185c.001.244.013.424.039.649.026.202.026.226-.002.256l-.045.054-.023.03.017.064.048.041c.023-.111.062.048.075.296l-.009.091-.08-.039c-.018.021-.028.39-.02.667.02.551.023.951.01 1.202-.012.255-.009.292.023.249l.015.02.011.113-.008.106c-.028.047-.032.184-.015.716l.018.386-.005.076-.028.04c-.017.032-.017.03.007.47.008.144.008.425.003.982-.01.905-.009 1.45.004 1.586l-.01.144c-.025.062-.06.312-.06.422l.013.198c.014.109.012.209-.005.46l.007.094.025-.051c.013-.067.007 1.923-.006 2.03l-.017.191.013.155.045.254-.01.144c-.02.056-.021.112-.013.649.004.29.003.304-.017.377-.031.11-.027.241.017.601.018.149.017.184-.008.209l-.006.086.05.105.026-.003v.081c0 .107-.013.133-.08.158l-.065.044.001.119.048.191c.011.072.028.033.04-.095.023-.251.03-.185.035.276l-.017.377c-.015.156-.019.277-.019.541 0 .332.007.437.036.491l-.033.019-.021.007.008.164-.007.21-.019.217.011.291c.015.181.013.401-.004.513-.019.128-.018.15.01.204.042.08.057.333.028.468-.026.12-.038.557-.025.922l.021.438-.005.159.004.114.021.067-.03.061-.03.099.013.25c.026.017.027.047.002.326l.037.041.035-.01.004.044c-.017.09-.019.2-.007.319l.007.154-.03-.121-.036-.134-.015.134.029.19.035.129-.01.054-.03-.002-.015.098c0 .104-.003.102.168.125l.277.036.152.02.099-.024.098-.025 1.073.001c1.058.003 1.238-.001 1.496-.03.097-.011.138-.002.188.045l.025.025.133-.011.346-.017.215-.007-.016.03c-.024.049-.009.059.082.059.085 0 .105-.007.147-.052.043-.045.149-.058.149-.019l.022.024.141-.024c.225-.065.312-.076.382-.048l.06.045.022.027.127-.011.263-.034c.168-.03.281-.037.367-.028l.066.007-.041.022c-.075.044-.141.101-.197.168l.008.072.226-.035.071-.061c.008-.05.053-.095.136-.135.091-.044.206-.062.373-.06l.135.001-.154.007c-.176.007-.225.023-.183.056.014.013.329.002.552-.017l.399-.016-.091.073-.075.03.005.043.059.025.153.013.133-.011-.053-.034-.074-.01.074-.108c.288-.019.577-.029.865-.03l-.063.039-.123.051.107.014c.124-.002.253-.019.553-.073l.225-.04.446.002c.687.004 1.172.023 1.274.051l.053.029.021.019.217-.019c.23-.02.375-.025.367-.011l.124.032.052-.028-.034-.011.034-.002.072-.009.082-.009c.106-.002.545.017.585.025l.043.008-.056.005-.055.015.174.012.229.011.052.008-.043.006-.133.016c-.143.019-.225.05-.206.079.008.014.175.004.363-.021l.312-.02c.181 0 .192-.002.192-.049l-.064-.066.043-.032c.145-.04.373-.051.701-.034l.345.014.091-.024c0-.037.058-.054.134-.039l.138.02.093.02.014.042c0 .058-.079.114-.227.162l-.06.03c-.022.025.023.035.184.037l.156.002.003-.055.035-.07.146.008.257.028.264.021.158.006.002-.015-.336-.071-.065-.017v-.023l-.005-.025.087-.015.156.011c.216.065.345.086.563.09l.171-.019.035-.031.098-.029.038.009.108.039.053-.007.005-.012.087-.014.157-.012.049.006c0 .023.083.044.392.096.304.051.333.053.344.039l.043-.062.057-.066.101-.004c.098.021.218.023.651.013l.355-.009.023.021.061.017.159-.013.128.008-.003.016-.002.036c.015.008.257-.023.326-.043l.28-.024.234-.012.01.014.004.026.271-.005c.201-.01.329-.01.549-.001l.506.017.224-.013.028-.031c.063-.029.437.007.458.043l.157.014c.143 0 .215.01.228.029l-.006.026.024.05.161-.051.041-.03.191-.002.175.004-.017.017.122.043.108-.019c0-.033.041-.04.21-.036l.162-.01-.014-.025c-.032-.024.067-.025.227-.005l.277.026.143-.011.002-.028.192-.019.339-.029.191-.03.058-.005-.041.015-.067.082.004.022.311-.003.328-.008-.014-.029-.005-.052c.068-.042.301-.091.348-.073l-.091.049-.125.047c0 .039.103.048.393.032.147-.008.235.004.235.031l.11.044c.145.03.201.03.355-.005.188-.041.287-.052.354-.038l.035.023-.009.025.343.003c.44-.011.602-.011.782.005l.212-.008.156-.032.122.005c.075.031.155.046.235.044l.25-.024.352-.041.178-.024-.035-.028-.024-.03.149-.015.137.014.067.014.096.024.027.028-.174.003-.173.002-.006.036v.043c.011.019.258 0 .372-.028l.225-.025.128-.011-.016-.098-.159-.061.062-.004c.197.01.4.043.497.083l-.065.023-.12.036c-.041.041-.021.056.096.068l.138.022.085.011.045-.019-.038-.039-.025-.047.152-.003.014.038c.184.009.368.009.551 0l.094.008.064.049.222.002c.189-.006.257-.017.404-.07.091-.033.189-.04.284-.023l.142-.006c.079-.033.07-.034-.225-.056l-.219-.02.095-.03.117.001.184.017.123.02.065.038.014.008.07.028c.071.036.204.078.248.078l.039-.018.082-.03.053-.033c.023-.037.056-.049.157-.059l.174.017-.027.058c.014.034.054.039.341.046l.29.003.007-.023c0-.027-.068-.054-.231-.09l-.265-.07.175.015c.202.023.386.037.472.033l.055.008c-.02.032.172.079.33.079l.091.002-.002-.04.038-.053h.126c.12.015.186.036.218.07l.109.028.189.015.12.01.011-.026c-.003-.033.04-.043.122-.029l.54.05.2-.002.029-.16c.016-.086.016-.175 0-.261-.039-.275-.041-.481-.011-.952.02-.294.02-.635 0-.656-.021-.024-.033-.15-.033-.35 0-.217-.017-.54-.032-.649-.014-.098-.009-.129.05-.328.043-.143.046-.16.025-.191-.028-.042-.044-.147-.053-.342l-.01-.25.024-.049c.041.008.044-.024.034-.246-.005-.174-.029-.347-.072-.516l-.024-.087-.008-.646c-.009-.854-.008-1.244.007-1.433l-.008-.23c-.034-.139-.038-.161-.083-.775l.016-.073c.027-.036.035-.112.042-.406l.024-.272.023-.058.015-.079.038.015.06.165.017-.086.014-.218c.023-.21.029-.322.015-.331l-.04.075-.037.115-.116.13c-.035.011-.03.035-.029-.205.002-.278-.025-.563-.062-.65l.052.009.039.018.01-.168-.014-.165-.027.009c-.033.041-.026-.105.017-.291l-.002-.116-.033.094-.02.105c-.011.032-.017-.219-.008-.295l.063-.176.062-.174-.043-.112c-.048-.071-.075-.154-.078-.24l.033-.158c.05-.111.062-.174.063-.329l.001-.128-.04-.035-.05-.059-.007-.177.017-.178c.027-.041.033-.11.03-.363-.003-.225-.005-.251-.027-.332-.048-.177-.055-.377-.012-.369l.021-.01.014-.182.011-.169-.025-.043-.037-.076-.018-.444-.017-.475c-.018-.109.013-.209.07-.226.043-.013.065-.062.071-.161.008-.119-.02-.155-.065-.085l-.06.015c-.023-.109-.033-.382-.015-.433l.028-.02.015.045.023.022c.017-.025.011-.115-.013-.185l-.017-.15.05-.128c.039-.135.051-.27.044-.52.002-.155-.017-.309-.055-.46-.079-.298-.079-.299-.067-.367l.019-.131.008-.067.002.107.02.137.012-.18c.008-.189.025-.341.041-.326l.019.094.039.124.021-.157-.037-.19-.06-.058-.005-.03-.025-.159-.041.05-.065.089.015-.192c.015-.249.017-.261.039-.266l.019-.133c0-.179.017-.405.034-.465l.037-.052.019-.06-.017-.1-.015-.103-.049-.045-.045.007-.052-.123c.01-.095.035-.187.076-.273l.025-.042-.011-.209c-.005-.182-.031-.364-.079-.54l-.03-.13.025.008.015-.114.014-.207c.015-.113.014-.128-.023-.175l-.05-.122c-.011-.074-.002-.24.011-.205l.035.005.015-.175c.008-.195.02-.274.047-.31l.02-.028-.017-.188-.04-.695-.02-.15c-.023 0-.038.065-.059.268l.011.119c.023.017.037.165.03.312l-.013.157-.056.053-.008-.301c.003-.185-.009-.369-.036-.552l.02-.172.091-.223.014-.112c-.015-.095-.017-.319-.005-.603l-.002-.225-.017.03-.035.119-.005-.041.015-.141c.014-.127.034-.209.06-.237l.002-.167-.021-.157.028-.011.032.002.009-.09c.011-.119-.009-.203-.049-.203-.031 0-.065.155-.095.427l-.03.173-.045.041-.034.02-.005-.04-.001-.39-.014-.163c-.028-.128-.041-.258-.039-.389l-.008-.138-.07.081-.005.103-.014.091-.041.093-.043.067.02-.197c.023-.236.042-.325.074-.325l.005-.2c-.005-.214-.009-.244-.035-.24l-.026.143-.012.146-.014.007-.026-.11.008-.132.041-.154c0-.083-.017-.122-.048-.122-.025 0-.039-.069-.039-.183 0-.094.011-.112.049-.079.032.028.045.003.048-.092l-.011-.287-.015.019-.015.02.013-.15-.01-.268-.017-.293.041-.172.035-.092.023-.273-.045-.011-.029.024-.018-.04.008-.069.068-.146-.115-.062-.118-.034-.03-.015.034-.017.095-.029c.111-.022.12-.037.035-.061l-.074-.033-.01-.043-.051-.045c-.067 0-.099.033-.051.055l-.1.011c-.13 0-.259.016-.384.049l-.083.064c.005.031.051.026.134-.016.091-.047.179-.064.177-.033l.037.017.104-.004.066.016-.041.028-.03.074-.038.061-.109.011-.075.002.031-.035c.052-.061.045-.067-.122-.069-.162-.003-.175 0-.274.073l-.081.046c-.074.025-.286.007-.343-.03-.034-.022-.139-.019-.159.004-.024.029-.151.035-.367.02-.206-.015-.24-.015-.305.007l-.146-.023c-.044-.03-.077-.032-.349-.018l-.285-.002-.3-.002-.178-.005-.113.01-.106.024h-.036l.02-.026-.001-.061-.118.015c-.16.025-.604.029-.826.008l-.182-.017-.091.032-.191.032-.163-.017c-.053-.015-.13-.018-.455-.026l-.441-.017-.193-.006-.249.014-.181-.004-.028.04c-.031.046-.081.067-.145.058l-.047-.048.003-.035-.138-.011-.15-.006-.12-.009.098.055.056.031-.099.027-.101.01-.073-.03-.137.015-.117.018-.02-.021c0-.05-.017-.054-.221-.06l-.261-.013-.1.028-.047.021-.049-.017c-.013-.041-.057-.051-.178-.044-.327.018-.448.018-.565.001h-.181c-.174.038-.351.058-.53.058l-.157-.005.098-.02.098-.034.002-.014-.002-.014-.187-.005-.489.019c-.489.015-.771.028-1.075.045h-.313c-.072-.035-.468-.071-.497-.048-.03.024-.265.06-.515.079l-.15-.018-.042-.051c-.053-.047-.262-.17-.291-.17l-.154.105-.036.034h-.184l-.38-.004-.282.017-.104.002-.181-.045-.075.008.077.077.035.023-.218.017c-.227.017-.249.016-.282-.02-.033-.037-.07-.041-.306-.038l-.225.002-.045-.032-.045-.032-.111.007-.212.028c-.188.041-.261.042-.261.005l-.021-.039-.02-.02.057.006.142.016c.095.013.169.008.169-.014l-.01-.019-.01-.014.24-.078.263-.087.004-.034-.13-.032-.061.028c-.024.034-.067.048-.15.048l-.178-.03.002-.032-.046-.043-.124-.033c.011-.028-.016-.034-.145-.034l-.131.001-.042.031h.001zm-10.036.512c.112.008.076.023-.104.038l-.169.019-.043-.011-.091-.006-.202.034c-.15.026-.466.049-.525.038l.067-.03.157-.04.303-.025.359-.014.145-.009.104.005zm23.889.458l.232-.008c.09-.013.067.01-.043.042l-.317.116-.16.028-.213-.012-.098-.011.053-.012.221-.032c.206-.025.241-.033.238-.055l-.173-.014c-.19.004-.217.002-.217-.026 0-.026.022-.029.172-.022l.307.007v-.001zm2.31.023l-.005.034-.02-.001-.03-.006-.014.017.002.097.013.088.014-.025.013-.021c.012 0 .011.266-.003.446-.015.155-.013.311.007.465.014.124.017.293.005.403l-.007.062-.011-.038-.011-.103-.009-.065c-.034 0-.01.881.027.98l-.002.087-.004.122c.005.061-.025.205-.049.232l-.028.12-.019.139.012.034.035-.064.034-.039c-.026.202-.029.294-.013.46l.015.235-.015.035-.033-.201c-.02-.17-.039-.24-.065-.234l-.008-.043c.034-.242.033-.556-.002-.734l-.03-.125.01-.032.052-.208c.03-.244.054-.75.054-1.193l-.015-.302-.03-.178-.029-.218c-.023-.105 0-.132.048-.058l.027.041-.003-.068-.003-.067-.168-.003-.167-.004.06-.012.104-.034.18-.038.082.017zm-25.795.026l.164.015-.015.011-.167.038c-.197.05-.285.066-.37.066l-.081-.001.079-.033.15-.044.043-.044.028-.026.169.019zm24.966.03l-.011.053-.096.015-.206.01-.22.021-.089-.02-.037-.02-.009-.011.079.001c.073.015.277 0 .407-.03l.181-.019zm-1.107.112l.024.021c-.001.021-.056.033-.24.052-.227.022-.35.043-.435.069l-.098.008-.037-.02c0-.022.051-.033.35-.067.259-.03.355-.054.319-.079l.117.015zm1.727.371c.011.174.007.438-.009.508l-.019.013-.027-.168c-.015-.144-.023-.17-.048-.17l-.014.052-.011.052-.004-.079.024-.195.029-.004.015-.045.003-.142.021-.003.011-.056.002-.055.008.058.02.235zm-19.525-.237l-.076.051c-.102.028-.209.032-.313.013l-.19-.013-.096-.015.262-.02.259-.016.155.001zm1.741.095l.164.024.01.018-.033.022-.102-.009-.168-.015-.119-.019.012-.028.046-.01.189.016zm17.747 1.1c.028.11.03.136.035.317.005.231-.005.281-.03.146l-.024-.172-.017-.416.037.125zm-.161 2.535l.055.095-.044.082-.043.088-.024-.04-.034-.13c-.02.013-.024-.108-.004-.139l.093.044zm.911.235c-.003.322-.02.449-.036.275l-.026-.029-.011.013c-.016-.036-.013-.286.006-.374l.053-.122.015.238h-.001zm-.621.781l-.009.355-.007.316.009.11-.008.135-.002.061-.018-.056c-.032-.101-.041-.091-.035.047.005.145.014.172.059.191l.039.034-.017.074-.024.037-.012.335c0 .292-.003.379-.019.379l-.019-.034-.02-.034-.023.154-.002.052-.014-.072-.007-.373c.007-.294.002-.441-.014-.441l-.042.182-.058.221-.014.004.067-.531c.032-.188.085-.348.105-.315l.014.008-.003-.407-.008-.403.023-.026.023-.168.002-.141.011.082.02.225zm.602 1.354l.017.007c.021-.014.004.359-.021.433-.026.079-.039.004-.014-.077.025-.098.013-.203-.032-.293-.021-.05-.017-.107.011-.154l.005-.128.003-.065.017.112.013.165v.001zm-.616.859l.023.015-.017.169-.017.182.056-.015.023-.026-.006.046-.045.158-.035.175-.014.08-.037.077-.073.12-.008-.064c.008-.116.029-.231.062-.342.035-.116.047-.223.048-.455l.009-.158.03.037zm.027 1.259l.04.095.019.041c0 .107-.041.201-.088.201l-.014-.026.013-.227c.006-.206.011-.221.03-.083h.001zm-.293 1.009c.008.038.006.27-.004.402l-.008.04-.011-.059-.036.088-.015.035c-.012-.03-.002-.137.026-.324l.024-.181h.023l.001-.001zm.365 2.646l.034.032-.011.086c-.015.13-.017.334-.002.352l-.003.108-.063.179-.029.146-.012.127-.011-.076-.016-.11.005-.144c.02-.146.03-.183.065-.214l.028-.069v-.042l-.036.001-.05-.037-.017-.304.065-.065.052.031zm0 1.28l.024.059-.033.057c-.044.022-.07.068-.066.117l.035.093.021.009-.002.258-.012.272c-.016-.028-.064-.484-.061-.58l.017-.115.021-.158.019-.072.037.06zm-35.283.181l-.01.082.001.215.001.227-.003.152c.039.036.048.124.025.253l-.048.344-.001.037-.009-.034c-.019-.148-.028-.296-.028-.445 0-.161-.015-.397-.03-.478l-.028-.098-.008-.12c.006-.088.032-.172.078-.247l.04-.071.008.084.012.1zm.245.789l-.003.364-.024-.084c-.034-.127-.038-.26-.012-.388l.027-.177.011-.079v.364h.001zm-.24 1.044l-.03.4.034.003.019.002c-.03.131-.056.433-.057.649l.017.228.032.038.01.045-.015.365c-.01.303-.021.496-.035.63l.03.017c.039-.087.045-.024.023.254-.011.366-.017.731-.018 1.097-.008.896-.014 1.073-.037 1.28l.007.15.045.005.026-.019-.007.119c-.015.295-.039.442-.079.498l-.03.106.017.238.043-.177.034-.172.013-.029.003.048-.007.206-.013.314v.156l-.043.035-.042.035.004.071.027.094.034.024.042.083-.015.186-.015.145.026.053.026.052-.012.146c-.021.249-.027.5-.019.75l-.005.227-.033.035-.011.085c.025.095.046.242.052.375l-.009.063-.014-.017c-.016.026.008.299.034.385l.004.163-.026.034-.034.023-.05-.028c-.041-.079-.055-.231-.061-.666-.005-.366-.007-.393-.023-.392h-.017l-.008-.112-.022-.113-.032.045-.018.047.005-.107.055-.269.027-.214.005-.156.025.045.053.014c.01-.058-.002-.162-.035-.292l-.028-.255.014-.152.018.001.016.002c.015-.015-.021-.279-.076-.563l-.038-.188.035-.075.038-.22-.002-.228-.024-.082-.029.083-.033.147c-.039.031-.067-.105-.067-.335 0-.221.017-.232.037-.027.014.122.038.034.053-.184.013-.181.012-.312 0-.357l-.029-.015-.01.013.01-.212.02-.262c0-.142.006-.178.029-.154l.013.169.008.167.023.008c.022-.009.013.167-.011.216l-.008.176c.011.145.018.169.048.151.023-.015.03-.063.03-.224l.025-.182.013-.068-.019-.067-.019.012-.014-.002c-.03-.03-.073-.349-.05-.37l.026.005.047-.041-.088-.141-.046-.005-.033-.017c-.011-.047.007-.145.047-.245.043-.097.064-.201.062-.307l.01-.07.043.245.022.104-.004-.218.012-.085c.02-.02.024-.008-.06-.207l-.061-.038-.019.134-.035.294-.028.225-.015.091-.009.069-.011.032c-.015 0-.006-.146.026-.385.03-.24.041-.427.032-.553l.005-.12.03-.087.039-.103.017-.076-.015-.064c-.017-.044-.056-.016-.077.055l-.02.02c-.01-.164-.01-.329.002-.494l.024-.163.005-.12c-.024-.148-.007-.563.029-.694l.025-.308c.008-.345.008-.392-.014-.429l-.01-.082.013-.363.015-.314.038.205c.01.167.018.203.042.203l.015-.223.007-.233.056-.03-.026.313h.001zm35.202-.205l.048.128.003-.122.01-.079c.014 0 .02.172.012.293l-.021.112-.049.06-.008.043-.034-.152-.017-.16.005-.105.022-.082.011-.042.017.107zm.032.623l.027.098.018.094c-.018.032-.03.313-.02.487l.03.189.003.132-.026.122-.038-.101-.02-.116-.041.008c-.016.032-.024-.088-.021-.346l.004-.287-.006-.072.003-.017.038.25.038-.002-.003-.096-.02-.154.025-.219.008.032v.001zm.733.816l.053.099.02.167-.008.168-.026-.094-.043-.117-.009.04-.011.03-.004-.058-.005-.165.011-.125.023.055zm-35.764.652c.071.103.086.104.128.007l.024-.057-.004.044-.02.082-.055.299c-.013.137-.004.279.035.511.058.35.065.54.034.823l-.036.191-.017.025-.002-.038-.012-.047.006-.047c.03-.082.025-.335-.007-.426l-.047-.002-.01.029-.005-.065.006-.169.025-.06.032-.012-.042-.378-.061-.016-.007-.062.03-.22c.033-.186.03-.257-.009-.242l-.03.088-.014.015-.008-.171.018-.146.051.045zm35.854 1.622l.049.872.003.15-.033.01c-.015.037-.006.355.01.37l.03-.065.008-.076.015.047c.009.096 0 .194-.028.287-.034.132-.048.269-.04.405.008.172.023.2.049.103l.025-.037c.019.033.02.136.003.241-.023.141-.023.245-.001.311.021.062.02.09-.033.38-.04.232-.056.375-.058.541v.11l-.018-.091-.066-.277c-.053-.202-.078-.344-.078-.439l.02-.039.009.06.007.029.011-.029.021-.034.015-.043.04-.1.034-.09-.032-.015-.034.018-.009-.209c-.003-.229-.007-.25-.041-.25l-.042-.017-.045-.015-.024-.011.023-.139.038-.148.014-.077-.04-.125-.045-.167-.03-.062c-.01.034-.01.285-.001.405l-.003.075c-.019-.032-.027-.253-.027-.698.001-.411.001-.432.015-.369.03.14.068.122.129-.059.032-.1.031-.128-.008-.186-.045-.067-.061-.214-.041-.387l-.002-.129c-.015-.075-.003-.109.041-.115l.032-.053-.038-.13-.039-.191.002-.096.02.049.058.01.008-.33.008-.284.017.083.039.093c.023-.014.004-.169-.045-.361l-.018-.133.032-.005.019.043.038-.118.013-.062.008.65.017.92zm-.79-1.211l.021.118.008.095.005.115-.015.124c-.026.1-.028.109-.026.334l-.005.233-.035-.084-.022-.224c.006-.169-.005-.212-.021-.085l-.02.1-.01-.085-.015-.118-.044.039-.009-.004c-.015-.033-.006-.126.018-.215l.023-.168.011-.061.042.048-.006-.113.009-.139.02.278.008.188c.015 0 .02-.065.035-.386l.013-.121.015.129h-.001zm-.1 1.115l.008-.014.02.064.02.084.019-.033.048-.01.091-.008.026-.029-.007.038c-.043.247-.113.358-.17.268-.044-.064-.085-.287-.082-.442l.002-.095.012.086.014.091zm-34.822.586l.052.239.006.072-.02-.024c-.079-.094-.12-.19-.11-.253.012-.082.041-.095.073-.034h-.001zm34.841.046l.055.052.07-.043.018-.03.005.033c.012.07.035.491.035.628l-.018.343-.006-.109c0-.114-.011-.143-.04-.113l-.02.141-.008.122-.031-.457-.002-.061.015.046.03.043c.038-.008 0-.242-.038-.242-.027 0-.06.288-.039.342l-.01.069-.047-.406c-.02-.244-.024-.26-.068-.274l-.018-.017.062-.113.053.047zm-34.87.43l.024.017.015.11.01.16-.01.144-.02.181c0 .124-.017.09-.028-.054l-.01-.135-.013-.03v-.109c.017-.126.017-.27-.002-.392l-.008-.136.02.093.023.151h-.001zm34.827.318c.022.079.035.23.032.36l-.003.115-.027-.136c-.027-.137-.045-.276-.054-.415v-.024l.019.024.033.076zm.27.799l.028.191v.087l-.034.353-.02.249-.011.069.039.084c.059.127.093.287.086.398l-.004.048-.019-.04c-.04-.086-.068-.035-.059.113l.026.209c.02.117.028.391.009.38-.033-.02-.056.142-.057.412 0 .139-.015.29-.03.308l-.025.002.018-.204.015-.254-.026-.214-.03-.054-.002.078-.003.26-.026-.034-.026-.151-.02-.139-.01-.11.011.018.035.035.005-.067c-.002-.073-.026-.129-.064-.149-.043-.023-.056-.061-.06-.172l-.003-.101.027.047.078.049.015-.244-.01-.268-.04-.019-.017-.015c-.009-.103.015-.206.068-.294.02-.032.011-.145-.017-.191l-.008-.154.025-.192c.023-.113.05-.138.096-.095.045.042.052.006.024-.124l-.025-.262c.012-.07.026-.018.039.157zm.373.137l-.009.219-.014.301.001.174-.055-.048.034-.389.03-.349.013.092zm-35.46.063c.015.046.028.203.028.369l-.015.161-.028.002c-.023-.022-.032-.101-.038-.321l.005-.228.048.017zm-.501 1.421l.004.212-.035.031-.085-.008c-.025-.05-.017-.293.017-.469l.031-.21.006-.081.028.157c.024.131.03.192.034.367zm36.153-.132c.015.134-.01.342-.045.373l-.038-.007c-.028-.035-.017-.129.022-.198l.017-.123.02-.101.024.055zm.033.398l.011.079.016.041.03.005.008.025-.056.108c-.032.04-.029.133.011.289.051.203.085.257.142.227l.011.03-.032.108-.025.091-.007.058-.018-.049c-.018-.126-.086-.326-.11-.326-.023 0 .02.29.049.327l.02.076-.04.237c-.039.114-.035.212.01.264l.028.165.011.22.011.175-.015.088-.047-.118-.035-.021c-.027.102-.029.503-.002.503.022 0 .033.07.043.25.009.191-.002.473-.021.55l-.032.048-.019-.112.001-.113.032-.033.033-.034-.011-.104-.036-.352c-.023-.228-.049-.4-.07-.459-.014-.034-.002-.592.014-.662l-.002-.095c-.019-.077-.021-.158-.006-.236v-.134c-.015-.082-.014-.255 0-.269l.023.031.04.105-.02-.163-.02-.142.027-.086.012-.096-.017-.277.009-.202.023-.047.032.03v-.001zm-35.671.13c.038.073.044.391.01.581l-.067.225-.015.025.005-.024.005-.292.024-.154.03-.106-.031-.02c-.035.007-.045-.027-.037-.131.009-.119.043-.166.076-.104zm34.843.13c.065.155.107.436.096.637l.008.256.041.049.051-.046-.006.166v.13l.03.032.014.222-.006.197-.018-.026-.014.158v.159h.023l.056.104-.01.079-.027.169-.008.151-.008-.036-.029-.026-.035.015-.029.014-.026.078.011.16.005.125c-.017.104-.055.138-.082.075l-.038-.256-.005-.081.019.04c.038.083.059.038.06-.136.004-.24-.019-.675-.037-.733-.017-.062-.017-.12.002-.255l.02-.205c.01-.07.001-.141-.026-.206-.049-.149-.066-.185-.092-.192l-.038.005-.014-.049c.001-.115.027-.181.073-.181l.081-.052.012-.197-.027-.053-.043.072c-.029.085-.05.096-.059.028l-.021-.073c-.025-.046-.02-.118.007-.118l.023.024.026.024.028-.151-.015-.092-.002-.035.028.032zm-35.297 2.524l.02.28.034-.05.05-.05c.051 0 .081.107.097.342.015.198.011.261-.022.312-.032.052-.063.055-.094.009l-.058-.054-.02.023-.012-.218c0-.227-.002-.244-.021-.287l-.05-.06-.03-.085.019-.141.017.029c.024.062.036.03.046-.12l.015-.085.008.155zm.128 1.164c.008.218.023.371.036.388l.05-.043.012.06-.043.186c-.041.085-.051.142-.025.163l.069-.077.039-.072-.012.102-.01.11c.008.023.118.019.157-.005l.094-.005.145.067-.112.09c-.138.052-.531.145-.547.129l.04-.189.01-.191-.017-.165.004-.016.054-.143.03-.154c.027-.113.006-.173-.045-.128l-.023.011.03-.236.052-.067.013.184zm35.173-.085l.002.105c.015.11.033.13.063.067l.028-.038.023.243v.1l-.03-.005-.264-.017h-.297c-.141.026-.152.025-.182-.007l-.051-.039.34-.008.386-.012.008-.093-.029.001-.015-.135.007-.201.014-.018-.002.055zm-35.389.166l.043.178.02.204-.017.059c-.027.025-.056-.06-.1-.298l-.008-.155.061.012zm32.57.233l.168.02.076.002-.105.028c-.158.041-.332.075-.383.075l-.045-.019-.071-.019-.095.011-.073-.015-.068-.025-.006-.011c.017-.011.19.002.288.021h.154l-.033-.053-.028-.033c0-.017.087-.009.22.019v-.001zm-15.943.154l.052.06.014.04.101.008.061.026-.037.026-.315-.003c-.42-.023-.752-.023-.807-.002l-.173-.014-.27-.035.36-.004c.58.006.82-.008.918-.046l-.07-.045-.063-.008.063-.005.165.001h-.001zm2.254.025l.079.051-.07.045-.09.052h-.087l-.128-.019h-.123l.048-.027.15-.11.084-.014.137.021zm6.714-.015l.111.029.019.025-.059.02.039.03-.024.007-.272-.011-.206-.006.058-.017.1-.038.091-.035.144-.004zm-9.761.021l.085.02.003.025c-.019.018-.131.021-.237.005l-.203-.028-.127-.021c.02-.02.344-.02.48 0h-.001zm5.369.021c.082.028.247.038.705.04.412.003.465.005.565.023.096.017.268.027.353.02l.028.015-.2.015c-.214.012-.592-.002-.648-.021h-.182c-.364.025-1.05.004-1.122-.037-.035-.02.071-.041.291-.058l.211.003zm-6.854.015l.013.008.018.035-.263.019-.45-.001-.263-.02.263-.011.393.004.206-.02.056-.016.027.004v-.001zm5.312.011l.18.026.061.01.008.032.026.013-.233.016-.27.009-.065-.023-.075-.033-.045-.008.061-.011.062-.024c0-.032.141-.037.289-.008zm-1.741.009l.271.056c.036.035-.748.049-.962.017l-.139-.025-.029-.008.023-.01.259-.042c.113-.008.452-.003.575.011zm-15.569.236l.029.06.175.017.146.009c.005.014-.056.026-.27.05-.209.026-.354.053-.385.072l-.022.036.132.014c.165-.008.28-.027.39-.064.098-.034.237-.058.333-.058l.059.015.048.043-.034.022-.005.026.008.008.011.015.205-.041.033-.079-.142-.047-.045-.008c-.059-.024.245-.054.446-.045.226.011.282.023.201.039l-.077.076.089.002.1-.006.015-.023.178-.023.175.011.035.034.028.03-.088-.005-.163.005-.302.043-.214.034-.005.043-.208.01c-.183 0-.278.006-.477.027l-.371.029-.144-.019-.117-.043-.001.039.019.035-.158-.02-.226-.017-.14-.008.007-.024-.108-.015-.107-.02-.105-.019-.255-.011-.135-.024.173-.028.204-.04.1-.023.016.014-.066.03-.062.023c-.02.018.038.02.252.007l.25-.009.065-.008-.053-.012-.153-.023c-.028-.029.137-.029.209.002l.135.004.12-.042.034-.03.039-.055-.075-.015-.067-.007.106-.013.139-.03.057-.016.022.041zm8.239-.026c.206.026.276.026.296-.001l.045-.014.05.044-.131.019-.139.009.035.03.065.008-.024.014c-.073.009-.412.008-.412-.002l.048-.028.048-.03c0-.02-.079-.012-.659.071l-.345.034-.046-.008.058-.013.11-.047.218-.02c.242-.013.354-.028.37-.052.03-.039.181-.045.414-.017zm3.975.038l.131.009.089-.005.175.016.087.006-.051.023.158.023.232.046c0 .012-.457.002-.518-.013l-.064-.03-.02-.02-.178.02-.343.06-.002.041.15.006.127.008-.245.032-.448-.127-.168-.074c.027-.019.171-.011.22.014l.037.02.201-.041c.253-.05.312-.052.429-.013zm-1.167.008l.1.012-.091.059-.196.014-.251.014c-.074.024-.144.018-.15-.014l-.101-.044-.078-.001.096-.013.105-.015.034.011c.04.024.183.017.263-.013l.105-.021.164.011v.001zm-1.38.011l.167.035.139.011-.098.011c-.187.012-.375.013-.563.003l-.116-.006.086-.023.158-.029.227-.002h-.001zm13.09.188l.058.008.019.048.003.052-.188-.057-.236-.027-.125-.016c.156-.014.312-.017.468-.008v-.001zm-19.48.053l.216.037c.044.017-.142.022-.225.005-.259-.049-.285-.052-.452-.052l-.091-.019c.111-.017.339-.005.551.028v.001zm21.354-.009l.213.027.097.007-.052.016-.298.055-.075.017-.053-.008.047-.015.1-.023c0-.023-.133-.067-.202-.067l-.029-.008c0-.025.108-.025.251 0zm1.18.035l.008.027.084.053.043.011-.101-.001-.231-.015c-.197-.004-.215-.026-.042-.051l.101-.025.079-.008.06.011zm2.293.008l.092.044-.35.008-.349-.008.116-.039.095-.015c.069-.009.336-.004.397.009zm1.912.001l.033.028-.36.024-.132.015.013.014.11.033-.123-.015-.221-.016c-.145.002-.192-.019-.075-.035l.055-.044c-.024-.015.556-.018.699-.004h.001zm.602-.008l.004.019c.015.017.073.017.311-.007.256-.023.289-.023.336.002l.177.011c.175-.01.351-.01.389.001l.029.008-.023.01c-.044.017-.25.02-.512.004-.252-.014-.258-.014-.302.005l-.263.063-.069-.011-.123-.01c-.119.008-.166.022-.121.041l.042.017.008.017c-.014.014-.38.014-.481 0l-.062-.009.15-.035c.141-.034.18-.051.167-.072l-.037-.017-.032-.007.029-.008c.064-.02.403-.038.386-.021zm-8.013.022l.028.053-.003.043-.064-.007-.181-.012-.119-.02.098-.031.115-.026h.127v-.001zm1.52.02c.165.011.202.02.155.037-.036.014-.322.025-.305.012l-.01-.021-.182-.006c-.151.008-.331 0-.32-.011.021-.021.413-.028.662-.011zm-7.116.046l.03.031.105.015.227-.006-.187.029c-.19.023-.23.032-.248.058l-.065.01-.06-.019.063-.045.069-.059.066-.013zm9.589.025l.355.049.4.028c.223.003.31.014.218.028l-.149.041-.117.008c-.24-.014-.518-.06-.931-.154l-.149-.034.096.006.277.028zm1.736-.019l.128.04.055.026-.048.004-.155-.007h-.137l-.101.002c-.11-.015-.11-.023.008-.056.082-.025.169-.029.252-.009zm-8.703.062l.172.044-.105-.003-.252-.015-.236.022-.199.024.026-.023.062-.037.222-.022.308.01zm2.211.061l.171.052.063.013-.238-.017-.307-.03-.148-.005.041-.017.047-.034.142-.012.135.003.094.047zm7.987-.018c.083.011.028.023-.159.035l-.19.014c-.037.011.025.035.168.065l.222.069-.276-.031-.262-.089-.047-.027.127-.007.297-.034.043-.005.076.01zm1.238.016l.026.032-.061.002-.154-.008h-.113l-.01.034-.031.017-.111-.054-.023-.024.085-.007.161-.013.141-.01.09.03-.001-.001zm-2.457.009l.058.055.055.062.034.017-.039-.006-.34-.075-.043-.02.1-.006.11-.023.066-.005zM22.592 19.719l-.083.097c-.02.031-.017.314.003.355.021.045.082.095.134.11l.042.025-.038.037-.038.083.028.086.094.028.078-.011.011-.086-.024-.099-.038-.024.011-.038.026-.038.057.053.113.067.064.038.082.025.088.018.002.037-.09.036-.109-.025c-.073 0-.101.016-.108.062l-.01.066-.037.044-.068.07-.101-.018-.107-.032-.064.011c-.009.008-.012.513-.012 2.208v2.198l.034.166c.19.925.57 1.572 1.148 1.954.307.204.553.293.928.34.208.026.256.02.279-.041l.037.002c.018.049.046.056.177.052l.134-.017.015-.203c0-.196-.005-.225-.043-.256l-.005-.035-.056-.066-.146-.046.144-.034.1-.007.003-.528c.002-.431 0-.53-.01-.538l-.174.004-.16.015-.02-.025-.083-.025-.136-.034.025-.015.052-.022-.088-.079c-.185-.126-.314-.319-.36-.539-.015-.057-.017-.266-.022-2.382l-.005-2.319-.034-.053-.03-.096.005-.084.021-.041.043-.108-.042-.143-.103-.008-.018.008-.03-.176-.106-.014c-.104 0-.118.008-.094.053l-.026.122-.067.055-.154.03.022.095.03.097-.043.105-.053-.025-.047-.024.008-.038.019-.066c-.009-.071-.022-.091-.092-.122l-.086-.087.063-.012c.06.015.087.002.1-.049l.026-.062.011-.045-.003-.021-.224-.003-.242.014-.017.028-.043.002-.042-.01-.079.064c-.086.069-.115.079-.115.039l.017-.03.129-.063.011-.03-.185-.015-.203.013zm.713.37c.13.091.158.125.107.125l-.056.064-.042.067-.017-.043c-.013-.069-.049-.131-.102-.176l-.037-.083.008-.048.139.094zm.681-.022l.128.08-.012.042-.082.04-.065.033-.057-.069-.04-.07.04-.04.088-.016zm-.803.667l.023.028-.053.013c-.076.014-.147.047-.206.098l-.055.021.003-.039.178-.112.111-.008zm-.467.88l-.013.125-.05-.101-.013-.101.048-.048h.028v.125zm.739 3.416l.05.053-.015.036-.035.155-.017.028-.033-.111c.019-.092.015-.117-.024-.156l-.028-.046.102.042zm.796.781l.2.062-.053.019-.103.032-.075.075-.082.032-.022-.078-.024-.108-.015-.072.174.037v.001zm.63.203l.007.123-.11.029-.109.028-.009-.051-.012-.084-.006-.035.08-.009.16-.001v-.001zm.04.437l-.088.344c-.012.013-.143-.085-.18-.134l-.067-.165v-.024l.035.026.056.022.12-.036.124-.033zm-.703.137l.199.105.11.07-.088.028c-.113-.024-.215-.09-.246-.161-.033-.071-.017-.095.026-.043zm-5.182-6.859l-.017.095-.022.078-.095-.005c-.045.019-.06.056-.06.153l.049.112.024.088-.034.136-.034.053-.005 2.325-.005 2.324-.021.074-.1.244c-.045.076-.181.216-.267.275-.074.051-.088.075-.056.096l.037-.002.019.012-.06.028-.103.008-.053.026-.086.016-.272-.004c-.008.012-.011.131-.01.536l.003.521.1.007.144.033-.016.026-.163.025-.022.06-.019.064-.028.041v.189l.015.203.144.016.128.004.024-.026.025-.04.041.026.097.036c.141.005.426-.043.615-.104.102-.034.29-.123.406-.193.623-.375 1.034-1.049 1.23-2.016l.028-.141v-2.207c0-1.702-.003-2.208-.012-2.216l-.058-.012-.119.04-.076.035-.021-.037-.056-.05-.05-.081c-.015-.083-.03-.098-.116-.098l-.101.025-.049.024-.032-.04-.006-.055.085-.021.079-.026.052-.031.152-.09.043-.017.024.036-.017.033-.038.035.001.165.081.011.1-.026.026-.082-.036-.083-.031-.055.146-.098.03-.043v-.32l-.029-.045c-.05-.079-.064-.083-.266-.083l-.181.015.09.076.059.053-.009.029-.09-.063-.125-.058-.064-.024-.015-.027-.229.002c-.261.003-.254 0-.21.086l.025.061.02.028h.113l.031.017-.108.097c-.056.026-.065.038-.08.124l.035.064.019.014-.02.015-.051.029-.082-.008-.016-.085.029-.09c.066-.074.036-.107-.104-.122l-.07-.014-.037-.08-.011-.091c.028-.04.013-.048-.095-.048l-.108.013-.001.001zm.18.365l.041.043-.041.073-.049.073-.066-.038-.091-.044.006-.042.088-.058.06-.048.053.042zm.839.664l.165.106.002.037-.056-.021c-.061-.048-.132-.081-.209-.095l-.052-.005.026-.028.123.007zm-.64.56c-.048.046-.077.108-.083.174l-.009.027-.062-.09-.041-.046-.029-.014.133-.108.137-.098.003.048-.049.105v.001zm1.057.224l-.015.125-.045.082-.017-.125v-.124h.032l.044.042zm-1.133 2.464c.114.04.117.04.173-.002l.022-.017-.004.045c-.011.094-.093.203-.199.26l-.048.027-.007-.027-.038-.158-.02-.169.12.041zm.606.091l-.064.116c-.059.056-.235.119-.27.098l-.008-.06.105-.043c.103-.035.172-.073.195-.107l.042-.005zm-.205.552l-.03.05c-.037.04-.04.059-.023.147l-.031.111-.021-.06-.027-.11-.021-.05.052-.053.101-.036zm-.39 1.015l-.025.055-.03.114-.025.079-.038.011-.03-.03c-.03-.074-.089-.112-.185-.125l-.048-.021.175-.056.206-.028zm-.931.612l.102.017-.012.082-.015.08-.029-.007-.105-.026-.079-.022-.003-.056.03-.082.11.013zm8.325-6.546l-.016.095-.023.078c-.056-.024-.118-.009-.139.035-.018.035-.02.194-.002.208l.036.016.024.089-.034.136-.034.053-.004 2.325-.005 2.324-.021.074-.1.244c-.045.076-.181.216-.267.275-.074.051-.088.075-.056.096l.037-.002.02.012-.06.028-.104.008-.052.026-.086.016-.271-.004c-.008.012-.011.131-.01.536l.003.521.101.007.144.033-.017.026-.163.025-.023.06-.019.064-.028.041v.189l.017.203.143.016.127.004.025-.026.024-.04.04.026.097.036c.14.005.426-.043.615-.105.102-.033.29-.122.406-.192.618-.372 1.031-1.046 1.225-1.996l.034-.164v-2.204c0-1.702-.003-2.207-.012-2.215l-.058-.012-.117.038-.091.02-.07-.077-.044-.075c-.015-.085-.03-.098-.116-.098l-.101.024-.049.024-.034-.043c-.03-.056-.02-.064.076-.072l.083-.026.052-.031.15-.092.066.015-.014.037-.038.035v.165l.081.011.1-.026.027-.082-.038-.083-.031-.055.145-.098.03-.043v-.32l-.029-.045c-.05-.079-.064-.084-.268-.082l-.18.024.058.05.077.034.005.063-.084-.058-.139-.067-.038.007-.017-.029-.017-.026-.227.002-.23.023.016.053.02.048.022.043.12.009.031.012-.102.098-.069.06c-.028.09-.023.132.018.132l.019.014-.02.015-.051.029-.082-.008-.016-.085.028-.09c.068-.074.038-.106-.108-.122l-.085-.05-.03-.133.005-.035-.101-.015-.106.013h-.001zm.18.365l.042.043-.042.073-.049.073-.066-.038-.091-.044.006-.042.088-.058.061-.048.052.042zm.83.66c.131.053.206.116.175.147l-.055-.022c-.06-.048-.131-.08-.207-.095l-.053-.005.023-.028.031-.027.086.03zm-.572.47l-.048.08c-.047.048-.079.109-.091.175l-.014.04-.062-.083-.044-.05-.028-.02.206-.157c.072-.049.079-.047.08.015zm.997.315l.002.083-.062.127-.015-.125v-.124h.032l.045.039h-.001zm-1.132 2.464c.098.033.118.034.162.006l.034-.021-.006.051-.032.098c-.044.082-.197.2-.216.168l-.075-.314.133.011zm.605.095l-.064.116c-.062.059-.244.121-.275.095l-.001-.058.105-.043c.106-.037.17-.072.194-.106l.041-.005zm-.206.547l-.028.045c-.038.04-.042.065-.024.157l-.031.111-.023-.062-.026-.111-.02-.047.052-.053.101-.041v.001zm-.389 1.019l-.026.055-.031.114-.025.079-.037.011-.03-.03c-.03-.074-.088-.112-.185-.125l-.048-.021.175-.056.206-.028zm-.931.612l.102.017-.012.082-.015.08-.028-.007-.105-.026-.079-.022-.003-.056.03-.082.11.013zm7.498-6.495l-.022.024-.004.433.01.553-.002.213.004.112.032.019c.032 0 .317.071.41.102.322.106.483.247.596.519.044.105.098.289.117.402.02.109-.008.105.39.064l.373-.026c.023.008.111.001.442-.039l.43-.064c.022-.018.019-.046-.023-.25-.101-.484-.191-.763-.268-.827l-.041-.067c-.049-.143-.326-.473-.499-.593-.498-.347-1.082-.55-1.688-.588l-.169-.01-.086.02v.001zm2.115 1.01l.023.064-.04.047-.037.014-.031-.037-.03-.036-.082.011-.125.011-.046-.029v-.028l.075-.003.076-.025.098-.021.12.03v-.001zm3.06-1.016l-.03.047-.034.015-.112-.024-.095.022-.023.075-.014.062-.053.022-.072.033-.025.085.011.072.157-.003.033-.071.032-.062.194.001.015.081.039.074.154-.037.036-.075.011-.058.027.019.03.046.075.049.074.024-.009.046c-.018.088 0 .107.111.12l.062.018-.014.013-.104.048c-.03.026 0 .073.039.063l.023.053v.057l-.025-.006-.088-.024-.075-.011-.008-.065-.013-.088-.053-.022-.063.042-.068.079c-.045.035-.049.06-.018.122l.107.09.032.041.004.051c.012.031.172.232.185.232l.032-.014.081.01.082.04.007.064-.251.049-.017-.047-.019-.058-.049-.056-.091-.052c-.059.005-.091.028-.104.075l-.035.012.047-.076c.082-.094.104-.145.074-.175h-.131l-.011.043-.07.011c-.098-.049-.12-.067-.128-.109l-.037-.069-.033-.084-.02-.073-.105-.037-.065.09.025.095.073.069.044.037-.064.063-.037-.06-.064-.063-.065.065.029.069.052.086.025.065h-.055l-.091.038-.003.134.158.132.253.002c.248-.006.25-.008.243-.058l.088.007.092.043c.028.008.285.01 1.011.006l1.05-.004.403.003.326-.015-.048-.032-.051-.019.017-.055.008-.1-.025-.062-.024.004-.079.053-.025-.012-.008-.064-.019-.075.031-.016.122.011c.104.007.113.003.133-.07l.061-.079.188-.2.098-.109.08.022.053.033.064.023.061.006c.054-.007.092-.045.11-.11l-.003-.071-.098-.046-.071.058-.052.036-.042-.037-.076-.075-.058-.04c0-.065.068-.143.122-.143l.056.071.092.052c.088 0 .134-.026.131-.071l.063-.127.135-.066.072.021.029.036-.029.043-.011.083.118.002.14.013.085.035.063.026.008.053c0 .073.078.125.117.08l.075-.149c0-.065-.038-.097-.06-.05l-.026.024-.116-.037.093-.05.147-.095-.064-.062-.087-.049-.035-.005-.045-.008-.045.041-.027.079-.047-.007-.025-.072-.085-.023h-.066v-.029l.046-.039.068-.056-.003-.026-.48-.002-.501.002-.083.058c-.075.064-.091.067-.085.016l-.021-.058c-.025-.02-.034-.021-.306-.021-.303 0-.312.002-.332.054l-.038-.005-.035-.037c-.017-.008-.239-.011-.783-.011l-.76.001-.052.028c-.064.036-.083.036-.145.004-.066-.032-.076-.023-.076.071v.072l-.068-.073-.096-.088-.241-.014-.24.019zm1.233.098l.014.041.057-.003.07-.021.035-.019.023.041-.026.067-.026.026.023.097.026.11-.024.013-.034-.059c-.008-.089-.053-.171-.123-.227l-.056-.075.041.007v.001zm1.383.005l.01.09.019.103.017.042.098-.007.139-.043.029-.01.029.019.03.067.008-.019.005-.02.11.062.107.063v.043c0 .05-.008.053-.092.024l-.085-.054-.056-.024-.058-.011-.029-.021-.022.045-.003.046h.106v.061c0 .083.011.107.053.12l.032.038.091.045.035.029-.08.013-.078.011c-.038.036-.028.096.017.096l.017.033-.008.034-.103-.043-.109-.043-.063.073-.011.047-.047.005-.084.034-.027-.027c-.003-.045.007-.041-.135-.06l-.045-.031.022-.018.146.005.02-.002.101-.034c.054-.054.056-.077.008-.092l-.032-.011.023-.015.071-.017.1-.064.005-.144-.114-.031-.062-.043c0-.065-.011-.071-.115-.071l-.075-.022.025-.024.002-.141-.002-.11.026-.009.037.016h.001zm-2.515.005l.033.036-.022.043-.091.026-.047.014-.01-.063.049-.058.057-.003.03.007h.001zm1.936.154l.007.071-.015.063-.037.027-.036-.06-.025-.059.035-.036.056-.037.016.031zm.503.203c-.014.045.007.068.066.075l.047.009-.008.071-.012.066-.046.003-.047-.022c.047-.013.013-.079-.04-.079l-.077-.019-.043-.058v-.038l.052-.005.079-.02.029.018zm-.87.634l-.025.159-.007.046-.062-.003-.063-.003-.013-.062-.067-.086-.06-.062.098.01.101.033.056-.095.033-.048h.026l-.017.112.001-.001zm-.863.128l.06.086.05.055-.014.032h-.157l.006-.039.013-.096.023-.056.019.019zm1.375.066l.037.039-.017.026c-.038.06-.097.109-.132.109l-.026-.038-.094-.077-.022-.036v-.037l.066-.01c.129-.019.146-.017.188.025zM32.952 19.777c-.134.007-.266.025-.398.052-.628.116-1.106.319-1.47.624-.244.212-.427.486-.529.793-.045.146-.075.295-.091.447-.014.135-.014.473-.002.602.04.386.168.705.403 1 .253.315.685.585 1.224.761.28.092.679.184.813.186l.082-.023.059-.043.115-.081.056-.039c.057-.011.106-.046.135-.097.038-.056.03-.06.135.068.124.152.145.173.183.173l.086.019.084.009c.065-.018.241.039.311.102l.027.024-.022.025-.072.058-.051.046.107.082.114.013.098.012.235.023.242-.024.125-.007.143.08.055.067c-.019.038-.07.058-.133.051-.065-.007-.112.01-.138.048l-.017.026-.094-.008-.095.012.143.196.104.003.124.005.009.068-.052.069-.029.049h-.12l-.008.062c-.017.143-.036.223-.069.305l-.028.112.104.096.034.023-.079.049-.12.041-.004.085.015.043c-.017.062.149.107.212.06l.022-.049.023-.032.134.01.141.105-.035.025-.058.025-.051.112.03.048.079.005.126-.076-.005-.101-.019-.037.046-.002.045.001.003-.079-.023-.124-.026-.043.058.005c.098.011.156.042.156.085l-.034.026c-.064.022-.073.046-.07.172l.003.111h.064l.088.022.013.06.116.121.124.104-.01.094-.005.099.046.003c.059-.024.12-.116.131-.196l.041-.044.065-.031c.046-.048.138-.195.139-.224l-.037-.045-.042-.044.048-.015c.06.011.089-.002.12-.057l.053-.197-.019-.045.019-.031.047-.018c.026-.048.083-.447.089-.62l-.012-.076-.019.065-.01.067-.052.03h-.116l-.088-.021-.148.035-.075.032v.043l-.011.039-.037-.135v-.026h.208l.006-.04.075-.087.073-.088.073-.053.098-.058c.019-.034.02-.182.003-.2l-.107.019-.045.08-.046.056-.09-.069-.024-.03-.045.029-.052.028-.047.02-.067.006-.089-.026-.055-.034.118-.033c.088 0 .123-.013.18-.068l.037-.037h.122c.162 0 .195-.018.195-.103-.006-.065-.039-.125-.091-.165l-.125-.16-.045-.065-.044-.049-.02-.033h-.221l.02-.05.022-.079-.035-.032-.037-.024.02-.034.015-.072-.011-.073-.089-.086-.083-.071.031-.009.031-.026c0-.03-.24-.222-.345-.276-.188-.096-.532-.222-.877-.323-.308-.088-.91-.234-.97-.234l-.07.029-.052.029-.002-.038c.008-.049.005-.05-.138-.077-.37-.069-.694-.176-.894-.294l-.156-.12c-.115-.096-.177-.241-.168-.391 0-.112.029-.279.058-.337.028-.053.161-.191.272-.28l.084-.067-.005-.064c-.008-.074-.008-.076.097-.076l.073-.021.137-.023c.145-.003.156-.001.156.03l-.106.009-.119.014-.086.088.095.005c.136-.011.38-.043.433-.059.088-.025.081.034.081-.679 0-.415-.004-.636-.01-.649l-.104-.017-.265.013zm-1.039 2.67l.075.054-.078-.011c-.181-.019-.269-.057-.184-.08.079-.021.106-.015.188.037h-.001zm1.58.476c0 .15-.038.234-.166.36l-.099.091.007-.036-.007-.123.04-.022.108-.059.051-.081.02-.089.017-.087.029.045zm1.97.576c.064.049.11.117.079.117l-.041.071-.022.03-.074-.011-.06-.006-.009.032-.017.068c-.008.046.01.056.104.056l.076.011v.092l-.019.074-.053-.012-.058.019-.026.115-.029.117-.028.028-.053-.052-.053-.093.037-.043.035-.003v-.116l-.042.002-.073.034-.035.046-.035-.008c-.043-.031-.076-.027-.117.012l-.035.035-.062-.023-.064-.038.084-.017h.086l.005-.031.008-.053.003-.022.035.024.106.024h.071l.021-.05c.03-.072.029-.154-.003-.201l.005-.088.093-.021.098-.013.016-.099.048-.008zm-2.279.211l-.028.068-.037.052-.033.033-.057.04-.073.028-.077-.041-.052-.08-.023-.038.046.008.073.018.066.01.107-.067.074-.067.016.037zm2.31.646l-.249.184-.015-.04-.002-.039.04-.008.09-.078.01-.037.064.003.062.015zm.272.552l-.01.073.004.11-.041-.024-.125-.024-.118.025-.003.092.025.035h-.037l-.048-.024-.011-.053-.01-.053-.124-.024h-.115v-.024l.026-.013c.022.013.225-.023.288-.049l.092-.02.073-.04.077-.017h.077l-.02.028zm-.769.668l.152.083.032.019-.026.028c-.047.049-.129.026-.129-.034l-.071-.054-.116-.061.023-.045.135.064h.001zm.848.387l.043.036.048.083-.021.037-.093.084-.095.052-.09.036.04-.057c.081-.027.088-.037.088-.124l.03-.153.05.008v-.001zm7.814-5.917l.035.061.019-.015.015-.014.011.077.014.082-.005.056-.101-.02-.056.069-.017.164-.014.011c-.049 0-.109.053-.12.105l-.035.03-.028-.011-.02-.029-.095-.019c-.103 0-.111-.009-.103-.101.007-.078 0-.091-.049-.091l-.126.077-.049-.001c.005-.058.048-.112.113-.146l.042-.064-.067-.019-.079.03-.023.028-.098-.006-.113.005-.015.107.023.111.009.054c-.02.046-.008.06.065.08l.063.048.028.044.043.066c.025.071.075.109.13.102l.044.014-.071.037-.075.049-.044.048-.025.007-.018-.028-.019-.085-.067-.082-.036-.005v-.085c0-.091-.002-.095-.057-.115l-.065-.041-.031-.03-.065.016-.067.008-.023-.036-.079-.021c-.11.007-.178.064-.178.152l.018.061.113.017.028.013-.055.034-.105-.029-.058-.029-.076.028-.028.085c0 .072.023.103.082.118l-.008.039-.058.028.003.108.073.025c.076 0 .118.013.155.052l.033.034h.615l.632-.006.03-.033.061-.006c0 .041.015.045.159.045.158 0 .147.006.205-.112.046-.096.062-.092.053.011l.028.086.015-.101-.019-.108-.003-.065.02-.366c.003-.287.002-.314-.013-.319l-.032.004c-.032.019-.116.158-.132.215l-.045.055-.051-.06-.021-.094.035-.037.035-.022-.035-.022-.036-.03.071-.047.102-.006.049.01.056-.082-.059-.052-.063-.038-.11-.027-.074-.014-.015-.034h-.098.001zm-.482.658l.015.082-.011.064-.004.072.113.048h.035l-.028.029c-.035.037-.07.037-.104.001l-.06-.184-.032-.169.033-.012h.032l.012.069zm.662.041c.032.039-.129.33-.184.33l-.018-.038.011-.039.085-.053-.002-.127.026-.05.082-.024zm-3.463.853c-.039.021-.044.055-.014.114l.026.1-.029.076-.029.127v.101l.052.083.053.101-.06.075-.037.027-.008.095.028.113.089.028.096-.024.076-.024.041.002-.022.018-.067.035-.103.112-.06.071-.031.003v-.046l-.013-.059c-.034-.027-.035.002-.035.499 0 .515.001.532.043.548.041.015.153-.011.191-.046l.079-.009.152.013.139.025-.03.025-.064.044-.117.031-.111.023-.017.075-.018.071c-.036.024-.062.082-.069.152l-.035.12-.116.018-.028.119c0 .097.004.105.049.117l.017.026.001.07-.028.118-.039.065v1.357c0 1.041.003 1.358.011 1.367.017.017 1.735.017 1.75 0 .009-.009.012-.296.012-1.234s-.003-1.226-.012-1.235l-.063-.011-.116.038-.075.038-.017-.027-.067-.069-.043-.083-.02-.056-.093-.025-.114.023-.041.025-.019-.025c-.052-.065-.034-.09.061-.09l.092-.04.017-.017.159-.077.051-.046.026.035.009.039-.038.024-.023.098.011.089.078.011.094-.028.028-.086-.037-.083-.008-.056.132-.095.029-.039v-.152c0-.177-.001-.181-.09-.276l-.082-.089-.023-.025h.146v.037l.036.046c.009-.008.012-.159.012-.591v-.579l-.023-.04-.064-.062-.041-.022.02-.02.061-.02.041-.001.003-.351-.012-.363-.041.044-.019.049-.2.1-.005-.019.103-.074c.061-.018.076-.037.085-.11.008-.063-.011-.107-.054-.128-.054-.028-.075-.02-.182.065l-.03-.013c.091-.112.098-.125.091-.168-.007-.05.007-.057.082-.042l.117.086.041.011.025-.098c0-.137-.023-.163-.145-.163l-.109.025-.042.024-.042-.024-.134-.025-.111.022-.022.037-.094.027-.088-.033-.022-.032-.083-.021c-.069 0-.077.004-.173.078-.094.072-.105.074-.105 0l-.012-.067-.151-.011c-.151 0-.163.004-.163.05l-.034.033-.139-.022.019-.013.02-.034-.098.001h-.001zm1.043.524l-.002.163c-.034.063-.089.107-.089.072l.029-.051.028-.08c0-.06-.033-.096-.09-.096l-.024-.015.071-.013.077.021zm.201 1.103c.027.043.07.064.143.071l.064.006v.101l-.055-.019c-.11-.037-.182-.096-.191-.155l.04-.005v.001zm-1.062.144l.036.065.102.028.075.008c0 .026-.092.107-.139.122l-.032-.037c-.013-.05-.035-.06-.099-.045l-.065-.056.019-.046.068-.059.036.022zm.607.119l.083.148.044.04-.071-.007c-.142-.014-.229-.043-.229-.079l.028-.018.083-.076.034-.034.028.026zm-.172.585l.024.098.03.071c.011.065.045.079.128.05h.045l-.092.098-.07.034-.022.063.024.098.02.015-.023.014-.064.049-.026.007-.04-.088-.013-.084.04-.038.038-.064-.05-.038-.108-.018-.058-.006-.03-.068-.029-.08.027-.036.135-.014c.054.013.064.003.079-.069l.024-.056.014.064zm.593.026l.131.105.06.047c.005.04-.024.031-.112-.038-.083-.064-.098-.069-.139-.052l-.026-.043v-.052h.037l.049.033zm-.191.437c-.049.044-.082.104-.092.169l-.025.024-.041-.067-.048-.05c-.05 0-.019-.034.115-.126l.135-.091.002.046-.046.095zm-.692-.056l.041.042-.04.067-.049.075-.067-.034-.09-.045.02-.05.083-.059.046-.037.056.04zm.852.66c.116.048.183.106.151.132l-.052-.018c-.062-.046-.134-.078-.211-.094l-.049-.011.021-.028.139.018zm.403.76l.002.072-.062.134-.014-.125v-.125l.03.003.043.041zm-10.203-.943l-.305.008-.257.001-.023.026-.029.053-.034.001c0-.048-.01-.05-.2-.05l-.255.025-.148.014-.161-.005-.109.032-.015.122.022.152.061.063.01-.002-.021.041-.021.029.023.155c.07.501.418 1.079.81 1.343.06.04.113.036.192-.019l.157-.074.03-.007v.043l-.012.043-.098.11c-.024.062-.013.078.095.138.252.14.555.245.818.283.09.013.175.008.202-.015.027-.022.002-.121-.037-.143l-.004-.047c.029-.024.043-.011.178.155l.029.037h.085c.1 0 .11-.008.105-.074l-.035-.049-.032-.017.076-.014h.076l.011.03.068.082.092.101.089.046.097-.046-.029-.06-.028-.043.031-.008c.055-.014.074-.046.074-.124 0-.105-.031-.152-.117-.179l-.047-.069.05-.071.052-.104-.043-.101-.028-.013.033-.057c.037-.066.041-.112.013-.158l-.043-.037-.024-.02.037-.008c.101.02.117.002.117-.139l-.024-.133c-.029-.034-.088-.05-.192-.05l-.089.024-.044.024-.025-.028-.086-.062c-.131-.036-.354-.135-.601-.27l-.07-.017-.024.012.005-.063-.053-.095-.116-.192-.062-.188-.02-.114-.073-.086.007-.065c.047-.076.017-.098-.11-.078zm-.015.29l.029.079.029.059-.04.03-.047-.034-.062-.071-.033-.036c0-.04.045-.079.088-.079h.037v.051h-.001zm-16.008.159c-.578.03-.84.048-.847.056-.015.015-.002.075.055.259.179.581.465 1.045.833 1.352.178.148.456.311.647.38.151.054.412.105.591.117.122.008.14.003.16-.04l.05-.01c.011.046.042.056.173.051l.135-.017.015-.203c0-.196-.005-.225-.043-.256l-.005-.035-.056-.066-.146-.046.143-.034.101-.007.003-.528c.002-.431 0-.53-.011-.538l-.172.004-.161.015-.019-.025-.083-.025-.136-.034.026-.015.052-.022-.09-.082c-.088-.063-.165-.14-.228-.228l-.104-.068-.88.045v.001zm.813.403l.2.062-.062.023c-.089.015-.143.048-.17.107l-.082.029-.022-.078-.023-.108-.015-.072.174.037v.001zm.63.203l.007.123-.11.029-.11.028-.009-.051-.012-.084-.006-.035.079-.009.16-.001v-.001zm.04.434l-.081.34-.053-.014c-.101-.053-.174-.148-.199-.26l-.006-.046.022.017c.059.042.06.042.184 0l.131-.037zm-.707.135c.027.035.09.07.196.107l.116.074-.088.028c-.112-.024-.215-.09-.246-.161l.022-.047v-.001zM34.272 26.052l-.013.075.041.05.053.07.028.02.002.112.005.113h-.026l-.035-.041-.079-.105-.069-.015-.01.024-.086.013-.108.024-.03.024-.073-.151.112-.01.12-.014v-.12l-.136.002-.088.05-.032.034-.064-.011c-.08-.014-.138-.002-.165.034l-.019.097.012.093.09.088.078.068-.01.039.012.083.076.212.055.04-.008.082-.034.06c-.026.118-.047.135-.144.116-.119-.023-.128-.008-.128.191 0 .193-.017.18.232.165.451-.027.702-.068.744-.123l-.004-.108-.024-.058.083-.038.018.04v.04h.038l.128-.014.088-.013.024.023.025.023.074-.015c.097-.02.204-.063.323-.13.126-.071.246-.151.36-.239l.044-.037-.027-.039-.05-.095-.043-.059-.116.037-.025.078-.017.068-.024.088-.035.105-.065.028-.082-.053.028-.029.065-.039.031-.106.034-.104.028-.088-.002-.101-.024-.046-.136.035-.048.052c-.027.05-.051.044-.079-.017l-.079-.104-.056-.098-.059-.072-.055-.011-.033-.053c-.013-.078-.109-.14-.218-.14l-.095-.044c-.124-.079-.234-.101-.296-.06v.001zm4.83 5.834l-.029.028v.225l.012.235.082.012.065.021.009.135.023.06-.051-.02-.112.004-.028.028v1.025c0 1.116-.003 1.052.054 1.041l.052.023c.053.056.038.088-.038.088l-.056.011c-.009.009-.012.191-.012.761 0 .742 0 .75.02.774l.08.017.03-.126.015-.138.045-.048.067-.055.044.003-.023.086-.03.134.025.118-.015.11-.094.03-.153.036c-.01.011-.013.304-.013 1.387 0 1.225.002 1.373.015 1.384l.025.003.028-.128c0-.064.007-.069.075-.061l.059.008.012-.032.013-.03.021.022-.015.076c-.048.033-.116.145-.18.306-.057.14-.062.17-.033.217.035.058.055.062.28.056l.256-.006.254.003c.219.002.27-.006.315-.046l.101-.023.083.021.107.055c.076 0 .109-.017.109-.058l.087.02c.071.046.098.048.135.011l.027-.028v-1.543c0-1.705.006-1.572-.062-1.558-.05.008-.075.036-.105.119-.032.082-.06.116-.099.116l-.04-.047-.065-.088-.012-.071c0-.08.002-.082.09-.082l.083-.038c.054-.06.088-.135.098-.215l.012-.075.048.002.049.003.003-.08-.003-.104-.052-.074-.048-.066.068-.042.033.003.003-1.835-.002-1.855-.038-.035-.038-.045-.012-.058c-.009-.053-.067-.064-.136-.024l-.055.024.005-.065.015-.051c-.006-.018-.017-.019-.348-.014l-.361.004-.383-.004-.361-.004-.029.028h.001zm.442.431c0 .069-.008.072-.141.058l-.123-.02.029-.047.037-.039h.198v.047zm-.088.692l.019.104-.081-.027c-.075-.028-.082-.036-.06-.083v-.044l.04-.018h.052l.03.067v.001zm.38.257l.008.067-.111.014-.079.015.008-.093.005-.029.061-.019.11.043zm-.212.18l.01.06.073.103.058.086.026.077-.035.006c-.124.02-.188.114-.142.205.029.054.11.106.167.106l.011.015-.069.014h-.07l-.046-.079-.086-.126c-.051-.058-.116-.102-.188-.127l-.068-.038.086-.023c.096 0 .131.011.158.052l.088.001.021-.098-.019-.084-.037.002-.019-.073v-.085l.032-.011.049.015zm.093.913l.095.083-.067.001-.07-.002-.037-.058-.024-.101.103.077zm.517 1.528l.111.017-.035.041-.038.037-.069-.012-.086-.002-.018-.031.024-.065.11.015v-.001zm-.192.184l-.014.079.01.113.095.041.081.008-.017.034-.142.055-.038-.038-.024-.168v-.129h.024l.024.007zm-.346.874l.069.139v.045l-.053-.039-.084-.037-.037-.047-.027-.092.022-.064.11.095zm-.086.696c.012.036.066.078.14.11l.044.032-.113.043-.111.03-.041-.03-.04-.029.034-.079.038-.095.05.017zm.989.232c0 .055-.027.089-.072.089l-.234-.061c-.073-.037-.063-.044.063-.044l.161-.014.082.03zm-.06.866l.045.047-.009.063-.024.062-.049.017-.058.025-.079.054-.04.017-.069-.026-.069-.038.029-.039.029-.045.031-.011.094.013.083-.015.04-.12.045-.005h.001zm-.7.483l.16.024h.125l.028.029.012.029-.161.082-.079.005-.119-.113-.06-.03.049-.05.045.024h-.001zm-.238.266l-.048.072-.091.048-.018-.041.011-.065.086-.026.06.012zm1.582-7.618c-.048.027-.047.011-.048.707 0 .483.002.656.011.674.02.042.053.053.173.053h.11l.062-.043.088-.043.02.037c-.008.048.007.06.078.066l.141-.034.085-.038.02.023.116.017.199-.009.137.026.081.027.133.014c.21.036.363.115.498.255.137.142.225.311.287.55l.024.093v1.473c0 1.01-.005 1.499-.011 1.558-.023.188-.087.363-.18.501-.046.068-.163.188-.233.24-.091.064-.188.117-.291.16l-.098.046-.006.061-.02.058-.105-.034-.144-.049-.584-.01c-.559 0-.556 0-.58.052l-.011.272v.247l.024.035.024.035-.024.047-.024.047v.332c0 .359.002.373.053.396.031.014.707.015 1.05.002.629-.025 1.08-.092 1.456-.217.257-.084.5-.215.617-.332l.046-.046-.007-.058c-.008-.075.008-.115.044-.115l.042.02.045.002.091-.073.064-.057-.007-.056.019-.062c.033-.008.071-.053.161-.191.175-.265.277-.545.336-.925l.023-.139v-1.692c0-1.582-.002-1.699-.018-1.806-.058-.393-.195-.771-.405-1.109l-.062-.12c0-.026-.172-.206-.28-.294-.377-.305-.852-.487-1.46-.557-.215-.026-.5-.034-1.127-.033-.488 0-.613.002-.631.013h-.001zm.663 6.538l.035.059.04.052.005.055-.12-.029-.111-.049.045-.086.107-.002zm-.362.079l.036.037-.026.034-.003.131.113.086.017.046-.1-.019c-.068-.029-.123-.082-.153-.15-.023-.062-.035-.069-.116-.069l-.07-.017.098-.089.107-.024.097.034h-.001zm.983.131l.029.071-.1.029-.063-.133.053-.03h.054l.028.063h-.001zm-28.402-6.705l-.005.117v.192c-.014.127-.014.413.002.428l.043.011.048-.025.059-.046.044-.02.003-.076-.007-.087-.051-.019-.071-.018-.033-.011.041-.056.065-.047c.058.015.066.009.135-.09l.069-.01.1-.013.065-.056.048-.059-.006-.101-.052-.018-.058.034-.049.001c0-.047-.01-.049-.197-.049l-.191.018v.001zm.765-.004l.019.098.013.095-.076-.005-.108.013c-.03.045-.005.132.05.179l-.004.143c-.032.101-.029.123.023.14l.04.04-.035.04-.083.043-.058.033-.025-.056c-.021-.101-.021-.102-.085-.093l-.112.011-.064.003-.008.026-.072.099-.051.037.028.04.064.026.031.003.043.028.043.025-.026.038-.026.034.021.103.002.167-.025.054-.02.03-.01-.09.003-.088-.067-.003-.115.029-.058.097c.013.065.089.125.169.133l.037-.024.03.004c0 .062-.092.119-.184.113l-.045-.027-.037.001.02.045.022.017-.021.085c-.026.098-.033.289-.012.31l.096-.015.08-.063.125-.136-.015-.104-.026-.098.087-.013.093.005.037-.043.05-.075.038-.032h.027v.109l.027.137c.07.075.194.148.279.167l.049.038-.052.046c-.125.047-.175.049-.164.008l-.034-.052-.02.043-.032.036-.052-.079-.01-.105.008-.054c-.011-.047-.103-.084-.127-.052l-.021.046-.05.075-.032.062.007.117-.041.028-.032.059.026.05c.054.008.086-.033.046-.057-.05-.032 0-.047.092-.028l.08-.023.029-.015.029.052-.024.076-.018.044.111.024.168.014.022.035c.018.064.041.088.101.107l.052.043-.017.028-.038.023-.021.11v.088l-.034.007h-.094l-.074.008c-.034.04.003.127.077.181l-.005.052c-.065-.01-.12-.05-.15-.109l-.083-.056-.022.071.021.076.034.019.007.05-.005.185.124.015.127-.017.017-.029.039.008c.057.028.068.023.093-.048l.075-.086.034-.026.06-.039c.087-.026.135-.078.128-.141l.018-.046.032.045.072.112.049.04.012.03-.035.018-.097.017-.087.054c0 .052-.018.061-.119.061-.097 0-.102.002-.12.059l-.074.08-.001.068.022.073-.03.033-.034.115c.022.116.072.167.161.167.074 0 .106-.04.097-.118l.016-.047.037.051c.019.077.015.091-.037.122l-.033.053.049.098.173.003.046-.1.019-.024.019.023.036.099.126-.008.026-.055.009-.093.056-.096.044-.037v-1.309l-.024-.023-.038-.025-.015-.028.028-.029c.045 0 .05-.012.05-.168 0-.169.006-.158-.112-.205l-.095-.044.056-.027.103.008h.043l.002-.398-.002-.418-.047-.041-.076-.05c-.046-.04-.048-.088-.006-.127.038-.038.058-.026.077.043l.045.065c.019-.017.019-.687 0-.727-.026-.048-.032-.049-.515-.049-.409 0-.451.002-.457.015h.001zm.861.222l.017.047.034.096-.028.052-.041.041-.025-.027-.071-.189.083-.035.032.015v.001zm-.212.317l-.034.037-.088.084-.083.022c-.1.015-.157.041-.172.078l-.035.027-.027-.03.011-.026.045-.103v-.06h.039l.032.009.042.058.03-.084v-.041h.24v.027zm-.048.433l.069.038.15.041-.015.017-.145.058-.135.057-.011-.043.025-.052.019-.051-.012-.062.025-.021.03.019zm.317.389l-.002.055-.013.04-.084.005-.131.046c-.058.05-.061.074-.015.094l.04.068-.124-.03-.175-.025-.022.006-.071-.015-.055-.01v-.112l.038-.011.086.023.1.015h.088l.134-.082c.138-.084.18-.098.207-.066zm-.487.566c.096.035.191.085.242.131l-.002.063-.056-.035-.035-.051c-.034-.025-.115-.034-.151-.015l-.067-.026-.029-.08.096.014h.001zm.218.612l-.026.056-.207.064-.193.038-.015-.038.007-.039.098-.015.147.002.079-.001.056-.105.007-.036.024.023.022.051zm.698-2.539l-.046.088.029.062v.093l-.029.026.003.422.004.43-.004.127-.004.117.029.029.028.029h1.01l.047-.024.048-.024.048.024.046.024h1.543l.02-.027.064-.024c.012.052 0 .051.36.051.356 0 .377-.003.401-.047l.009-.672-.009-.671c-.025-.046-.034-.047-.535-.047-.508 0-.498-.001-.485.052l-.036.026-.035-.003-.035-.027c-.013-.049-.005-.048-.345-.048l-.33.011-.002.081-.024.026-.057-.004-.036-.059-.022-.046-.183-.005h-.433l-.237.006-.024.072c-.014.075-.038.11-.077.11-.044 0-.05-.037-.017-.103l.022-.044-.027-.022-.027-.023h-.314l-.34.015zm2.524.386l-.038.101-.038.083h-.166l.005-.026.013-.053.027-.018.103-.004.067-.076.026-.008v-.001zm-2.317.396c.085.057.192.186.213.255l-.04.04-.057.015-.015-.084-.038-.126-.064-.04-.06-.038.027-.044.034.021zm8.272-.787c-.815.048-1.517.35-2.168.934-.199.17-.37.369-.508.591-.187.315-.341.649-.458.996-.085.268-.155.637-.128.685l-.005.039c-.053.08-.078.69-.041 1.015l.048.149.004-.08-.008-.112.048.02.036.046.053.088.05-.029.058-.022-.03.04-.024.073.013.095.005.056h-.042l-.096-.029c-.077-.04-.082-.032-.067.115.019.191.037.221.14.221l.077-.023.152-.026.239-.038.047-.028.082-.023.064-.006.051.002.003.032-.011.056-.014.078-.05.053-.127-.015-.095.123.005.088.045.072.082.029.087-.02c.049-.03.084-.018.16.049l.08.058.077-.072.045-.022.009.07-.017.079-.038.002-.056-.009-.038-.004-.079-.02c-.068-.008-.073 0-.053.073l-.008.066-.045-.05c.011-.067-.156-.178-.229-.15l-.135-.011.002-.139.029-.055.016-.029.024-.053.002-.076c-.043-.034-.072-.024-.085.028l-.043.024-.037-.013-.015-.011-.015.043-.02.044-.062.02c-.052.025-.083.084-.088.167-.004.063.017.134.12.393.093.238.172.369.223.369l.011.035.004.065c.017.039.166.245.178.245l.009-.038.027-.038.054.028.026.028-.053.017-.049.032.176.238.045-.013c.048-.026.062-.008.06.067l.009.078c.011.02.258.251.366.341.286.24.642.448.763.448l.086-.07c.01-.038.055-.035.093.008l.065.03.096.016.062.021-.003.064.019.075c.031.014.371.086.403.086l.05-.01.025-.045-.063-.129-.009-.041.015-.087v-.082l-.034-.02-.047-.069c.03-.052.07-.067.105-.04l.081-.04c.034-.06.12-.156.14-.156.032 0-.008.11-.077.212l-.008.09.001.07.004.058.11-.061-.017-.101c-.037-.033-.03-.058.034-.105l.081-.021.068.017.053-.036.019-.071-.047-.062-.153-.023-.01-.081.048-.062.043-.025.022.005h.071l-.005-.05-.002-.102-.011-.088-.06-.023-.11-.019-.204-.01-.046.079c.015.062 0 .092-.063.111l-.051.035-.045.032-.046.011-.012-.037-.057-.088-.023-.032.064-.039c.104-.025.15-.064.21-.176l.046-.05.136.035h.031l.052-.015c.044 0 .06-.065.023-.09l-.216-.062-.24-.074c-.169-.103-.33-.218-.482-.345l-.143-.224-.267-.431-.041-.118c.004-.073-.014-.143-.044-.174l-.077-.026-.05-.003.014-.014.043-.034c.037-.043.037-.067.005-.285-.04-.279-.095-.507-.131-.55l-.065-.008-.071-.014.05-.05.069-.024.017-.057.019-.043.06-.139.001-.224-.05-.033-.045-.037.05-.017h.053l.009-.036.04-.178c.082-.386.234-.728.454-1.04l.064-.103-.025.011-.014.024-.092-.122.088.015.108.015.232-.163.235-.169.273-.099.257-.094.002-.045.035-.06.077-.059.032-.027v-.598c0-.586 0-.599-.02-.617l-.229-.009zm-2.32 3.682c.044.095.116.146.151.11l.011.017.076.095.106.005.015-.019.014.024.078.024h.079l-.008.035-.006.141-.028.026-.082-.018-.063-.03-.015.033-.026.034-.037-.024-.021-.024-.01.048.007.047h-.064l-.057-.009-.043-.062-.034.005-.045-.032-.075-.02c-.102.001-.12.008-.143.05l-.053.058-.192.067.008-.029.105-.065.09-.073.037-.042.033-.028c.019-.035-.021-.155-.064-.195l-.113-.045-.022-.021.019-.03.1.049.059.017c.056-.006.163-.05.174-.073v-.107l.04.061v-.001zm.165 1.025l-.013.124c.012.049 0 .047-.11-.014l-.09-.068.017-.011.056.011.085-.03.055-.012zm.315.255l.019.073c.028.01.107.091.162.171.074.108.068.122-.019.04l-.099-.038-.078.014h-.06l-.042-.069-.029-.073.011-.013-.096.01-.081.103-.023.039-.025-.052-.015-.054.053-.08c.06-.09.062-.09.171-.069l.075-.011.018-.04.029-.019h.028v.067h.001zm-.457.107l.058.07-.03.015-.066.034-.049-.011-.002-.079.088-.03.001.001zm-.618.269l.073-.002.076.06.019.132-.26-.161.031-.04.061.011zm1.928 1.26l-.028.051-.106-.055-.054-.155-.005-.082.097.096.097.096v.049h-.001zm-.459.181l.084.026.033-.021.045.002-.09.077-.058.031-.033.01-.053-.025-.055-.017-.022-.051.006-.041.143.009zm-.27.268l.058.041.073.045.117.031c.005.015-.15.017-.201.002-.043-.013-.113-.087-.113-.121l.004-.022.062.024zm1.257.178l.028.046.029.047-.058.02-.058-.004-.024-.067-.024-.063h.053l.053.02h.001zm1.045-7.209l-.029.028v.662c0 .637.001.662.018.684l.207.065c.142.027.279.074.408.14.211.101.37.214.544.386.132.131.145.148.327.456.122.205.136.234.13.262-.008.036-.01.032.167.194l.1.091-.047.015-.059.022-.06.136.068.288.102.019.141.021.092.019.086.009.122-.019.084-.025-.017.062-.015.094.002.03.056-.002.081.017.055.019.226-.081.048-.033.023.031.035.074-.01.014.057.034.02.014-.053-.012-.069-.012-.135.09-.044.025-.16-.035-.198-.024c-.069.014-.319.015-.319.002l-.045.005-.095.032c-.056-.002-.071.014-.071.076l.038.122.017.092c-.048 0-.065.046-.079.209-.008.086 0 .108.039.108l.086-.077.03-.028.019.021-.011.068-.034.054-.054.03-.052.02c-.037 0-.047.022-.047.114l.025.095.046.02.034.012h.017l.028-.012.046.048.024.058-.033.01-.047-.033-.023-.037-.043.026c-.042.038-.065.103-.048.131l-.037-.001c-.06-.037-.077-.023-.09.066-.018.137-.007.159.086.156.083-.002.099.013.085.083l-.032.012-.082-.054-.079.005c-.064 0-.066.006-.051.11l.006.1-.105.088c-.101.069-.131.104-.107.125l.03.005.042.043-.096.028-.093.035c-.085.113-.277.287-.359.33-.179.091-.322.193-.358.253l-.048.043-.023-.029-.098-.024-.105.058.063.024h.062v.041c0 .088-.008.109-.052.128-.061.03-.108.081-.134.144l-.023.148-.005.101.04.058.077.11.019.069-.062.032-.085-.008-.11-.014-.011.066-.024.083-.024.182c0 .168 0 .168.06.178l.036.014-.03.034-.017.04.147.01c.834-.037 1.604-.39 2.32-1.06.119-.111.172-.177.335-.428.424-.646.643-1.227.685-1.815l-.001-.15-.062-.014h-.051l.002-.041.002-.04-.06.004-.06-.013-.072-.002-.042-.015-.011-.042.11-.03.067-.016.019-.084c.012-.132.009-.125.064-.122l.06.037.05.012c.017-.059.004-.259-.02-.294l-.01-.052c.009-.043-.03-.069-.103-.069l-.056-.014-.015-.025-.085.011-.072.023.002.061-.014.072-.061-.06-.024-.06-.148.003-.014-.007-.011-.028c-.01-.023.235-.044.258-.023l.026-.008.066-.036.076-.044.065-.032.071-.046.028-.131c-.002-.105-.017-.178-.044-.201l-.013-.061-.015-.07-.039-.026-.127.055-.141.055-.053.06-.055.098-.037.05-.025.01-.02-.044.036-.076.027-.062-.02-.042c-.025-.015-.121.019-.159.057l-.043.033-.004-.06c.014-.139-.079-.18-.138-.061l-.011.137.087.028.091.025.038.069.032.03-.022.038-.068.028-.074-.006-.125.006-.115.025-.03.086-.014-.043.011-.043-.042-.04-.081-.053-.107-.032c-.157 0-.252-.044-.235-.11.008-.027.008-.027.183.027l.135.032.022-.053.023-.064-.005-.055.015-.094.038.024.068.024.172-.054.003-.145-.001-.011.098.073.071.055.211.025.192-.012.026-.058.027-.071.024-.074c.009-.071.054-.127.054-.067l.02.023.013-.046-.079-.303c-.032-.072-.059-.053-.059.041v.044l-.029-.028-.005-.109c.031-.045.031-.069-.005-.172-.098-.281-.357-.661-.712-1.047-.174-.189-.678-.523-1.032-.686-.404-.189-.842-.297-1.288-.316l-.104-.005-.028.028zm2.038 4.074l.075.086.042-.011.011.01.049.079.014.047-.058-.032-.069-.044-.202-.062-.022-.039.04-.013.038-.007.019-.035.029-.017.034.038zm.426.259l-.006.068-.041-.024-.134-.013.002-.055.041-.01.08-.015c.047-.035.058-.026.058.049zm5.824-4.35c-.723.038-1.414.306-1.974.764-.213.169-.503.457-.605.6-.113.159-.323.553-.428.801-.083.199-.151.404-.204.613-.039.168-.068.39-.057.42l-.004.045c-.039.063-.067.424-.056.747.009.3.028.417.064.417l.004-.08-.009-.112.047.021.037.05.053.082.052-.03.026.015-.025.077.013.093.005.056h-.045l-.096-.029c-.071-.04-.077-.03-.068.093.014.194.042.243.136.243l.082-.024.145-.024.173-.02.074-.019.047-.028.082-.023.064-.006.028-.011.023.04-.013.069-.009.07-.054.053c-.088-.035-.119-.03-.172.025l-.055.13.059.114.082.028.087-.02c.048-.029.082-.018.157.049l.082.058.077-.072.045-.022.009.07-.017.079-.037.002-.056-.009-.038-.004-.08-.02c-.067-.008-.073 0-.052.073l-.008.066-.046-.049-.08-.109-.154-.041-.131-.013.002-.139.03-.055.016-.029.024-.053.001-.076c-.043-.034-.071-.024-.085.028l-.041.024-.044-.013-.025.035-.034.043c-.086.014-.131.073-.137.181l.037.177c.137.382.243.588.305.588l.008.043.032.103.095.132.12.168c.122.178.127.182.178.151l.044-.003.011.065.008.077c.014.027.179.185.321.307.256.22.504.383.704.461.112.043.157.036.186-.03l.037-.037.068.041.055.023.102.016.062.023-.002.064.019.075c.031.014.371.086.403.086l.05-.01.025-.045-.064-.129-.009-.04.014-.088-.002-.084-.032-.019-.045-.067c.03-.053.07-.067.105-.041l.081-.04.14-.156.014.021-.091.19-.01.091.004.069.004.058.11-.061-.017-.098.003-.085c.061-.057.075-.062.122-.04.061.026.088.021.109-.024l.02-.072-.058-.064-.105-.023-.057-.018.01-.06.048-.062.043-.025.021.005h.072l-.005-.05-.002-.103-.014-.088-.056-.023-.107-.019-.207-.01-.047.079c.015.062 0 .092-.063.111l-.051.035-.045.032-.047.011-.011-.037-.058-.088-.023-.033.051-.034c.108-.023.165-.067.217-.172.032-.065.035-.065.128-.046l.06.023.03-.002.047-.014.051-.06c0-.029-.04-.044-.238-.092l-.239-.074c-.17-.102-.332-.218-.484-.345l-.142-.222c-.084-.152-.175-.3-.273-.443l-.036-.113c.006-.073-.017-.145-.056-.18l-.066-.015-.024.01-.024-.014.014-.014.043-.034c.038-.043.038-.066.005-.285-.042-.287-.086-.473-.123-.527l-.075-.031-.077-.051.059-.014.069-.024.017-.057.019-.043.06-.144.001-.218-.05-.034-.045-.037.05-.017c.06 0 .054.009.078-.115.073-.411.237-.801.48-1.142l.062-.105-.015-.009-.014.03-.009.018c-.023 0-.107-.11-.093-.122l.088.015.108.015.232-.163.235-.169.273-.099.258-.097.002-.036.057-.082c.094-.064.086-.002.086-.673 0-.58 0-.593-.02-.611l-.225-.009zm-2.326 3.682c.045.095.116.146.152.11l.011.017.077.095.106.005.015-.019.014.024.078.024h.079l-.008.035-.006.141-.028.026-.082-.018-.064-.03-.014.033-.027.034-.038-.025-.022-.021-.015.014.008.044.007.036h-.064l-.057-.009-.044-.062-.034.005-.045-.032-.12-.02-.075.021-.045.054c-.047.047-.107.079-.172.091-.101.028-.069-.018.061-.085l.09-.073.038-.042.034-.028c.018-.035-.021-.155-.064-.195l-.113-.045-.023-.021.018-.03.1.049.061.017.113-.035c.067-.031.073-.045.053-.102l.008-.043.039.061v-.001zm.165 1.025l-.012.124c.011.05-.002.047-.114-.015l-.072-.075.144-.022.055-.012h-.001zm.315.255l.017.071c.054.017.247.265.206.265l-.062-.052-.099-.038-.078.014h-.061l-.041-.069-.028-.073-.023-.021c-.06 0-.128.058-.145.124l-.046-.015-.015-.055.052-.08c.06-.09.062-.09.171-.069l.075-.011.018-.04.029-.019h.029v.067zm-.457.107l.058.07-.03.015-.066.034-.05-.008-.002-.079.09-.032h-.001zm-.616.269h.067l.03-.008.066.102.002.095-.259-.161.031-.04.062.011zm1.927 1.26l-.029.051-.113-.062c-.037-.041-.05-.087-.05-.169v-.062l.096.096.096.096v.049zm-.46.181l.084.026.033-.021.045.002-.09.077-.059.032-.042-.003-.048-.013-.051-.019-.019-.057v-.038l.147.014zm-.273.268l.067.055.028.029.084.008.064.025-.1.011c-.11-.003-.129-.011-.18-.075l-.03-.076.066.025zm1.26.178l.029.046.029.047-.057.02-.087-.085-.019-.049h.053l.052.02zm1.045-7.209l-.029.028v.662c0 .644 0 .662.019.684.022.028.082.046.23.071.113.018.234.062.408.148.219.107.356.208.546.399.107.109.113.119.274.386.148.247.163.277.157.306-.006.036-.005.037.172.198l.095.085-.055.015-.064.03-.046.128.067.289.102.019.141.021.092.019.086.009.122-.019.084-.025-.017.062-.015.094.002.03.055-.002.081.017.055.019.227-.081.047-.033.034.05.024.052.047.05.02.014-.056-.012-.067-.012-.135.09-.043.025-.161-.035-.197-.024c-.077.015-.304.015-.33-.001l-.03.004-.095.035c-.06-.003-.075.012-.075.076l.038.123.017.09c-.048 0-.065.046-.079.21l.038.107.086-.077.03-.028.02.021-.011.068-.035.054-.054.03-.053.02-.037.018-.002.179.067.032-.008.075-.041.128-.038-.001c-.062-.038-.076-.024-.093.086-.017.116-.001.139.091.136.082-.002.098.014.085.083l-.04.002-.088-.041-.071.005c-.056-.007-.06.003-.045.107l.006.1-.104.086c-.108.073-.131.099-.112.122l.032.009.029.065-.079.006-.074.008c-.12.164-.275.299-.452.398-.152.082-.248.154-.284.209l-.051.047-.023-.029-.097-.024-.105.058.064.024h.064l-.006.064-.008.077-.049.032c-.059.03-.104.081-.126.142l-.021.144-.005.101.031.048.079.113.047.064-.032.02c-.065.04-.09.042-.136.015l-.11-.013-.011.066-.024.083-.024.182c0 .168 0 .168.06.178l.036.014-.03.034c-.06.053.004.064.236.043.426-.036.841-.153 1.223-.346.37-.191.71-.436 1.007-.727.13-.128.15-.154.276-.342.412-.618.634-1.148.71-1.69.019-.129.029-.33.017-.342l-.061-.013h-.051l.002-.041.002-.04-.06.004-.06-.013-.07-.002-.044-.01c-.027-.06.009-.087.1-.076l.068-.017.019-.084c.011-.129.01-.124.062-.124l.058.037.056.012c.016-.058.003-.259-.02-.293l-.011-.052c.009-.043-.03-.069-.103-.069l-.056-.014-.015-.025-.076.008-.073.015-.008.063-.013.08-.061-.06-.024-.06-.148.003-.014-.007-.011-.028.191-.032.065.014.028-.008.056-.036.081-.045.069-.032.086-.076.015-.125-.046-.18-.013-.062-.014-.068-.038-.026-.136.058-.14.058-.055.082-.044.066-.039.05-.03.013-.023-.015.005-.039.034-.06.023-.105c-.027-.026-.113-.002-.164.048l-.048.037-.002-.057c.008-.07-.02-.135-.057-.135l-.088.082-.005.127.087.028.091.024.038.07.032.032-.023.036-.067.028-.073-.006-.125.006-.116.025-.03.086-.013-.043.01-.043-.049-.043-.079-.052-.132-.032-.139-.018-.068-.086c.008-.029 0-.03.198.03l.12.027.023-.053.023-.064-.005-.055.014-.094.038.024.067.024.169-.054.018-.075-.011-.07v-.011l.074.052c.124.107.109.101.306.101l.192-.012.026-.058.028-.073.02-.06.046-.101.012.021.02.025.014-.046-.083-.303c-.032-.07-.056-.052-.056.041v.044l-.029-.028-.005-.109c.031-.045.03-.062-.005-.165-.092-.276-.35-.657-.701-1.04-.167-.182-.584-.47-.939-.647-.433-.221-.907-.347-1.393-.369l-.104-.005-.028.028zm2.038 4.074l.075.086.042-.011.011.01.05.079.013.047-.057-.032-.069-.044-.202-.062-.023-.039.04-.013.038-.007.019-.035.029-.017.034.038zm.424.262l-.003.065-.041-.024-.134-.013.002-.055.041-.01.08-.015.055.052zM14.302 34.136l-.058.072-.037.067-.011.054c-.024.043-.008.058.089.092l.089.04-.038.017-.113.043-.01.085v.067h-.031l-.044-.04-.056-.082-.026.003-.003.513.003.533.062.086c.071.079.073.093.015.085l-.062.019c-.019.026-.02.035-.02.337v.31l.025.019.038.02-.015.03-.038.028c-.006.011-.01.321-.01.838v.821l.024.046c.029.058.03.104.004.154-.032.065-.026.07.073.075l.086.005-.082.071-.093.091c-.013.023-.017.5-.005.52l.068.032-.003.041-.022.105.028.106.082.024.072.014.032.066c.024.08.046.096.133.096l.08-.011.012-.085c0-.09-.01-.103-.1-.117-.073-.012-.07-.007-.075-.153l-.003-.083.026-.005.089-.011.073-.02-.002-.081c-.018-.104-.048-.13-.16-.148l-.042-.008.026-.027.052-.028.067-.094.021-.07.03.008.073.008c.055 0 .075-.026.084-.113l.017-.069.032.048.085.08.022-.062.056-.014.067.012-.024.097-.012.1-.007.009-.079-.011-.088.023c-.041.042-.038.084.009.112l.083.069c.06.06.074.062.155.023l.099-.114.012-.039.045.006.149-.065.137-.101.036-.031-.017-.034-.019-.034.043-.079.067-.082c.032-.005.034 0 .07.15.03.125.028.154-.015.154l-.028-.009-.062.03-.079.057-.041.08c.005.069.035.107.1.119l.001.03-.079-.037-.159-.088-.052.012-.011.064.011.065.052.012.041.02-.053.101-.076.08-.107.052-.092.034c-.081 0-.098.015-.119.098-.019.074-.016.082.041.095.072.017.117.011.162-.02l.101-.113.071.018.025.036-.05.028c-.072.03-.093.052-.093.097 0 .05.015.06.087.056l.075-.032.088-.053.08-.02.002.061.025.075c.057.023.12.025.178.005l.145-.146c.016-.032.013-.331-.004-.414l-.009-.097-.055-.032-.028-.014.039-.082c.071-.106.067-.049.067-1.067 0-.776-.002-.934-.015-1.046-.015-.083-.015-.168 0-.251l.013-.407c-.002-.283-.002-.287-.022-.29l-.048.084-.009.039-.059-.02c-.063-.02-.13-.019-.193.002l.005.048.06.075-.011.023-.112.02-.074-.002.011-.131c.006-.135.005-.136-.085-.162l-.079-.058c-.028-.048-.079-.093-.238-.211l-.119-.101.023-.068.04-.048.026-.075.014-.088c-.02-.069-.09-.116-.17-.116l-.071.048c-.036.06-.019.125.034.139l.051.052-.062.051-.067.088-.005.052h-.038c-.093 0-.185-.091-.152-.152l.058-.035c.073-.021.075-.025.075-.112l-.028-.105-.075-.016h-.012l-.045-.03c-.086-.036-.144-.118-.147-.212l.071-.086.045.034.085.024c.038-.021.041-.045.015-.126-.03-.086-.028-.107.015-.167l.038-.095.094-.063.094-.049c.022-.046.011-.066-.065-.113l-.124-.037-.065.013.025.048.022.027-.041.12-.06-.102-.105-.156-.03.026zm.366 1.657l-.079.143-.025.073-.022.058-.026.023.046.022.064-.062v-.04l.091-.004c.098-.002.105-.007.117-.058l.032-.026.037-.013.03-.128.052.005-.007.072.005.086.091.019.022-.028.038-.015.039.005-.048.101c-.067.133-.064.16.022.184l.052.014.012.03.038.108-.022.029-.049.01-.017.096-.038.086-.013-.077v-.088l-.004-.033.009-.03c0-.035-.095-.13-.127-.125l-.027.04-.004.038-.028-.03-.021-.076-.02-.071-.048-.035-.17-.001c-.036.014-.048.067-.031.132l.014.05h-.053c-.086 0-.09.005-.09.11v.091h-.029l-.028-.02-.015-.026-.246.041-.017-.011-.016-.035-.007-.027.148-.024.086-.015.054-.019.003-.075-.017-.107-.029-.071-.019-.033.051-.034.06-.018-.028-.025-.028-.005.041-.069.067-.107.079-.04h.053l-.007.035v-.001zm.11.563l.062.011.003.055-.012.055-.015-.014-.043-.021-.048.056-.04.124-.05.017h-.036l-.005-.052-.024-.096-.02-.042.022.01c.063.023.093.002.105-.076l.1-.028v-.001zm.85.483l.099.118-.039.028-.086.087-.051.037-.039-.003-.019-.105-.017-.106.043-.041.053-.041.055.026zm-1.111.169c.038.033.028.05-.046.079l-.067.026-.043-.041-.043-.064.017-.013.079-.003.103.015v.001zm.844.385l.172.029.01.069-.003.065-.058.011-.114.063-.064.065-.008-.074c.043-.068.062-.155.038-.17l-.084-.018-.075-.038c-.002-.032-.012-.032.187-.002zm-1.077.274c.027.03.043.03.161.005l.117-.024.005.024-.105.038c-.093.015-.176.067-.23.145l-.064.032v-.038l.052-.066-.013-.062-.02-.026-.014-.024.046-.024.064.02zm1.453-.01l-.024.019-.024.026.071.126-.016.03-.045-.041-.045-.055-.032-.053.012-.05.104-.002zm-.116.528l.03.011v.172l-.026-.006-.084-.011-.11-.03.019-.013c.06 0 .115-.052.115-.11l.056-.014zm-1.353.851l.03.095.02.049-.072.01-.072-.019.011-.038-.009-.048-.004-.029.06-.057.013-.02.022.057zm1.488.298l-.021.042-.149.044.028-.074.091-.041.05.028zm1.34-4.46c-.017.017-.356.027-.446.014l-.102-.001-.043.002-.03-.006.055.112.064.066-.04.041-.105.041-.064.001v-.034c-.002-.08-.102-.214-.171-.227h-.044l-.002.058-.005.032c-.03.058-.016.091.076.175.086.079.088.083.064.139l-.031.118-.021.076-.031-.085c-.022-.097-.048-.135-.074-.113-.013.011-.015.065-.013.469l.003.456h.024c.034 0 .061-.06.058-.13l.001-.129.022-.018.101-.002.065.014.02.101c0 .095-.008.105-.066.096l-.049.02v.056l.005.034-.05.008-.06.038c.015.017.185.018.22.001l.042-.05.059-.034.068-.031.04-.035.039.06c.049.109.022.103.451.103.365 0 .371 0 .457-.024h.154l.131.024.148-.015h.109l.146.011.114-.004.422.005c.149.004.212 0 .352-.021l.026.006.085-.014.111-.014.093-.005.026-.203-.002-.037c.013-.02.011-.38-.003-.479l-.028-.085-.028.014c-.022.025-.06.015-.141-.038l-.091-.052-.048.023-.048.024-.066.067-.022.038-.043-.051-.065-.055c-.053 0-.084-.039-.128-.165-.037-.107-.037-.116.008-.11l.075.067.011.03.078.003.078.017.11.043.095.028c.036.038.167.098.218.1l.041.002.003-.227-.014-.24-.033.01-.019.036-.125-.01-.099-.06.085-.017.056-.042-.025-.02-.553.004-.591.005-.064.02-.16-.005c-.085-.023-.109-.024-.323-.024l-.303.015h-.112l-.127-.009h-.001zm1.426.148c.042.055.1.095.166.116l.041.047c-.008.015-.115-.042-.163-.087l-.048-.028-.057.054-.034-.008-.135-.075.004-.04.109-.027h.082l.036.048zm-1.832.221l.04.024.035-.015.078-.035.035-.004-.073.11-.074.101-.034-.026-.046-.041-.05-.123.028-.03.062.039zm-.167.262l.098.079.058.056-.013.067-.039.07-.026.002v-.075l-.039-.122-.037-.024-.038-.024-.029-.03.067.002zm.491.233l.03.039.039-.008.019.023.013.051-.008.005-.146.052-.059-.006-.046-.058.053-.024.044-.07-.017-.034.036-.007.041.035v.001zm1.215 0l-.025.081-.024.073-.04-.011-.04-.012-.003-.058-.003-.058.056-.009.079-.005v.001zm.26.122l.024.045.024.101-.013.079-.058-.104c-.057-.131-.058-.145-.005-.145l.027.023v.001z"/></g></g></svg>