<svg width="60" height="60" viewBox="0 0 60 60" xmlns="http://www.w3.org/2000/svg"><title>logo_name_quiksilver</title><desc>Created with Sketch.</desc><g fill="none"><path d="M0 0h60v60h-60z" fill="#000"/><g fill="#fff"><path d="M51.75 38.653h-38.282c-1.35 0-2.218-1.061-2.218-2.122v-8.582c1.639 0 3.086-.771 3.664-1.157 3.375-2.41 6.268-7.231 9.932-8.775 1.06-.482 3.085-1.157 5.785-.482l3.085 3.085s-1.639-.772-4.05-.772c-2.796 0-8.003 2.218-8.003 8.004 0 4.725 3.278 8.003 8.582 8.003h18.803l2.7 2.797z"/><path d="M46.832 34.945h-17.55c-2.025 0-4.629-.964-5.497-2.797 0 0 7.907-8.003 8.293-8.389.965-.965 2.604-.965 3.472 0l11.282 11.185zm-17.455-6.172c-.193.193-.096.386.194.386h2.121l1.543-1.254c.29-.29.579-.29.579.097v2.507c0 .386.386.386.578.096l1.543-1.446h2.025c.193 0 .29-.194.097-.386l-3.761-3.664c-.29-.29-.869-.29-1.061 0 0 .096-3.857 3.664-3.857 3.664z" fill-rule="nonzero"/></g></g></svg>