<svg xmlns="http://www.w3.org/2000/svg" viewBox="0 0 80 80"><style/><circle cx="40" cy="40" r="40" fill="#f3f3f3"/><path d="M51.1 13v.4c0 3.3-2.7 5.9-5.9 5.9-3.3 0-5.9-2.7-5.9-5.9v-.4h-10.4v38.8h10.4v-.4c0-3.3 2.7-5.9 5.9-5.9 3.3 0 5.9 2.7 5.9 5.9v.4h10.4v-38.8h-10.4zm0 0" fill="#fbca07"/><path d="M40.7 28.2v.4c0 3.3-2.6 5.9-5.9 5.9-3.3 0-5.9-2.7-5.9-5.9v-.4h-10.4v38.8h10.4v-.4c0-3.3 2.7-5.9 5.9-5.9 3.3 0 5.9 2.7 5.9 5.9v.4h10.4v-38.8h-10.4zm0 0" fill="#ed1f24"/><path d="M32.6 45.2h-7.5l6.2 4.2-2.4 7.1 6.1-4.5 6.1 4.5-2.4-7.1 6.2-4.2h-7.6l-2.3-7-2.4 7zm0 0" fill="#f5edde"/></svg>