<svg width="60" height="60" viewBox="0 0 60 60" xmlns="http://www.w3.org/2000/svg"><title>logo_name_shop-philips</title><desc>Created with Sketch.</desc><g fill="none"><path d="M0 0h60v60h-60z" fill="#0098D0"/><g fill="#fff"><path d="M14.266 11.385s6.53-.869 15.975-.869c9.502 0 15.808.869 15.808.869v23.506c0 9.238-7.176 16.099-15.891 16.099-8.788 0-15.892-6.953-15.892-15.892v-23.713zm9.107 22.688c5.009-.945 7.923-4.602 13.667-4.602 2.839 0 5.2 1.085 6.359 1.836-1.105-4.211-5.63-9.969-13.246-9.969-1.96 0-3.377.429-3.377.429l.24 1.818c.07.539.257.787.846.883l2.047.266v.14l-1.921.259c-.66.082-.905.321-.964.846l-.233 1.803 2.369.289v.247l-3.691.488c-1.306.207-1.508.605-1.729 2.154l-.365 3.113v.001zm6.777 14.805c3.068 0 5.517-1.041 6.667-1.729l-.392-2.952c-.124-1.146-.666-1.532-1.829-1.657l-3.506-.444v-.256l3.737-.476c1.168-.195 1.435-.617 1.604-1.588l.481-3.768c-4.554.809-7.5 4.676-13.582 4.676-2.335 0-4.755-.78-6.44-1.843 1.913 6.405 7.438 10.037 13.261 10.037zm7.126-1.969c1.804-1.165 3.314-2.485 4.67-4.678l-2.68.346c-1.291.165-1.505.645-1.698 1.975l-.293 2.357zm4.943-5.147c1.066-1.98 1.378-3.334 1.61-5.001-.997-.44-3.14-.945-4.714-.945-1.055 0-1.98.156-1.98.156l.46 3.575c.177 1.355.524 1.697 1.918 1.86l2.707.356h-.001zm-25.719-8.392c1.082.438 2.781.919 4.656.919 1.083-.011 1.952-.161 1.952-.161l-.425-3.337c-.152-1.066-.262-1.235-.515-1.519-.263-.289-.655-.403-1.196-.473l-2.86-.366c-.857 1.611-1.393 3.033-1.612 4.937l.001-.001zm1.899-5.431l2.647-.349c.487-.089.904-.197 1.154-.474.295-.345.354-.614.43-1.17l.341-2.577c-1.871 1.132-3.44 2.7-4.573 4.57zm5.248-3.229l1.737-.218c.614-.093.861-.274.964-.85l.24-1.829c-1.097.28-2.152.705-3.136 1.264l.196 1.633zm2.93 3.044l-.206-1.613c-.079-.635-.29-.926-.886-.993l-1.804-.255.15 1.085c.104.901.508 1.402 1.226 1.552l1.52.223zm-.646-13.376h-1.478v1.924h-1.537v-1.924h-1.478v4.84h1.478v-1.904h1.537v1.904h1.478v-4.84zm5.139 3.868v-3.868h-1.478v4.84h2.671l.222-.972h-1.416zm-2.57-3.868h-1.477v4.84h1.477v-4.84zm5.989 0h-1.477v4.84h1.477v-4.84h-.001zm7.283 1.235c0-.263.263-.385.688-.385.465 0 .972.101 1.316.244l-.122-1.054c-.445-.101-.899-.148-1.355-.142-1.194 0-2.003.471-2.003 1.458 0 1.701 2.306 1.357 2.306 2.146 0 .304-.223.465-.77.465-.485 0-1.234-.161-1.679-.384l.163 1.114c.445.162 1.052.243 1.538.243 1.234 0 2.245-.405 2.245-1.62 0-1.62-2.327-1.316-2.327-2.086zm-4.167 2.45c1.375 0 2.245-.709 2.245-1.944 0-1.357-.931-1.843-2.448-1.843-.587 0-1.295.04-1.802.101v4.84h1.477v-1.155h.527v.001zm.788-1.924c0 .628-.303 1.053-1.072 1.053h-.179v-1.999l.18-.005c.727 0 1.072.345 1.072.952h-.001zm-19.787 1.924c1.376 0 2.246-.709 2.246-1.944 0-1.357-.931-1.843-2.448-1.843-.587 0-1.295.04-1.801.101v4.84h1.477v-1.155h.526v.001zm.79-1.924c0 .628-.304 1.053-1.072 1.053h-.177v-1.999l.177-.005c.728 0 1.072.345 1.072.952zm-2.925 20.662c1.667 1.027 3.752 1.67 6.259 1.67 6.486 0 9.124-4.759 15.592-4.759 2.164 0 3.914.494 5.602 1.322-.025-.572-.043-1.145-.107-1.717-1.481-.919-3.671-1.663-6.26-1.663-6.295 0-9.183 4.793-15.577 4.793-2.638 0-4.419-.73-5.606-1.345.01.52.054 1.313.096 1.699h.001z" fill-rule="nonzero"/><path d="M33.541 47.923h.113l.202-1.52c.095-.62.334-.668.771-.748l1.484-.188v-.115l-1.597-.206c-.422-.065-.585-.287-.651-.656l-.203-1.59h-.12l-.209 1.618c-.084.391-.236.547-.66.618l-1.589.215v.115l1.529.195c.505.065.69.3.742.779l.188 1.483h-.001z"/></g></g></svg>