<svg width="60" height="60" viewBox="0 0 60 60" xmlns="http://www.w3.org/2000/svg" xmlns:xlink="http://www.w3.org/1999/xlink"><title>logo_name_komus</title><desc>Created with Sketch.</desc><defs><path id="a" d="M0 .075h18.675v11.775h-18.675z"/><path id="c" d="M0 .075h35.55v8.25h-35.55z"/></defs><g fill="none"><path fill="#D61920" d="M0 0h60v60h-60z"/><g id="Clipped" transform="translate(6 24.013)"><mask id="b"><use xlink:href="#a"/></mask><path d="M16.875 4.35l1.725-1.425-.15-.075c-.45-.375-1.05-.6-1.65-.75-.375-.075-.75-.15-1.125-.15-2.475 0-4.5 1.875-4.5 4.125 0 .525.075.975.3 1.425l-2.025 1.575c-.075.075-.15.075-.225 0-1.2-1.35-2.475-2.7-3.675-3.975l2.625-2.85c0 .375.6 1.35 1.8 1.425.825.075 1.425-.375 1.8-.825.45-.675.375-1.5-.225-2.175-.6-.45-.975-.6-1.725-.525-.675.075-1.125.3-1.65.825l-2.625 2.775v-3.3l-5.55 2.325v9.075l5.55-2.4v-3l3.75 3.825c.075.075.075.075.15 0l2.475-1.95 4.95-3.975" fill="#fff" mask="url(#b)"/></g><g transform="translate(18.445 25.875)"><mask id="d"><use xlink:href="#c"/></mask><path d="M34.5 5.925c-1.725 1.875-4.425 2.1-5.85-.075l3.3-3.15-.15.525c0 .675.225 1.05.9 1.425 2.4.75 3.675-2.775.825-4.05-.6-.3-1.275-.525-2.025-.525-1.875 0-3.45 1.05-4.125 2.55l-1.65-2.175h-5.175l3.75 5.25-.525.525c-.075-.825-.9-1.5-1.8-1.5-.3 0-.6.075-.9.225l-3.3-4.425-3.6 3.6-2.55-3.6-3.825 4.05v-.375c0-.975-.375-1.875-1.05-2.625l-2.25 1.875h-.075l-4.425 3.6c.825.825 1.95 1.35 3.3 1.35.6 0 1.2-.15 1.725-.3.675-.225 1.275-.6 1.725-1.05l2.25-2.325 2.475 3.525 3.6-3.6 2.625 3.6 2.4-2.25c-.075.15-.075.3-.075.45 0 .9.825 1.725 1.875 1.725.15 0 .3 0 .45-.075.525-.075.825-.225 1.275-.6l3.375-3.225c0 2.25 2.025 4.05 4.5 4.05 1.8 0 3.375-.975 4.05-2.4h-1.05zm-30.075 1.425c-.825 0-1.5-.675-1.5-1.425 0-.825.675-1.425 1.5-1.425s1.5.675 1.5 1.425-.675 1.425-1.5 1.425z" fill="#fff" fill-rule="nonzero" mask="url(#d)"/></g></g></svg>