<svg width="60" height="60" viewBox="0 0 60 60" xmlns="http://www.w3.org/2000/svg"><title>logo_name_mini-game-mailru</title><desc>Created with Sketch.</desc><g fill="none"><path fill="#E6A42F" d="M0 0h60v60h-60z"/><path d="M40.5 45.465c-5.164 3.532-11.756 4.237-17.55 1.875-4.728-1.901-8.47-5.658-10.35-10.395-.908-2.202-1.367-4.563-1.35-6.945-.031-3.297.829-6.541 2.49-9.39 2.289-4.02 5.996-7.042 10.395-8.475 6.046-1.986 12.687-.772 17.64 3.225 3.698 2.944 6.12 7.198 6.765 11.88.387 2.419.264 4.891-.36 7.26-.726 3.028-3.506 5.108-6.615 4.95-1.738-.059-3.357-.896-4.41-2.28l-.39-.51c-.39.315-.735.615-1.11.9-3.406 2.566-8.108 2.534-11.478-.08-3.37-2.613-4.572-7.16-2.934-11.097 1.638-3.937 5.71-6.29 9.939-5.742s7.567 3.86 8.149 8.084c.165 1.5.09 2.91.12 4.35-.064 1.146.65 2.192 1.74 2.55 1.19.387 2.481-.181 3-1.32.417-.886.69-1.833.81-2.805.543-4.896-1.392-9.741-5.16-12.915-2.149-1.901-4.819-3.113-7.665-3.48-5.472-.628-10.848 1.794-14.004 6.308-3.156 4.514-3.584 10.395-1.114 15.319 2.469 4.924 7.438 8.098 12.943 8.269 2.641.033 5.239-.674 7.5-2.04.465-.285.72-.255 1.05.18l1.95 2.325zm-10.5-21.21c-1.52 0-2.976.607-4.047 1.685-1.07 1.079-1.665 2.54-1.653 4.06 0 3.148 2.552 5.7 5.7 5.7s5.7-2.552 5.7-5.7c.016-1.521-.578-2.984-1.649-4.064-1.071-1.08-2.53-1.685-4.051-1.681z" fill="#fff" fill-rule="nonzero"/></g></svg>