<svg width="61" height="60" viewBox="0 0 61 60" xmlns="http://www.w3.org/2000/svg"><title>logo_name_convex</title><desc>Created with Sketch.</desc><g fill="none"><path fill="#A50C78" d="M0 0h61v60h-61z"/><path d="M38.902 37.141v8.554c-.344.05-.72.143-1.099.154-4.284.13-8.518-.186-12.62-1.531-3.572-1.172-6.708-3.003-8.94-6.106-2.17-3.017-2.74-6.35-1.82-9.93.056-.223.369-.553.551-.546 3.609.138 7.215.319 10.889.494-.092.568-.193 1.063-.25 1.563-.268 2.328.76 4.03 2.632 5.31 1.682 1.15 3.583 1.712 5.586 1.893 1.398.126 2.81.103 4.215.144l.856.001m-.954-25.603c.354 1.821.7 3.589 1.04 5.359.189.99.316 1.996.565 2.97.154.6-.026.731-.58.817-2.745.422-5.42 1.1-7.906 2.372-1.775.91-3.335 2.072-4.447 3.767-.109.166-.42.296-.632.288-1.967-.079-3.933-.191-5.9-.293l-4.018-.208-1.165-.088c.595-1.095 1.062-2.102 1.658-3.026 2.51-3.888 6.086-6.537 10.198-8.539 3.38-1.646 6.962-2.675 10.645-3.387.145-.028.298-.019.542-.032" fill="#FEFEFE" fill-rule="nonzero"/></g></svg>