<svg width="60" height="60" viewBox="0 0 60 60" xmlns="http://www.w3.org/2000/svg" xmlns:xlink="http://www.w3.org/1999/xlink"><title>logo_name_wargaming</title><desc>Created with Sketch.</desc><defs><path id="a" d="M36.898 36.92h-36.898v-36.92h36.898z"/></defs><g id="Clipped" fill="none"><path fill="#F61F29" d="M0 0h60v60h-60z"/><g transform="translate(11 11)"><mask id="b"><use xlink:href="#a"/></mask><path d="M33.222 20.57c-.607 4.425-3.321 8.502-7.18 10.754.95-3.334 1.238-6.812 1.133-10.266.832.225 1.659.475 2.482.73-1.105-2.79-2.381-5.516-3.953-8.074-1.369 2.657-3.193 5.055-5.22 7.243 1.027-.044 2.05-.14 3.076-.168-1.586 2.842-3.987 5.296-7.029 6.552-1.292.554-2.671.886-4.058 1.1-.746-3.814-.513-7.842.8-11.507.944-2.615 2.592-5.034 4.919-6.598l.622 2.932c1.513-2.274 3.43-4.235 5.297-6.217-2.86-1.16-6.062-1.404-9.089-.856.53.473 1.07.935 1.612 1.398-2.818 1.215-5.492 2.854-7.634 5.074-2.314 2.249-4.008 5.05-5.349 7.964-.473-3.532.299-7.233 2.257-10.22 1.72-2.688 4.339-4.784 7.327-5.898 3.046-1.133 6.38-1.241 9.493-.308 3.768 1.12 7.047 3.794 8.878 7.277 1.491 2.781 2.057 5.965 1.616 9.089m2.84-7.631c-1.235-3.946-3.76-7.363-7.17-9.702-3.167-2.203-7.052-3.32-10.902-3.233-5.71.099-11.268 3.043-14.563 7.708-2.223 3.097-3.465 6.905-3.426 10.724-.054 4.214 1.46 8.416 4.129 11.671 2.707 3.355 6.636 5.707 10.88 6.49 3.875.738 7.99.2 11.53-1.555 4.17-2.01 7.512-5.67 9.15-10.003 1.473-3.84 1.601-8.176.372-12.1" fill="#fff" fill-rule="nonzero" mask="url(#b)"/></g></g></svg>