<svg width="60" height="60" viewBox="0 0 60 60" xmlns="http://www.w3.org/2000/svg"><title>logo_name_mediamarkt</title><desc>Created with Sketch.</desc><g fill="none"><path fill="#EE018A" d="M0 0h60v60h-60z"/><path d="M45.866 32.633c-3.723-7.855-11.927-10.513-16.779-6.295-.272.093-.532.218-.775.371 3.677-5.227 12.174-4.8 17.702 1.743 0 0 2.53 3.127 4.328 7.778.484-1.653.771-3.357.856-5.077-2.962-4.127-6.302-6.547-6.302-6.547-6.938-4.816-15.186-3.026-17.49 2.907-.244.299-.443.633-.589.99.642-6.418 8.21-10.418 16.172-7.595 0 0 3.859 1.458 7.759 4.688l-.172-.771c-.413-1.678-1.025-3.301-1.822-4.834-4.544-2.029-8.576-2.4-8.576-2.4-8.588-.619-14.98 5.53-13.64 12.059-.029.314-.021.631.025.944-2.88-5.941 1.747-13.54 10.17-15.225 0 0 3.947-.707 8.806.039-1.241-1.346-2.653-2.524-4.2-3.502-4.875.59-8.504 2.323-8.504 2.323-7.742 3.881-10.288 12.506-5.946 17.468.137.297.311.573.515.822-5.422-3.645-5.125-12.638 1.366-18.442 0 0 3.058-2.622 7.606-4.476-1.874-.579-3.823-.878-5.784-.889-3.8 2.975-6.023 6.214-6.023 6.214-4.847 7.399-2.802 16.246 3.473 18.229l.026.026.082.037c.185.131.382.246.589.341-6.458-.38-10.558-8.314-7.76-16.674 0 0 1.3-3.638 4.163-7.466-1.62.436-3.18 1.069-4.646 1.884-1.852 4.541-2.197 8.501-2.197 8.501-.596 8.763 5.277 15.306 11.565 14.065.344.036.692.023 1.033-.038-5.769 2.924-13.124-1.835-14.757-10.483 0 0-.662-3.913 0-8.789-1.404 1.37-2.612 2.926-3.593 4.625.62 4.805 2.207 8.333 2.207 8.333 3.803 8.02 12.274 10.622 17.08 6.02l.032-.009.099-.072c.213-.117.414-.253.601-.407-3.522 5.639-12.299 5.35-17.959-1.352 0 0-2.764-3.784-4.286-8.146-.05-.165-.158-.424-.301-.565-.175-.172-.424-.24-.668-.24l-.195 6.556c2.77 3.377 6.381 6.258 6.381 6.258 6.973 4.84 15.276 3.004 17.524-3.006.22-.263.407-.559.552-.879-.654 6.41-8.213 10.402-16.174 7.58 0 0-3.539-1.338-7.26-4.29l.095.43c.429 1.738 1.07 3.416 1.909 4.998 4.334 1.834 8.073 2.179 8.073 2.179 8.521.616 14.885-5.439 13.665-11.914.047-.291.062-.586.044-.88 2.677 5.909-1.939 13.352-10.265 15.017 0 0-3.72.668-8.382.023 1.123 1.218 2.386 2.299 3.763 3.221 4.833-.602 8.418-2.315 8.418-2.315 7.581-3.803 10.181-12.152 6.202-17.158-.138-.354-.327-.686-.561-.985 5.204 3.733 4.828 12.565-1.578 18.298 0 0-3.116 2.67-7.732 4.527 1.802.627 3.685.993 5.59 1.087 3.998-3.043 6.342-6.465 6.342-6.465 4.84-7.381 2.813-16.207-3.43-18.217-.242-.171-.505-.311-.782-.418 6.485.348 10.61 8.298 7.805 16.678 0 0-1.408 3.95-4.535 7.948l.743-.174c1.551-.41 3.05-1 4.465-1.757 1.937-4.641 2.293-8.74 2.293-8.74.589-8.638-5.11-15.118-11.295-14.115-.312-.068-.632-.095-.951-.079 5.712-2.562 12.808 2.177 14.408 10.649 0 0 .96 4.024.245 8.787-.197.955-.52 1.879-.96 2.749-.165.298 3.087-2.461 4.586-6.875l-2.486-8.829z" fill="#fff"/></g></svg>