<svg xmlns="http://www.w3.org/2000/svg" x="0" y="0" viewBox="0 0 80 80" xml:space="preserve"><style>.st1{fill:#fff}</style><circle id="a" cx="40" cy="40" r="40" fill="#084223"/><path class="st1" d="M30.6 9c.7-.2 1.3-.1 2-.1.7.2 1.3.6 1.7 1.3 0 .2.1.4.1.5.1.4.1.8-.1 1.1-.1.7-.7 1.2-1.2 1.6h-.2c-.3.2-.7.4-1 .5-.3.1-.5.2-.8.3l-.6.3h-.2l-.1.1c-.2 0-.3.1-.5.1-.3.1-.5.3-.8.4l-1.2.6c-.4.2-.8.3-1.1.6h-.2L24 17.8c-.6.5-1.3.9-1.9 1.4-.7.5-1.3 1.2-2 1.8-.4.5-1 1-1.4 1.5-.6.7-1.2 1.5-1.8 2.3-.4.6-.8 1.2-1.1 1.8-.2.3-.4.5-.5.8-.1.1-.1.2-.2.4-.2.4-.4.8-.6 1.1 0 0-.1.1-.1.2l-.6 1.5c-.1.2-.1.3-.2.5 0 .2-.1.4-.2.5v.2c-.1.2-.1.4-.2.6l-.3 1.2c-.1.3-.1.6-.2.8 0 .3-.1.6-.1.9 0 .2-.1.3-.1.5v.5c-.1.2-.1.4-.1.5 0 .5-.2.9-.2 1.4 0 .4 0 .7-.1 1.1v2.3s0 .1.1.2c0 .7 0 1.3.2 2 0 .4.1.8.1 1.2.1.3.1.6.2.9.1.1.1.3.1.5s.1.3.1.5c.1.5.2 1 .4 1.4 0 .1.1.2.1.3v.2l.3.9c0 .1.1.3.1.4.1.1.1.3.2.5.1.1.1.3.2.4 0 .2.1.3.1.5.3.6.5 1.2.8 1.8.2.4.4.7.6 1.1v.2c.8 1.2 1.5 2.4 2.4 3.5.4.6.9 1 1.3 1.5l1.5 1.5c.4.2.6.6 1 .8.8.6 1.6 1.3 2.4 1.8.5.4 1 .7 1.5 1 .1.1.2.1.4.2.1.1.2.1.4.2.3.2.6.3.9.5.2.1.5.2.7.3.1.1.3.1.4.2.4.1.7.3 1.1.4l.1.1c.2 0 .3.1.5.1.1 0 .2.1.3.1h.2c.3.1.5.2.8.3.1 0 .2.1.4.1.2.1.4.1.5.2.1 0 .3.1.4.1.1 0 .2.1.4.1.3 0 .5.1.8.1.2 0 .3.1.5.1.1 0 .2.1.3.1.2.1.5.1.7.1.2.1.5.1.7.1.6.1 1.2.2 1.8.2.2.1.3.1.5.1h2.2c.2 0 .4 0 .5-.1h1.1c.3-.1.6 0 .9-.1.2 0 .3-.1.5-.1h.6c.1-.1.3-.1.5-.1s.3-.1.5-.1.4 0 .5-.1c.2 0 .4-.1.6-.2.2 0 .3 0 .5-.1h.2c.1 0 .2-.1.3-.1.2 0 .5-.1.7-.2.3-.1.7-.2 1-.3.1 0 .2-.1.3-.1h.2c.1-.1.2-.1.3-.2.1 0 .2-.1.4-.1.1 0 .2-.1.2-.1.1 0 .2-.1.4-.1l.6-.3c.1-.1.3-.1.4-.2.2-.1.4-.2.5-.3.3-.2.6-.4 1-.5 1.4-.9 2.8-1.8 4.1-2.9.3-.2.4-.4.7-.6.4-.2.6-.6.9-.9 1.3-1.2 2.5-2.6 3.4-4.1.5-.7.9-1.4 1.3-2.1.4-.7.8-1.3 1-2.1.2-.3.3-.7.5-1v-.2c0-.1.1-.2.1-.3.1-.2.2-.5.3-.7.2-.3.2-.7.4-1.1 0-.2.1-.4.1-.5 0-.1.1-.2.1-.4.1-.2.1-.5.2-.7.1-.2.1-.5.2-.7 0-.2 0-.3.1-.4.2-.6.2-1.3.3-2 .1-.3 0-.5.1-.8.2-.5 0-1.1.2-1.6v-2.2c0-.2 0-.4-.1-.6 0-.5 0-1-.1-1.4V37c-.1-.3-.2-.7-.2-1-.1-.6-.3-1.2-.4-1.8-.1-.4-.2-.7-.3-1.1 0-.1-.1-.2-.1-.3 0-.3-.2-.6-.3-.9-.1-.3-.2-.5-.3-.8.4 0 .3-.1.3-.3 0-.1-.1-.2-.1-.3 0-.1-.1-.2-.1-.4 0-.1-.1-.2-.1-.3-.1-.4-.3-.8-.5-1.2-.1-.2-.1-.3-.2-.4-.5-.8-.9-1.7-1.5-2.5-.8-1.3-1.8-2.5-2.8-3.6l-.6-.6c-.2-.3-.5-.6-.9-.8-.5-.4-.9-.9-1.4-1.3-.2-.3-.5-.4-.7-.6-.5-.4-1.1-.8-1.6-1.2-.4-.2-.7-.5-1.1-.7-.1-.1-.2-.1-.4-.2-.1 0-.2-.1-.3-.1-.4-.3-.9-.4-1.3-.7h-.2c-.2-.2-.5-.2-.7-.4-.7-.3-1.4-.6-2-.9l-.6-.3h-.2c-.6-.3-1.3-.5-1.8-.9h-.2c-.2-.2-.5-.3-.6-.5-.2-.2-.3-.5-.4-.7 0-.1-.1-.3-.1-.4 0-.5-.1-1.1.1-1.6.3-.5.7-.9 1.3-1.2.5-.2 1.1-.1 1.7-.1.1 0 .3 0 .4.1h.3c.1 0 .2.1.4.1.3 0 .6.1.9.3.2 0 .4.1.5.2.2.1.4.1.6.2.3.2.7.3 1 .4.6.3 1.3.6 1.9.9.2.1.5.3.7.4.1.1.3.2.4.3.3.2.7.4 1 .6 1.1.7 2.2 1.5 3.2 2.3.4.4.8.6 1.1 1 .5.4 1 .9 1.5 1.4l1.2 1.2c.5.4.8 1 1.2 1.4.9 1.1 1.7 2.3 2.4 3.6.2.3.3.6.5.9 0 .1.1.2.1.3.2.3.3.5.5.8v.2c.2.2.2.4.3.6.1.2.2.4.3.5 0 .2.1.3.2.4.1.1.1.2.1.4.2.6.5 1.2.7 1.8.1.2.1.4.1.5.2.5.3 1.1.5 1.6 0 .2.1.4.1.6.1.7.3 1.3.4 2v.4c.1.2.1.4.1.6 0 .6.2 1.2.1 1.8.1.4 0 .9.1 1.3v2.6c-.1.4 0 .9-.1 1.2 0 .6-.1 1.2-.1 1.8-.1.5-.2 1.1-.3 1.6-.1.4-.2.8-.3 1.3-.1.2-.1.5-.2.7 0 .1-.1.2-.1.4 0 .1-.1.2-.1.4 0 .3-.1.6-.3.9 0 .2-.1.4-.1.5 0 .1-.1.2-.1.4-.1.2-.2.5-.3.7 0 .2-.1.3-.1.4-.1.2-.1.4-.2.5-.1.1-.1.2-.2.4 0 .2-.1.3-.2.5v.2c-.1.1-.2.2-.2.3-.2.7-.6 1.3-.9 1.9-.5 1-1.2 2-1.8 2.9-.3.5-.7.9-1 1.4l-1.5 1.8c-.3.2-.5.4-.7.7l-.3.3c-.3.2-.5.6-.8.8-.6.5-1.1 1-1.7 1.4-1 .8-2 1.5-3 2.2-.5.4-1 .6-1.5.9-.7.3-1.4.7-2.1 1l-.1.1c-.1 0-.2.1-.3.1-.1.1-.2.1-.4.2-.1 0-.2.1-.3.1H52s-.1.1-.2.1c-.2 0-.3.1-.5.1-.2.1-.4.2-.5.2-.2 0-.3.1-.4.2-.1 0-.2.1-.4.1-.3.1-.5.2-.8.3-.1 0-.2.1-.4.1-.2.1-.4.1-.6.2-.1 0-.2.1-.4.1s-.4.1-.6.2c-.3 0-.6.1-.9.1-.3.2-.7.1-1 .2-.1 0-.2.1-.4.1s-.3 0-.5.1c-.3.1-.7 0-1 .1H43c0 .2 0 .2-.1.2-.2-.2-.4 0-.6 0-.3 0-.6 0-.8.1h-3c-.3-.1-.7 0-1-.1-.4-.1-.8 0-1.2-.1-.3 0-.6 0-.9-.1-.2 0-.3 0-.5-.1-.1 0-.2-.1-.4-.1-.3-.1-.5 0-.8-.1-.2-.1-.4-.1-.6-.1-.4-.1-.7-.2-1.1-.3-.2 0-.3-.1-.5-.1-.1 0-.2-.1-.3-.1H31c-.1 0-.2-.1-.4-.1-.1 0-.2-.1-.4-.1-.1-.1-.3-.1-.4-.2-.1 0-.2-.1-.4-.1-.1-.1-.3-.1-.4-.2-.2-.1-.3-.1-.5-.2s-.4-.1-.5-.2l-.1-.1c-.2 0-.3-.1-.5-.1l-.6-.3-.1-.1c-1.3-.5-2.4-1.2-3.6-1.9-.7-.4-1.4-1-2.1-1.5-.5-.4-.9-.7-1.4-1.1-.3-.4-.8-.6-1.1-1-.8-.9-1.7-1.7-2.5-2.6-.4-.3-.6-.8-1-1.2-.4-.6-.9-1.1-1.2-1.7-.5-.6-.9-1.4-1.3-2-.2-.3-.3-.7-.5-1-.2-.4-.4-.7-.6-1.1-.1-.3-.3-.5-.4-.8l-.1-.1c-.1-.3-.1-.5-.3-.7 0-.1-.1-.2-.1-.4 0-.1-.1-.2-.1-.3-.4-1.2-.9-2.5-1.1-3.7 0-.1-.1-.3-.1-.5 0-.1-.1-.2-.1-.4 0-.3-.1-.6-.1-.9-.2-.6-.2-1.2-.3-1.9-.1-.2-.1-.4-.1-.6v-1c-.1-.1-.1-.3-.1-.4V39c0-.2 0-.4-.1-.6v-.1c.1-.4 0-.8.1-1.2.1-.4 0-.9.1-1.3.1-.6.2-1.2.2-1.8.1-.2.1-.4.1-.6.1-.4.1-.9.3-1.2 0-.3.1-.5.2-.8 0 0 0-.1.1-.2.1-.6.3-1.1.4-1.6 0-.3.1-.6.1-.8.1-.2.1-.4.2-.5 0-.2.2-.5.2-.7.1-.1.1-.3.2-.4.1-.2.1-.4.2-.5.3-.9.8-1.7 1.2-2.5.2-.4.4-.7.6-1 .2-.4.4-.7.6-1 .3-.4.5-.8.8-1.2l.9-1.2c.4-.5.7-1 1.2-1.4.6-.8 1.3-1.4 2-2.1.4-.3.7-.6 1.1-1 .7-.5 1.4-1.2 2.1-1.6.3-.2.5-.4.8-.6.3-.2.6-.3.8-.5.2-.1.5-.3.7-.4.2-.1.4-.3.6-.4.2-.1.3-.1.5-.2.6-.4 1.3-.7 1.9-1h.2c.1-.1.2-.1.3-.1.4-.2.8-.4 1.2-.5.1 0 .2-.1.4-.1.2-.1.3-.1.5-.2l.9-.3c.3-.3.4-.4.5-.4z"/><path class="st1" d="M27 19.2c.8-.4 1.5-.9 2.4-.9.4 0 .7 0 1.1.1.3.1.6.3.9.4.6.6.8 1.5.7 2.4-.2.5-.4 1-.8 1.3-.7.6-1.6.8-2.4 1.3-.1 0-.2.1-.3.1-1.2.7-2.4 1.4-3.6 2.2-.3.3-.7.5-1 .8-.7.5-1.2 1.1-1.9 1.7-.2.2-.4.5-.6.7-.5.5-1 1.1-1.4 1.7-.7.8-1.2 1.8-1.8 2.7 0 .1-.1.2-.1.3-.5.9-1 1.8-1.3 2.8-.6 1.3-.9 2.6-1.3 3.9 0 .1-.1.3-.2.4h-.5c0-.2-.1-.3-.1-.5 0-.9 0-1.8.1-2.7.2-2 .8-4.1 1.5-6 .4-1.2 1-2.3 1.6-3.4.3-.4.5-.9.8-1.3.3-.4.5-.8.8-1.2.2-.3.4-.6.7-.9 0 0 0-.1.1-.1.5-.5.9-1 1.3-1.5h.1l.2-.2.3-.3.4-.4h.1v-.1c.3-.2.6-.5.8-.7.5-.5 1-.9 1.6-1.3.5-.5 1.1-.9 1.8-1.3zM48.8 18.7c.6-.5 1.5-.5 2.3-.4.5.1 1 .4 1.4.6.9.5 1.8 1.1 2.6 1.7.1.1.2.2.4.3.6.4 1.1.9 1.6 1.4.9.7 1.6 1.5 2.3 2.4.3.4.7.8 1 1.2 1.6 2.3 3 4.8 3.9 7.4.4 1.1.6 2.2.8 3.3.1 1 .3 2 .3 3 0 .5.2 1-.1 1.4h-.4c-.1-.1-.2-.2-.2-.3-.5-1.6-.9-3.3-1.7-4.8-.5-1-1-2.1-1.6-3.1-.3-.6-.7-1.1-1.1-1.7-.2-.1-.3-.2-.3-.2-.3-.4-.6-.8-1-1.2-.2-.1-.3-.3-.5-.4-.3-.5-.8-.8-1.2-1.2-.5-.6-1.2-1.1-1.8-1.5-1.2-.9-2.5-1.7-3.9-2.4-.4-.3-.9-.5-1.3-.7-.6-.3-1.3-.5-1.8-1.1-.7-.8-.8-2.1-.2-3 .1-.1.1-.2.2-.3.1-.2.2-.3.3-.4zM44.9 28.2h5.2v1.4h-3.7v1.8H50v1.3h-3.6v2h4v1.4h-5.5v-7.9zM29.1 28.3h6.2v1.3h-2.4v6.5h-1.4v-6.5h-2.4v-1.3zM36.5 36.1v-7.9H38v3.1h3.5v-3.1h1.4v7.9h-1.4v-3.5H38v3.5h-1.5zM34.3 38.2c.6-.1 1.2-.1 1.8 0 1.1.1 2.2.6 2.9 1.4.5.6.9 1.3 1 2.1.1.6.1 1.1.1 1.7 0 .8-.3 1.5-.6 2.2-.4.6-.9 1.1-1.4 1.5-.3.2-.6.3-1 .5l-1.2.3h-1.4c-.8-.1-1.7-.4-2.3-.8-.4-.3-.8-.7-1.1-1.1-.1-.1-.1-.2-.2-.3-.8-1.3-.8-3-.4-4.4.2-.5.4-.9.7-1.3.1-.1.3-.3.4-.5.1-.1.2-.1.2-.2.2-.2.4-.3.6-.5h.1c.1-.1.3-.2.4-.2.5-.2.9-.4 1.4-.4m-1.2 2.3c-.2.2-.3.4-.5.6-.7 1.2-.6 2.9.3 4 .2.3.5.5.7.7h.1c.1.1.3.2.4.2.8.3 1.6.3 2.4 0 .4-.1.7-.4 1-.6.7-.8 1.1-1.9.9-3-.1-.9-.5-1.7-1.2-2.2h-.1c-.7-.5-1.6-.6-2.4-.5-.7.1-1.2.4-1.6.8zM21.9 38.3h3.5c.7 0 1.3.1 1.9.4.5.4 1 .9 1 1.6 0 .5 0 1.1-.4 1.6-.2.4-.6.6-1 .8.6.2 1.2.4 1.5 1 .4.5.3 1.2.3 1.8-.1.2-.1.4-.2.6-.1.1-.2.3-.3.4l-.2.2c-.1.1-.3.2-.4.3-.6.4-1.3.5-2 .5h-3.8c.1-3 .1-6.1.1-9.2m1.7 1.4V42c.8.1 1.7.1 2.5-.2.1-.1.3-.2.4-.3.2-.5.3-1.1-.2-1.5-.8-.5-1.8-.2-2.7-.3m0 6.4h1.8c.5 0 1-.1 1.4-.4.3-.2.4-.6.4-.9 0-.2 0-.4-.1-.6-.2-.5-.8-.6-1.3-.6h-2.1c-.1.8-.1 1.6-.1 2.5zM42.2 38.3h3.7c.8.1 1.6.2 2.3.5 1.4.6 2.3 2.1 2.3 3.7.1.3.1.6 0 .9 0 1.6-1.1 3-2.5 3.7-.7.3-1.4.5-2.1.5h-3.8c.1-3.1.1-6.2.1-9.3m1.7 1.5v6.3c.9 0 1.8.1 2.7-.2 1-.3 1.9-1 2.1-2 .3-1.1.1-2.4-.8-3.2-.6-.5-1.4-.8-2.2-.8-.5-.2-1.2-.1-1.8-.1zM51.2 38.3h2.1c.1.2.2.3.3.5.1.1.2.3.3.4.1.1.2.3.3.4.1.1.1.2.2.3.1.1.1.2.2.3.1.2.2.3.3.5.1.1.1.2.2.3-.1-.1-.1 0-.1.2h.1v.1c.1.1.2.2.2.3.1.1.1.2.1.4l.2-.2c.1-.2.1-.3.3-.5.1-.1.2-.3.2-.4.1-.1.1-.2.2-.3.1-.2.2-.3.3-.4.1-.2.2-.3.3-.4.1-.1.2-.3.2-.4.1-.1.1-.2.2-.3.1-.2.2-.3.3-.5 0 0 .1-.1.1-.2h2c0 .1-.1.2-.1.3l-.2.2c-.1.1-.1.2-.2.3-.1.1-.2.2-.3.4 0 .2-.1.3-.3.4-.1.2-.2.3-.3.5l-.3.3c-.1.1-.1.2-.2.3-.1.2-.2.3-.3.4-.1.1-.1.2-.2.3-.1.1-.1.2-.2.2-.1.1-.1.2-.2.3-.1.2-.2.3-.3.5-.1.1-.1.2-.2.2-.1.2-.2.3-.3.5-.1.2-.2.3-.1.5v3.6h-1.7v-3.9c-.2-.1-.2-.3-.3-.4-.1-.1-.1-.2-.2-.3-.1-.1-.1-.2-.2-.3-.1-.1-.1-.2-.2-.3-.1-.1-.1-.2-.2-.3-.1-.1-.1-.2-.2-.3-.1-.1-.2-.3-.3-.5-.2-.2-.3-.3-.4-.5-.1-.1-.1-.2-.2-.3-.2-.2-.3-.3-.4-.5-.1-.1-.1-.2-.2-.3-.1-.1-.1-.2-.2-.3-.1-.1-.1-.2-.2-.3-.1-.1-.1-.2-.2-.3-.1-.1-.1-.2-.2-.3.5.1.5 0 .5-.2zM41.8 50.6c1.6-1.2 3.9-1.2 5.6-.3.7.4 1.3 1.1 1.7 1.8.3.7.4 1.4.5 2.2 0 .9-.3 1.8-.7 2.6-.2.3-.4.6-.7.8-.3.3-.6.5-1 .7h-.1c-.2.1-.3.2-.5.2-.6.1-1.2.3-1.8.3-.7 0-1.4-.2-2.1-.4-1.1-.5-2-1.5-2.4-2.7-.1-.7-.3-1.4-.2-2.1 0-.4.1-.8.2-1.2.4-.7.8-1.4 1.5-1.9m1.4 1.1s-.1 0-.1.1c-.3.3-.5.5-.7.8-.9 1.4-.5 3.4.9 4.3h.1c.1.1.2.1.4.2 1.2.5 2.8.1 3.5-1.1l.1-.1c.1-.2.2-.3.2-.5.4-1.1.3-2.5-.6-3.3 0 0 0-.1-.1-.1-.1-.1-.2-.2-.4-.3 0 0-.1 0-.2-.1l-.1-.1c-.4-.2-.8-.4-1.3-.4-.5.1-1.2.1-1.7.6zM24.7 50.4c.7-.5 1.5-.8 2.3-.7.7 0 1.4.1 2 .4v1.6c-.6-.2-1.2-.4-1.8-.5-.7-.1-1.6.3-1.8 1.1.2.5.7.8 1.2 1 .4.1.7.3 1.1.4h.1c.4.2.8.4 1.1.7l.2.2c.6.8.7 1.9.3 2.8-.2.4-.6.7-.9 1h-.1c-.4.3-1 .4-1.5.5-.6.1-1.2 0-1.8-.1-.3 0-.6-.2-.9-.3-.1 0-.2-.1-.3-.1v-1.8h.1c.2.1.4.2.5.3.3.2.7.3 1.1.4.6.2 1.3.1 1.9-.3.3-.3.4-.8.3-1.2l-.2-.2c-.6-.6-1.5-.7-2.3-1-.1-.1-.3-.1-.4-.2-.1-.1-.3-.2-.4-.3-.3-.2-.5-.6-.7-.9-.1-.3-.2-.7-.1-1 .1-.4.2-.8.4-1.1.1-.1.2-.3.3-.4.2-.2.3-.2.3-.3zM31.4 49.8h1.7v3.5H37v-3.5h1.7v8.8H37v-3.8h-3.9v3.8h-1.7v-8.8zM51.1 49.8h3.3c.6 0 1.2.2 1.7.4.4.2.6.5.9.8.3.4.4 1 .4 1.5 0 .8-.3 1.7-1.1 2.2-1.1.7-2.3.5-3.5.5v3.4h-1.7v-8.8m1.7 1.5v2.6c.7 0 1.5.1 2.2-.2.4-.2.7-.7.7-1.2 0-.2 0-.5-.2-.7-.2-.4-.7-.5-1.1-.6-.6.1-1.1.1-1.6.1z"/></svg>