<svg xmlns="http://www.w3.org/2000/svg" viewBox="0 0 40 40"><defs><style>.cls-3{fill:#fff}</style></defs><rect x="-308.52" y="-632.99" width="1429" height="1687.5" rx="54.76" fill="none" stroke="#ffb3ce" stroke-miterlimit="10" stroke-width="2.82" id="подложки"/><g id="лого_игры" data-name="лого игры"><rect width="40" height="40" rx="20" fill="#5c0000"/><path class="cls-3" d="M11.1 26.79a.87.87 0 0 1-.16-.26 1.87 1.87 0 0 1 0-.38c.31-.12.6-.25.91-.34a2.26 2.26 0 0 0 1.81-2.37c0-2.36-.06-4.72-.09-7.08v-.92A1.28 1.28 0 0 0 12.46 14c-.48-.16-1-.27-1.51-.41v-.69a12.63 12.63 0 0 1 1.27-.19c3.15-.14 6.3-.45 9.44.11a9.88 9.88 0 0 1 4.93 2.09c.43.37.81.8 1.2 1.2l-.09.12-1.77-.89-.12.12a5 5 0 0 0 .31.49 6.3 6.3 0 0 1 0 7.43 8.11 8.11 0 0 1-4 2.81 15.18 15.18 0 0 1-5.37.46c-1.76-.08-3.52.07-5.29.12zm6.17-12.17c0 .31-.05.56-.06.82 0 1.68-.08 3.35-.1 5v3.11c0 .72.29 1 1 1a10.75 10.75 0 0 0 1.39 0 4.4 4.4 0 0 0 2.23-.72 4.25 4.25 0 0 0 1.77-3c.42-2.59-.85-5.68-4-6.27a3.9 3.9 0 0 0-2.23.06z"/><path class="cls-3" d="M6.64 19.6a7.53 7.53 0 0 0 4.27-2.79l1.15 1.07.12-.11a2.61 2.61 0 0 0-.87-1.77l.93-.86-.08-.1h.67v9.16c-.84.34-1-.5-1.48-.77l.94-1.79-.23-.18-1.13 1.06C9.67 21 9.67 21 6.64 19.6zM28 17.75l.45-.27c.79.38 1.57.78 2.38 1.14s1.62.67 2.53 1a7.57 7.57 0 0 0-4.22 2.82L28 21.14zM20.93 27.35l2.18-.66.87 1.1.13.27a12 12 0 0 0-3.41 2c-.04-.06.16-1.91.23-2.71zM20.54 9.23a12.54 12.54 0 0 0 3.43 2v.26l-.78.91c-.84-.17-1.56-.35-2.41-.52-.07-.94-.16-1.72-.24-2.65zM20.69 27.39l-.18 2.39c0 .1-.07.78-.1 1-.09.7-.15 1.4-.22 2.09 0 .2-.08.4-.12.6h-.17c-.08-.79-.16-1.58-.26-2.37-.05-.36-.11-1.27-.12-1.36-.05-.75-.12-1.5-.18-2.25zM19.2 11.88h-2.86l-.34-.41c1.19-.79 2.21-1.53 3.38-2.32-.09.92-.12 1.85-.18 2.73zM19.08 27.52c.07.75.28 2.44.24 2.54l-3.39-2.2.31-.34zM19.45 11.86l.14-2.74.35-2.62h.19l.23 2.57.22 2.81z"/><path class="cls-3" d="M24.11 28.06l-.11-.27v-1.55l1.3-.87v1h1.2l-1.24.2-.58 4.26h-.19zM24 11.49v-.26a2.1 2.1 0 0 0 .27-.54c.11-.47.17-.95.25-1.42h.14l.64 3.92-1.22-.5zM27.57 24.26h-1.09L27.79 22l.85 1.37zM15.09 30.78l-.45-3.32h1a13.29 13.29 0 0 1-.4 3.32zM14.68 11.91l.42-2.76h.13l.42 2.7z"/><path class="cls-3" d="M26.5 26.33h-1.17v-1l.33-.52 1.13 1.41zM20.93 23.43l-1.7.37v-8.47c.53.26 1.17.51 1.7.76-.04.21-.04 7.13 0 7.34zM21.21 23.32c-.05-.2-.1-6.87-.05-7.07a4.64 4.64 0 0 1 1.06 6.11 4.59 4.59 0 0 1-1.01.96zM19 15.32v8.48h-1.14v-8.64z"/></g></svg>