<svg width="60" height="60" viewBox="0 0 60 60" xmlns="http://www.w3.org/2000/svg"><title>logo_name_ttk</title><desc>Created with Sketch.</desc><g fill="none"><path d="M0 0h60v60h-60z" fill="#F13432"/><path d="M51.872 25.072l-.066.122-5.073 5.345-.106.115 5.138 6.3-.106.007c-1.876 0-3.75 0-5.626.002-.06.004-.117-.024-.15-.074-1.277-1.608-2.557-3.215-3.836-4.822-.089-.115-.24-.164-.38-.122l-.04.048-.003.102.002 4.707v.15h-5.037v-.133l.004-11.564-.005-.183h5.038l-.005.102.002 4.275.002.071.03.049c.068.038.296-.002.346-.059l3.879-4.355.054-.083h5.938zm-30.418 0l-.004.184.002 4.471c0 .17.024.156-.169.156h-3.353c-.182 0-.182 0-.182.17l.004 6.743v.158h-5.035v-7.072h-3.717v-4.81h12.454zm13.806 0l-.006.153c0 1.504 0 3.009.002 4.513v.139l-.16.006h-3.365c-.182 0-.182 0-.181.17l.002 6.754v.147h-5.037v-.14l.002-6.776c0-.154 0-.154-.163-.154h-3.386l-.158-.007v-.14l.001-4.533-.006-.132h12.455z" fill="#fff" fill-rule="nonzero"/></g></svg>