<svg width="80" height="80" viewBox="0 0 80 80" xmlns="http://www.w3.org/2000/svg" fill="none"><path d="M40 80c22.087 0 40-17.913 40-40s-17.913-40-40-40-40 17.913-40 40 17.913 40 40 40z" fill="#006CB4"/><path d="M39.999 20c3.14 0 6.114.731 8.763 2.03.416.197.831.415 1.247.654l-1.841 1.648-2.766-2.86-4.669 4.164-2.773-3.026-8.697 7.839 5.575 6.144-2.191 1.927 5.491 6.154-2.178 1.923 7.847 8.735 4.658-4.289 4.027 4.596c-.801.623-1.674 1.209-2.635 1.75-2.912 1.661-6.278 2.612-9.86 2.612-11.015 0-19.999-8.985-19.999-19.999 0-11.016 8.984-20.001 19.999-20.001zM36.143 38.811l4.756-4.282 4.282 4.756-4.756 4.282-4.282-4.756zM39.775 46.881l4.756-4.281 4.282 4.756-4.755 4.283-4.284-4.758zM32.915 30.738l4.756-4.281 4.281 4.756-4.756 4.281-4.281-4.756zM41.39 28.457l3.566-3.211 3.212 3.566-3.568 3.212-3.211-3.568zM47.847 42.988l3.568-3.212 3.211 3.568-3.567 3.211-3.212-3.566zM51.075 50.252l3.566-3.212 3.212 3.566-3.568 3.212-3.211-3.566zM52.286 33.844l2.378-2.14 2.141 2.378-2.377 2.14-2.142-2.378zM49.462 26.58l2.378-2.14 2.14 2.378-2.378 2.14-2.14-2.378zM55.515 40.705l2.378-2.14 2.14 2.378-2.378 2.141-2.14-2.378zM45.022 35.32l3.566-3.212 3.211 3.567-3.565 3.212-3.212-3.566z" fill="#fff"/></svg>