<svg width="60" height="60" viewBox="0 0 60 60" xmlns="http://www.w3.org/2000/svg"><title>logo_name_tricolor</title><desc>Created with Sketch.</desc><g fill="none"><path fill="#00458E" d="M0 0h60v60h-60z"/><path d="M34.626 26.48l-5.632-1.88-4.558 1.632-1.19-.464v5.238l-13.246-5.12v-2.02l5.417-2.163 10.079 3.253-2.25.812 1.19.464-.386.14-.004 5.91 5.276 2.783.536-.29-1.232-.558-.05-2.172 6.048-2.83.002-2.735zm-17.15 3.368l-.002.152c0 6.627 5.373 12 12 12 3.242 0 6.279-1.294 8.509-3.538l-1.345-.61c-1.956 1.79-4.513 2.781-7.164 2.777-5.737 0-10.413-4.546-10.621-10.233l-1.378-.548h.001zm4.276-7.151l-1.428-.461c2.278-2.69 5.625-4.24 9.15-4.236 6.362 0 11.577 4.954 11.976 11.226l-1.414-.425c-.596-5.306-5.097-9.43-10.562-9.43-2.922-.003-5.717 1.2-7.722 3.326zm15.608 6.343l-7.77 3.634.021.892 14.812 6.72 9.531-4.8v-1.454l-16.594-4.992z" fill="#fff" fill-rule="nonzero"/></g></svg>