<svg width="60" height="60" viewBox="0 0 60 60" xmlns="http://www.w3.org/2000/svg"><title>logo_name_sberbank</title><desc>Created with Sketch.</desc><g fill="none"><path fill="#007346" d="M0 0h60v60h-60z"/><g fill="#fff"><path d="M44.041 20.282c-.328-.517-.686-1.015-1.073-1.49l-19.02 11.297-9.225-5.479c-.183.612-.332 1.234-.446 1.862l9.672 5.747 20.091-11.937h.001z" id="Path"/><path d="M46.551 27.038c-.266-1.794-.809-3.536-1.611-5.163l-20.991 12.469-9.912-5.888c-.019.295-.031.592-.036.892-.013 1.107.078 2.212.272 3.302.337 1.915.999 3.759 1.956 5.452 1.161 2.061 2.746 3.852 4.65 5.255 1.263.928 2.653 1.669 4.127 2.2.64.231 1.304.421 1.975.571.948.207 1.928.327 2.928.356h.912c2.867-.088 5.659-.941 8.086-2.471 1.9-1.2 3.527-2.783 4.798-4.626 1.533-2.226 2.52-4.783 2.88-7.462.123-.923.173-1.853.15-2.784-.019-.704-.08-1.406-.184-2.103zm-7.921-12.048c-.615-.372-1.254-.703-1.913-.99l-12.768 7.585-5.686-3.378c-.405.46-.786.944-1.14 1.447l6.826 4.057 14.68-8.72.001-.001z" fill-rule="nonzero"/><path d="M41.722 17.406c-.455-.451-.935-.876-1.439-1.272l-16.333 9.706-7.796-4.633c-.296.536-.564 1.087-.801 1.651l8.597 5.107 17.773-10.558-.001-.001z"/></g></g></svg>