<svg width="60" height="60" viewBox="0 0 60 60" xmlns="http://www.w3.org/2000/svg"><title>logo_name_mgts</title><desc>Created with Sketch.</desc><g fill="none"><path d="M0 0h60v60h-60z" fill="#1179A9"/><path d="M40.214 32.027c-.053 2.09-.437 4.095-1.388 5.963-1.24 2.432-3.14 4.083-5.784 4.818-1.513.42-3.053.482-4.607.27-1.706-.234-3.253-.85-4.597-1.941-1.271-1.032-2.183-2.335-2.821-3.839-.478-1.137-.789-2.336-.924-3.562-.117-1.079-.124-2.167-.02-3.248.226-2.516.88-4.918 1.879-7.23.822-1.902 1.852-3.679 3.196-5.26.794-.935 1.684-1.762 2.758-2.376 1.433-.818 2.861-.833 4.302-.024.973.545 1.8 1.267 2.537 2.095 1.83 2.055 3.101 4.436 4.043 7.008.552 1.486.943 3.027 1.165 4.597.125.905.176 1.819.261 2.729" fill="#fff"/></g></svg>