<svg width="60" height="60" viewBox="0 0 60 60" xmlns="http://www.w3.org/2000/svg"><title>logo_name_rivegauche</title><desc>Created with Sketch.</desc><g fill="none"><path fill="#000" d="M0 0h60v60h-60z"/><path d="M41.108 25.696c1.09-.246 2.276-.058 3.225.536 1.035.621 1.765 1.708 1.985 2.892.18 1.013.012 2.096-.522 2.982-.623 1.086-1.75 1.858-2.98 2.07-1.306.235-2.717-.163-3.681-1.083-1.04-.932-1.553-2.395-1.355-3.773.219-1.743 1.61-3.257 3.328-3.624zm.277 1.93c-1.174.323-1.96 1.641-1.648 2.828.239 1.158 1.441 2.002 2.614 1.834 1.287-.121 2.299-1.43 2.079-2.708-.158-1.396-1.706-2.404-3.044-1.954h-.001zm-37.575-1.856l3.57.011c1.44.06 2.746 1.165 3.055 2.57.227.988-.006 2.026-.633 2.823-.59.744-1.468 1.203-2.415 1.263-.572.028-1.143.001-1.715.014-.009.443.089.971-.256 1.32-.413.439-1.063.245-1.594.286-.038-.63-.014-1.264-.02-1.895.007-2.13-.013-4.262.01-6.392h-.001zm1.861 4.805c.514.005 1.029.008 1.544.004.558.001 1.088-.36 1.313-.868.387-.784-.113-1.827-.962-2.025-.622-.106-1.258-.011-1.885-.055-.018.981-.002 1.963-.009 2.944zm5.684-3.837c-.027-.463.351-.911.817-.95.347-.03.697-.008 1.046-.012.008 1.718.001 3.435.002 5.151 1.23-1.642 2.524-3.238 3.767-4.872.099-.095.164-.275.322-.274.559-.015 1.12.001 1.68-.004-.012 2.462.003 4.924-.007 7.384.007.457-.395.865-.846.889-.341.017-.683.003-1.024.005.017-1.703.038-3.41-.01-5.112-1.306 1.716-2.651 3.401-3.965 5.111l-1.783.001c.002-2.438.002-4.878 0-7.317h.001zm8.919-.959c1.703-.008 3.403 0 5.104-.006.719-.009 1.408.292 1.889.827.648.683.835 1.742.497 2.614l-.358.716c.296.479.551 1.008.523 1.588.038 1.296-1.084 2.471-2.374 2.526-1.437.023-2.874.005-4.31.011-.491.027-.955-.389-.963-.883l-.007-7.394zm1.87 1.86c.006.448.006.896.001 1.344 1.111-.001 2.222 0 3.333-.02.268-.008.476-.238.566-.475.116-.407-.229-.874-.659-.848-1.08-.004-2.16-.002-3.24-.002h-.001zm.001 3.209l.002 1.337c1.076.013 2.152.005 3.229-.003.3.02.573-.206.658-.485.14-.41-.224-.887-.656-.854l-3.232.005h-.001zm9.433-5.07c2.086-.004 4.172-.002 6.259 0-.073.525.16 1.177-.274 1.591-.202.223-.512.287-.801.272-1.094-.012-2.188.014-3.281-.015-.063.468-.021.94-.033 1.41.008 1.317-.008 2.634.009 3.95.002.292-.057.612-.295.808-.424.41-1.057.22-1.584.257.008-2.757.008-5.516 0-8.273v-.001zm15.643-.007l1.878.008c-.007 2.139-.017 4.279.005 6.419l1.678-.012c-.004-2.135.002-4.271-.004-6.406.627-.005 1.255-.012 1.883.005-.023 2.134-.002 4.267-.012 6.401.564.011 1.127.005 1.69.005.006-2.137.01-4.275-.002-6.412.383.009.77-.035 1.151.027.422.09.739.504.715.936l.001 7.316c-2.66-.005-5.32-.003-7.979-.002-.305.012-.615-.113-.802-.357-.215-.246-.201-.593-.211-.898.008-2.344-.005-4.687.008-7.03z" fill="#FFFFFE" fill-rule="nonzero"/></g></svg>