<svg width="60" height="60" viewBox="0 0 60 60" xmlns="http://www.w3.org/2000/svg" xmlns:xlink="http://www.w3.org/1999/xlink"><title>logo_name_oriflame</title><desc>Created with Sketch.</desc><defs><path id="a" d="M38 38.1h-38v-38h38z"/><path id="c" d="M38 38.1h-38v-38h38z"/></defs><g id="Clipped" fill="none"><path fill="#A6C924" d="M0 0h60v60h-60z"/><g><g transform="translate(11 10) translate(0 .007)" id="Clipped"><mask id="b"><use xlink:href="#a"/></mask><path d="M15.8.2h-.5c-1.6.6-3.3.9-4.8 1.7-9 4.5-12.8 15-9 24.5 3.8 9.4 15 14.3 24.3 10.4 6.9-2.8 11-8 12-15.5.8-5.8-.9-10.7-5.6-14.4-3.6-2.9-7.8-4-12.4-3-4 .9-6.8 3.3-9 6.7-.7 1-1.2 2.1-1.7 3.2l.2.1.3-.4c.9-1.1 1.7-2.3 2.7-3.2 3.3-3.1 7.1-4.3 11.5-3.2 6.3 1.5 10.1 7.6 8.9 14.2-1 6-5.7 10.6-11.7 11.5-6 1-11.9-2.2-14.6-7.7-1.7-3.4-2-7-1.5-10.7.7-4.9 3-9 7-12 1.2-.8 2.6-1.5 3.9-2.2" id="Path" fill="#fff" mask="url(#b)"/></g><g transform="translate(11 10) translate(0 .007)"><mask id="d"><use xlink:href="#c"/></mask><path d="M15.8.2c-1.3.8-2.7 1.5-3.9 2.3-4 3-6.3 7-7 12-.5 3.7-.2 7.3 1.5 10.7 2.7 5.5 8.6 8.6 14.6 7.7 6-.9 10.7-5.5 11.7-11.5 1.1-6.6-2.6-12.6-8.9-14.2-4.4-1.1-8.3.1-11.5 3.2-1 .9-1.8 2.1-2.7 3.2l-.3.4-.2-.1c.6-1.1 1.1-2.2 1.7-3.2 2.2-3.4 5-5.8 9-6.7 4.6-1 8.7.1 12.4 3 4.7 3.7 6.4 8.6 5.6 14.4-1 7.5-5.1 12.7-12 15.5-9.4 3.8-20.5-1-24.3-10.4-3.8-9.4 0-19.9 9-24.5 1.5-.8 3.2-1.2 4.9-1.7.1-.2.2-.1.4-.1" fill="#fff" mask="url(#d)"/></g></g></g></svg>