<svg xmlns="http://www.w3.org/2000/svg" width="60" height="60" viewBox="0 0 60 60"><g fill="none"><circle cx="30" cy="30" r="30" fill="#46A7DE"/><g fill="#FFF"><path d="M39.214 30.021c2.642 1.816 4.736 4.373 5.982 7.371-3.683-4.421-9.229-7.235-15.433-7.235-6.204 0-11.75 2.814-15.433 7.235 1.312-3.158 3.565-5.826 6.41-7.656-1.563-1.25-3.54-1.997-5.689-1.997-2.834 0-5.368 1.298-7.05 3.337.995-2.419 3.176-4.215 5.809-4.65-1.507-.515-2.591-1.944-2.591-3.626 0-2.116 1.715-3.831 3.831-3.831 2.116 0 3.831 1.715 3.831 3.831 0 1.682-1.084 3.111-2.591 3.626 2.003.331 3.744 1.449 4.9 3.029 1.713-1.026 3.626-1.754 5.666-2.112-3.223-1.184-5.523-4.281-5.523-7.915 0-4.655 3.774-8.429 8.429-8.429s8.429 3.774 8.429 8.429c0 3.634-2.3 6.731-5.523 7.915 2.255.396 4.354 1.243 6.201 2.446 1.149-1.756 2.99-3.01 5.132-3.363-1.507-.515-2.591-1.944-2.591-3.626 0-2.116 1.715-3.831 3.831-3.831 2.116 0 3.831 1.715 3.831 3.831 0 1.682-1.084 3.111-2.591 3.626 2.634.435 4.814 2.231 5.809 4.65-1.682-2.039-4.216-3.337-7.05-3.337-2.308 0-4.416.861-6.028 2.281z"/><path fill-rule="nonzero" d="M17 48.776v-5.776h1.872c.709 0 1.172.029 1.387.087.331.087.608.275.831.565.223.29.335.665.335 1.125 0 .355-.064.653-.193.894-.129.242-.292.431-.491.569-.198.138-.4.229-.605.274-.278.055-.682.083-1.21.083h-.76v2.179h-1.166zm1.166-4.799v1.639h.638c.46 0 .767-.03.922-.091.155-.06.276-.155.364-.284.088-.129.132-.278.132-.449 0-.21-.062-.384-.185-.52-.123-.137-.28-.222-.469-.256-.139-.026-.419-.039-.839-.039h-.563zm4.333-.977h1.091v3.846l2.34-3.846h1.162v5.776h-1.091v-3.771l-2.337 3.771h-1.166v-5.776zm7.185 5.776v-4.799h-1.714v-.977h4.59v.977h-1.71v4.799h-1.166zm4.991-.831v-1.501h-1.513v-1.036h1.513v-1.501h1.009v1.501h1.517v1.036h-1.517v1.501h-1.009zm4.813 0v-1.501h-1.513v-1.036h1.513v-1.501h1.009v1.501h1.517v1.036h-1.517v1.501h-1.009z"/></g></g></svg>