<svg xmlns="http://www.w3.org/2000/svg" x="0" y="0" viewBox="0 0 80 80" xml:space="preserve" enable-background="new 0 0 80 80"><style>.st2{fill:#fff}</style><circle cx="40" cy="40" r="40" fill="#d61920"/><g transform="translate(8 32.017)"><defs><filter id="Adobe_OpacityMaskFilter" filterUnits="userSpaceOnUse" x="0" y=".1" width="24.9" height="15.7"><feColorMatrix values="1 0 0 0 0 0 1 0 0 0 0 0 1 0 0 0 0 0 1 0"/></filter></defs><mask maskUnits="userSpaceOnUse" x="0" y=".1" width="24.9" height="15.7" id="b_1_"><g filter="url(#Adobe_OpacityMaskFilter)"><path id="a_1_" class="st2" d="M0 .1h24.9v15.7H0V.1z"/></g></mask><path d="M22.5 5.8l2.3-1.9c-.1 0-.1-.1-.2-.1-.6-.5-1.4-.8-2.2-1-.5-.1-1-.2-1.5-.2-3.3 0-6 2.5-6 5.5 0 .7.1 1.3.4 1.9l-2.7 2.1c-.1.1-.2.1-.3 0-1.6-1.8-3.3-3.6-4.9-5.3L10.9 3c0 .5.8 1.8 2.4 1.9 1.1.1 1.9-.5 2.4-1.1.6-.9.5-2-.3-2.9-.8-.6-1.3-.8-2.3-.7-.9.1-1.5.4-2.2 1.1L7.4 5V.6L0 3.7v12.1l7.4-3.2v-4l5 5.1c.1.1.1.1.2 0 1.1-.9 2.2-1.7 3.3-2.6l6.6-5.3" mask="url(#b_1_)" fill="#fff"/></g><g transform="translate(24.593 34.5)"><defs><filter id="Adobe_OpacityMaskFilter_1_" filterUnits="userSpaceOnUse" x="0" y=".1" width="47.4" height="11"><feColorMatrix values="1 0 0 0 0 0 1 0 0 0 0 0 1 0 0 0 0 0 1 0"/></filter></defs><mask maskUnits="userSpaceOnUse" x="0" y=".1" width="47.4" height="11" id="d_1_"><g filter="url(#Adobe_OpacityMaskFilter_1_)"><path id="c_1_" class="st2" d="M0 .1h47.4v11H0V.1z"/></g></mask><path d="M46 7.9c-2.3 2.5-5.9 2.8-7.8-.1l4.4-4.2c0 .1-.2.6-.2.7 0 .9.3 1.4 1.2 1.9 3.2 1 4.9-3.7 1.1-5.4C43.9.4 43 .1 42 .1c-2.5 0-4.6 1.4-5.5 3.4L34.3.6h-6.9l5 7-.7.7c-.1-1.1-1.2-2-2.4-2-.4 0-.8.1-1.2.3L23.7.7l-4.8 4.8L15.5.7l-5.1 5.4v-.5c0-1.3-.5-2.5-1.4-3.5L6 4.6h-.1L0 9.4c1.1 1.1 2.6 1.8 4.4 1.8.8 0 1.6-.2 2.3-.4.9-.3 1.7-.8 2.3-1.4l3-3.1 3.3 4.7 4.8-4.8 3.5 4.8 3.2-3c-.1.2-.1.4-.1.6 0 1.2 1.1 2.3 2.5 2.3.2 0 .4 0 .6-.1.7-.1 1.1-.3 1.7-.8L36 5.7c0 3 2.7 5.4 6 5.4 2.4 0 4.5-1.3 5.4-3.2H46zM5.9 9.8c-1.1 0-2-.9-2-1.9 0-1.1.9-1.9 2-1.9s2 .9 2 1.9c0 1-.9 1.9-2 1.9z" mask="url(#d_1_)" fill="#fff"/></g></svg>