<svg width="60" height="60" xmlns="http://www.w3.org/2000/svg" xmlns:xlink="http://www.w3.org/1999/xlink"><defs><path d="M29.703 59.405c16.404 0 29.702-13.298 29.702-29.702C59.405 13.298 46.107 0 29.703 0 13.298 0 0 13.298 0 29.703c0 16.404 13.298 29.702 29.703 29.702z" id="a"/></defs><g fill="none" fill-rule="evenodd"><mask id="b" fill="#fff"><use xlink:href="#a"/></mask><use fill="#E6E8EC" xlink:href="#a"/><g><path d="M22.206 38.717a2.496 2.496 0 0 0-2.49 2.505 2.496 2.496 0 0 0 2.49 2.504c1.375 0 2.489-1.12 2.489-2.504a2.496 2.496 0 0 0-2.49-2.505zm14.166 0a2.496 2.496 0 0 0-2.489 2.505 2.496 2.496 0 0 0 2.49 2.504c1.375 0 2.488-1.12 2.488-2.504a2.492 2.492 0 0 0-2.489-2.505z" fill="#222"/><path d="M42.97 20.429H22.742l-2.055-5.405h-6.64v3.146h4.104l6.353 17.599 16.436-4.5s2.03-.444 2.03-3.086v-7.754z" fill="#4B72B8"/></g></g></svg>