<svg width="60" height="60" viewBox="0 0 60 60" xmlns="http://www.w3.org/2000/svg"><title>logo_name_vichyconsult</title><desc>Created with Sketch.</desc><g fill="none"><path fill="#17726E" d="M0 0h60v60h-60z"/><path d="M40.275 35.025v-4.575h-5.775v4.575h-1.65v-10.2h1.65v4.35h5.775v-4.35h1.65v10.125l-1.65.075zm-21.9-10.2h1.65v10.125h-1.65v-10.125zm-3.975 0l-3.225 6.9-3.3-6.9h-1.725l5.025 10.125 4.95-10.125h-1.725zm13.35 8.775c-2.4 0-4.2-1.575-4.2-3.75s1.8-3.75 4.2-3.75c1.05 0 2.025.375 2.775.9v-1.5c-.9-.45-1.8-.675-2.775-.675-3.15 0-5.7 2.25-5.7 5.1 0 2.85 2.55 5.1 5.7 5.1 1.05 0 1.95-.225 2.775-.675v-1.575c-.75.525-1.725.825-2.775.825zm26.1-8.775l-4.5 5.775v4.35h-1.5v-4.35l-4.5-5.775h1.8l3.525 4.5 3.525-4.5h1.65z" fill="#F2F2F2" fill-rule="nonzero"/></g></svg>