<svg width="60" height="60" viewBox="0 0 60 60" xmlns="http://www.w3.org/2000/svg"><title>logo_name_dochkisinochki</title><desc>Created with Sketch.</desc><g fill="none"><path fill="#2E3191" d="M0 0h60v60h-60z"/><path d="M12.15 35.25c-1.35 1.35-3.75 1.5-3.75-1.2 0-1.725.75-2.775 1.2-2.775.525 0 .6 1.125.45 2.1 1.425.3 2.025-.525 2.025-1.5s-.9-1.575-2.475-1.575c-2.175 0-3.675 1.8-3.675 3.9 0 2.625 1.425 3.75 3.6 3.75 1.35 0 3-.975 2.625-2.625.15 0 .075 0 0-.075zm27.825.675v-2.025c0-.75.225-1.275.225-1.275s-.375-.375-1.275-.375c-.825 0-1.275.375-1.275.375s.225.45.225 1.275v.675c-.075.375-.225.6-.6.6-.225 0-.375-.15-.375-.525v-.975c0-1.05-.525-1.5-1.35-1.5-1.05 0-1.425.825-1.425.825s.675.225.675 1.125v.975c0 1.05.6 1.425 1.425 1.425.825 0 1.425-.525 1.65-1.05v.825c0 1.05.525 1.5 1.35 1.5 1.05 0 1.425-.825 1.425-.825s-.675-.15-.675-1.05zm13.125 0v-2.025c0-.75.225-1.275.225-1.275s-.375-.375-1.275-.375c-.825 0-1.275.375-1.275.375s.225.45.225 1.275v1.8c-.075.375-.3.675-.6.675-.225 0-.375-.15-.375-.525v-2.175c0-1.05-.525-1.5-1.35-1.5-1.05.075-1.425.825-1.425.825s.675.225.675 1.125v2.25c0 1.05.6 1.425 1.425 1.425.825 0 1.5-.525 1.65-1.125.075.825.6 1.125 1.35 1.125 1.05 0 1.425-.825 1.425-.825s-.675-.15-.675-1.05zm-21.975-3.75c-1.725 0-2.925 1.2-2.925 2.85 0 1.65 1.2 2.85 2.925 2.85 1.725 0 2.925-1.2 2.925-2.85 0-1.65-1.2-2.85-2.925-2.85zm0 4.8c-.375 0-.6-.75-.6-1.875 0-1.2.225-1.875.6-1.875.45 0 .6.675.6 1.875 0 1.125-.15 1.875-.6 1.875zm14.025-2.175c.675-.525 1.275-1.2 1.65-2.025 0 0-.45-.6-1.425-.6-.975 0-1.425.6-1.425.6.75.525.6.975.375 1.275-.225.3-.45.6-.75.9v-1.275c0-1.05-.525-1.5-1.35-1.5-.975.075-1.35.825-1.35.825s.675.225.675 1.2v2.025c0 .75-.225 1.275-.225 1.275s.45.375 1.275.375 1.275-.375 1.275-.375-.225-.45-.225-1.275v-.825.075c.225.9.975 2.4 2.1 2.4 1.275 0 1.425-1.425 1.425-1.425-.975-.3-1.65-.9-2.025-1.65zm-29.175-.75c-.375 0-.6.075-.75.075v-.45c0-1.05-.525-1.5-1.35-1.5-1.05 0-1.425.825-1.425.825s.675.225.675 1.2v1.8c0 1.125.525 1.95 2.4 1.95 1.575 0 2.4-.825 2.4-1.95.15-1.5-.9-1.95-1.95-1.95zm-.3 2.925c-.3 0-.45-.45-.45-.975v-1.05c.6 0 .825.225.825 1.05.075.525-.075.975-.375.975zm11.55-1.05v-2.025c0-.75.225-1.275.225-1.275s-.45-.375-1.275-.375-1.275.375-1.275.375.225.45.225 1.275v.525h-1.05v-.675c0-1.05-.525-1.5-1.35-1.5-1.05 0-1.425.825-1.425.825s.675.225.675 1.125v2.025c0 .75-.225 1.275-.225 1.275s.45.375 1.275.375 1.275-.375 1.275-.375-.225-.45-.225-1.275v-.6h1.05v.75c0 1.05.525 1.5 1.35 1.5 1.05 0 1.425-.825 1.425-.825s-.675-.225-.675-1.125zm-6.75 0v-2.025c0-.75.225-1.275.225-1.275s-.45-.375-1.275-.375-1.275.375-1.275.375.225.45.225 1.275v2.55c0 1.05.525 1.5 1.35 1.5 1.05 0 1.425-.825 1.425-.825s-.675-.3-.675-1.2zm29.4-11.475s-.525.525-.9.525h-1.05c-.525 0-.825.45-.825.75v.825h2.025c.825 0 1.2-.375 1.2-.975 0-.825-.45-1.125-.45-1.125zm-29.175 2.775h-.825v-5.25s-.975-.15-2.475-.15-2.55.15-2.55.15v1.425c0 2.925-.975 3.9-.975 3.9h-.825v2.25c0 .9.45 1.275 1.275 1.275.75 0 1.275-.45 1.275-.45s-.375-.675-.375-1.65h3.3v.75c0 .9.3 1.275 1.2 1.275.75 0 1.275-.45 1.275-.45s-.3-.6-.3-1.725v-1.35zm-2.925 0h-1.725c.3-.45.75-1.875.75-4.05 0 0 .225-.075.525-.075.3 0 .45.075.45.075v4.05zm20.325-1.425c.675-.525 1.275-1.2 1.65-2.025 0 0-.45-.6-1.425-.6-.975 0-1.425.6-1.425.6.75.525.6.975.375 1.275-.3.45-.6.75-.75.9v-1.275c0-1.05-.525-1.5-1.35-1.5-1.05 0-1.425.825-1.425.825s.675.225.675 1.2v2.025c0 .75-.225 1.275-.225 1.275s.45.375 1.275.375 1.275-.375 1.275-.375-.225-.45-.225-1.275v-.825.075c.3.9.975 2.4 2.1 2.4 1.275 0 1.425-1.425 1.425-1.425-.9-.375-1.575-.9-1.95-1.65zm7.95 1.125v-2.025c0-.75.225-1.275.225-1.275s-.45-.375-1.275-.375-1.275.375-1.275.375.225.525.225 1.275v1.8c-.075.375-.3.675-.6.675-.225 0-.375-.15-.375-.525v-2.175c0-1.05-.525-1.5-1.35-1.5-1.05 0-1.425.825-1.425.825s.675.225.675 1.125v2.25c0 1.05.6 1.425 1.425 1.425.825 0 1.5-.525 1.65-1.125.075.825.6 1.125 1.35 1.125 1.05 0 1.425-.825 1.425-.825s-.675-.15-.675-1.05zm-21.975-3.75c-1.725 0-2.925 1.2-2.925 2.85 0 1.65 1.2 2.85 2.925 2.85 1.725 0 2.925-1.2 2.925-2.85 0-1.65-1.2-2.85-2.925-2.85zm0 4.8c-.375 0-.6-.75-.6-1.875 0-1.2.225-1.875.6-1.875.45 0 .6.675.6 1.875 0 1.125-.225 1.875-.6 1.875zm8.85-1.05v-2.025c0-.75.225-1.275.225-1.275s-.45-.375-1.275-.375-1.275.375-1.275.375.225.525.225 1.275v.6c-.075.375-.225.6-.6.6-.225 0-.375-.15-.375-.525v-.975c0-1.05-.525-1.5-1.35-1.5-1.05 0-1.425.825-1.425.825s.675.225.675 1.125v.975c0 1.05.6 1.425 1.425 1.425.825 0 1.425-.525 1.65-1.05v.825c0 1.05.525 1.5 1.35 1.5 1.05 0 1.425-.825 1.425-.825s-.675-.075-.675-.975z" fill="#F7F7F7" fill-rule="nonzero"/></g></svg>