<svg width="60" height="60" viewBox="0 0 60 60" xmlns="http://www.w3.org/2000/svg" xmlns:xlink="http://www.w3.org/1999/xlink"><title>logo_name_domru</title><desc>Created with Sketch.</desc><defs><path id="a" d="M0 .066v9.04h7.444v-9.04z"/></defs><g id="Clipped" fill="none"><path fill="#C1232A" d="M0 0h60v60h-60z"/><g><path d="M38.807 21.906v-6.25c0-.478-.027-.515-.488-.629l-.664-.142c-2.12-.462-4.265-.695-6.429-.752-1.709-.052-3.419.012-5.119.19-1.492.162-2.975.37-4.437.719-.454.108-.505.17-.505.65v12.555c0 .402.054.483.446.555 1.062.197 2.121.422 3.19.556 1.271.159 2.55.277 3.829.334 1.68.076 3.362.034 5.042-.131 1.58-.15 3.148-.403 4.695-.757.384-.089.44-.17.44-.566v-6.332m1.11.006v6.171l-.008.374c-.054.776-.374 1.186-1.114 1.385-1.452.39-2.93.666-4.425.775-1.643.12-3.291.214-4.937.208-2.716-.01-5.412-.297-8.063-.932-.939-.224-1.301-.709-1.301-1.684 0-3.811-.002-7.622.002-11.434 0-.533-.002-1.068.045-1.598.05-.568.377-.976.913-1.116.817-.213 1.645-.39 2.477-.534 2.17-.378 4.364-.528 6.563-.527 2.901.002 5.78.254 8.609.963.898.225 1.237.673 1.239 1.671.004 2.093 0 4.185 0 6.278" id="Shape" fill="#FEFEFE" fill-rule="nonzero"/><g transform="translate(11 13) translate(0 21.94)"><mask id="b"><use xlink:href="#a"/></mask><path d="M2.372 5.852h2.472c.202 0 .174-.16.175-.289.002-1.387-.002-2.775.004-4.162.001-.177-.056-.231-.225-.229-.583.008-1.167.009-1.751 0-.245-.003-.352.11-.352.351 0 .365.005.73-.002 1.094-.018 1.079.1 2.17-.321 3.235m3.883-.006c.272 0 .489-.01.704.003.36.022.48.154.482.522.004.712.004 1.425 0 2.137-.002.398-.155.573-.49.578-.395.007-.607-.191-.612-.592-.007-.507-.002-1.014-.002-1.544h-5.212l-.025.269-.007 1.361c-.004.312-.218.513-.543.526-.297.011-.537-.186-.542-.492-.011-.793-.011-1.585 0-2.378.003-.266.146-.38.43-.393.518-.024.682-.124.805-.642.112-.472.198-.96.216-1.444.034-.907.008-1.817.01-2.725.003-.815.106-.941.896-.955 1.09-.017 2.181-.01 3.272-.003.432.004.614.203.616.651.005 1.113.002 2.225.002 3.338v1.783" id="Shape" fill="#FEFEFE" fill-rule="nonzero" mask="url(#b)"/></g><path d="M47.184 41.211c-.518.651-1.169.926-1.953.868-1.058-.079-1.737-.736-1.866-1.809-.03-.256-.045-.513-.046-.771-.005-1.202-.003-2.405-.002-3.607 0-.6.374-1.018.908-1.023.515-.005.92.44.921 1.017v3.366c.007.585.15.859.512.977.496.163 1.167-.02 1.425-.41.057-.085.069-.216.069-.326l.004-3.553c.001-.548.26-.93.688-1.04.6-.151 1.137.28 1.14.935.007 1.372.003 2.743.002 4.115l-.01 1.148-.008.16c-.067.573-.315.842-.784.857-.567.019-.842-.21-.955-.793l-.045-.11m-17.969-2.097l.232-.452 1.527-3.097c.087-.174.183-.345.293-.504.155-.227.374-.312.64-.235.253.073.436.294.462.556l.001.08c0 2.004.002 4.007-.001 6.01 0 .4-.264.677-.622.68-.372.001-.635-.28-.636-.694-.003-1.122-.001-2.244-.001-3.365v-.28l-.061-.01-.12.324c-.353.794-.711 1.585-1.06 2.38-.131.297-.317.516-.66.52-.354.003-.545-.218-.68-.527-.356-.811-.72-1.618-1.083-2.426-.032-.084-.085-.158-.154-.216v.601c0 .962.001 1.923-.002 2.885 0 .114-.01.233-.042.34.084.243.004.512-.198.67-.203.158-.483.169-.698.029-.215-.141-.316-.403-.252-.651-.04-.108-.06-.221-.061-.336-.004-1.941-.006-3.883-.001-5.824.001-.579.446-.93.936-.714.177.078.33.287.423.473.485.975.946 1.962 1.416 2.945l.402.839m-5.571-.57c-.001-.668-.086-1.197-.353-1.685-.318-.58-.8-.885-1.451-.869-.665.017-1.162.354-1.4.979-.16.422-.261.887-.29 1.34-.042.644.073 1.279.452 1.827.589.852 1.868.897 2.514.09.42-.525.519-1.15.528-1.682m1.256-.152c.017.901-.208 1.726-.749 2.448-.507.689-1.302 1.107-2.157 1.137-.855.03-1.676-.333-2.23-.984-1.202-1.393-1.161-3.881.049-5.27 1.112-1.275 3.616-1.324 4.63.664.321.63.47 1.298.457 2.005m15.036-2.69l.22-.248c.515-.588 1.168-.668 1.87-.493.505.126.749.56.635 1.057-.121.528-.498.763-1.03.7-.326-.046-.658-.042-.983.012-.476.09-.72.45-.72.942-.002 1.193.003 2.386-.003 3.58.009.433-.3.807-.726.88-.454.084-.89-.143-1.03-.575-.063-.197-.069-.42-.07-.631-.005-1.648-.003-3.295-.002-4.943l.012-.186c.056-.56.228-.8.625-.847.605-.072 1.023.14 1.138.638l.064.114m-4.768 6.269c-.316 0-.618-.128-.839-.353-.221-.225-.343-.53-.338-.845.003-.67.453-1.181 1.188-1.215.648-.03 1.185.55 1.178 1.228.001.315-.124.618-.347.841-.223.223-.526.347-.842.344m-1.642-23.735c-.001-.953.747-1.721 1.672-1.716.879.004 1.668.81 1.675 1.708.006.92-.757 1.706-1.66 1.708-.45.001-.881-.179-1.198-.498-.317-.319-.493-.752-.489-1.202" fill="#FEFEFE" fill-rule="nonzero"/></g></g></svg>