<svg width="60" height="60" viewBox="0 0 60 60" xmlns="http://www.w3.org/2000/svg"><title>logo_name_megafon</title><desc>Created with Sketch.</desc><g fill="none"><path fill="#00985F" d="M0 0h60v60h-60z"/><path d="M31.835 15v15.534l-.002.002c-.005.673-.553 1.216-1.226 1.215h-1.847l-.118.05-.048.118v13.016c.457.042.92.065 1.388.065 8.294 0 15.018-6.742 15.018-15.058 0-7.686-5.745-14.026-13.165-14.942zm-.429 23.438c-1.036 0-1.875-.839-1.875-1.875s.839-1.875 1.875-1.875 1.875.839 1.875 1.875-.839 1.875-1.875 1.875zm4.688 0c-1.036 0-1.875-.839-1.875-1.875s.839-1.875 1.875-1.875 1.875.839 1.875 1.875-.839 1.875-1.875 1.875zm4.218 0c-1.036 0-1.875-.839-1.875-1.875s.839-1.875 1.875-1.875 1.875.839 1.875 1.875-.839 1.875-1.875 1.875zm-10.222-8.504c.09 0 .163-.069.169-.156v-14.775h.21l-.26-.003c-8.399 0-15.209 6.687-15.209 14.935 0 7.16 5.13 13.14 11.977 14.596v-13.401c.019-.651.543-1.174 1.194-1.193h1.919v-.003zm-2.902-2.748c-1.036 0-1.875-.839-1.875-1.875s.839-1.875 1.875-1.875 1.875.839 1.875 1.875-.839 1.875-1.875 1.875z" fill="#fff" fill-rule="nonzero"/></g></svg>