<svg xmlns="http://www.w3.org/2000/svg" viewBox="0 0 60 60"><path d="M30 60c16.6 0 30-13.4 30-30s-13.4-30-30-30-30 13.4-30 30 13.4 30 30 30z" fill="#eee"/><path d="M28.6 38.4c0-5.2 4.1-9.3 9.2-9.4 5.2 0 9.5 4.2 9.4 9.4 0 5.1-4.1 9.3-9.3 9.3-5.2.1-9.3-4.2-9.3-9.3" fill="#97ce27"/><path d="M12.8 20.8c-.2-4.1 3.3-7.6 7.4-7.7 4.4-.1 8 3.5 7.9 7.9-.1 4.1-3.5 7.5-7.8 7.5-4.2 0-7.7-3.6-7.5-7.7" fill="#02a9fe"/><path d="M37.9 26.8c-3.4 0-6.1-2.7-6-6.2.1-3.3 2.8-5.9 6.2-5.9 3.2.1 5.9 2.8 5.9 6.1-.1 3.4-2.8 6-6.1 6" fill="#fd6163"/><path d="M24.8 38.4c0 2.4-1.9 4.4-4.4 4.4-2.5 0-4.4-2-4.3-4.4 0-2.4 1.9-4.4 4.4-4.3 2.4-.1 4.2 1.9 4.3 4.3" fill="#a06af7"/></svg>