<svg width="60" height="60" viewBox="0 0 60 60" xmlns="http://www.w3.org/2000/svg" xmlns:xlink="http://www.w3.org/1999/xlink"><title>logo_name_acado</title><desc>Created with Sketch.</desc><defs><path id="a" d="M0 15.998h39.995v-15.998h-39.995z"/></defs><g fill="none"><path fill="#F15041" d="M0 0h60v60h-60z"/><g transform="translate(10 22)"><mask id="b"><use xlink:href="#a"/></mask><path d="M31.996 15.998c-4.368-.069-7.874-3.63-7.874-7.999s3.505-7.93 7.874-7.999c4.368.069 7.874 3.63 7.874 7.999s-3.505 7.93-7.874 7.999m-15.998-2c-3.314 0-6-2.686-6-6s2.686-6 6-6 6 2.686 6 6-2.686 6-6 6m-11.999-2c-2.209-.001-4-1.792-3.999-4.001.001-2.209 1.792-4 4.001-3.999 2.209.001 4 1.792 3.999 4.001-.001 2.209-1.792 4-4.001 3.999" fill="#fff" fill-rule="nonzero" mask="url(#b)"/></g></g></svg>