<svg width="60" height="60" viewBox="0 0 60 60" xmlns="http://www.w3.org/2000/svg" xmlns:xlink="http://www.w3.org/1999/xlink"><title>logo_name_warcraft</title><desc>Created with Sketch.</desc><defs><path id="a" d="M0 .081h37.5v37.419h-37.5z"/></defs><g fill="none"><path fill="#363854" d="M0 0h60v60h-60z"/><g transform="translate(12 11.921)"><mask id="b"><use xlink:href="#a"/></mask><path d="M19.968 34.95c7.826.078 14.874-7.125 15.004-16.037.065-4.396-1.527-8.304-4.732-11.493-3.16-3.144-6.928-4.77-11.348-4.812-9.052-.093-16.252 7.11-16.378 16.012-.063 4.5 1.584 8.513 4.832 11.703 3.15 3.09 6.981 4.657 12.622 4.628m-16.539-26.963c0-1.472 0-2.987.003-4.502l.184-.207c.86 0 1.837-.04 2.811.01 1.125.06 2.111-.15 3.105-.772 1.695-1.067 3.589-1.755 5.566-2.104 2.041-.376 4.128-.434 6.186-.171 2.868.378 5.447 1.429 7.87 2.943l.402.143h4.516v4.524c4.524 7.32 4.607 14.469.015 21.783v4.55h-4.524c-7.227 4.416-14.291 4.407-21.636.051h-4.498c-.12-1.617 0-3.198-.068-4.746-4.694-6.921-4.29-15.055.066-21.501" fill="#fff" fill-rule="nonzero" mask="url(#b)"/></g><path d="M33.767 33.522l1.605-9.709-.558-1.26h5.802c-.319.459-.607.845-.864 1.248-.658 1.04-.912 2.224-1.139 3.408-.54 2.839-1.056 5.685-1.572 8.526-.11.592-.194 1.188-.252 1.787-.045.489-.071.992-.014 1.476.057.47.233.924.366 1.429h-5.367c.166-2.302-.232-4.5-.829-6.951-.364 2.469-1.402 4.571-.837 6.939h-5.564l.753-.945c.336-.858-.015-1.68-.192-2.46-.715-3.184-1.536-6.345-2.32-9.515-.154-.621-.321-1.238-.488-1.854-.148-.544-.25-1.11-.471-1.62-.22-.51-.564-.966-.854-1.443 1.794-.172 4.635-.114 5.445.123-.383 1.815.098 3.576.42 5.343.31 1.698.714 3.381 1.087 5.067.048.215.16.414.296.752.966-3.531 1.642-6.993 2.782-10.354l2.592 9.993.171.02" fill="#fff"/></g></svg>