<svg width="60" height="60" viewBox="0 0 60 60" xmlns="http://www.w3.org/2000/svg"><title>logo_name_ea</title><desc>Created with Sketch.</desc><g fill="none"><path fill="#000" d="M0 0h60v60h-60z"/><path d="M39.902 20.973h.244v-1.177h.438v-.208h-1.118v.208h.437v1.177zm1.069-1.07h.005l.384 1.07h.198l.384-1.07h.006v1.07h.228v-1.385h-.335l-.371 1.084h-.006l-.381-1.084h-.341v1.385h.23v-1.07zm-6.997-.317h-15.155l-2.299 3.695h15.136l2.318-3.695zm3.097.035l-9.265 14.753h-10.276l2.371-3.698h6.16l2.353-3.698h-14.239l-2.353 3.698h3.373l-4.68 7.384h19.532l7.214-11.378 2.63 3.994h-2.371l-2.246 3.698h7.024l2.439 3.685h4.481l-12.146-18.438z" fill="#fff" fill-rule="nonzero"/></g></svg>