<svg width="60" height="60" xmlns="http://www.w3.org/2000/svg" xmlns:xlink="http://www.w3.org/1999/xlink"><defs><path id="a" d="M0 15.998h39.995V0H0z"/></defs><g fill="none" fill-rule="evenodd"><circle fill="#F15041" cx="30" cy="30" r="30"/><g transform="translate(10 22)"><mask id="b" fill="#fff"><use xlink:href="#a"/></mask><path d="M31.996 15.998a8 8 0 0 1 0-15.998 8 8 0 0 1 0 15.998m-15.998-2a6 6 0 1 1 0-12 6 6 0 0 1 0 12m-11.999-2a4 4 0 1 1 .002-8 4 4 0 0 1-.002 8" fill="#FFF" mask="url(#b)"/></g></g></svg>