<svg width="60" height="60" xmlns="http://www.w3.org/2000/svg" fill="none"><path d="M12.054 26.384c.803 0 8.303 0 16.875-2.277-3.08-5.357-6.295-9.911-6.83-10.58-5.089 2.411-8.839 7.098-10.045 12.857zm30-10.045c-4.42-3.884-10.58-5.491-16.339-4.018.402.67 3.75 5.223 6.83 10.714 6.429-2.411 9.241-6.161 9.509-6.696zm-23.304 28.125c5.357 4.286 12.455 4.955 18.348 2.411-.268-1.607-1.339-7.098-3.884-13.795-7.366 2.545-12.589 7.5-14.464 11.384zm13.125-14.464c-.402-1.071-.938-2.009-1.473-3.08-9.107 2.679-17.946 2.679-18.75 2.545v.67c0 4.688 1.741 8.973 4.688 12.188 2.946-5.089 8.973-10.446 15.536-12.321zm4.688 2.277c2.411 6.563 3.348 11.92 3.616 12.991 4.152-2.813 6.964-7.232 7.768-12.322-.536-.134-5.625-1.607-11.384-.67zm-2.679-6.563c.67 1.339 1.071 2.411 1.607 3.616 6.161-.804 12.188.402 12.723.536 0-4.286-1.607-8.304-4.152-11.384-.402.536-3.348 4.42-10.179 7.232zm26.116-19.286c0-3.482-2.946-6.429-6.429-6.429h-47.143c-3.616 0-6.429 2.946-6.429 6.429v47.143c0 3.616 2.813 6.429 6.429 6.429h47.143c3.482 0 6.429-2.813 6.429-6.429v-47.143zm-8.571 23.571c0 11.92-9.643 21.429-21.429 21.429-11.92 0-21.429-9.509-21.429-21.429 0-11.786 9.509-21.429 21.429-21.429 11.786 0 21.429 9.643 21.429 21.429z" fill="#FF005C"/></svg>