<svg xmlns="http://www.w3.org/2000/svg" width="60" height="60" viewBox="0 0 60 60"><g fill="none"><path fill="#E74D89" d="M30 1.992c15.469 0 27.984 12.516 27.984 27.961 0 15.445-12.516 27.984-27.984 27.984-15.469 0-27.984-12.516-27.984-27.961 0-15.445 12.516-27.984 27.984-27.984z"/><path fill="#B2215A" d="M30 59.93c-16.547 0-30-13.43-30-29.953 0-16.547 13.453-29.977 30-29.977s30 13.43 30 29.953-13.453 29.977-30 29.977zm25.289-25.875c-.867-.281-7.922-2.367-15.961-1.102 3.352 9.188 4.711 16.688 4.969 18.234 5.766-3.867 9.867-10.008 10.992-17.133zm-15.281 19.5c-.375-2.25-1.875-10.078-5.461-19.406l-.164.047c-14.461 5.039-19.641 15.047-20.109 15.984 4.336 3.375 9.797 5.391 15.727 5.391 3.539.023 6.938-.703 10.008-2.016zm-29.039-6.445c.586-.984 7.617-12.609 20.836-16.898.328-.117.68-.211 1.008-.305-.633-1.453-1.336-2.906-2.086-4.336-12.797 3.82-25.219 3.656-26.344 3.633l-.023.773c.023 6.586 2.508 12.586 6.609 17.133zm-6.047-22.359c1.148.023 11.695.07 23.695-3.117-4.242-7.547-8.836-13.875-9.492-14.789-7.195 3.375-12.539 9.984-14.203 17.906zm19.078-19.641c.703.938 5.367 7.266 9.563 14.977 9.117-3.422 12.961-8.578 13.43-9.234-4.523-4.008-10.477-6.445-16.992-6.445-2.063 0-4.078.258-6 .703zm25.828 8.695c-.539.727-4.828 6.234-14.297 10.102.586 1.219 1.172 2.461 1.711 3.703.188.445.375.891.563 1.313 8.531-1.078 16.992.656 17.836.82-.07-6.023-2.227-11.578-5.813-15.938z"/></g></svg>