<svg width="60" height="60" viewBox="0 0 60 60" xmlns="http://www.w3.org/2000/svg"><title>logo_name_warthunder</title><desc>Created with Sketch.</desc><g fill="none"><path fill="#000" d="M0 0h60v60h-60z"/><path d="M55 44h-1.651l-1.606-3.75h-1.287v3.75h-1.516v-9h4.544l1.516 1.5v2.25l-1.575 1.5 1.575 3.75zm-1.515-5.865v-1.02l-.62-.615h-2.41v2.25h2.41l.62-.615zm-12.117-3.135h6.058v1.5h-4.544v2.25h2.272v1.5h-2.272v2.25h4.544v1.5h-6.058v-9zm-25.75 0h1.514v9h-1.514v-3.75h-3.03v3.75h-1.514v-9h1.514v3.75h3.03v-3.75zm-6.06 1.5h-2.27v7.5h-1.516v-7.5h-2.272v-1.5h6.059v1.5h-.001zm10.604 5.385l.62.615h1.788l.621-.615v-6.885h1.515v7.5l-1.516 1.5h-3.03l-1.514-1.5v-7.5h1.515v6.885h.001zm10.603-1.14v-5.745h1.514v9h-1.514l-3.03-5.73v5.73h-1.514v-9l1.514.015 3.03 5.73zm9.088-4.245v6l-1.515 1.5h-4.544v-9h4.544l1.515 1.5zm-4.544 0v6h2.408l.621-.615v-4.77l-.62-.615h-2.41.001zm20.496-9.035l-1.935-1.065-1.934 1.064.415-2.167-1.61-1.51 2.19-.275.939-1.997.939 1.997 2.19.276-1.61 1.509.415 2.167.001.001zm-12.105 4.535v-.279h.724l-.382-1.055c.07-.137.129-.28.176-.427l1.283-.344-.042-.154 1.774-.554 1.14 2.813h-4.673zm3.189-3.663l-1.704.382-.04-.154-1.04.278-.149-.298h-.682l-.283-.784h-1.976v-.296s-.604-.14-1.188-.14c-.592 0-1.164.14-1.164.14v.296h-.552l-.68 1.88v-4.421c.643-.153 1.186-.28 1.511-.353.245-.055.364-.46.428-1.1.068-.676-.06-.707-.67-.751-.423-.028-.846-.05-1.27-.065v-6.951h8.66l1.826 1.826v6.712l-1.827 1.826.8 1.973zm-1.622-9.804h-5.187v5.184h5.187v-5.184zm-11.967 13.372v-.539c0-.381-.18-.39-.612-.553-.603-.227-1.566-.425-1.566-.425s.267-3.042.29-3.253c.03-.266.194-.37.514-.514.179-.08 1.186-.343 2.4-.646l1.579 6.025h-2.628l.02-.095h.003zm-1.888-9.508c-.018-.232.007-2.141-.171-2.516-.179-.375-.579-.835-.579-.835h-.31s-.4.46-.58.835c-.178.375-.153 2.284-.17 2.516-.018.232-.061.305-.386.364-.172.032-.84.056-1.717.08l1.786-6.841h2.42l1.796 6.84c-.87-.024-1.533-.048-1.704-.079-.325-.059-.368-.132-.386-.364h.001zm-1.81 4.738c.023.211.289 3.253.289 3.253s-.963.198-1.566.425c-.431.163-.611.172-.611.553v.539l.02.095h-2.627l1.574-6.027c1.217.303 2.228.568 2.406.648.32.145.485.248.514.514h.001zm-7.289-4.12h-.003l.922-7.015h2.763l-.995 6.904c-.897.02-1.793.057-2.688.111h.001zm1.377 8.985h-3.992l.002-3.992s.066-.026-.327 0c-.391.025-2.108 1.163-3.053 1.473-.93.304-2.723.397-2.723.397s.74.813 1.217 1.632c.085.147.162.315.231.49h-1.441l-2.284-16h2.762l1.296 10.122 1.581-8.798h2.44v2.83c-.247.028-.49.133-.706.316v.426h-1.84l1.041.375h1.042v2.138c-.37.075-.73.22-1.057.436v.946h.24v1.785h-.611v.002l-1.704-.923-.182.315 1.754 1.075-.17.606h-.024l-2.517-1.363-.182.314 1.735 1.064-.261.571-2.431-1.317-.182.314 2.398 1.471-.23.502c.28-.05.548-.112.767-.184.956-.317 2.694-1.484 3.091-1.51l.166-.016.165.015c.397.027 2.135 1.193 3.091 1.51.22.073.487.134.767.185l-.712-1.556h-.98l-.302-1.075h-.611v-1.785h.238v-.947c-.32-.211-.678-.359-1.054-.435v-2.138h.926l.85 4.737.15-1.143.005.001c.492.11 1.478.343 2.56.604l-.939 6.53zm-3.31-11.53c-.198-.173-.443-.283-.704-.316v-2.83h.68l.642 3.572h-.618v-.427.001zm-12.317 6.994l-1.933-1.064-1.934 1.064.415-2.167-1.611-1.509 2.19-.275.94-1.997.938 1.997 2.19.276-1.61 1.509.415 2.167v-.001zm30.793 2.05l.358-.76.357.76.834.105-.613.574.158.825-.736-.405-.736.405.158-.825-.613-.574.833-.105z" fill="#fff" fill-rule="nonzero"/></g></svg>