<svg width="60" height="60" viewBox="0 0 60 60" xmlns="http://www.w3.org/2000/svg"><title>logo_name_aliexpress</title><desc>Created with Sketch.</desc><g fill="none"><path d="M0 0h60v60h-60z" fill="#E43225"/><path d="M17.196 33.602v-7.755h4.584v.972h-3.635v2.384h3.264v.973h-3.264v2.431h3.89v.973h-4.839v.023zm9.654 0l-1.574-2.06-1.574 2.06h-1.111l2.152-2.755-2.269-2.848h1.25l1.551 2.13 1.574-2.13h1.227l-2.153 2.848 2.037 2.755h-1.111zm2.64-.833v3.82h-.949v-5.718c0-1.459 1.111-3.01 2.847-3.01 1.759 0 3.079 1.111 3.079 2.94 0 1.783-1.343 3.01-2.871 3.01-.741 0-1.736-.324-2.107-1.042h.001zm3.982-1.968c0-1.25-.81-1.99-2.246-1.921-.695.023-1.759.532-1.666 2.315.022.579.625 1.667 1.945 1.667 1.134 0 1.968-.649 1.968-2.061zm1.805 2.801v-5.602h.95v.602c.463-.532 1.18-.718 1.945-.718v1.018c-.116-.023-1.25-.162-1.945 1.32v3.403h-.95v-.024zm3.148-2.801c0-1.62 1.158-2.94 2.755-2.94 1.991 0 2.732 1.32 2.732 3.01v.463h-4.445c.07 1.065 1.019 1.621 1.899 1.597.648-.023 1.087-.209 1.551-.671l.625.648c-.579.556-1.32.926-2.222.926-1.691-.023-2.894-1.274-2.894-3.033zm2.686-1.99c-.903 0-1.597.787-1.644 1.643h3.45c0-.832-.602-1.643-1.806-1.643zm3.287 4.005l.695-.626c-.023 0 .347.37.394.394.162.139.324.232.532.277.602.163 1.69.116 1.783-.717.047-.463-.301-.718-.694-.88-.51-.185-1.065-.255-1.575-.487-.578-.254-.949-.695-.949-1.343 0-1.69 2.407-1.968 3.496-1.18.046.046.579.532.556.532l-.694.555c-.347-.416-.671-.625-1.412-.625-.37 0-.88.162-.972.556-.139.555.486.764.903.88.555.139 1.157.232 1.643.533.671.417.833 1.32.579 2.015-.278.764-1.111 1.065-1.852 1.087-.88.047-1.643-.231-2.269-.857-.046 0-.162-.115-.162-.115zm4.885 0l.695-.626c-.023 0 .347.37.393.394.162.139.324.232.533.277.602.163 1.69.116 1.783-.717.046-.463-.301-.718-.695-.88-.51-.185-1.065-.255-1.574-.487-.579-.254-.95-.695-.95-1.343 0-1.69 2.407-1.968 3.496-1.18.047.046.579.532.556.532l-.695.555c-.347-.416-.671-.625-1.412-.625-.37 0-.88.162-.972.556-.139.555.486.764.903.88.555.139 1.157.232 1.643.533.672.417.834 1.32.579 2.015-.277.764-1.111 1.065-1.852 1.087-.879.047-1.643-.231-2.268-.857-.046 0-.163-.115-.163-.115zm4.515-4.816v-.601h-.209v-.116h.556v.116h-.209v.601h-.139zm1.042 0v-.556l-.209.556h-.047l-.208-.556v.556h-.116v-.718h.185l.185.487.185-.487h.185v.718h-.162zm-44.08 5.603l-.694-1.853h-3.75l-.695 1.853h-.995l3.01-7.755h1.088l2.986 7.755h-.949zm-2.616-6.644l-1.412 3.843h2.94l-1.528-3.843zm4.19 6.644v-7.756h.972v7.756h-.972zm2.431 0v-5.487h.972v5.487h-.972zm1.898-7.269v-.093c-.743-.026-1.34-.622-1.366-1.366h-.139c-.026.744-.623 1.34-1.367 1.366v.093c.741.023 1.342.625 1.367 1.365h.139c.022-.74.625-1.343 1.366-1.365z" fill="#fff" fill-rule="nonzero"/></g></svg>