<svg width="60" height="60" viewBox="0 0 60 60" xmlns="http://www.w3.org/2000/svg"><title>logo_name_citilink</title><desc>Created with Sketch.</desc><g fill="none"><path fill="#FF7800" d="M0 0h60v60h-60z"/><path d="M16.125 17.925c.675-.525 1.575-.75 2.4-.75h23.4c1.275 0 2.625.525 3.225 1.65.75 1.275.45 2.775.525 4.2-.075.525.15 1.2-.375 1.575-.45.375-1.275.075-1.35-.6-.075-1.125 0-2.25 0-3.375 0-.6-.3-1.2-.825-1.575-.375-.3-.9-.375-1.425-.375h-23.025c-.6 0-1.275.15-1.65.6-.45.45-.525 1.125-.525 1.65v12.6c0 .75.225 1.575.975 1.95.9.45 1.95.225 2.925.3-.075-.6-.075-1.275.3-1.8.45-.9 1.65-1.35 2.625-1.05.9.3 1.575 1.05 2.25 1.65v-9.75c0-1.05.9-1.95 1.95-2.025 1.2-.15 2.4.825 2.4 2.025v4.5c.525-.15 1.125-.225 1.65 0 .525.15.825.6 1.2.975.675-.3 1.5-.375 2.175 0 .45.225.75.675.975 1.125.45-.075.9-.225 1.35-.15.9.15 1.725.975 1.8 1.95.075.825 0 1.725 0 2.55 1.05 0 2.175.075 3.225 0 .825-.075 1.575-.825 1.65-1.65l.075-3.675c.075-.75 1.35-.9 1.575-.15.15.6.075 1.2.075 1.8 0 1.275.15 2.625-.525 3.675-.6.975-1.65 1.575-2.775 1.575-1.125.075-2.175 0-3.3 0 0 1.2 0 2.4-.225 3.6-.225 1.35-.75 2.625-1.2 3.9-.225.675-.45 1.5-1.125 1.95-.675.6-1.65.45-2.475.525-1.35 0-2.7.075-4.05-.075-.825-.075-1.575-.6-2.025-1.2l-6.675-8.625c-1.425-.075-3 .225-4.425-.3-1.35-.525-2.1-1.95-2.1-3.3v-12.975c.075-1.05.45-2.25 1.35-2.925zm10.725 7.05v10.05c0 .675.225 1.425-.45 1.875-.225-.075-.525-.075-.75-.3l-2.325-2.1c-.45-.375-1.2-.45-1.5.075-.375.45-.225 1.125.075 1.5 2.25 3 4.575 6 6.825 8.925.3.375.6.825 1.125.9.75.15 1.575.075 2.4.075.975 0 1.95.075 2.925-.075.6-.075.825-.675.975-1.2.6-1.65 1.35-3.3 1.425-5.1.075-2.025 0-4.05 0-6.075.075-.675-.75-1.275-1.35-.825-.6.375-.3 1.125-.525 1.65-.3.375-.975.3-1.2-.15l-.075-2.25c-.15-.675-1.2-.75-1.5-.15-.3.6 0 1.35-.225 1.95-.225.45-.975.45-1.2-.075l-.075-2.55c-.225-.75-1.425-.75-1.65 0-.15.825 0 1.575-.075 2.4-.075.525-.75.675-1.125.3-.3-.225-.225-.525-.225-.825v-7.575c0-.375.075-.9-.3-1.2-.225-.3-1.2 0-1.2.75z" fill="#fff" fill-rule="nonzero"/></g></svg>