<svg width="60" height="60" viewBox="0 0 60 60" xmlns="http://www.w3.org/2000/svg"><title>logo_name_formulakino</title><desc>Created with Sketch.</desc><g fill="none"><path d="M0 0h60v60h-60z" fill="#187BBA"/><path d="M12.065 26.638c-.167.041-.283.184-.362.33-.605 1.062-1.222 2.117-1.825 3.18-.076.094-.015.251.105.263.268.017.539.001.807.008.223.011.414-.16.52-.345l1.671-2.907c.062-.163.295-.348.162-.52-.356-.04-.72-.024-1.078-.008zm-3.594-.002c-.136.042-.208.178-.279.293l-1.827 3.18c-.079.098-.051.286.089.302l.806.008c.241.022.477-.129.589-.341.614-1.076 1.24-2.146 1.851-3.225.081-.09.017-.245-.108-.223-.373-.003-.748-.016-1.12.006zm-1.22-.687c.265-.088.549-.054.823-.056 2.228-.002 4.457.002 6.685-.002.219-.011.473.09.533.325.078.297-.086.585-.221.839-.563.98-1.125 1.961-1.693 2.939-.365.635-1.027 1.138-1.775 1.152l-2.297.005-.844 1.463-2.015-.001c.274-.49.556-.975.834-1.462l-2.483-.002c-.202-.01-.446-.011-.583-.188-.18-.217-.056-.52.057-.738.639-1.116 1.282-2.231 1.925-3.345.236-.415.592-.787 1.054-.928zm31.929 8.582c-.133.046-.204.178-.273.292l-1.828 3.184c-.067.086-.064.252.068.272.295.019.59.004.885.008.221.011.429-.11.529-.307.617-1.08 1.245-2.153 1.857-3.235.085-.098 0-.246-.123-.221-.371-.002-.744-.017-1.114.008v.001zm-.885-.765c1.214-.03 2.428-.005 3.641-.013.237.008.566.002.679.261.086.294-.094.57-.227.818-.646 1.114-1.279 2.238-1.933 3.347-.312.513-.874.882-1.48.873-1.157.005-2.312.002-3.468 0-.25 0-.569-.06-.657-.335-.047-.24.064-.473.179-.676.636-1.101 1.267-2.205 1.905-3.305.285-.5.774-.917 1.361-.969zm-7.414-.005c.702-.004 1.404-.001 2.106-.001-.403.704-.812 1.403-1.212 2.11h1.58l1.215-2.111c.694 0 1.39-.002 2.085.002-1.013 1.762-2.027 3.524-3.042 5.285h-2.082c.435-.769.879-1.53 1.316-2.296-.531.004-1.062-.01-1.592.008-.428.768-.875 1.525-1.313 2.288h-2.099c1.009-1.764 2.028-3.522 3.038-5.285zm-6.659-.002c.718 0 1.435-.002 2.152.002-.793 1.384-1.595 2.763-2.385 4.15-.079.092-.032.257.101.255.315.018.631.005.947.008.208.006.401-.109.495-.294l2.368-4.119c.728-.002 1.454-.002 2.183 0-1.013 1.764-2.032 3.525-3.043 5.291-1.508.006-3.015.002-4.522.002-.266-.003-.596-.038-.73-.308-.176-.33-.029-.71.142-1.006.764-1.328 1.526-2.655 2.291-3.98zm-5.885.002c.666-.002 1.333-.002 1.999 0-.337.617-.681 1.231-1.012 1.852.73-.603 1.462-1.204 2.194-1.804.063-.065.156-.05.239-.053l1.657.005-2.819 2.399c.248.965.5 1.927.745 2.892l-2.069.002-.543-2.628c-.094.095-.192.191-.25.314l-1.146 2.31-2.045.003 3.048-5.292zm32.11-5.112c-.39.117-.54.533-.734.852-.129.248-.306.473-.394.741.059.195.284.15.44.156.31-.001.702.043.903-.255.305-.499.577-1.019.867-1.527-.36.016-.726-.039-1.082.033zm-.685-2.782c1.365.002 2.731-.002 4.097.002.225.008.496.013.649.21.148.244.059.545-.011.801-.229.621-.607 1.17-.925 1.746-.495.841-.96 1.702-1.473 2.531-1.452-.013-2.905 0-4.358-.005-.183-.019-.418-.013-.526-.192-.166-.223-.07-.526.059-.742.348-.602.688-1.21 1.043-1.809.322-.437.82-.786 1.374-.812.714-.017 1.43.013 2.144-.013.291-.047.658-.335.528-.668-1.062-.041-2.127-.006-3.19-.019.192-.346.39-.689.587-1.031zm-6.215.907c.401-.511.998-.907 1.662-.904 1.256-.012 2.513-.004 3.77-.005-1.017 1.761-2.023 3.526-3.045 5.284l-2.036-.002c.815-1.428 1.64-2.85 2.457-4.277.038-.072.098-.202-.014-.24-.265-.056-.621-.067-.795.188-1.026 1.433-2.03 2.884-3.063 4.311-.671.045-1.354.007-2.029.019 1.029-1.46 2.05-2.925 3.092-4.373zm-6.122-.909c.676-.002 1.351-.002 2.028 0l-2.44 4.241c-.071.089-.082.266.066.277.296.016.595.006.892.005.188.003.315-.16.4-.311.803-1.404 1.617-2.802 2.415-4.207.672-.012 1.345-.002 2.018-.005l-3.188 5.54c-.314.66-.96 1.212-1.712 1.207-1.37.003-2.738.002-4.107 0l.427-.752h2.732c.169-.002.365-.029.476-.175.121-.165.207-.352.313-.526l-2.175-.004c-.23-.003-.503-.06-.62-.285-.162-.3-.023-.655.129-.927l2.345-4.079zm-8.326.005l2.698.001-.676 3.011c.941-.989 1.883-1.976 2.825-2.962.058-.071.156-.044.235-.051l2.442.003c-1.016 1.765-2.029 3.531-3.048 5.294l-2.073-.002c.795-1.397 1.609-2.785 2.402-4.185-1.331 1.383-2.643 2.783-3.962 4.176l-1.451.002.881-4.168c-.801 1.388-1.599 2.778-2.399 4.168h-.911c1.01-1.764 2.027-3.524 3.04-5.287zm-4.482.771c-.166.036-.288.175-.367.32-.6 1.049-1.205 2.096-1.808 3.145-.052.074-.104.226.018.259.29.045.589.008.883.02.203.015.395-.094.488-.275.619-1.077 1.241-2.153 1.858-3.231.073-.085.05-.255-.085-.241-.329-.008-.659-.015-.986.004zm-1.744-.776c1.395-.004 2.791 0 4.186-.002.236-.002.505.015.683.194.131.147.131.369.074.549-.096.305-.277.572-.43.849l-1.438 2.497c-.26.462-.659.856-1.148 1.061-.343.143-.72.143-1.084.137h-1.867l-.845 1.468h-2.016c1.292-2.255 2.594-4.502 3.887-6.755zm-4.626.77c-.135.046-.206.181-.275.297l-1.828 3.18c-.066.085-.062.25.069.27.296.02.593.003.889.009.205.009.398-.096.502-.273l1.857-3.225c.063-.082.091-.241-.043-.259-.39-.018-.781-.017-1.172.002zm-1.057-.738c.197-.042.4-.042.601-.041 1.095.003 2.189-.004 3.283.002.218.008.51.023.61.259.082.278-.079.544-.206.78-.643 1.115-1.279 2.235-1.928 3.345-.31.534-.885.925-1.51.914-1.133.006-2.265 0-3.397.002-.252-.002-.576-.023-.702-.285-.092-.233.025-.483.135-.688.64-1.114 1.28-2.23 1.924-3.343.26-.45.675-.837 1.191-.945zm8.47-4.66c.189-.345.378-.69.575-1.03.056.342.101.686.15 1.03h-.725zm4.82-1.198c.268.003.55-.027.808.068.236.145.166.52-.047.653-.293.117-.617.063-.924.073l.163-.794zm-12.157-.005c.232-.067.518-.072.708.101.207.207.225.525.175.798-.062.332-.207.682-.508.86-.245.115-.578.117-.781-.084-.218-.242-.224-.598-.153-.9.077-.314.244-.652.559-.774zm-13.026 6.133c-.67 1.151-1.326 2.31-1.992 3.463-.179.302-.3.643-.303.997-.038.716.58 1.409 1.294 1.421l1.265.005-.691 1.205c1.471.005 2.942-.005 4.413.008.258-.39.472-.809.711-1.21 2.735 0 5.469-.002 8.204 0-.23.418-4.412 7.544-4.636 7.965 1.414 0 18.538-.054 20.395-.05h5.663c.999 0 2.44-1.95 4.322-5.852.112-.232.097-.506-.04-.724-.137-.218-.377-.351-.635-.351h-3.83c.274-.517.725-.887.823-.991h10.624c.387.001.77-.074 1.127-.222.771-.334 1.346-1.007 1.759-1.728.415-.729.825-1.46 1.237-2.192.212-.386.429-.787.48-1.234.052-.406-.029-.848-.302-1.162-.341-.404-.893-.538-1.4-.523l-46.402-.003c-.842-.019-1.603.513-2.084 1.178zm24.693-6.614c-.191.915-.386 1.828-.574 2.743h.588l.212-.988c.355-.005.716.02 1.068-.043.315-.047.545-.314.675-.591.146-.386.003-.941-.429-1.06-.506-.102-1.027-.047-1.54-.06zm-2.539 0l-.102.494.849.002-.471 2.248h.593l.473-2.248.829-.002.101-.494h-2.273.001zm-1.399 0c-.535.915-1.075 1.826-1.605 2.743l.624.002.352-.616h1.011l.095.614h.59c-.146-.916-.302-1.829-.451-2.744h-.616v.001zm-3.278 0c-.191.914-.388 1.827-.573 2.743h2.09l.107-.501h-1.503l.143-.68h1.367l.1-.469h-1.367l.123-.607h1.476l.098-.488h-2.063l.002.001zm-2.596 0l-.103.494.85.002c-.155.749-.319 1.497-.47 2.248h.59l.475-2.248h.828l.101-.495h-2.271v.001zm-2 .005c-.969.298-1.401 1.71-.722 2.486.298.301.764.359 1.162.283.284-.023.531-.191.737-.378.385-.435.565-1.056.441-1.63-.085-.262-.239-.529-.491-.66-.339-.195-.757-.188-1.127-.101zm-3.453-.005c-.191.915-.387 1.828-.574 2.743h.592l.25-1.185 1.105.001-.245 1.184h.591c.195-.913.385-1.828.577-2.743h-.594l-.222 1.05h-1.104l.22-1.05h-.595zm-2.825 0c-.19.915-.386 1.828-.573 2.743h.707c.463-.641.927-1.281 1.393-1.92l-.4 1.92h.59c.197-.913.385-1.828.577-2.743h-.705l-1.391 1.913c.127-.639.265-1.275.396-1.913h-.595zm-3.32 2.743h.586l.149-.709c.03-.257.305-.355.462-.525l.624 1.235h.668l-.829-1.616c.433-.377.865-.752 1.301-1.125l-.79-.001-1.239 1.12.23-1.123-.591.001c-.19.914-.388 1.827-.572 2.743z" fill="#FFFFFE" fill-rule="nonzero"/></g></svg>