<svg width="60" height="60" viewBox="0 0 60 60" xmlns="http://www.w3.org/2000/svg"><title>logo_name_biglion</title><desc>Created with Sketch.</desc><g fill="none"><path fill="#FF7642" d="M0 0h60v60h-60z"/><path d="M11.79 32.398c0 1.883-.91 2.527-2.353 2.527h-5.092v-9.365h5.055c1.778 0 2.227.778 2.227 2.245 0 1.303-.306 2.056-1.905 2.189 1.699.082 2.071.941 2.071 2.405h-.003.001zm-5.388-3.223h2.433c.395 0 .577-.241.577-.888 0-.648-.18-.886-.577-.886h-2.432v1.774h-.001zm2.496 3.908c.437 0 .656-.311.656-1.035 0-.767-.245-1.107-.704-1.107h-2.448v2.15l2.496-.008h-.001zm4.7-7.523h2.061v9.365h-2.061v-9.365zm9.242 5.521h-1.774v-1.853h3.882v5.443c-1.107.294-2.247.442-3.392.442-2.867 0-4.216-1.14-4.216-4.957 0-3.82 1.613-4.824 4.582-4.824.94.003 1.876.115 2.791.335l-.375 1.907c-.724-.177-1.465-.27-2.21-.277-1.924 0-2.587.277-2.587 2.875 0 2.599.664 2.939 2.45 2.939.284-.007.567-.029.849-.067v-1.9629999999999999zm6.085-5.52v7.457h4.018v1.904h-6.079v-9.362h2.061v.001zm5.018 0h2.058v9.364h-2.058v-9.365.001zm12.41 4.571c0 3.857-1.481 4.98-4.335 4.98s-4.338-1.106-4.338-4.98c0-3.803 1.474-4.81 4.338-4.81 2.865 0 4.335 1.015 4.335 4.81zm-2.197.027c0-2.554-.332-2.85-2.141-2.85-1.807 0-2.138.296-2.138 2.85 0 2.555.335 2.97 2.138 2.97s2.141-.377 2.141-2.97zm11.95 4.766h-2.559c-1.119-2.157-2.288-4.289-3.505-6.392v6.392h-2.024v-9.365h2.688c1.179 2.021 2.296 4.078 3.349 6.168v-6.168h2.05v9.365z" fill="#fff" fill-rule="nonzero"/></g></svg>