<svg width="60" height="60" viewBox="0 0 60 60" xmlns="http://www.w3.org/2000/svg"><title>logo_name_kassir</title><desc>Created with Sketch.</desc><g fill="none"><path d="M0 0h60v60h-60z" fill="#FFC627"/><g><path d="M29.514 12.223c-8.083 0-14.656 6.578-14.656 14.661 0 5.415 2.972 10.125 7.353 12.662v-6.707c-3.135-2.539-4.252-6.126-4.272-6.183-.172-.632.192-1.287.819-1.475.628-.188 1.291.158 1.496.78.091.296 2.204 6.937 9.101 6.937h.145c7.365-.097 9.113-6.607 9.184-6.882.165-.645.821-1.036 1.467-.874.646.161 1.039.815.877 1.461-.015.057-.988 3.751-4.285 6.311v6.66c4.419-2.527 7.429-7.245 7.429-12.689-.002-8.084-6.575-14.662-14.658-14.662zm-3.367 13.245c-.507.001-.993-.2-1.352-.558-.359-.358-.56-.844-.559-1.351 0-1.054.855-1.909 1.909-1.909s1.909.854 1.91 1.909c.001 1.054-.854 1.91-1.908 1.91v-.001zm7.312-.017c-.682 0-1.312-.365-1.652-.955-.341-.591-.34-1.318.001-1.909.341-.59.972-.954 1.654-.953 1.054.001 1.908.856 1.908 1.91-.001 1.054-.856 1.908-1.91 1.908z" id="Shape" fill="#FFC627" fill-rule="nonzero"/><path d="M23.608 33.8v14.372c.398-.547 1.033-.873 1.71-.877.771.003 1.48.423 1.854 1.098h.41c.374-.674 1.083-1.094 1.855-1.098.776 0 1.477.432 1.854 1.098h.41c.373-.674 1.081-1.094 1.851-1.098.733 0 1.402.384 1.79.988v-14.44c-1.532.854-3.436 1.439-5.814 1.471h-.175c-2.329-.002-4.213-.618-5.745-1.515z" fill="#fff"/><g fill="#111820" fill-rule="nonzero"><path d="M26.146 21.647c-.507-.001-.994.2-1.353.559-.359.359-.56.846-.558 1.353.001 1.054.856 1.908 1.91 1.907 1.054-.001 1.908-.855 1.909-1.909 0-1.054-.854-1.909-1.908-1.91zm7.312-.015c-.682 0-1.312.365-1.652.955-.341.591-.34 1.318.001 1.909.341.59.972.954 1.654.953 1.054-.001 1.908-.856 1.908-1.91-.001-1.054-.856-1.908-1.91-1.908zM29.514 9.806c-9.412 0-17.074 7.661-17.074 17.078 0 6.798 4.005 12.658 9.77 15.403v7.508h2.014v-.002c0-.505.353-.913.817-1.037.178-.079.381-.079.559 0 .463.124.813.532.813 1.037v.002h1.931v-.002c0-.505.349-.913.817-1.037.177-.078.378-.078.555 0 .468.124.817.532.817 1.037v.002h1.9v-.002c0-.52.373-.933.855-1.045l.107-.023.133-.026.004.002.023-.005c.1.001.199.024.289.067.449.137.779.538.779 1.03v.002h2.12v-7.467c5.811-2.728 9.846-8.616 9.846-15.444.001-9.415-7.661-17.078-17.073-17.078v.001zm5.83 38.478c-.39-.613-1.064-.985-1.79-.989-.77.004-1.478.424-1.851 1.098h-.41c-.375-.674-1.084-1.093-1.855-1.098-.771.004-1.48.424-1.854 1.098h-.41c-.374-.675-1.083-1.095-1.855-1.098-.684 0-1.315.337-1.71.877v-14.372c1.532.897 3.416 1.514 5.747 1.514h.175c2.379-.031 4.282-.617 5.814-1.47v14.441h-.001zm1.397-8.711v-6.665.002c3.291-2.56 4.272-6.249 4.286-6.306.078-.31.029-.638-.136-.912s-.431-.471-.742-.549c-.646-.162-1.302.228-1.467.874-.073.276-1.82 6.785-9.185 6.882h-.145c-6.897 0-9.01-6.64-9.101-6.938-.192-.639-.866-1.002-1.505-.81-.639.192-1.002.866-.81 1.505.015.057 1.14 3.636 4.271 6.173v6.717c-4.381-2.537-7.352-7.247-7.352-12.662 0-8.083 6.574-14.661 14.656-14.661 8.083 0 14.656 6.578 14.656 14.661.002 5.444-3.007 10.162-7.428 12.689z"/></g></g></g></svg>