<svg width="60" height="60" xmlns="http://www.w3.org/2000/svg" xmlns:xlink="http://www.w3.org/1999/xlink"><defs><path d="M30 60c16.569 0 30-13.431 30-30C60 13.431 46.569 0 30 0 13.431 0 0 13.431 0 30c0 16.569 13.431 30 30 30z" id="a"/></defs><g fill="none" fill-rule="evenodd"><mask id="b" fill="#fff"><use xlink:href="#a"/></mask><use fill="#007346" xlink:href="#a"/><g mask="url(#b)" fill="#FFF"><path d="M44.041 20.282a15.48 15.48 0 0 0-1.073-1.49l-19.02 11.297-9.225-5.479a17.45 17.45 0 0 0-.446 1.862l9.672 5.747L44.04 20.282z"/><path d="M46.551 27.038a17.458 17.458 0 0 0-1.611-5.163L23.949 34.344l-9.912-5.888c-.019.295-.031.592-.036.892a17.654 17.654 0 0 0 .272 3.302 17.099 17.099 0 0 0 1.956 5.452 16.718 16.718 0 0 0 4.65 5.255 16.265 16.265 0 0 0 4.127 2.2c.64.231 1.304.421 1.975.571.948.207 1.928.327 2.928.356h.912a16.093 16.093 0 0 0 8.086-2.471c1.9-1.2 3.527-2.783 4.798-4.626a17.188 17.188 0 0 0 2.88-7.462 17.699 17.699 0 0 0 .15-2.784 17.44 17.44 0 0 0-.184-2.103zM38.63 14.99a16.166 16.166 0 0 0-1.913-.99l-12.768 7.585-5.686-3.378c-.405.46-.786.944-1.14 1.447l6.826 4.057 14.68-8.72z"/><path d="M41.722 17.406a16.635 16.635 0 0 0-1.439-1.272L23.95 25.84l-7.796-4.633a17.109 17.109 0 0 0-.801 1.651l8.597 5.107 17.773-10.558z"/></g></g></svg>