<svg width="60" height="60" viewBox="0 0 60 60" xmlns="http://www.w3.org/2000/svg"><title>logo_name_ru-benetton</title><desc>Created with Sketch.</desc><g fill="none"><path fill="#009848" d="M0 0h60v60h-60z"/><path d="M8.453 25.076h-.594v2.424c0 .932-.525 1.218-1.185 1.218-.797 0-1.185-.417-1.185-1.218v-2.424h-.593v2.539c0 1.127.776 1.648 1.779 1.648 1.13 0 1.779-.632 1.779-1.648v-2.539h-.001zm4.33 0h-.557v3.199l-2.485-3.199h-.5v4.132h.558v-3.181l2.465 3.181h.52v-4.132h-.001zm.955 4.132h.594v-4.132h-.594v4.132zm4.123-4.132h-2.973v.512h1.214v3.62h.593v-3.62h1.165v-.512h.001zm2.901 0h-2.345v4.132h2.4v-.512h-1.806v-1.358h1.691v-.513h-1.691v-1.238h1.751v-.512zm1.389 3.62v-3.108h.703c1.128 0 1.67.724 1.67 1.554 0 .873-.589 1.554-1.67 1.554h-.703zm.787-3.62h-1.38v4.132h1.38c1.45 0 2.198-1.01 2.198-2.066 0-.975-.67-2.066-2.198-2.066zm13.562 0h-.593v4.132h2.303v-.512h-1.709v-3.62zm7.318 1.836v-1.334h.605c.566 0 .812.279.812.668 0 .346-.203.666-.812.666h-.605zm.671-1.836h-1.264v4.132h.593v-1.793h.739l1.127 1.793h.709c-.285-.394-1.238-1.942-1.238-1.942.098-.039.692-.245.692-1.032 0-.716-.521-1.158-1.358-1.158h-.001zm-15.233-.055c-1.316 0-2.267.921-2.267 2.182 0 .865.679 2.06 2.23 2.06.715 0 1.142-.15 1.184-.163v-.592c-.036.015-.479.21-1.13.21-.993 0-1.672-.643-1.672-1.571 0-.908.703-1.582 1.648-1.582.566 0 1.11.225 1.154.243v-.594c-.038-.013-.537-.194-1.147-.194zm3.694 3.698c-.419.002-.821-.164-1.117-.46-.296-.296-.462-.698-.46-1.117-.002-.419.164-.821.46-1.117.296-.296.698-.462 1.117-.46.419-.002.822.163 1.118.459.296.296.462.699.46 1.118.002.419-.164.821-.46 1.118-.296.296-.699.462-1.118.46zm0-3.698c-1.217 0-2.184.95-2.184 2.12 0 1.172.966 2.12 2.184 2.12 1.217 0 2.184-.948 2.184-2.12 0-1.171-.967-2.12-2.184-2.12zm7.417 3.698c-.419.002-.821-.164-1.117-.46-.296-.296-.461-.698-.459-1.117-.002-.419.163-.821.459-1.117.296-.296.698-.462 1.117-.46.419-.002.821.164 1.117.46.296.296.462.699.46 1.117.002.419-.164.821-.46 1.117-.296.296-.699.462-1.117.46zm0-3.698c-1.216 0-2.184.95-2.184 2.12 0 1.172.968 2.12 2.184 2.12 1.217 0 2.184-.948 2.184-2.12 0-1.171-.968-2.12-2.184-2.12zm7.682-.002c-.831 0-1.331.489-1.331 1.104 0 .553.311.866.752 1.078l.584.277c.23.11.643.313.643.676 0 .276-.282.574-.858.574-.566 0-.84-.236-.913-.291l-.273.517c.049.036.383.307 1.21.307.739 0 1.428-.342 1.428-1.145 0-.701-.636-1.003-1.014-1.18l-.452-.215c-.277-.132-.514-.31-.514-.619 0-.284.241-.548.739-.548.474 0 .756.178.814.215l.18-.503c-.022-.015-.377-.245-.996-.245zm-36.086 6.101h-2.207v4.135h.595v-1.922h1.613v-.512h-1.613v-1.188h1.613v-.512zm-5.064 3.645c-.419.002-.822-.163-1.118-.459-.297-.296-.462-.699-.461-1.118-.002-.419.164-.822.46-1.118.297-.296.699-.462 1.119-.46.419-.002.822.164 1.118.46.296.296.462.699.46 1.118.002.419-.164.822-.46 1.118-.296.296-.699.462-1.118.46v-.001zm0-3.698c-1.218 0-2.186.95-2.186 2.121 0 1.172.968 2.12 2.185 2.12 1.219 0 2.185-.949 2.185-2.12 0-1.171-.967-2.121-2.185-2.121h.001zm17.063.052h-.557v3.202l-2.486-3.202h-.5v4.135h.558v-3.183l2.468 3.183h.519v-4.135l-.001-.001zm18.123 0h-.558v3.202l-2.487-3.202h-.5v4.135h.558v-3.183l2.466 3.183h.521v-4.136zm-11.688 0h-2.974v.513h1.215v3.622h.594v-3.622h1.165v-.513zm3.328 0h-2.975v.513h1.215v3.622h.593v-3.622h1.166v-.512l.001-.001zm-14.052 0h-2.346v4.135h2.401v-.512h-1.808v-1.359h1.692v-.512h-1.691v-1.239h1.752v-.513zm7.389 0h-2.346v4.135h2.4v-.512h-1.806v-1.359h1.691v-.512h-1.691v-1.239h1.752v-.513zm8.773 3.646c-.419.002-.821-.164-1.118-.46-.296-.296-.462-.699-.46-1.118-.002-.419.164-.821.46-1.118.296-.296.699-.462 1.118-.46.419-.002.822.164 1.118.46.296.296.462.699.46 1.118.002.419-.164.822-.46 1.118-.296.296-.699.462-1.118.46zm0-3.699c-1.218 0-2.185.95-2.185 2.121 0 1.172.967 2.12 2.185 2.12 1.219 0 2.186-.949 2.186-2.12 0-1.171-.967-2.121-2.186-2.121zm-21.392 3.676v-1.329h.783c.603 0 .848.292.848.67 0 .308-.176.659-.848.659h-.783zm0-1.842v-1.268h.659c.466 0 .758.226.758.628 0 .424-.315.639-.758.639h-.66zm.756-1.781h-1.35v4.135h1.419c1.053 0 1.418-.595 1.418-1.104 0-.871-.701-1.034-.773-1.053v-.012c.05-.023.559-.208.559-.911 0-.558-.407-1.054-1.273-1.054zm27.814 3.319c-.226 0-.41.184-.41.41 0 .226.184.41.41.41.226 0 .41-.184.41-.41 0-.226-.184-.41-.41-.41z" fill="#fff" fill-rule="nonzero"/></g></svg>