<svg width="60" height="60" viewBox="0 0 60 60" xmlns="http://www.w3.org/2000/svg"><title>logo_name_aviasales</title><desc>Created with Sketch.</desc><g fill="none"><path d="M0 0h60v60h-60z" fill="#2096F3"/><path d="M39.6 36.028c0 4.624-3.738 8.372-8.351 8.372h-2.499c-4.612 0-8.35-3.748-8.35-8.372v-8.456c0-4.625 3.738-8.372 8.35-8.372h2.499c4.612 0 8.351 3.748 8.351 8.372v8.456zm6.986-13.228h1.414v-4.875c0-3.63-2.339-5.925-5.968-5.925h-24.063c-3.63 0-5.969 2.295-5.969 5.925v4.875h1.415c2.643 0 4.585 2.287 4.585 4.804v4.791c0 2.517-1.942 4.805-4.585 4.805h-1.415v4.875c0 3.63 2.339 5.925 5.969 5.925h24.063c3.63 0 5.968-2.295 5.968-5.925v-4.875h-1.414c-2.643 0-4.586-2.287-4.586-4.805v-4.791c0-2.517 1.942-4.804 4.586-4.804zm-10.586 9.595c0 2.517-2.628 4.805-5.273 4.805h-1.456c-2.644 0-5.272-2.287-5.272-4.805v-4.791c0-2.517 2.628-4.804 5.272-4.804h1.455c2.645 0 5.273 2.287 5.273 4.804v4.791zm-4.748-11.995h-2.654c-3.848 0-6.998 3.511-6.998 7.361v8.079c0 3.849 3.15 7.36 6.998 7.36h2.654c3.848 0 7.148-3.511 7.148-7.36v-8.079c0-3.849-3.3-7.361-7.148-7.361zm-.695 14.296h-.147c-2.009 0-3.894-1.161-3.894-3.228v-1.953s-.003-.715-.663-.715c-.657 0-.652.715-.652.715v1.952c0 2.784 2.477 4.532 5.21 4.532h.147s.643-.011.643-.638c0-.631-.643-.665-.643-.665z" fill="#fff" fill-rule="nonzero"/></g></svg>