<svg width="60" height="61" viewBox="0 0 60 61" xmlns="http://www.w3.org/2000/svg"><title>logo_name_lineage</title><desc>Created with Sketch.</desc><g fill="none"><path fill="#000" d="M0 0h60v61h-60z"/><path d="M33.085 47.77c0 4.525 3.908 6.23 3.908 6.23-2.318-2.59-2.045-6.262-2.045-6.262l-.046-35.082c-.045-4.164 2.181-6.623 2.181-6.623-4.18 2.721-3.998 6.623-3.998 6.623v35.114m-6.186-.032c0 4.524-3.908 6.23-3.908 6.23 2.317-2.591 2.044-6.263 2.044-6.263l.046-35.082c.046-4.163-2.181-6.623-2.181-6.623 4.18 2.721 3.999 6.623 3.999 6.623v35.115" fill="#fff" fill-rule="nonzero"/></g></svg>