<svg width="61" height="60" viewBox="0 0 61 60" xmlns="http://www.w3.org/2000/svg"><title>logo_name_motiv</title><desc>Created with Sketch.</desc><g fill="none"><path fill="#FA6600" d="M0 0h61v60h-61z"/><path d="M32.806 30.823l11.977.922.418 5.412-7.966-.367 4.071 8.064-6.213 2.842-3.746-7.871-4.054 5.722-4.88-2.818 6.773-10.162c.803-1.192 2.187-1.859 3.62-1.744m-5.262.97l-6.883 9.653-4.97-2.39 4.36-6.545-9.155-.647.65-6.69 8.82.823-2.977-6.326 4.952-2.695 5.504 10.874c.642 1.268.526 2.787-.301 3.943m1.556-5.403l-5.037-10.692 4.61-3.003 3.57 6.988 5.183-7.425 5.57 3.921-5.171 7.054 7.073.666-.12 5.55-12.354-.818c-1.433-.088-2.705-.947-3.323-2.242" fill="#fff" fill-rule="nonzero"/></g></svg>