<svg width="60" height="60" viewBox="0 0 60 60" xmlns="http://www.w3.org/2000/svg" xmlns:xlink="http://www.w3.org/1999/xlink"><title>logo_name_booking</title><desc>Created with Sketch.</desc><defs><path id="a" d="M.273 8.844h51.68v-8.769h-51.68z"/></defs><g fill="none"><path fill="#0D2984" d="M0 0h60v60h-60z"/><g transform="matrix(1 0 0 -1 4.024 34.718)"><mask id="b"><use xlink:href="#a"/></mask><g id="Group" mask="url(#b)"><path d="M20.54 7.884c0 .434.352.785.785.785.434 0 .785-.352.785-.785-.018-.42-.365-.752-.785-.752-.421 0-.767.331-.785.752" id="Path" fill="#fff"/><path d="M32.93 2.647c-.013.289.134.561.382.709.248.148.558.148.806 0s.395-.42.382-.709c-.022-.417-.367-.744-.785-.744-.418 0-.763.327-.785.744" fill="#499FDD"/><path d="M7.652 2.987c-.676 0-1.147.537-1.147 1.305 0 .767.47 1.304 1.147 1.304.68 0 1.155-.536 1.155-1.304 0-.78-.465-1.305-1.155-1.305zm0 3.755c-1.431 0-2.47-1.03-2.47-2.45 0-1.42 1.039-2.451 2.47-2.451 1.436 0 2.479 1.031 2.479 2.451 0 1.42-1.043 2.45-2.479 2.45zM19.019 4.169c-.05.096-.113.185-.188.264l-.043.045.045.045.198.246 1.262 1.877h-1.532l-.949-1.468c-.054-.079-.163-.118-.325-.118h-.216v2.776c0 .555-.347.631-.72.631h-.64l.002-6.553h1.357v1.966h.127c.155 0 .26-.018.309-.102l.749-1.414c.209-.383.418-.449.81-.449h1.041l-.776 1.282-.514.973m6.594 2.584c-.691 0-1.133-.307-1.379-.566l-.082-.083-.029.113c-.073.278-.317.431-.685.431h-.609l.004-4.734h1.349v2.181c0 .213.028.398.084.567.15.512.569.829 1.093.829.421 0 .585-.222.585-.796v-2.06c0-.491.227-.72.718-.72h.642l-.002 3.01c0 1.196-.583 1.828-1.688 1.828m-4.271-.107h-.64l.005-3.659v-1.072h.682l.024-.001.318.001h.316v.002h.002l.003 4.011c0 .484-.232.718-.71.718" id="Shape" fill="#fff" fill-rule="nonzero"/><path d="M12.951 2.987c-.677 0-1.148.537-1.148 1.305 0 .767.471 1.304 1.148 1.304.679 0 1.155-.536 1.155-1.304 0-.78-.465-1.305-1.155-1.305zm0 3.755c-1.433 0-2.471-1.03-2.471-2.45 0-1.42 1.039-2.451 2.471-2.451 1.435 0 2.479 1.031 2.479 2.451 0 1.42-1.044 2.45-2.479 2.45z" id="Shape" fill="#fff" fill-rule="nonzero"/></g></g><g fill-rule="nonzero"><path d="M45.889 31.731c-.676 0-1.147-.538-1.147-1.305 0-.767.472-1.304 1.147-1.304.679 0 1.155.537 1.155 1.304 0 .78-.465 1.305-1.155 1.305zm0-3.756c-1.432 0-2.47 1.031-2.47 2.451 0 1.42 1.039 2.45 2.47 2.45 1.435 0 2.479-1.03 2.479-2.45 0-1.42-1.045-2.451-2.479-2.451z" id="Shape" fill="#499FDD"/><path d="M34.169 31.523c-.738 0-1-.643-1-1.247 0-.265.068-1.132.93-1.132.428 0 .999.123.999 1.176 0 .994-.506 1.202-.929 1.202zm1.628-3.463c-.255 0-.453.102-.551.288l-.037.073-.062-.055c-.218-.188-.608-.412-1.242-.412-1.262 0-2.111.947-2.111 2.357 0 1.409.879 2.393 2.136 2.393.43 0 .769-.1 1.038-.304l.104-.078v.131c0 .632-.409.981-1.15.981-.36 0-.688-.088-.907-.167-.286-.086-.454-.015-.57.272l-.107.265-.151.387.094.05c.511.261 1.076.398 1.65.402 1.148 0 2.49-.589 2.49-2.243l.005-4.34h-.627z" id="Shape" fill="#fff"/></g><path d="M6.652 31.677l-1.099-.002v-1.313c0-.281.109-.427.349-.46h.749c.534 0 .88.337.88.883 0 .559-.338.891-.88.892zm-1.099-3.542v-.345c0-.303.128-.446.409-.465h.563c.481 0 .77.289.77.771 0 .367-.197.797-.753.797h-.989v-.759zm2.5 1.31l-.198-.111.173-.148c.202-.173.54-.563.54-1.236 0-1.03-.799-1.695-2.035-1.695h-1.571c-.368.013-.66.312-.664.68v5.846h2.263c1.375 0 2.262-.748 2.262-1.907 0-.624-.287-1.157-.769-1.429z" id="Shape" fill="#fff" fill-rule="nonzero"/><path d="M54.395 27.98c-.564.002-1.097.26-1.448.702l-.098.124-.077-.139c-.25-.455-.679-.687-1.278-.687-.627 0-1.047.35-1.243.558l-.127.139-.05-.182c-.071-.262-.304-.407-.659-.407h-.567l-.005 4.714h1.288v-2.081c0-.182.023-.363.068-.551.124-.502.462-1.044 1.03-.99.35.034.521.304.521.827v2.794h1.298v-2.081c0-.228.022-.398.073-.57.105-.48.457-.972 1.005-.972.398 0 .544.225.544.828v2.105c0 .476.212.69.688.69h.606l.002-3.01c0-1.202-.529-1.813-1.571-1.813m-11.721 3.185c-.004.005-.559.589-1.288.589-.664 0-1.337-.408-1.337-1.319 0-.786.521-1.336 1.267-1.336.242 0 .517.086.56.232l.007.025c.057.206.244.349.458.348l.706.001v-.616c0-.814-1.035-1.109-1.732-1.109-1.489 0-2.57 1.037-2.57 2.465s1.069 2.464 2.543 2.464c1.279 0 1.975-.841 1.981-.849l.037-.046-.559-.927-.074.078" fill="#499FDD" fill-rule="nonzero"/></g></svg>