<svg width="60" height="60" viewBox="0 0 60 60" xmlns="http://www.w3.org/2000/svg"><title>logo_name_hotellook</title><desc>Created with Sketch.</desc><g fill="none"><path d="M0 0h60v60h-60z" fill="#73C34A"/><g fill="#fff"><path d="M48.326 15.481c-.131 0-.197.132-.131.264l.066.264c0 .066.131.132.197.132h.066c.132 0 .198-.132.132-.264l-.066-.198c0-.132-.132-.198-.264-.198m.33 3.364c0 .198 0 .396.066.594 0 .132.132.198.198.198.132 0 .198-.132.198-.198 0-.198 0-.396-.066-.594 0-.132-.132-.198-.198-.198-.132 0-.198.066-.198.198m-4.551 22.558h.066c.066 0 .198-.066.198-.132l.198-.528c.066-.131 0-.263-.132-.263-.132-.066-.264 0-.264.132l-.132.527c-.066.066 0 .198.066.264m1.187-3.298h.066c.066 0 .198-.066.198-.132l.198-.528c.066-.132 0-.198-.132-.264-.132-.065-.264 0-.264.132l-.198.528c0 .132 0 .264.132.264m.594-2.441l-.198.527c-.066.132 0 .198.132.264h.066c.066 0 .197-.066.197-.132.055-.18.121-.356.198-.527.066-.132 0-.198-.132-.264-.132 0-.197.066-.263.132m2.573-18.534l.065.593c0 .132.132.198.198.198.132 0 .198-.132.198-.264l-.066-.593c0-.132-.132-.198-.264-.198-.066.066-.132.132-.132.264m-5.21 26.515c-.132-.066-.264 0-.264.132l-.198.527c-.066.132 0 .264.132.264h.066c.066 0 .132-.066.198-.132l.198-.527c.066-.066 0-.198-.132-.264m.66-1.583c-.133-.067-.265 0-.265.131l-.197.528c-.066.132 0 .198.132.263h.065c.066 0 .198-.065.198-.131l.198-.528c0-.132-.066-.198-.132-.264m4.881-18.27c-.132 0-.198.066-.264.198l-.066.593c0 .132.066.198.198.264.132 0 .198-.066.198-.198l.066-.593c.066-.132 0-.264-.132-.264m-2.11 10.091c-.132 0-.264 0-.264.132l-.198.528c-.066.132 0 .198.132.264h.066c.066 0 .198-.066.198-.132l.198-.528c.066-.132 0-.198-.132-.264m1.912-8.376c-.132 0-.198.065-.264.197l-.065.594c0 .132.065.198.197.264h.066c.132 0 .198-.066.198-.198l.066-.594c0-.132-.066-.263-.198-.263m-.264 1.715c-.131 0-.197.066-.263.198l-.132.593c0 .132.066.198.198.264h.066c.131 0 .197-.066.197-.198l.132-.593c0-.132-.132-.264-.198-.264m.594-5.145c-.132 0-.198.066-.198.198 0 .198 0 .396-.066.594 0 .132.066.198.198.198s.198-.066.198-.198c0-.198 0-.396.066-.594 0-.132-.066-.198-.198-.198m-1.781 10.159c-.131 0-.197.066-.263.132l-.132.527c0 .132.066.198.132.264h.066c.066 0 .197-.066.197-.132l.132-.528c.066-.131 0-.263-.132-.263m1.847-11.872c-.132 0-.198.066-.198.198v.593c0 .132.066.198.198.198s.198-.066.198-.198v-.593c0-.132-.132-.198-.198-.198m-1.385 10.223c-.132 0-.198.066-.264.132l-.132.528c0 .131.066.197.132.263h.066c.066 0 .198-.066.198-.132l.132-.527c0-.132-.066-.264-.132-.264m.396-1.715c-.132 0-.198.066-.264.132l-.132.527c0 .132.066.198.132.264h.066c.066 0 .198-.066.198-.132l.132-.594c0-.065-.066-.131-.132-.197m-11.41-20.579c.197 0 .395 0 .593-.066.132 0 .198-.132.198-.197 0-.132-.132-.198-.198-.198-.198 0-.396 0-.593.066-.132 0-.198.132-.198.197 0 .066.132.198.198.198m-1.715.132l.594-.066c.131 0 .197-.132.197-.264 0-.131-.132-.197-.263-.197l-.594.066c-.132 0-.198.131-.198.263.066.132.132.198.264.198m5.211-.066l.593.066h.066c.132 0 .198-.066.198-.198s-.066-.197-.198-.263c-.198-.066-.396-.066-.594-.066-.131 0-.197.066-.263.197 0 .132.066.198.198.264m3.232.923l.527.264h.132c.066 0 .132-.066.198-.132.066-.132 0-.197-.066-.263l-.527-.264c-.132-.066-.264 0-.264.066-.132.132-.066.264 0 .33m-4.947-1.056h.594c.131 0 .197-.066.197-.197 0-.132-.066-.198-.197-.198h-.594c-.132 0-.198.066-.198.198-.066.065.066.197.198.197m3.364.462c.198.066.396.132.528.198h.066c.066 0 .197-.066.197-.132.066-.132 0-.198-.131-.264l-.594-.198c-.132-.066-.198 0-.264.132 0 .132.066.198.198.264m-8.574.066l.593-.132c.132 0 .198-.132.198-.264s-.132-.198-.264-.198l-.593.132c-.132 0-.198.132-.132.264 0 .132.066.198.198.198m-1.715.396c.264-.066.396-.132.593-.132.132 0 .198-.132.132-.264s-.066-.198-.197-.132l-.594.132c-.132 0-.198.132-.132.264 0 .066.132.132.198.132m-1.649.461c.198-.066.396-.132.594-.132.132 0 .198-.132.132-.263-.066-.132-.132-.198-.264-.132-.18.055-.356.121-.528.197-.131.066-.197.132-.131.264 0 0 .066.066.197.066m15.17.726l.132.066c.066 0 .132 0 .132-.066.066-.066.066-.198 0-.33l-.198-.198c-.066-.066-.198-.066-.33.066-.065.066 0 .198.067.264l.197.198m-14.115 19.258c.396.593.462 1.319.198 1.913 1.253-.593 2.375-.989 3.166-.989.395 0 .791.066 1.055.264.395.264 1.45 1.451.395 6.397-.197.924.396 1.781 1.32 1.979l.329.066c.791 0 1.517-.528 1.649-1.32 1.055-5.012.461-8.31-1.781-9.893-.857-.594-1.846-.858-2.968-.858-1.451 0-3.101.462-4.881 1.385.66.198 1.187.527 1.517 1.055M29.858 32.234c.792-.528 1.055-1.517.528-2.308-.33-.528-.857-.792-1.451-.792-.33 0-.593.066-.923.264l-.99.66-1.12 5.672c1.121-1.32 2.506-2.573 3.957-3.496m-3.43-10.223h.33c.791 0 1.517-.528 1.649-1.385l1.253-6.266c-.395.33-.857.462-1.385.462-.132 0-.264 0-.462-.066-.66-.132-1.187-.528-1.517-1.121l-1.253 6.398c-.136.922.471 1.791 1.384 1.979m11.279 26.778c-.264.066-.462.132-.594.132 0-.33-.132-1.187.264-3.165-.396.329-.857.461-1.385.461-.132 0-.33 0-.462-.066-.659-.132-1.187-.528-1.451-1.121-.594 3.166-.528 5.54 1.121 6.727.527.396 1.187.527 1.846.527.857 0 1.781-.263 2.704-.725-1.121-.462-1.913-1.517-2.044-2.77m-17.743-3.298c-.337 1.604-.667 3.209-.99 4.815-.197.923.396 1.781 1.32 1.979l.33.066c.791 0 1.517-.527 1.649-1.319 0 0 .461-2.374.989-4.881-.33.132-.66.132-1.055.132-.857 0-1.649-.33-2.242-.792" id="Shape" fill-rule="nonzero"/><path d="M23.988 13.172c1.121-.593 2.111-.989 2.704-1.121 0 .066 0 .132-.066.198-.198.923.396 1.78 1.319 1.979h.33c.791 0 1.517-.527 1.649-1.385.462-2.243-.395-3.298-1.187-3.759-.527-.33-1.121-.462-1.78-.462-1.451 0-3.232.725-4.815 1.582 1.055.66 1.78 1.715 1.846 2.969zm-5.21 16.82c-.198.066-.396-.066-.396-.264-.066-.198.066-.396.264-.396.198-.066.396.066.396.264s-.132.33-.264.396zm.593 3.165l.396-.395-.33-1.979c.264-.198.396-.594.33-.99-.132-.527-.66-.922-1.187-.857-.527.131-.923.659-.857 1.187.066.395.33.659.66.791l.065.396.396.263-.198.33.264.198-.198.264.264.197-.198.264.593.33v-.001zm28.032-19.523c.132-.132.396-.066.462.132.132.131.066.33-.066.395-.132.132-.396.066-.462-.132-.132-.132-.066-.33.066-.395zm-.857.527c.33.462.923.66 1.451.33.461-.33.66-.923.33-1.385-.198-.33-.528-.527-.924-.461l-.198-.33-.461-.198.066-.33-.33-.066.066-.33-.33-.065.066-.33-.66-.066-.197.528 1.055 1.715c-.132.264-.132.66.066.99v-.001z" id="Shape" fill-rule="nonzero"/><path d="M35.201 39.753l-.858 3.892c-.197.923.396 1.78 1.32 1.978l.395.066c.791 0 1.517-.527 1.649-1.319l1.055-4.946c-.396.263-.858.461-1.32.461-.131 0-.329 0-.461-.066-.593-.132-1.055-.461-1.385-.989-.066-.066-.066-.132-.066-.198l-.131.594c-3.76.66-7.651 1.714-10.224 2.44-.461-1.121-1.516-1.913-2.836-1.913-1.319 0-2.374.791-2.836 1.913-3.364-1.187-8.574-3.76-9.893-8.575-1.32-4.815 1.648-10.751 8.838-17.61.198.197.396.329.66.461-.792 2.441-1.517 6.397-.858 12.203 0 .131.132.197.198.197.132 0 .198-.132.198-.264-.66-5.672.066-9.563.791-11.938.33.131.66.131.99.131 1.649 0 3.034-1.319 3.034-2.968s-1.319-2.968-3.035-2.968c-1.649 0-3.034 1.319-3.034 2.968 0 .725.264 1.385.66 1.847-7.255 6.992-10.29 13.06-8.97 18.007 1.319 4.947 6.728 7.651 10.157 8.838-.065.198-.065.396-.065.66 0 1.648 1.319 2.968 3.034 2.968 1.649 0 3.034-1.319 3.034-2.968 0-.198 0-.462-.066-.66 2.507-.593 6.332-1.583 10.026-2.242"/><path d="M46.414 40.149c-.264-.396-.66-.725-1.252-.99v-.065c.065-.132 0-.198-.133-.264-.132-.066-.263 0-.263.132v.066c-1.451-.462-3.563-.462-5.936-.264l-.066.396c2.375-.264 4.485-.264 5.87.198v.131c-.066.132 0 .198.132.264h.065c.066 0 .198-.066.198-.132v-.066c.462.198.792.462.99.792.659 1.121-.264 3.166-2.705 5.936-.213-.212-.458-.39-.726-.528l.132-.264c.066-.132 0-.263-.132-.263-.131-.066-.263 0-.263.131l-.132.264c-.33-.132-.594-.132-.99-.132-1.649 0-3.034 1.32-3.034 2.968s1.32 2.968 3.034 2.968c1.648 0 3.034-1.319 3.034-2.968 0-.726-.264-1.32-.66-1.847 2.705-2.968 3.628-5.078 2.837-6.463zm-25.526-.66l.396-.131c.33-.066.66-.132.989-.132.857 0 1.649.33 2.242.791l3.628-17.94c-.396.33-.857.461-1.385.461-.132 0-.264 0-.462-.066-.659-.132-1.187-.527-1.517-1.121l-3.563 17.809c-.592-1.847-1.12-3.628-1.516-5.409 0-.131-.132-.197-.264-.131-.132 0-.198.131-.132.263.396 1.903.925 3.777 1.583 5.606z" fill-rule="nonzero"/></g></g></svg>